<svg xmlns="http://www.w3.org/2000/svg" width="800" height="450" viewBox="0 0 800 450">
  <defs>
    <linearGradient id="bg" x1="0%" y1="0%" x2="100%" y2="100%">
      <stop offset="0%" style="stop-color:#0d47a1;stop-opacity:1" />
      <stop offset="100%" style="stop-color:#1976d2;stop-opacity:1" />
    </linearGradient>
  </defs>
  <rect width="800" height="450" fill="url(#bg)"/>
  <rect x="100" y="220" width="36" height="90" rx="4" fill="#64b5f6" opacity="0.85"/>
  <rect x="155" y="185" width="36" height="125" rx="4" fill="#42a5f5" opacity="0.85"/>
  <rect x="210" y="150" width="36" height="160" rx="4" fill="#2196f3" opacity="0.9"/>
  <rect x="265" y="170" width="36" height="140" rx="4" fill="#42a5f5" opacity="0.85"/>
  <rect x="320" y="130" width="36" height="180" rx="4" fill="#1e88e5" opacity="0.9"/>
  <circle cx="590" cy="170" r="65" fill="none" stroke="#90caf9" stroke-width="2.5" opacity="0.5"/>
  <circle cx="590" cy="170" r="42" fill="none" stroke="#64b5f6" stroke-width="2" opacity="0.45"/>
  <path d="M570 150 l20 -15 l20 15 l-8 25 l-24 0 Z" fill="#42a5f5" opacity="0.8"/>
  <circle cx="590" cy="185" r="10" fill="#bbdefb"/>
  <rect x="578" y="195" width="24" height="30" rx="3" fill="#42a5f5" opacity="0.7"/>
  <text x="400" y="360" font-family="Arial, sans-serif" font-size="26" font-weight="bold" fill="#ffffff" text-anchor="middle">Q3 Innovations</text>
  <text x="400" y="392" font-family="Arial, sans-serif" font-size="16" fill="#bbdefb" text-anchor="middle">Team Achievements</text>
</svg>
