<svg width="152" height="140" viewBox="0 0 152 140" fill="none" xmlns="http://www.w3.org/2000/svg">
    <path
        d="M76.4993 83.5568C75.9266 83.5611 75.3785 83.7897 74.9725 84.1935C74.5664 84.5973 74.3348 85.1442 74.3273 85.7168V90.6072C74.3243 90.8919 74.3779 91.1743 74.485 91.4381C74.5921 91.702 74.7506 91.9419 74.9511 92.1439C75.1517 92.346 75.3905 92.5062 75.6535 92.6153C75.9165 92.7243 76.1985 92.78 76.4833 92.7792C79.9585 92.7792 83.4329 92.8272 86.9081 92.6344C87.4393 91.524 90.3833 86.0224 96.8825 86.0224C101.822 86.0224 101.002 90.1168 100.181 92.4168H109.866C110.425 92.4173 110.962 92.2007 111.364 91.8126C111.766 91.4245 112.002 90.8954 112.022 90.3368C112.058 88.8728 112.172 87.4096 112.342 85.9448C112.377 85.6424 112.349 85.3358 112.257 85.0453C112.166 84.7548 112.015 84.4868 111.813 84.259C111.611 84.0312 111.363 83.8486 111.085 83.7233C110.808 83.598 110.507 83.5328 110.202 83.532C98.9601 83.484 87.7281 83.4328 76.4993 83.5568Z"
        fill="#272833" />
    <path
        d="M95.9493 109.314C95.4285 111.597 93.8765 113.578 92.5549 115.459C87.0853 123.242 82.8013 127.619 72.4285 132.642C69.2332 134.102 65.9104 135.265 62.5021 136.116C58.9115 136.958 55.2476 137.448 51.5621 137.58C40.3173 137.717 29.1893 134.582 20.2389 127.606C14.5693 123.186 11.1333 117.366 8.31887 111.019C7.11887 108.314 6.50047 106.804 6.30767 106.707C6.14767 106.611 6.38767 107.956 7.38527 110.842C9.91167 118.176 13.3597 124.096 19.2573 129.04C27.7356 136.049 38.4232 139.827 49.4229 139.704C53.3323 139.708 57.2311 139.298 61.0541 138.48C70.1605 136.919 77.9661 132.306 85.0253 126.574C89.3837 123.036 94.2181 114.861 95.1933 112.98C95.7502 111.98 96.1105 110.882 96.2549 109.746C96.3315 109.316 96.2982 108.873 96.1581 108.459C96.1261 108.4 96.0925 108.686 95.9493 109.314Z"
        fill="#272833" />
    <path
        d="M78.5264 37.6416C78.8276 37.8332 79.1706 37.9494 79.5263 37.9802C79.882 38.011 80.2399 37.9555 80.5696 37.8184C81.4062 37.4492 82.0886 36.8007 82.5 35.984C83.2582 34.4866 83.8983 32.9323 84.4144 31.3352C86.0336 26.4144 85.1512 25.4952 82.7256 30.4016C80.6216 34.6592 80.8608 36.7912 78.864 36.9336C78.5256 36.9576 78.2848 36.8856 78.172 36.9656C78.092 37.0144 78.088 37.3088 78.5264 37.6416Z"
        fill="#272833" />
    <path
        d="M74.7773 38.14C74.2661 37.3736 72.4093 36.5592 71.1253 35.34C70.6456 34.8605 70.2045 34.344 69.8061 33.7952C69.5117 33.4296 69.2229 33.3152 69.0061 33.812C68.9009 34.2385 68.8867 34.6823 68.9643 35.1147C69.0419 35.547 69.2096 35.9582 69.4565 36.3216C71.1397 39.12 75.6701 39.4792 74.7773 38.14Z"
        fill="#272833" />
    <path
        d="M77.0945 23.9663C75.1161 23.3207 74.9385 24.2399 74.9385 24.2399C74.9385 24.2399 76.8809 25.9663 78.7841 27.5543C79.5385 28.1839 79.0577 24.6079 77.0945 23.9663Z"
        fill="#272833" />
    <path
        d="M75.3888 19.7032C75.2185 19.8147 75.086 19.9752 75.0089 20.1636C74.9318 20.3519 74.9138 20.5593 74.9572 20.7582C75.0005 20.957 75.1033 21.138 75.2518 21.2772C75.4003 21.4164 75.5876 21.5072 75.7888 21.5376C81.0928 20.2784 80.6448 25.6392 81.1144 24.1112C82.5888 19.3152 76.4384 18.904 75.3888 19.7032Z"
        fill="#272833" />
    <path
        d="M90.4959 112.853C91.2505 112.164 91.8912 111.361 92.3943 110.472C93.2206 109.232 93.8855 107.891 94.3727 106.482C94.5839 105.945 94.6801 105.37 94.6552 104.794C94.6302 104.217 94.4847 103.653 94.2279 103.136C93.8343 102.611 93.5655 102.721 93.4399 103.216C93.2578 104.045 92.9936 104.853 92.6511 105.63C92.1775 106.688 91.4031 108.03 90.8175 109.378C89.6559 112.054 89.4943 113.604 90.4959 112.853Z"
        fill="#272833" />
    <path
        d="M96.9952 87.82C95.9733 87.4706 94.8561 87.5278 93.8752 87.98C90.564 89.4504 88.208 92.3864 86.5712 95.5256C84.8912 98.752 83.6048 103.01 85.5576 99.8856C87.848 96.2208 90.1072 92.1848 94.1328 90.12C94.6014 89.858 95.1138 89.6835 95.6448 89.6048C95.2744 90.5224 94.9248 91.44 94.5504 92.356C92.2216 98.0912 85.3272 110.406 89.0488 105.806C92.3624 101.513 95.0641 96.7805 97.0768 91.7448C97.5712 90.5696 98.64 88.572 96.9952 87.82Z"
        fill="#272833" />
    <path
        d="M35.8126 103.36C41.2734 112.198 54.5054 114.21 63.9342 113.158C66.4142 112.882 69.355 112.562 71.415 111.066C71.9633 110.675 72.411 110.159 72.7214 109.561C73.0317 108.963 73.196 108.3 73.2006 107.626C73.2006 105.128 71.483 102.93 73.2806 99.904C74.8654 97.2368 77.4206 96.7424 77.4799 96.5256C77.5118 96.4608 77.3343 96.4048 76.9199 96.4288C74.5639 96.5648 71.7414 98.8552 71.0958 101.85C70.3758 105.198 73.7831 108.966 68.5863 110.377C60.8378 112.292 52.6814 111.701 45.2902 108.688C40.0102 106.5 35.599 102.398 34.5278 96.608C34.3822 95.82 34.2942 95.1912 34.2382 94.7576C34.0166 93.0464 33.6782 94.6816 33.707 96.3992C33.7303 97.4799 33.8815 98.554 34.1574 99.5992C27.9334 99.8096 15.387 101.006 2.63745 102.109C2.04225 102.16 1.84545 94.8848 1.86465 94.2096C2.23745 81.076 9.29185 66.3696 20.6558 58.4296C27.9622 53.324 35.7142 51.124 43.9998 50.3832C46.043 53.1032 51.8398 59.7656 59.8782 60.4064C66.4382 60.9288 72.1775 57.0152 76.6103 52.1848H76.6902C81.2708 52.7405 85.7314 54.0334 89.899 56.0136C91.1854 56.6264 92.2007 57.1688 92.9071 57.5264C94.3262 58.2464 94.6671 58.1456 93.4863 56.9664C89.8135 53.2936 81.7551 49.864 74.1646 50.0488C72.6927 50.0713 71.2245 50.205 69.7727 50.4488C70.159 48.744 70.5542 47.536 70.6574 46.9416C70.9222 45.4216 69.1526 47.9264 68.1638 50.8032L67.6974 52.1544C70.2074 51.9533 72.728 51.9209 75.2422 52.0576C70.271 57.2384 65.1398 59.7096 59.975 59.3136C52.9454 58.7744 47.571 53.104 45.303 50.2736C49.8694 49.8736 50.5191 50.3728 51.6094 49.4856C53.0727 48.2944 53.683 46.3656 54.3598 44.6752C58.9446 33.2368 60.7734 28.6352 63.6126 24.4C63.5326 24.6096 61.4526 23.84 61.2639 23.76C60.2015 23.3896 59.1838 22.7144 59.1238 21.4592C59.1099 20.8108 59.3152 20.1767 59.7065 19.6596C60.0978 19.1424 60.6521 18.7725 61.2798 18.6096C62.099 18.3328 64.5454 18.0496 65.0926 18.9792C65.4078 19.6096 65.0126 23.4752 67.8279 23.1784C70.8367 22.8584 70.9326 13.3488 74.2631 12.8496C77.5935 12.3504 81.2294 22.2424 88.227 24.3696C88.5972 24.4826 88.9673 24.5792 89.3374 24.6592C89.3397 24.6868 89.3342 24.7145 89.3214 24.7392C89.1066 26.3448 88.7677 27.9314 88.3079 29.4848C86.0207 37.1384 80.6638 41.716 75.115 42.6928C69.791 43.6304 64.1342 41.4928 61.6014 36.6128C61.071 35.5912 60.8934 34.9232 60.7326 34.8912C60.439 34.7656 60.3526 38.1936 63.5639 41.3104C65.4967 43.1523 67.9533 44.3494 70.5951 44.7368C82.0191 46.3896 90.1095 36.6056 90.1095 24.788C96.5095 25.8656 102.682 22.5344 101.709 15.36C100.641 7.47598 96.6118 3.12557 85.0423 0.735974C72.2215 -1.91203 66.5598 8.07197 66.5598 8.07197C66.5598 8.07197 61.9846 5.75997 60.1087 9.55197C58.2327 13.344 51.2166 27.8616 51.9806 30.9968C52.5222 33.2184 55.4207 35.244 56.8391 34.6488C56.4198 34.8376 55.2766 39.2288 51.659 46.0392C51.3686 46.5864 50.9334 47.8872 50.3878 48.1952C49.6142 48.632 36.9598 47.088 23.6798 54.212C5.61825 63.9056 -3.67215 87.6568 1.41585 103.94C3.13105 103.733 28.3238 101.014 34.2998 99.9504C34.6436 101.152 35.1528 102.299 35.8126 103.36ZM86.4415 3.87197C91.5487 2.99197 98.0279 7.49517 99.0383 13.7496C99.3767 15.8416 99.2958 20.624 96.5446 21.2472C96.3046 21.3008 96.2526 21.1744 96.3679 21.0072C97.0459 19.9658 97.4242 18.758 97.4614 17.516C97.7439 11.8832 94.1126 6.48317 86.2806 4.66157C85.091 4.38397 85.1535 4.09437 86.4415 3.87277V3.87197Z"
        fill="#272833" />
    <path
        d="M128.978 117.695C128.978 117.695 128.861 107.302 128.785 103.023C128.479 85.8888 127.772 77.588 127.289 84.4576C126.615 94.0416 126.932 114.154 126.903 118.066C126.9 118.213 126.865 118.358 126.802 118.492C126.738 118.625 126.648 118.744 126.535 118.839C126.423 118.935 126.291 119.006 126.149 119.047C126.008 119.089 125.859 119.1 125.713 119.079C123.525 119.127 121.353 119.159 119.213 119.208C90.6565 119.852 92.0925 121.084 118.521 121.138C119.177 121.138 125.795 121.138 125.407 121.138C125.975 121.193 126.548 121.102 127.072 120.874C127.595 120.646 128.052 120.289 128.399 119.835C128.835 119.211 129.04 118.454 128.978 117.695Z"
        fill="#272833" />
    <path
        d="M76.8853 63.5591L58.3677 63.7991C57.5188 63.7142 56.6617 63.8186 55.8581 64.1047C55.3691 64.3275 54.9495 64.6784 54.6436 65.1202C54.3377 65.562 54.157 66.0782 54.1205 66.6143C54.0765 67.7151 54.1653 75.4647 54.1845 77.3447C54.5845 115.585 55.8261 111.921 56.1157 78.2783C56.1157 78.1471 56.1813 66.6303 56.2605 66.5183C56.3245 66.3394 56.4423 66.1846 56.5976 66.0752C56.753 65.9658 56.9384 65.9071 57.1285 65.9071C57.2149 65.9023 59.0597 65.8735 58.9789 65.8751C64.6589 65.7463 70.4341 65.6351 76.0485 65.4887C112.516 64.5599 112.452 63.1999 76.8853 63.5591Z"
        fill="#272833" />
    <path
        d="M73.7477 80.484C73.2219 80.5672 72.7338 80.8086 72.3485 81.176C71.2205 82.3272 71.7197 84.3248 71.9941 86.4688C72.2805 88.7088 72.5805 88.9488 72.7989 86.6616C72.8789 85.7928 72.5341 82.6888 73.4901 82.1896C73.7837 82.036 73.7509 82.0984 79.2181 82.1408C95.5501 82.2672 116.281 81.1392 108.611 80.3712C100.531 79.5624 92.2341 79.964 84.1245 80.0976C81.2373 80.1456 77.1197 79.84 73.7477 80.484Z"
        fill="#272833" />
    <path
        d="M148.525 41.2615C140.994 29.1863 122.643 26.1255 111.78 36.0967C102.049 45.0287 101.547 61.4567 111.41 70.9919C117.764 77.1383 127.125 78.7519 135.445 76.1399C139.192 74.9623 143.205 72.8759 145.887 69.9623C152.4 62.8967 154.372 50.6399 148.525 41.2615ZM123.267 39.0735C125.283 37.8549 127.659 37.3715 129.992 37.7055C132.99 38.162 135.747 39.618 137.814 41.8373C139.882 44.0567 141.139 46.9093 141.382 49.9327C141.406 51.5255 141.042 51.3815 140.465 50.1095C139.107 46.8674 136.838 44.0886 133.933 42.1095C130.653 40.0295 127.145 39.8767 123.38 40.1471C122.173 40.2399 122.16 39.8279 123.267 39.0735ZM111.233 58.6039C109.994 59.8431 110.542 57.3495 110.686 56.8023C111.134 55.1588 111.704 53.5509 112.391 51.9919C112.502 51.7335 113.437 48.9671 113.743 48.9671C114.204 49.3873 114.624 49.8508 114.997 50.3511C117.427 53.0375 119.55 55.9335 120.081 57.3975C120.74 59.2151 118.774 58.1895 115.673 55.0967C115.222 54.6471 114.756 54.1639 114.306 53.6815C113.494 55.4457 112.462 57.0997 111.233 58.6039ZM133.68 68.4663C131.896 69.918 129.659 70.698 127.36 70.6703C124.013 70.6084 120.827 69.2261 118.495 66.8247C116.634 64.9527 115.364 62.5754 114.843 59.9879C114.624 58.4103 114.985 58.5191 115.712 59.6823C116.844 61.6649 118.308 63.4386 120.04 64.9263C122.225 66.7266 124.908 67.8153 127.729 68.0463C129.665 68.1125 131.6 67.8956 133.473 67.4023C134.59 67.1815 134.657 67.5815 133.68 68.4663ZM142.448 58.6847C142.216 59.2556 141.925 59.8002 141.579 60.3095C141.404 60.4103 140.42 58.8295 140.42 58.8295C138.184 55.9655 136.302 52.9247 135.868 51.4127C135.336 49.5623 137.236 50.7359 140.099 54.0351C140.517 54.5151 140.936 55.0327 141.354 55.5471C142.308 53.8586 143.463 52.292 144.794 50.8815C145.834 49.9743 145.623 51.3663 145.434 52.0399C144.807 54.3319 143.467 56.4599 142.444 58.6847H142.448Z"
        fill="#0B7DFF" />
</svg>