<svg width="160" height="160" viewBox="0 0 160 160" fill="none" xmlns="http://www.w3.org/2000/svg">
    <path
        d="M103.315 80.32C105.137 78.32 106.748 78.8944 107.263 80.5192C107.575 81.588 107.514 82.7314 107.089 83.7608C107.06 83.841 107 83.9062 106.922 83.9422C106.845 83.9781 106.756 83.9818 106.676 83.9524C106.596 83.923 106.531 83.863 106.495 83.7855C106.459 83.708 106.455 83.6194 106.485 83.5392C106.695 83.024 106.792 82.4693 106.768 81.9131C106.744 81.357 106.6 80.8127 106.345 80.3176C105.877 79.6136 105.045 79.652 103.965 80.8952C102.357 82.7464 101.993 85.5352 101.85 87.96C101.874 88.5928 90.3566 105.946 89.4958 114.978C88.723 123.074 93.6558 127.193 101.041 125.755C101.116 125.743 101.192 125.759 101.255 125.802C101.317 125.845 101.36 125.91 101.375 125.984C101.39 126.058 101.376 126.135 101.335 126.199C101.295 126.263 101.231 126.308 101.157 126.326C92.4694 128.191 87.7894 123.014 88.5342 114.886C89.3462 106.03 100.34 88.9232 100.873 87.8624C101.061 87.5696 100.745 83.1384 103.315 80.32Z"
        fill="#272833" />
    <path
        d="M154.093 126.74C153.79 130.461 153.773 131.026 154.173 131.086C154.535 131.139 154.645 130.629 154.772 130.077C154.938 129.357 155.348 125.47 154.594 125.457C154.198 125.452 154.086 126.56 154.093 126.74Z"
        fill="#272833" />
    <path
        d="M119.617 90.2593C120.917 92.1529 124.053 91.2033 125.187 89.3425C125.224 89.3145 125.254 89.2788 125.275 89.2381C125.297 89.1973 125.31 89.1524 125.312 89.1063C125.315 89.0602 125.307 89.0142 125.291 88.9712C125.274 88.9283 125.248 88.8895 125.215 88.8575C125.181 88.8255 125.142 88.8011 125.098 88.786C125.054 88.7708 125.008 88.7652 124.962 88.7697C124.916 88.7741 124.872 88.7884 124.832 88.8116C124.792 88.8348 124.758 88.8663 124.731 88.9041C124.517 89.0729 124.271 89.2033 124.026 89.3609C122.806 90.1929 121.758 90.6713 120.377 90.0009C120.249 89.9546 120.126 89.8976 120.009 89.8305C119.733 89.5673 119.317 90.0089 119.617 90.2593Z"
        fill="#272833" />
    <path
        d="M123.421 82.8629C123.515 82.8766 123.614 82.8505 123.712 82.7862C123.81 82.7219 123.906 82.6207 123.993 82.4883C124.08 82.3559 124.157 82.1949 124.22 82.0145C124.283 81.8342 124.331 81.6379 124.36 81.4371C124.389 81.2362 124.399 81.0346 124.39 80.8438C124.38 80.653 124.352 80.4767 124.306 80.325C124.26 80.1733 124.197 80.0492 124.121 79.9598C124.045 79.8703 123.958 79.8172 123.864 79.8036C123.769 79.79 123.67 79.816 123.572 79.8803C123.474 79.9446 123.379 80.0458 123.292 80.1782C123.204 80.3106 123.127 80.4716 123.064 80.652C123.001 80.8324 122.954 81.0286 122.925 81.2295C122.896 81.4304 122.886 81.632 122.895 81.8228C122.904 82.0136 122.932 82.1898 122.979 82.3415C123.025 82.4932 123.087 82.6173 123.163 82.7068C123.239 82.7963 123.327 82.8493 123.421 82.8629Z"
        fill="#272833" />
    <path
        d="M116.352 82.8107C116.557 82.8403 116.777 82.7076 116.963 82.4418C117.15 82.1759 117.288 81.7986 117.347 81.3929C117.405 80.9872 117.38 80.5863 117.276 80.2785C117.173 79.9706 116.999 79.781 116.794 79.7513C116.589 79.7216 116.369 79.8543 116.183 80.1202C115.996 80.3861 115.858 80.7634 115.799 81.1691C115.741 81.5748 115.766 81.9756 115.87 82.2835C115.973 82.5913 116.147 82.781 116.352 82.8107Z"
        fill="#272833" />
    <path
        d="M136.829 71.1688C136.807 70.1706 136.533 69.1942 136.034 68.3299C135.534 67.4656 134.824 66.7413 133.97 66.224C131.628 64.872 128.137 65.0032 126.869 64.864C126.09 64.8395 125.344 64.5409 124.764 64.0208C123.954 63.2632 123.394 62.0248 122.392 61.5488C121.045 60.9016 119.602 61.9432 119.87 64.148C119.824 64.1158 119.78 64.0797 119.74 64.04C118.877 63.364 117.677 62.748 116.893 63.5112C116.66 63.8009 116.499 64.1418 116.423 64.5059C116.347 64.8699 116.359 65.2468 116.457 65.6056C116.491 65.892 116.554 66.1742 116.645 66.448C115.971 66.0633 115.178 65.9398 114.418 66.1008C113.441 66.496 113.607 67.82 113.817 68.8512C114.365 71.0504 115.751 72.9483 117.679 74.14C120.509 76.0664 124.437 75.7768 127.7 74.652C127.458 75.7714 127.446 76.9283 127.666 78.0523C127.886 79.1762 128.333 80.2434 128.98 81.1888C128.517 81.1208 127.06 80.9392 126.589 80.9488C126.627 80.4653 126.622 79.9793 126.573 79.4968C126.429 78.1784 125.785 76.4096 124.499 76.2968V76.2704C124.052 76.2461 123.607 76.3493 123.216 76.568C122.825 76.7867 122.504 77.1118 122.291 77.5056C121.777 78.2412 121.41 79.0688 121.209 79.9432C120.898 79.7261 120.537 79.5937 120.159 79.5587C119.782 79.5238 119.403 79.5876 119.057 79.744C118.977 78.2736 118.328 76.2936 116.954 76.1712V76.1448C114.605 75.6952 112.569 80.7848 113.681 84.3C113.771 84.7202 113.96 85.1128 114.233 85.4447C114.506 85.7765 114.855 86.0381 115.249 86.2072C115.212 90.2824 116.324 94.3416 120.129 95.7168C120.635 95.8921 121.162 95.9955 121.696 96.024C121.817 97.2504 121.786 97.1216 121.917 98.0864C121.477 98.1952 120.929 98.3776 120.41 98.5112C120.335 98.5357 120.272 98.5872 120.232 98.6558C120.193 98.7244 120.18 98.8052 120.197 98.8826C120.213 98.96 120.258 99.0285 120.322 99.0748C120.386 99.1212 120.465 99.1421 120.544 99.1336L122.448 98.8352C122.556 98.821 122.654 98.7649 122.721 98.679C122.789 98.5932 122.819 98.4843 122.807 98.376C122.759 97.1352 122.737 96.7968 122.602 95.512C122.59 95.3979 122.537 95.292 122.454 95.2135C122.37 95.135 122.261 95.0891 122.146 95.084C121.147 95.0755 120.17 94.7859 119.328 94.2483C118.485 93.7107 117.811 92.9468 117.382 92.044C116.466 90.2992 116.245 88.2408 115.937 86.26C116.405 86.1782 116.837 85.9548 117.173 85.62C117.093 86.112 117.026 86.6056 116.957 87.0928C116.938 87.212 116.965 87.334 117.033 87.4337C117.101 87.5335 117.204 87.6036 117.322 87.6296C118.018 87.833 118.734 87.9599 119.457 88.008C119.535 88.0199 119.614 88.0027 119.68 87.9596C119.746 87.9165 119.794 87.8507 119.814 87.7746C119.835 87.6985 119.826 87.6175 119.791 87.5472C119.755 87.4769 119.695 87.4222 119.621 87.3936C119.094 87.1453 118.545 86.9458 117.981 86.7976C118.183 85.3016 118.861 82.2504 118.968 81.5136C119.086 80.6616 118.957 80.8864 119.208 80.7504C119.454 80.5827 119.751 80.507 120.047 80.5368C120.397 80.607 120.726 80.7582 121.007 80.9784C120.825 82.1296 120.899 83.3067 121.222 84.4264C122.307 87.8536 125.691 86.7128 126.474 81.8608C126.863 81.9408 127.589 82.0016 128.161 82.0736C128.65 82.136 129.121 82.2336 129.613 82.2744C130.113 82.3144 129.685 82.1536 130.398 82.6992C131.142 83.268 132.111 83.116 132.765 83.4088C134.05 83.9824 134.056 87.1016 131.377 87.348C130.253 87.4512 129.95 87.152 129.697 87.3384C129.655 87.3643 129.619 87.3993 129.591 87.4407C129.563 87.4822 129.545 87.5291 129.537 87.5784C129.339 88.956 129.026 90.3392 128.865 91.7384C128.753 92.7088 128.041 98.2592 129.025 98.2432C129.413 98.2368 129.494 97.3944 129.485 97.1304C129.533 96.3752 129.485 94.9856 129.485 94.8992C133.331 91.6 137.981 87.0592 139.165 82.1312C139.404 81.0575 139.577 79.9701 139.683 78.8752C140.026 75.796 139.814 72.0584 136.829 71.1688ZM116.185 85.1576C116.029 85.271 115.834 85.3188 115.643 85.291C115.452 85.2633 115.279 85.162 115.161 85.0088C113.672 83.4264 114.46 78.1424 116.229 76.968C116.416 76.833 116.644 76.765 116.875 76.7752V76.7496C118.765 77.1376 118.487 83.7864 116.185 85.1576ZM123.726 85.2824C123.57 85.396 123.375 85.4442 123.184 85.4165C122.992 85.3889 122.819 85.2877 122.701 85.1344C120.897 83.2144 122.476 76.716 124.416 76.9008V76.8752C126.341 77.268 126 83.9312 123.726 85.28V85.2824Z"
        fill="#272833" />
    <path
        d="M129.214 99.8617C127.223 100.091 125.315 100.797 123.654 101.919C122.911 101.114 121.979 101.221 121.014 101.734C120.893 101.801 120.78 101.881 120.677 101.974C119.548 101.147 118.297 100.499 116.969 100.054C116.897 100.029 116.821 100.02 116.745 100.028C116.67 100.037 116.597 100.063 116.533 100.104C116.469 100.146 116.416 100.201 116.377 100.267C116.339 100.332 116.316 100.406 116.31 100.482C116.295 102.252 116.389 104.021 116.592 105.779C116.597 105.844 116.614 105.907 116.644 105.965C116.674 106.023 116.715 106.074 116.765 106.115C116.815 106.156 116.873 106.187 116.935 106.205C116.997 106.224 117.063 106.229 117.127 106.222C118.376 106.074 119.574 105.645 120.633 104.967C120.832 105.182 121.075 105.351 121.345 105.462C121.616 105.573 121.908 105.623 122.2 105.609C122.492 105.595 122.778 105.517 123.036 105.381C123.295 105.245 123.521 105.053 123.697 104.82C124.958 105.622 126.418 106.051 127.912 106.059C127.998 106.052 128.081 106.023 128.153 105.975C128.225 105.928 128.284 105.863 128.325 105.787C129.131 104.087 129.619 102.253 129.765 100.378C129.772 100.305 129.762 100.232 129.736 100.164C129.71 100.096 129.668 100.035 129.615 99.9857C129.562 99.936 129.499 99.899 129.429 99.8775C129.36 99.856 129.286 99.8506 129.214 99.8617Z"
        fill="#272833" />
    <path
        d="M123.809 121.708C124.278 121.701 124.732 121.788 125.494 121.822C125.796 121.838 130.294 121.813 131.174 121.785C131.888 121.77 132.599 121.693 133.299 121.553C133.377 121.541 133.447 121.501 133.497 121.44C133.547 121.38 133.573 121.303 133.57 121.225C133.567 121.146 133.535 121.072 133.481 121.015C133.427 120.958 133.353 120.924 133.275 120.918C133.002 120.906 130.977 120.725 125.486 120.881C124.89 120.893 124.298 120.977 123.722 121.131C123.648 121.146 123.583 121.188 123.54 121.25C123.497 121.311 123.479 121.387 123.49 121.461C123.501 121.535 123.541 121.603 123.6 121.648C123.659 121.694 123.734 121.716 123.809 121.708Z"
        fill="#272833" />
    <path
        d="M156 123.79C154.581 112.27 144.378 98.0608 131.68 96.876C131.586 96.8684 131.493 96.8935 131.416 96.9472C131.369 96.9784 129.082 98.5024 128.278 99.0496C128.246 99.0706 128.218 99.0977 128.196 99.1295C128.175 99.1612 128.159 99.197 128.151 99.2346C128.143 99.2723 128.143 99.3112 128.15 99.349C128.157 99.3868 128.172 99.4229 128.193 99.4552C128.214 99.4874 128.241 99.5152 128.272 99.537C128.304 99.5587 128.34 99.574 128.378 99.582C128.415 99.5899 128.454 99.5904 128.492 99.5833C128.53 99.5762 128.566 99.5618 128.598 99.5408C128.678 99.4912 131.647 97.6704 131.728 97.628C143.511 99.228 153.415 112.204 154.989 123.596C151.739 125.36 148.178 126.479 144.502 126.892C139.69 127.56 139.055 127.359 137.805 127.07C137.972 124.27 138.553 119.155 137.752 119.15C137.382 119.15 137.466 119.422 137.243 121.026C137.189 121.662 136.878 125.915 136.813 127.419C136.808 127.533 136.843 127.645 136.913 127.735C136.983 127.825 137.082 127.888 137.193 127.911C137.866 128.086 138.558 128.169 139.253 128.159C139.359 129.61 139.391 131.065 139.349 132.519C139.347 132.56 139.354 132.602 139.368 132.64C139.382 132.679 139.404 132.715 139.432 132.745C139.46 132.775 139.494 132.8 139.532 132.817C139.569 132.834 139.61 132.844 139.651 132.846C139.692 132.847 139.733 132.841 139.772 132.826C139.811 132.812 139.846 132.79 139.877 132.762C139.907 132.734 139.932 132.7 139.949 132.663C139.966 132.625 139.976 132.584 139.977 132.543C140.045 131.403 140.092 129.386 140.043 128.108C145.229 128.028 151.378 127.006 155.769 124.268C155.848 124.218 155.911 124.147 155.952 124.062C155.993 123.978 156.01 123.884 156 123.79Z"
        fill="#0B7DFF" />
    <path
        d="M106.48 89.1768C106.917 88.1943 107.633 87.3619 108.539 86.7832C109.047 86.4962 109.639 86.3903 110.215 86.4827C110.792 86.5752 111.321 86.8604 111.715 87.292C112.31 87.8792 113.123 89.2264 114.542 88.9664C114.618 88.9502 114.686 88.9065 114.732 88.8438C114.779 88.781 114.801 88.7034 114.794 88.6256C114.787 88.5478 114.752 88.4752 114.696 88.4214C114.639 88.3676 114.565 88.3364 114.487 88.3336C113.64 88.328 113.135 87.364 112.407 86.6128C110.035 84.152 106.327 85.9984 105.92 89.0128C105.908 89.0488 105.904 89.0867 105.907 89.1245C105.91 89.1623 105.92 89.1991 105.937 89.2328C105.955 89.2664 105.979 89.2963 106.008 89.3206C106.037 89.3449 106.07 89.3632 106.107 89.3744C106.144 89.3862 106.184 89.3905 106.223 89.387C106.262 89.3834 106.3 89.3721 106.335 89.3537C106.369 89.3353 106.4 89.3102 106.425 89.2799C106.45 89.2495 106.469 89.2145 106.48 89.1768Z"
        fill="#272833" />
    <path
        d="M107.44 78.1201C107.738 78.1415 108.032 78.2068 108.311 78.3137C109.401 78.7201 109.37 80.3633 109.267 81.5553C109.24 81.8713 109.254 82.2921 109.217 82.6961C109.2 82.7778 109.215 82.8629 109.258 82.934C109.302 83.005 109.371 83.0567 109.452 83.0785C109.535 83.0974 109.621 83.0827 109.693 83.0377C109.765 82.9927 109.816 82.9211 109.835 82.8385C110.942 80.1921 110.085 76.5689 107.355 77.5401C107.278 77.5513 107.209 77.5926 107.163 77.655C107.116 77.7173 107.096 77.7955 107.108 77.8725C107.119 77.9494 107.16 78.0187 107.222 78.0651C107.285 78.1115 107.363 78.1313 107.44 78.1201Z"
        fill="#272833" />
    <path
        d="M111.253 77.7136C111.453 77.4656 111.801 77.1536 112.173 76.7176C112.909 75.8624 114.638 73.9856 115.624 74.584C115.934 74.7951 116.187 75.0788 116.362 75.4104C116.376 75.4504 116.397 75.4874 116.425 75.519C116.453 75.5506 116.487 75.5763 116.525 75.5944C116.564 75.6126 116.605 75.6228 116.647 75.6246C116.689 75.6263 116.732 75.6195 116.771 75.6046C116.811 75.5897 116.847 75.567 116.877 75.5378C116.908 75.5086 116.932 75.4736 116.949 75.4348C116.966 75.3959 116.975 75.3541 116.975 75.3119C116.975 75.2696 116.967 75.2277 116.95 75.1888C116.856 74.6445 116.57 74.1522 116.143 73.8016C114.681 72.7392 112.509 74.6816 111.444 76.1288C111.165 76.5303 110.934 76.9631 110.755 77.4184C110.551 77.7368 111.073 78.0528 111.253 77.7136Z"
        fill="#272833" />
    <path
        d="M129.995 104.14C130.381 103.888 130.738 103.596 131.061 103.267C131.693 102.662 133.678 100.662 133.992 100.282C134.194 100.021 134.383 99.7498 134.557 99.4688C134.614 99.4076 134.645 99.3274 134.645 99.244C134.645 99.1607 134.614 99.0804 134.557 99.0192C134.494 98.962 134.411 98.9317 134.326 98.9348C134.241 98.9379 134.161 98.9743 134.102 99.036C133.889 99.2088 133.66 99.3632 133.446 99.5424C132.144 100.707 130.933 101.97 129.824 103.32C129.735 103.465 129.664 103.606 129.573 103.754C129.545 103.781 129.523 103.813 129.508 103.849C129.494 103.886 129.486 103.924 129.487 103.963C129.487 104.002 129.496 104.041 129.512 104.076C129.528 104.112 129.551 104.144 129.58 104.17C129.608 104.196 129.642 104.216 129.679 104.229C129.716 104.242 129.755 104.247 129.794 104.244C129.833 104.242 129.871 104.231 129.905 104.213C129.94 104.195 129.97 104.17 129.995 104.14Z"
        fill="#0B7DFF" />
    <path
        d="M119.128 99.1824C115.129 99.7641 111.318 101.261 107.992 103.556C107.832 103.664 105.992 104.912 105.423 105.341C105.364 105.391 105.289 105.416 105.212 105.41C105.136 105.405 105.064 105.37 105.014 105.312C104.965 105.253 104.941 105.177 104.947 105.101C104.952 105.024 104.988 104.953 105.045 104.902C105.794 104.135 106.601 103.428 107.46 102.786C110.973 100.282 115.071 98.7232 119.36 98.26C119.464 98.2465 119.57 98.2705 119.658 98.3277C119.746 98.3849 119.81 98.4715 119.84 98.572L120.279 100.582C120.303 100.663 120.295 100.749 120.257 100.824C120.219 100.898 120.153 100.955 120.074 100.982C119.993 101.008 119.906 101 119.831 100.961C119.756 100.921 119.699 100.854 119.674 100.774L119.128 99.1824Z"
        fill="#0B7DFF" />
    <path
        d="M107.674 118.581C107.525 119.043 107.412 119.516 107.336 119.995C107.267 120.421 106.805 125.115 106.838 125.85C105.387 126.28 103.981 126.658 101.365 127.253C103.584 123.041 104.914 118.419 105.272 113.673C105.638 111.173 105.566 108.628 105.061 106.153C105.054 106.115 105.038 106.079 105.016 106.047C104.995 106.015 104.967 105.988 104.934 105.966C104.902 105.945 104.866 105.931 104.828 105.923C104.79 105.916 104.751 105.917 104.713 105.924C104.675 105.932 104.639 105.948 104.607 105.969C104.575 105.991 104.548 106.019 104.527 106.051C104.505 106.084 104.491 106.12 104.484 106.158C104.476 106.196 104.477 106.235 104.485 106.273C104.759 108.704 104.705 111.16 104.325 113.577C103.797 118.537 102.57 123.522 99.9534 127.718C99.904 127.799 99.8794 127.893 99.8826 127.988C99.8858 128.083 99.9166 128.175 99.9713 128.253C100.026 128.33 100.102 128.39 100.19 128.426C100.279 128.461 100.375 128.469 100.469 128.45C102.605 127.97 104.759 127.471 106.859 126.827C106.854 129.65 107.001 130.451 107.116 132.288C107.118 132.329 107.129 132.369 107.147 132.406C107.165 132.444 107.19 132.477 107.221 132.504C107.251 132.531 107.287 132.552 107.326 132.566C107.365 132.579 107.406 132.585 107.447 132.583C107.489 132.58 107.529 132.57 107.566 132.552C107.603 132.534 107.636 132.509 107.663 132.478C107.691 132.447 107.712 132.411 107.725 132.372C107.739 132.334 107.745 132.292 107.742 132.251C107.645 128.9 107.763 125.546 108.094 122.21C108.381 118.952 108.225 120.072 108.305 118.69C108.316 118.607 108.295 118.523 108.246 118.456C108.198 118.389 108.124 118.343 108.042 118.329C107.96 118.315 107.876 118.333 107.807 118.38C107.738 118.427 107.691 118.499 107.674 118.581Z"
        fill="#0B7DFF" />
    <path
        d="M119.904 106.72C119.432 108.051 119.044 109.409 118.742 110.788C116.968 119.013 117.356 131.231 117.312 132.812C117.309 132.897 117.339 132.981 117.398 133.043C117.456 133.106 117.536 133.143 117.622 133.146C117.707 133.15 117.79 133.119 117.853 133.061C117.916 133.003 117.953 132.922 117.956 132.837C118.026 131.734 118.123 130.636 118.19 129.534C118.47 124.992 118.174 116.462 120.46 106.884C120.472 106.848 120.476 106.81 120.474 106.772C120.471 106.735 120.46 106.698 120.443 106.664C120.425 106.63 120.401 106.601 120.372 106.576C120.343 106.552 120.31 106.534 120.274 106.522C120.198 106.5 120.117 106.508 120.048 106.545C119.979 106.582 119.927 106.645 119.904 106.72Z"
        fill="#0B7DFF" />
    <path
        d="M140.439 129.595C140.455 130.188 140.47 130.779 140.492 131.371C140.51 131.831 140.505 132.793 140.972 132.797C141.612 132.802 141.472 130.873 141.439 130.243C141.441 129.939 141.414 129.636 141.359 129.338C141.325 129.16 141.113 128.458 140.808 128.498C140.475 128.54 140.431 129.26 140.439 129.595Z"
        fill="#272833" />
    <path
        d="M19.372 45.8064L19.5 38.9264C19.5006 38.7743 19.5615 38.6286 19.6693 38.5213C19.7771 38.4139 19.923 38.3536 20.0752 38.3536C20.2283 38.3557 20.3745 38.418 20.4821 38.527C20.5897 38.6359 20.6502 38.7829 20.6504 38.936V46.4624C20.65 46.6342 20.5816 46.7989 20.4602 46.9205C20.3388 47.042 20.1742 47.1106 20.0024 47.1112H10.8504C10.8632 49.9016 10.8504 81.9816 10.8424 84.1912H47.9496V70.0088L20.9384 70.6296C20.6834 70.6368 20.436 70.5429 20.2499 70.3685C20.0638 70.1941 19.9542 69.9533 19.9448 69.6984L19.424 57.36C19.4177 57.228 19.4386 57.096 19.4853 56.9724C19.532 56.8487 19.6036 56.7359 19.6955 56.6409C19.7875 56.5459 19.898 56.4708 20.0201 56.4202C20.1422 56.3695 20.2734 56.3444 20.4056 56.3464L32.4056 56.4832L32.5544 46.0488C32.5586 45.7969 32.6601 45.5564 32.8375 45.3775C33.0149 45.1986 33.2545 45.0952 33.5064 45.0888L63.3952 44.5336C63.5253 44.5303 63.6547 44.5536 63.7755 44.6021C63.8963 44.6505 64.0059 44.7232 64.0976 44.8156C64.1893 44.9079 64.2612 45.0181 64.3087 45.1392C64.3563 45.2604 64.3787 45.39 64.3744 45.52L63.4904 99.328L76.408 99.2056L77.208 86.128C77.2185 85.9245 77.308 85.733 77.4573 85.5943C77.6067 85.4555 77.8042 85.3804 78.008 85.3848H92.24C92.4398 85.3944 92.6276 85.4826 92.7626 85.6303C92.8975 85.7779 92.9685 85.973 92.96 86.1728L92.08 99.5592C92.0768 99.6412 92.0574 99.7217 92.0227 99.796C91.9881 99.8703 91.939 99.937 91.8783 99.9921C91.8176 100.047 91.7465 100.09 91.6692 100.117C91.5918 100.144 91.5098 100.156 91.428 100.151C91.3443 100.148 91.2621 100.128 91.1862 100.093C91.1103 100.057 91.0421 100.007 90.9857 99.9451C90.9293 99.8832 90.8858 99.8107 90.8576 99.7318C90.8294 99.653 90.8172 99.5693 90.8216 99.4856L91.4824 86.86L78.7848 86.9784L78.1288 100.134C78.1158 100.36 78.0176 100.571 77.8542 100.727C77.6907 100.882 77.4743 100.97 77.2488 100.971L62.5624 101.204C62.4377 101.205 62.3141 101.181 62.1987 101.134C62.0834 101.086 61.9786 101.016 61.8904 100.928C61.8023 100.84 61.7326 100.735 61.6853 100.62C61.6381 100.504 61.6142 100.381 61.6152 100.256L62.4376 46.4864L34.4952 47.0168L34.344 57.4824C34.3394 57.7398 34.2334 57.9849 34.0492 58.1646C33.865 58.3443 33.6173 58.4442 33.36 58.4424L21.4064 58.3064L21.84 68.6656L48.868 68.052C48.9972 68.0494 49.1256 68.0723 49.246 68.1194C49.3663 68.1666 49.4761 68.2371 49.5691 68.3268C49.6621 68.4165 49.7365 68.5238 49.7879 68.6423C49.8393 68.7609 49.8668 68.8884 49.8688 69.0176V85.236C49.8739 85.3625 49.8526 85.4886 49.8063 85.6063C49.7601 85.7241 49.6898 85.8309 49.6 85.92C49.3448 86.1752 51.8544 86.1688 9.91038 86.08C9.65106 86.0355 9.41786 85.8953 9.25678 85.6872C9.08547 85.5094 8.98675 85.2741 8.97998 85.0272L9.40958 46.4C9.41085 46.2085 9.48788 46.0253 9.62384 45.8903C9.7598 45.7554 9.94364 45.6798 10.1352 45.68L19.372 45.8064Z"
        fill="#0B7DFF" />
    <path
        d="M79.8552 111.698C79.8075 112.92 79.6493 114.136 79.3824 115.33C79.1424 116.389 79.0528 117.038 78.4728 116.993C77.9976 116.957 77.9256 116.626 77.8232 115.211C77.7984 114.863 77.7616 114.471 77.7632 114.054C77.7712 112.454 77.976 110.609 77.976 110.609C77.9957 110.359 78.1108 110.126 78.2975 109.959C78.4842 109.792 78.7281 109.704 78.9784 109.712C78.9784 109.712 82.2928 109.774 84.6712 109.956C85.8176 110.044 87.7344 110.176 87.7112 110.996C87.688 111.816 85.7832 111.808 84.6032 111.817C83.016 111.829 81.0192 111.751 79.8552 111.698Z"
        fill="#0B7DFF" />
    <path
        d="M80.7677 123.206C80.0085 121.994 79.0077 120.68 79.0077 120.68C78.9181 120.553 78.7994 120.449 78.6614 120.378C78.5234 120.306 78.3703 120.269 78.2149 120.269C78.0596 120.269 77.9064 120.306 77.7685 120.378C77.6305 120.449 77.5117 120.553 77.4221 120.68C75.8277 122.97 75.4477 123.508 75.1925 123.949C74.9573 124.349 74.0725 125.942 74.6245 126.335C75.2893 126.809 76.6885 125.023 77.1733 124.367C77.1885 125.454 77.1821 126.767 77.2829 127.696C77.2997 128.136 77.5525 129.713 78.2549 129.696C78.9397 129.682 79.1349 127.96 79.1501 127.654C79.2061 126.674 79.1213 125.334 79.0973 124.109C79.6901 124.853 80.8341 126.438 81.5485 125.929C82.1765 125.484 81.3117 124.075 80.7677 123.206Z"
        fill="#272833" />
    <path
        d="M22.8598 29.7976C22.1014 28.5864 21.0998 27.272 21.0998 27.272C21.0102 27.1451 20.8915 27.0415 20.7535 26.97C20.6155 26.8985 20.4624 26.8612 20.307 26.8612C20.1517 26.8612 19.9986 26.8985 19.8606 26.97C19.7226 27.0415 19.6039 27.1451 19.5142 27.272C17.9198 29.5584 17.5374 30.104 17.2798 30.5432C16.9446 31.1168 16.1678 32.5432 16.7118 32.9296C17.3646 33.3944 18.7846 31.6064 19.2598 30.9624C19.2886 32.2864 19.1262 36.3224 20.3422 36.292C21.027 36.2776 21.2222 34.556 21.2374 34.2496C21.2934 33.2696 21.2086 31.9296 21.1846 30.7048C21.7798 31.4512 22.9214 33.0344 23.6358 32.5248C24.2694 32.0752 23.4038 30.6664 22.8598 29.7976Z"
        fill="#272833" />
    <path
        d="M86.7199 118C86.2279 117.961 84.7479 117.985 84.5543 118.007C84.5671 117.386 84.5959 117.047 84.5663 116.727C84.4919 116.24 84.4143 115.735 84.1199 115.729C83.7999 115.722 83.6567 116.54 83.6399 116.709C83.6015 117.098 83.5327 118.829 83.5599 119.589C83.5727 119.909 83.6567 120.694 84.0111 120.702C84.5047 120.712 84.5223 119.437 84.5359 118.942C84.7935 118.963 85.052 118.97 85.3103 118.964C85.9031 118.969 87.6535 119.06 87.6303 118.47C87.6527 118.136 87.0399 118.026 86.7199 118Z"
        fill="#272833" />
    <path
        d="M84.7648 95.6536C84.7864 95.2352 84.1208 95.24 84.1376 95.6648C84.1376 95.6648 84.1208 104.625 84.1376 105.482L71.4176 106.122C71.292 106.127 71.1734 106.181 71.0863 106.271C70.9992 106.362 70.9502 106.482 70.9495 106.608C70.8479 113.578 70.976 116.089 71.0296 118.174L55.5848 118.21L57.0616 63.096C57.0642 63.0304 57.0534 62.9651 57.0298 62.9039C57.0062 62.8427 56.9703 62.787 56.9244 62.7403C56.8784 62.6935 56.8234 62.6566 56.7626 62.6319C56.7019 62.6073 56.6367 62.5953 56.5711 62.5968L41.4752 62.8C41.5208 60.0456 41.5047 57.9328 41.2687 51.7872C51.2959 51.9192 52.3352 51.7752 55.9472 51.7464C56.0255 51.7385 56.0982 51.7021 56.1513 51.644C56.2044 51.5859 56.2343 51.5103 56.2352 51.4316C56.2361 51.3529 56.2079 51.2766 56.1561 51.2173C56.1043 51.1581 56.0325 51.12 55.9544 51.1104C52.9416 51.0096 52.7351 50.9176 40.7599 50.8008C40.6937 50.8006 40.628 50.8138 40.5668 50.8394C40.5057 50.865 40.4503 50.9025 40.4038 50.9499C40.3574 50.9972 40.3209 51.0533 40.2965 51.115C40.272 51.1766 40.2602 51.2425 40.2615 51.3088C40.5095 58.1736 40.5592 59.3624 40.8439 62.8088L27.3799 62.9912C27.3418 62.9915 27.3041 62.9993 27.2689 63.0143C27.2338 63.0292 27.202 63.051 27.1753 63.0782C27.1486 63.1055 27.1276 63.1378 27.1134 63.1733C27.0992 63.2087 27.0922 63.2466 27.0927 63.2848C27.0954 63.3615 27.1274 63.4342 27.1822 63.488C27.237 63.5417 27.3104 63.5724 27.3871 63.5736C27.3871 63.5736 54.3615 63.5872 56.0719 63.5736C55.9863 66.844 55.0208 114.774 54.952 118.209L27.1999 118.275C27.2087 117.191 27.3032 105.913 27.3088 105.274L41.1223 104.775C41.2447 104.766 41.359 104.711 41.4417 104.62C41.5244 104.529 41.5693 104.411 41.5672 104.288V91.6856C41.5645 91.621 41.5491 91.5577 41.5219 91.4991C41.4947 91.4405 41.4562 91.3879 41.4087 91.3442C41.3611 91.3005 41.3054 91.2666 41.2448 91.2445C41.1841 91.2223 41.1197 91.2124 41.0551 91.2152H15.2455C15.1202 91.2181 15.001 91.2699 14.9134 91.3596C14.8257 91.4494 14.7767 91.5698 14.7767 91.6952L14.9311 104.701C14.9311 104.778 14.9617 104.852 15.0162 104.906C15.0707 104.961 15.1445 104.991 15.2215 104.991C15.2986 104.991 15.3724 104.961 15.4269 104.906C15.4814 104.852 15.5119 104.778 15.5119 104.701C15.5119 104.701 15.6975 93.1808 15.7055 92.1736H40.5951V103.817L26.8191 104.351C26.6982 104.358 26.5843 104.41 26.5002 104.497C26.4161 104.584 26.368 104.7 26.3655 104.821L26.5551 118.273C17.3903 118.296 9.95835 118.316 8.12235 118.325C7.75862 118.327 7.40885 118.185 7.14919 117.93C6.88953 117.675 6.74101 117.328 6.73595 116.965C6.64155 109.059 4.86395 45.5728 4.76875 42.896C4.75811 42.501 4.90166 42.1175 5.16896 41.8266C5.43627 41.5357 5.80634 41.3603 6.20075 41.3376L13.4103 40.9232C13.3895 41.2535 13.3959 41.585 13.4295 41.9144C13.4807 42.2768 13.5031 42.928 13.8919 42.932C14.2543 42.932 14.3759 42.0448 14.3719 41.9232C14.4207 41.4376 14.4127 39.512 14.3991 39.3744C14.3463 39.0608 14.2391 38.4648 13.9399 38.4616C13.6407 38.4584 13.4943 39.1816 13.4727 39.3656C13.4375 39.6696 13.4335 40.0392 13.4295 40.3256L6.15995 40.6224C5.57115 40.6469 5.01538 40.9011 4.61165 41.3304C4.20793 41.7597 3.98835 42.33 3.99995 42.9192C4.04555 45.6 5.49915 109.092 5.74795 116.994C5.76485 117.614 6.02325 118.203 6.46803 118.635C6.91281 119.067 7.50876 119.308 8.12875 119.306C13.4887 119.277 66.412 118.846 71.0424 118.809C71.068 119.791 71.0896 120.569 71.0896 120.569C71.0922 120.646 71.124 120.719 71.1785 120.773C71.2331 120.827 71.3063 120.859 71.3831 120.861C71.4212 120.861 71.459 120.854 71.4942 120.839C71.5294 120.825 71.5613 120.803 71.5881 120.776C71.6149 120.749 71.636 120.717 71.6501 120.682C71.6642 120.646 71.6711 120.608 71.6703 120.57C71.8663 115.385 71.9231 114.299 71.9216 107.074L84.6608 106.424C84.7857 106.419 84.9035 106.365 84.9884 106.273C85.0733 106.181 85.1183 106.059 85.1135 105.934C85.0247 102.57 84.96 99.0256 84.7648 95.6536Z"
        fill="#272833" />
    <path
        d="M101.069 40.656C100.866 40.4282 100.609 40.2547 100.322 40.1514C100.035 40.048 99.7265 40.0179 99.4249 40.064H27.3809C27.3949 39.6586 27.3839 39.2528 27.3481 38.8488C27.3329 38.6992 27.1777 38.1288 26.8809 38.1288C26.6049 38.1288 26.4977 38.3792 26.4065 38.8488C26.3897 38.9288 26.4145 38.056 26.2753 51.796L15.3409 52.0208C15.2181 52.0266 15.1023 52.0799 15.0181 52.1695C14.9339 52.2591 14.8879 52.3779 14.8897 52.5008C14.6065 79.7008 14.8033 78.0016 15.0441 78.2072C15.2369 78.4048 13.5681 78.3128 40.4657 77.46C40.5432 77.4577 40.6167 77.425 40.6704 77.3691C40.7241 77.3131 40.7537 77.2383 40.7529 77.1608C40.751 77.0845 40.7191 77.0121 40.6641 76.9592C40.6091 76.9064 40.5355 76.8773 40.4593 76.8784L15.8193 77.4328V52.9824L26.7705 52.7656C26.8976 52.7636 27.019 52.7125 27.1093 52.623C27.1997 52.5336 27.252 52.4127 27.2553 52.2856L27.3761 41.0304H71.5761C70.9009 64.7904 70.8617 63.404 71.0841 63.616C71.3321 63.856 70.3641 63.7512 84.6561 63.776C84.7791 63.7772 84.8979 63.7312 84.988 63.6474C85.078 63.5636 85.1325 63.4484 85.1401 63.3256L85.3753 51.056C85.3774 50.9714 85.3459 50.8894 85.2878 50.8279C85.2296 50.7664 85.1495 50.7305 85.0648 50.728C84.9803 50.726 84.8982 50.7569 84.836 50.8142C84.7738 50.8715 84.7362 50.9507 84.7313 51.0352C84.7313 51.0352 84.2113 62.0024 84.1793 62.8048H71.9313C71.9729 61.1352 72.1473 42.3048 72.1592 41.0272H99.4305C99.6056 41.0014 99.7843 41.0156 99.9532 41.0687C100.122 41.1218 100.277 41.2125 100.406 41.3338C100.535 41.4552 100.634 41.6041 100.697 41.7695C100.761 41.9349 100.786 42.1124 100.77 42.2888C100.71 44.7192 100.199 69.3288 100.01 78.5032L71.6488 77.9112C71.5203 77.9132 71.3972 77.9638 71.3045 78.0529C71.2117 78.1419 71.1561 78.2628 71.1488 78.3912C71.008 87.2176 70.9889 89.5552 71.1321 94.7048C71.1343 94.7822 71.166 94.8558 71.2207 94.9105C71.2755 94.9652 71.3491 94.997 71.4264 94.9992C71.4643 94.9999 71.5019 94.9931 71.5371 94.9789C71.5722 94.9648 71.6041 94.9438 71.6309 94.917C71.6577 94.8903 71.6789 94.8584 71.6931 94.8233C71.7073 94.7882 71.7143 94.7506 71.7136 94.7128C71.9617 89.7528 72.1256 78.9856 72.1256 78.8944C74.264 78.9328 97.4569 79.1192 99.9961 79.1392C99.9601 80.8832 99.9384 81.924 99.9384 81.924C99.9364 82.0089 99.9682 82.091 100.027 82.1525C100.085 82.2139 100.166 82.2496 100.251 82.2516C100.336 82.2536 100.418 82.2218 100.479 82.1632C100.541 82.1046 100.576 82.0241 100.578 81.9392C100.578 81.9392 101.654 45.304 101.71 42.3112C101.721 41.6968 101.491 41.1024 101.069 40.656Z"
        fill="#272833" />
    <path
        d="M126.934 61.1744C128 62.1576 129.852 62.0544 129.742 61.456C129.723 61.3764 129.677 61.3062 129.611 61.2579C129.545 61.2097 129.464 61.1866 129.382 61.1928C128.642 61.1375 127.916 60.9613 127.233 60.6712C126.96 60.504 126.583 60.8504 126.934 61.1744Z"
        fill="#272833" />
    <path
        d="M132.739 54.2984C131.654 54.0058 130.554 53.7698 129.445 53.5912C127.87 53.2808 127.798 53.0464 127.342 53.2224C126.659 53.488 126.631 54.5536 126.934 55.228C126.627 55.4246 126.399 55.7245 126.293 56.0738C126.187 56.4232 126.208 56.7989 126.354 57.1336C125.484 57.892 125.814 59.156 126.903 59.7008C127.667 60.0626 128.482 60.3054 129.319 60.4208C131.734 60.752 132.735 59.4992 132.535 58.3904C132.849 58.1517 133.059 57.8008 133.12 57.4111C133.182 57.0214 133.09 56.623 132.865 56.2992C133.926 55.5336 133.68 54.592 132.739 54.2984ZM132.819 55.3384C132.444 55.8472 131.926 55.6752 131.831 56.0944C131.741 56.4944 132.298 56.6288 132.223 57.208C132.199 57.3217 132.15 57.4288 132.08 57.5215C132.01 57.6143 131.92 57.6905 131.818 57.7448C131.254 57.6152 131.633 57.78 129.838 57.5048C129.566 57.4648 128.966 57.4432 128.878 57.7192C128.78 58.0392 129.424 58.3792 129.773 58.4712C130.366 58.6374 130.985 58.6871 131.597 58.6176C131.606 59.0432 131.197 59.3192 130.808 59.4248C129.623 59.5673 128.423 59.3569 127.357 58.82C126.769 58.5264 126.618 58.008 127.231 57.7184C127.299 57.6861 127.359 57.6385 127.406 57.5794C127.452 57.5202 127.484 57.451 127.5 57.3773C127.515 57.3036 127.514 57.2272 127.495 57.1543C127.476 57.0814 127.44 57.0138 127.391 56.9568C127.319 56.8768 126.845 56.2824 127.786 55.8416C128.461 56.2422 129.226 56.4661 130.011 56.4928C131.082 56.52 131.423 55.828 130.058 55.5472C129.76 55.4856 129.446 55.4408 129.133 55.3616C128.732 55.208 128.318 55.0897 127.896 55.008C127.768 54.7299 127.697 54.4286 127.69 54.1224C129.942 54.8504 132.642 54.5096 132.914 55.1624C132.899 55.2298 132.865 55.2918 132.818 55.3416L132.819 55.3384Z"
        fill="#272833" />
    <path
        d="M130.01 46.9264C130.206 49.0784 130.215 50.0464 130.261 51.536C130.268 51.6126 130.245 51.689 130.196 51.7486C130.147 51.8081 130.077 51.846 130 51.8541C129.924 51.8621 129.847 51.8395 129.787 51.7914C129.727 51.7432 129.689 51.6733 129.68 51.5968C129.307 49.5822 129.051 47.548 128.911 45.504C128.904 45.399 128.931 45.2945 128.988 45.2058C129.044 45.1171 129.128 45.0487 129.226 45.0105C129.324 44.9724 129.432 44.9664 129.533 44.9936C129.635 45.0208 129.725 45.0796 129.791 45.1616L131.28 46.904L134.229 45.8128C134.318 45.7762 134.416 45.7671 134.51 45.7864C134.604 45.8058 134.691 45.8528 134.758 45.9215C134.825 45.9902 134.871 46.0775 134.888 46.1721C134.906 46.2667 134.895 46.3645 134.857 46.4528C133.627 49.3504 132.617 51.0016 131.954 52.3896C131.938 52.4287 131.914 52.4643 131.884 52.4942C131.854 52.5241 131.819 52.5478 131.779 52.564C131.74 52.5802 131.698 52.5884 131.656 52.5884C131.613 52.5883 131.572 52.5799 131.532 52.5636C131.493 52.5473 131.458 52.5235 131.428 52.4935C131.398 52.4634 131.374 52.4278 131.358 52.3886C131.342 52.3494 131.334 52.3075 131.334 52.2651C131.334 52.2227 131.342 52.1807 131.358 52.1416C132.614 48.8616 132.456 49.5336 133.507 47.1192L131.311 47.9416C131.213 47.9786 131.106 47.9842 131.005 47.9575C130.904 47.9309 130.813 47.8733 130.746 47.7928L130.01 46.9264Z"
        fill="#272833" />
    <path
        d="M118.886 46.7817C119.569 46.8058 120.252 46.7603 120.926 46.6457C121.237 46.5745 121.754 46.4057 121.726 46.0857C121.689 45.6737 120.883 45.6985 120.47 45.7313C119.984 45.7673 119.51 45.7929 119.03 45.8393C118.728 45.8705 118.121 45.9993 118.121 46.3049C118.089 46.5961 118.783 46.7649 118.886 46.7817Z"
        fill="#0B7DFF" />
    <path
        d="M122.228 35.6C122.345 35.7352 122.773 36.1872 123.188 36.5744C123.468 36.8368 124.769 38.1864 125.181 37.764C125.44 37.4584 124.969 37.012 124.678 36.644C124.387 36.3424 123.143 35.1416 122.874 34.9448C122.794 34.8832 122.174 34.4368 121.933 34.6568C121.72 34.8744 122.165 35.5144 122.228 35.6Z"
        fill="#0B7DFF" />
    <path
        d="M132.96 30.7265C132.803 31.7068 132.698 32.6949 132.646 33.6865C132.695 34.2553 132.679 34.5313 132.975 34.5729C133.566 34.6529 133.71 32.7121 133.76 32.2625C133.822 31.7073 134.068 29.9265 133.509 29.8697C133.2 29.8353 133.093 30.2801 132.96 30.7265Z"
        fill="#0B7DFF" />
    <path
        d="M140.522 38.6753C140.901 38.5337 141.274 38.3417 141.651 38.1761C142.306 37.8913 143.669 37.4561 143.534 36.9761C143.442 36.6489 142.698 36.7745 142.514 36.8161C141.752 37.0547 141.013 37.3566 140.302 37.7185C138.862 38.4336 139.047 39.2233 140.522 38.6753Z"
        fill="#0B7DFF" />
    <path
        d="M142.169 47.1289C142.409 47.1481 144.613 47.0969 144.694 47.0905C145.325 47.0369 145.557 47.0105 145.604 46.7433C145.677 45.9433 143.085 46.1337 142.2 46.1833C141.88 46.2025 141.133 46.2681 141.101 46.5961C141.065 46.9673 141.827 47.1025 142.169 47.1289Z"
        fill="#0B7DFF" />
    <path
        d="M127.829 51.7649C126.986 49.1673 126.074 45.5865 126.887 42.9649C128.53 37.6849 136.913 39.0265 136.913 45.0937C136.913 47.8537 135.246 50.5041 133.633 53.0865C133.597 53.1569 133.588 53.2382 133.608 53.3148C133.629 53.3913 133.677 53.4575 133.743 53.5007C133.809 53.5439 133.889 53.5609 133.968 53.5486C134.046 53.5362 134.117 53.4952 134.166 53.4337C135.063 52.2063 135.891 50.9305 136.646 49.6121C139.398 44.3081 137.178 40.0329 133.274 38.9385C131.885 38.4892 130.379 38.5786 129.053 39.1889C127.728 39.7993 126.68 40.8859 126.119 42.2329C124.954 45.3721 125.997 48.8825 127.281 51.9641C127.294 52.0004 127.314 52.0338 127.34 52.0622C127.366 52.0906 127.397 52.1135 127.432 52.1294C127.468 52.1454 127.506 52.1542 127.544 52.1552C127.583 52.1562 127.621 52.1494 127.657 52.1353C127.726 52.1055 127.782 52.0512 127.814 51.9829C127.845 51.9146 127.851 51.8369 127.829 51.7649Z"
        fill="#0B7DFF" />
    <path
        d="M110.72 91.124C110.431 91.7464 110.106 92.3536 109.819 92.9792C109.628 93.3928 105.419 103.11 105.135 103.879C104.851 104.648 104.598 105.435 104.345 106.218C104.322 106.258 104.309 106.303 104.304 106.348C104.3 106.394 104.306 106.44 104.322 106.483C104.337 106.526 104.361 106.566 104.393 106.599C104.425 106.632 104.463 106.657 104.506 106.674C104.549 106.691 104.594 106.698 104.64 106.696C104.686 106.694 104.731 106.681 104.771 106.66C104.812 106.639 104.848 106.609 104.876 106.573C104.904 106.537 104.924 106.495 104.935 106.45C105.219 105.823 105.534 105.214 105.821 104.587C106.042 104.107 110.315 94.1873 110.505 93.6849C110.7 93.1697 111.12 91.8448 111.263 91.3368C111.29 91.2655 111.289 91.1861 111.259 91.1156C111.229 91.0451 111.173 90.989 111.103 90.9592C111.03 90.9313 110.949 90.9328 110.878 90.9636C110.806 90.9944 110.75 91.052 110.72 91.124Z"
        fill="#272833" />
</svg>