<svg width="160" height="160" viewBox="0 0 160 160" fill="none" xmlns="http://www.w3.org/2000/svg">
    <path
        d="M126.171 122.8C119.318 124.387 108.619 120.2 105.851 115.238C101.667 107.743 107.742 101.162 108.251 100.588C108.724 102.107 109.231 103.627 109.771 105.148C109.796 105.217 109.844 105.277 109.906 105.317C109.275 106.309 109.035 107.499 109.231 108.658C109.598 111.191 111.56 112.978 113.45 114.498C113.484 114.532 113.552 114.566 113.586 114.6C116.01 116.557 118.546 118.371 121.181 120.034C122.793 121.046 124.459 121.969 126.171 122.8Z"
        fill="#0B7DFF" />
    <path
        d="M154.257 112.097C153.355 114.599 149.531 117.532 147.337 117.33C146.189 115.979 145.042 114.629 143.86 113.312C146.291 112.468 147.789 109.668 147.607 107.135C147.416 104.47 144.873 102.544 142.814 101.092C146.831 98.4257 148.974 92.7489 147.235 88.1633C145.328 83.1273 140.315 78.9481 134.982 77.1233C135.319 76.4145 135.126 75.7721 135.015 74.7233C134.96 74.1252 134.738 73.5548 134.374 73.0772C134.01 72.5996 133.518 72.2341 132.956 72.0225C132.917 72.0087 132.882 71.9863 132.854 71.9569C132.825 71.9275 132.803 71.892 132.79 71.8529C132.777 71.8139 132.773 71.7724 132.779 71.7317C132.784 71.6909 132.799 71.6519 132.822 71.6177C133.554 70.5027 134.143 69.3006 134.577 68.0393C150.863 68.2825 160.059 96.0057 154.257 112.097Z"
        fill="#0B7DFF" />
    <path
        d="M63.485 147.643C63.9607 147.78 64.4036 148.012 64.7866 148.325C65.1697 148.638 65.4849 149.026 65.713 149.466C65.8138 149.669 66.1514 150.31 66.0162 150.58C66.3258 150.374 66.385 150.411 66.2562 150.411C66.182 150.414 66.1105 150.44 66.0525 150.487C65.9944 150.533 65.9528 150.597 65.9339 150.669C65.915 150.74 65.9197 150.816 65.9473 150.885C65.975 150.954 66.0241 151.012 66.0874 151.051C66.121 151.051 66.121 151.085 66.1546 151.085C66.2248 151.124 66.3063 151.139 66.386 151.127C66.4656 151.115 66.5388 151.076 66.5938 151.017C67.1674 150.477 66.3858 149.131 66.0194 148.654C65.4361 147.867 64.5805 147.325 63.6194 147.134C63.5519 147.117 63.4801 147.126 63.4198 147.161C63.3595 147.197 63.3156 147.254 63.2978 147.322C63.28 147.389 63.2897 147.461 63.3248 147.521C63.3599 147.582 63.4175 147.625 63.485 147.643Z"
        fill="#272833" />
    <path
        d="M23.2464 124.79C22.9345 124.785 22.6368 124.659 22.4162 124.438C22.1956 124.218 22.0696 123.92 22.0648 123.608L21.3896 95.86C21.3896 95.22 22.6048 94.8472 23.2464 94.8472C23.888 94.8472 25.0688 95.4544 25.0688 96.096L24.4288 123.608C24.4241 123.92 24.298 124.218 24.0772 124.439C23.8565 124.659 23.5585 124.785 23.2464 124.79Z"
        fill="#0B7DFF" />
    <path
        d="M75.165 112.299C74.9316 112.387 74.7283 112.54 74.5792 112.74C74.4301 112.94 74.3414 113.178 74.3236 113.427C74.3059 113.675 74.3598 113.924 74.479 114.143C74.5982 114.362 74.7777 114.542 74.9962 114.662C76.1018 115.446 77.7226 114.254 77.3586 113.211C77.287 112.998 77.1706 112.802 77.0172 112.638C76.8637 112.473 76.6768 112.343 76.469 112.257C76.2612 112.17 76.0374 112.13 75.8124 112.137C75.5875 112.144 75.3668 112.2 75.165 112.299Z"
        fill="#272833" />
    <path
        d="M89.376 110.038C89.3136 110.342 89.7448 110.476 89.8152 110.173C90.2279 108.631 90.7468 107.12 91.368 105.65C91.4584 105.41 91.148 105.075 90.9288 105.075C83.0296 105.616 75.0888 106.055 67.1976 106.865C67.142 106.875 67.0916 106.904 67.0553 106.947C67.0189 106.99 66.999 107.045 66.999 107.101C66.999 107.158 67.0189 107.212 67.0553 107.256C67.0916 107.299 67.142 107.328 67.1976 107.338C74.9576 106.698 82.76 106.088 90.5576 105.75C90.1864 107.169 89.6712 108.591 89.376 110.038Z"
        fill="#272833" />
    <path
        d="M61.56 50.8952C61.5657 50.9829 61.6031 51.0655 61.6652 51.1276C61.7273 51.1898 61.81 51.2272 61.8976 51.2328C72.7896 51.0504 125.541 49.8856 130.323 49.14C130.393 49.1143 130.452 49.0684 130.495 49.0082C130.538 48.948 130.562 48.8763 130.563 48.8024C130.58 43.0304 130.293 37.2912 129.888 31.5224C134.816 31.4544 139.745 31.3704 144.639 31.3536C144.729 31.3536 144.815 31.318 144.878 31.2547C144.941 31.1914 144.977 31.1055 144.977 31.016C144.828 7.59441 146.081 6.81201 145.18 6.81201C133.26 6.81201 121.347 7.06561 109.465 7.05201C109.396 7.05612 109.33 7.08071 109.276 7.12262C109.221 7.16453 109.18 7.22184 109.158 7.28716C109.137 7.35249 109.135 7.42284 109.153 7.48914C109.172 7.55545 109.21 7.61469 109.262 7.65921C109.296 8.50321 109.33 9.38081 109.363 10.2248C93.3288 9.82001 77.1648 11.0008 61.1232 11.2376C61.0339 11.2382 60.9484 11.274 60.8852 11.3372C60.822 11.4004 60.7863 11.4859 60.7856 11.5752C61.0256 15.7944 60.9376 20.048 61.0256 24.2336C61.1032 28.3304 61.5304 47.4728 61.56 50.8952ZM109.698 7.72001C121.411 7.75441 133.125 7.48401 144.839 7.48401C144.366 15.2144 144.231 22.9448 144.333 30.7088C139.506 30.7424 114.525 31.2072 113.478 31.2488C112.77 31.2776 110.72 31.6488 110.306 31.0464C110.212 30.4317 110.201 29.8073 110.272 29.1896C110.272 28.2296 110.204 27.2368 110.204 23.08C110.204 19.0288 109.799 8.56401 109.698 7.72001ZM109.394 10.8936C109.634 17.8136 109.597 24.7656 109.698 31.688C109.698 31.8568 109.833 32.0256 110.002 31.992C116.415 31.752 122.795 31.62 129.21 31.5192C129.654 37.968 129.817 42.2816 129.885 46.3384C129.965 47.0444 129.977 47.7566 129.918 48.4648C129.149 48.9448 72.1064 50.16 62.2016 50.4904C62.0328 39.0504 61.5264 13.2568 61.4592 11.8384C70.0672 11.5688 102.035 10.96 109.394 10.8936Z"
        fill="#272833" />
    <path
        d="M109.698 7.72001C109.766 8.56401 110.187 19.0288 110.204 23.08C110.204 23.84 110.234 28.5072 110.272 29.1896C110.214 29.8078 110.225 30.4307 110.306 31.0464C110.706 31.6256 112.77 31.2608 113.479 31.2488C114.526 31.232 139.506 30.7424 144.333 30.7088C144.231 22.9448 144.367 15.2144 144.839 7.48401C133.125 7.52001 121.411 7.75441 109.698 7.72001Z"
        fill="#0B7DFF" />
    <path
        d="M40.0912 38.9792C40.296 38.8044 40.5532 38.703 40.8221 38.6908C41.091 38.6786 41.3563 38.7565 41.576 38.912C41.8488 39.1112 42.1504 38.672 41.9136 38.4728C41.7699 38.3261 41.5963 38.2121 41.4046 38.1386C41.2129 38.065 41.0076 38.0335 40.8027 38.0464C40.5978 38.0592 40.398 38.116 40.217 38.2129C40.036 38.3098 39.8779 38.4445 39.7536 38.608C39.6184 38.844 39.92 39.1144 40.0912 38.9792Z"
        fill="#272833" />
    <path
        d="M43.9391 39.3169C44.2669 39.229 44.6156 39.2652 44.9183 39.4185C44.9806 39.4484 45.0518 39.4536 45.1178 39.433C45.1837 39.4125 45.2394 39.3677 45.2736 39.3077C45.3078 39.2478 45.3179 39.177 45.3021 39.1098C45.2862 39.0426 45.2454 38.984 45.1879 38.9457C44.9816 38.7925 44.7372 38.6988 44.4813 38.675C44.2254 38.6512 43.9678 38.698 43.7367 38.8105C43.4319 38.9777 43.6351 39.3505 43.9391 39.3169Z"
        fill="#272833" />
    <path
        d="M39.1459 45.1569C39.1017 45.1145 39.0449 45.0876 38.9841 45.0801C38.9233 45.0727 38.8617 45.0851 38.8085 45.1155C38.7554 45.1459 38.7134 45.1927 38.689 45.2489C38.6646 45.3051 38.6591 45.3676 38.6731 45.4273C38.7979 46.3401 40.0587 46.6825 40.8003 46.5409C41.1379 46.4761 41.0699 45.9009 40.7323 45.9337C40.4188 45.9627 40.1034 45.9043 39.8211 45.7649C39.5483 45.6361 39.3827 45.3601 39.1459 45.1569Z"
        fill="#272833" />
    <path
        d="M122.897 66.9304C122.837 66.917 122.774 66.919 122.714 66.9363C122.655 66.9535 122.601 66.9855 122.557 67.0292C122.513 67.0729 122.481 67.1269 122.464 67.1862C122.447 67.2456 122.445 67.3084 122.458 67.3688C122.458 67.4024 122.492 67.4368 122.492 67.4704C122.509 67.5354 122.544 67.5946 122.591 67.6421C122.639 67.6896 122.698 67.7237 122.763 67.7408C122.828 67.758 122.897 67.7576 122.961 67.7398C123.026 67.7219 123.085 67.6872 123.132 67.6392C123.178 67.5909 123.21 67.532 123.226 67.4678C123.242 67.4037 123.242 67.3364 123.225 67.2724C123.208 67.2085 123.175 67.1498 123.13 67.102C123.084 67.0542 123.027 67.0188 122.963 66.9992C122.931 66.9304 122.931 66.9304 122.897 66.9304Z"
        fill="#272833" />
    <path
        d="M118.609 66.4912C118.509 66.4957 118.415 66.5387 118.346 66.611C118.277 66.6833 118.238 66.7796 118.238 66.8796C118.238 66.9797 118.277 67.0759 118.346 67.1482C118.415 67.2206 118.509 67.2635 118.609 67.268C118.709 67.2635 118.804 67.2206 118.873 67.1482C118.942 67.0759 118.981 66.9797 118.981 66.8796C118.981 66.7796 118.942 66.6833 118.873 66.611C118.804 66.5387 118.709 66.4957 118.609 66.4912Z"
        fill="#272833" />
    <path
        d="M119.454 69.2929C119.469 69.4088 119.511 69.5195 119.575 69.6168C119.64 69.714 119.726 69.7951 119.827 69.8538C119.928 69.9125 120.042 69.9473 120.158 69.9554C120.275 69.9636 120.392 69.9449 120.5 69.9009C120.736 69.7993 120.601 69.4281 120.365 69.4281C120.061 69.4617 119.933 69.0585 119.994 68.7881C120.045 68.5617 120.537 67.3481 120.567 67.2681C120.672 66.9985 120.234 66.8313 120.129 67.0649C119.84 67.7121 119.301 68.6145 119.454 69.2929Z"
        fill="#272833" />
    <path
        d="M122.155 64.8711C122.359 64.8043 122.579 64.8078 122.781 64.8812C122.983 64.9546 123.155 65.0936 123.268 65.2759C123.308 65.3164 123.36 65.3428 123.416 65.3512C123.472 65.3595 123.529 65.3494 123.579 65.3222C123.628 65.295 123.668 65.2523 123.691 65.2007C123.714 65.149 123.72 65.0911 123.707 65.0359C123.635 64.8774 123.533 64.7349 123.405 64.6167C123.277 64.4984 123.127 64.4068 122.964 64.3472C122.8 64.2876 122.626 64.2612 122.453 64.2696C122.279 64.2779 122.108 64.3209 121.951 64.3959C121.896 64.4274 121.854 64.4784 121.833 64.539C121.813 64.5996 121.815 64.6656 121.84 64.7245C121.865 64.7833 121.911 64.8308 121.969 64.8578C122.027 64.8849 122.093 64.8896 122.155 64.8711Z"
        fill="#272833" />
    <path
        d="M117.968 65.1409C118.385 64.8337 118.873 64.6364 119.387 64.5673C119.656 64.5673 119.758 64.1281 119.454 64.0609C119.109 63.9855 118.75 64.0124 118.42 64.1383C118.09 64.2642 117.804 64.4836 117.597 64.7697C117.496 65.0401 117.732 65.2801 117.968 65.1409Z"
        fill="#272833" />
    <path
        d="M121.074 63.7601C121.176 63.7601 121.275 63.7192 121.348 63.6465C121.421 63.5737 121.462 63.475 121.462 63.3721C121.462 63.2692 121.421 63.1705 121.348 63.0978C121.275 63.025 121.176 62.9841 121.074 62.9841C120.971 62.9841 120.872 63.025 120.799 63.0978C120.726 63.1705 120.686 63.2692 120.686 63.3721C120.686 63.475 120.726 63.5737 120.799 63.6465C120.872 63.7192 120.971 63.7601 121.074 63.7601Z"
        fill="#272833" />
    <path
        d="M121.648 71.8584C121.877 71.921 122.116 71.9351 122.351 71.8998C122.585 71.8645 122.81 71.7806 123.01 71.6534C123.21 71.5263 123.381 71.3588 123.513 71.1615C123.645 70.9643 123.734 70.7417 123.774 70.508C123.805 70.2376 123.374 70.1392 123.268 70.3736C123.165 70.6671 122.965 70.9169 122.701 71.0823C122.438 71.2478 122.126 71.3192 121.817 71.2848C121.446 71.2512 121.28 71.76 121.648 71.8584Z"
        fill="#272833" />
    <path
        d="M151.051 121.68C148.651 118.88 146.291 116.043 143.827 113.275C146.257 112.431 147.755 109.631 147.573 107.097C147.383 104.432 144.839 102.574 142.78 101.088C146.797 98.4217 148.94 92.6769 147.202 88.1281C145.294 83.1257 140.248 78.9121 134.948 77.0881C135.286 76.3793 135.092 75.7369 134.982 74.6881C134.927 74.0901 134.704 73.5196 134.34 73.042C133.976 72.5644 133.485 72.1989 132.923 71.9873C132.884 71.9736 132.849 71.9511 132.82 71.9217C132.791 71.8924 132.77 71.8568 132.757 71.8178C132.744 71.7787 132.74 71.7372 132.745 71.6965C132.751 71.6557 132.765 71.6168 132.788 71.5825C134.206 69.2865 135.5 66.6169 134.847 64.0209C134.184 61.3809 131.911 59.4969 129.479 58.5521C126.611 57.4377 124.46 57.8321 121.682 58.9233C120.975 59.2001 120.199 59.2337 119.454 59.4633C116.211 60.4657 115.999 64.8833 115.909 68.0713C115.958 70.8959 115.687 73.7169 115.099 76.4801C115.08 76.5529 115.035 76.6166 114.973 76.6604C114.912 76.7041 114.837 76.7252 114.762 76.7201C114.165 76.6484 113.561 76.7836 113.052 77.1029C112.542 77.4223 112.158 77.9067 111.962 78.4753C111.628 79.5473 111.582 80.6879 111.827 81.7833C110.811 82.6384 109.914 83.6262 109.16 84.7201C108.185 86.1745 107.945 87.6233 107.439 89.2097C106.899 89.2433 106.357 89.2665 105.819 89.3449C105.713 89.3507 105.613 89.3951 105.539 89.4698C105.464 89.5445 105.419 89.6442 105.413 89.7497C105.447 91.8097 106.314 94.0065 106.865 95.9953C107.726 99.1049 108.654 102.207 109.7 105.244C109.725 105.314 109.773 105.373 109.835 105.413C109.205 106.393 108.964 107.573 109.16 108.722C109.527 111.254 111.491 113.042 113.38 114.562C117.878 118.31 122.863 121.432 128.199 123.842C130.25 124.885 132.413 125.689 134.647 126.238C134.341 126.707 134.081 127.204 133.871 127.723C133.231 129.323 132.317 133.293 135.187 133.259C137.432 133.233 140.004 130.615 141.095 129.04C143.11 126.127 142.48 124.663 139.947 122.491C141.297 123.436 142.647 124.348 143.998 125.226C141.735 127.65 142.567 131.952 146.36 131.437C149.062 131.07 152.341 129.312 153.551 126.744C153.778 126.253 153.893 125.716 153.886 125.175C153.879 124.633 153.751 124.1 153.511 123.614C153.272 123.129 152.926 122.703 152.5 122.368C152.075 122.034 151.579 121.798 151.051 121.68ZM153.143 124.819L144.503 124.684C139.811 121.41 135.009 118.178 130.933 114.119C129.108 112.426 127.425 110.585 125.903 108.616C124.351 106.456 122.393 102.709 124.587 100.312C127.119 97.5441 130.874 101.45 132.79 103.112C139.393 108.847 144.176 114.897 150.343 122.118C149.339 122.824 146.587 123.124 144.502 124.688L153.143 124.819ZM155.203 106.019C156.258 108.48 154.628 112.095 152.063 112.906C149.085 109.511 147.371 107.81 145.447 105.884C145.683 104.838 145.885 103.758 146.122 102.711C147.745 102.792 149.358 102.418 150.78 101.631C143.489 103.084 145.691 103.857 146.56 105.886L155.203 106.019ZM138.256 84.2801C136.642 85.9737 133.563 86.1153 131.37 85.9681C129.512 85.8433 127.648 85.1945 126.982 83.2673C126.613 81.829 126.602 80.3225 126.947 78.8785C127.42 78.7097 127.893 78.5753 128.366 78.4401C129.415 80.6433 135.646 80.2305 137.48 76.9881C138.28 76.9489 139.082 76.9604 139.88 77.0225C131.37 79.3529 131.411 82.2625 129.615 84.1465L138.256 84.2801ZM126.576 63.7897C127.936 63.1678 129.06 62.1264 129.783 60.8185C129.809 60.7796 129.845 60.7477 129.886 60.7256C129.927 60.7035 129.973 60.6919 130.02 60.6919C130.067 60.6919 130.113 60.7035 130.154 60.7256C130.195 60.7477 130.23 60.7796 130.256 60.8185C130.719 61.6116 131.386 62.2653 132.188 62.7109C132.991 63.1565 133.899 63.3775 134.816 63.3505C135.511 63.3505 134.851 64.7633 134.783 65.8489C134.73 66.6937 135.188 67.7449 136.063 67.7049C136.703 67.6761 137.209 67.0065 137.852 67.0977C137.983 67.125 138.106 67.1778 138.216 67.253C138.326 67.3283 138.42 67.4245 138.492 67.5361C138.666 67.7679 138.772 68.0428 138.8 68.331C138.829 68.6191 138.777 68.9094 138.652 69.1704C138.527 69.4314 138.332 69.6531 138.09 69.8113C137.848 69.9696 137.566 70.0584 137.277 70.0681C137.215 70.0637 137.154 70.0817 137.104 70.1189C137.055 70.1561 137.02 70.21 137.007 70.2705L135.657 75.6721C135.618 75.8343 135.617 76.0033 135.653 76.1661C135.69 76.3289 135.763 76.4812 135.867 76.6115C135.971 76.7417 136.104 76.8465 136.254 76.9177C136.405 76.989 136.57 77.0248 136.737 77.0225C135.908 77.9883 134.799 78.6724 133.564 78.9801C132.519 79.2537 129.919 79.4185 129.075 78.3049C129.144 78.2793 129.204 78.2334 129.247 78.1732C129.29 78.113 129.313 78.0412 129.315 77.9673C129.315 77.3247 129.281 76.6824 129.213 76.0433L129.281 74.9969C131.374 75.1657 133.528 73.4769 134.615 71.7225C134.783 71.4513 134.38 71.2513 134.21 71.4825C132.277 74.1345 128.621 75.7137 126.58 72.2257C125.737 70.5956 125.429 68.741 125.7 66.9257C125.91 65.9421 126.181 64.9725 126.511 64.0225C117.834 63.7601 117.867 63.6897 117.935 63.6561L126.576 63.7897ZM118.103 85.6641C120.114 82.6951 122.973 80.4012 126.307 79.0817C125.407 83.2209 126.702 86.1689 130.999 86.5753C133.363 86.7993 136.714 86.6553 138.56 84.9209C140.597 83.0097 140.855 79.7209 140.586 77.0561C141.297 77.1618 141.998 77.3313 142.679 77.5625C147.324 79.0513 152.221 82.6345 154.599 87.2169C155.39 88.6824 155.795 90.3248 155.777 91.9901C155.76 93.6553 155.319 95.2887 154.497 96.7369C152.81 99.7769 149.805 102.104 146.261 102.037C147.071 98.2561 147.807 94.4225 148.792 90.6945C148.808 90.6427 148.812 90.5878 148.802 90.5343C148.793 90.4809 148.77 90.4306 148.737 90.3875C148.704 90.3445 148.661 90.3101 148.612 90.287C148.563 90.264 148.509 90.2532 148.455 90.2553C147.375 90.1545 146.328 90.0873 145.248 90.0153C145.354 89.4414 145.32 88.8505 145.149 88.2924C144.979 87.7343 144.677 87.2253 144.269 86.8081C144.033 86.5721 143.729 86.9097 143.931 87.1457C144.249 87.5385 144.476 87.9958 144.599 88.4855C144.721 88.9753 144.735 89.4859 144.64 89.9817C141.2 89.7457 137.754 89.5713 134.344 89.4081C128.478 89.0258 122.596 88.9694 116.723 89.2393C114.029 88.6361 111.53 87.3602 109.462 85.5305L118.103 85.6641ZM107.84 96.0961C107.31 94.1697 106.456 92.0457 106.287 90.0537C116.795 89.1153 127.839 90.0977 139.336 90.8641C138.289 95.6913 137.209 100.519 136.296 105.379C134.71 103.859 133.016 102.38 131.336 100.991C129.746 99.6793 127.759 98.2585 125.598 98.9321C120.603 100.489 123.788 107.192 125.767 109.802C126.276 110.475 126.813 111.119 127.387 111.759C122.722 107.872 115.183 100.588 110.441 104.738C109.495 101.835 108.631 98.9601 107.84 96.0961ZM134.88 125.6C131.471 124.823 128.16 123.006 125.057 121.414C122.788 120.207 120.601 118.854 118.508 117.363C116.146 115.854 113.941 114.112 111.925 112.163C110.026 110.18 108.547 106.218 111.723 104.567C116.168 102.258 122.683 108.627 126.475 111.893C128.56 113.691 130.725 115.407 132.787 117.26C134.743 119.02 136.905 120.603 138.863 122.358C137.312 123.118 135.985 124.27 135.015 125.699C134.976 125.658 134.931 125.625 134.88 125.6ZM134.137 129.313C134.5 127.932 135.151 126.644 136.047 125.533C136.944 124.422 138.065 123.513 139.337 122.866V122.899C139.64 123.17 139.977 123.439 140.248 123.71C137.649 125.094 134.779 127.355 134.341 130.43C134.255 130.914 134.29 131.413 134.442 131.881C133.913 131.139 133.767 130.845 134.138 129.313H134.137ZM143.758 129.415C142.625 127.044 145.002 125.015 146.83 124.215C149.906 122.871 150.312 122.923 150.679 122.594C150.726 122.539 150.783 122.493 150.847 122.459H150.881C151.332 122.561 151.752 122.767 152.11 123.06C152.467 123.353 152.751 123.725 152.94 124.147C151.961 123.675 150.947 124.178 150.037 124.687C148.681 125.382 147.44 126.282 146.357 127.354C145.851 127.894 144.837 129.548 145.007 130.561C144.734 130.461 144.483 130.309 144.269 130.112C144.055 129.916 143.882 129.678 143.76 129.415H143.758Z"
        fill="#272833" />
    <path
        d="M76.4473 83.2688C75.7235 83.1797 75.0241 82.9503 74.3881 82.5936C74.0833 82.3928 73.8145 82.8632 74.0841 83.1C74.4057 83.3768 74.7836 83.5805 75.1916 83.6971C75.5996 83.8137 76.028 83.8403 76.4473 83.7752C76.4992 83.7562 76.544 83.7217 76.5757 83.6764C76.6073 83.6312 76.6243 83.5772 76.6243 83.522C76.6243 83.4667 76.6073 83.4128 76.5757 83.3675C76.544 83.3222 76.4992 83.2878 76.4473 83.2688Z"
        fill="#272833" />
    <path
        d="M113.749 21.36C115.977 22 118.25 22.6264 120.534 23.1824C120.637 23.2092 120.746 23.1941 120.838 23.1403C120.929 23.0865 120.996 22.9985 121.023 22.8956C121.05 22.7927 121.035 22.6833 120.981 22.5916C120.927 22.4998 120.839 22.4332 120.736 22.4064C118.682 21.701 116.585 21.126 114.458 20.6848C115.432 18.9408 116.479 18.4264 120.669 14.2368C120.905 13.9968 120.534 13.6296 120.298 13.8656C118.002 15.824 114.766 17.9208 113.478 20.752C113.447 20.8084 113.429 20.8713 113.426 20.9358C113.423 21.0003 113.435 21.0645 113.462 21.1235C113.488 21.1825 113.528 21.2346 113.577 21.2756C113.627 21.3167 113.686 21.3455 113.749 21.36Z"
        fill="#272833" />
    <path
        d="M122.762 27.8736C124.734 25.2168 126.133 22.0336 127.826 19.1976C129.542 16.3256 131.452 13.5552 133.125 10.6576C133.299 10.356 132.855 10.1168 132.653 10.3872C130.588 13.1512 128.807 16.0936 127.015 19.0624C125.364 21.7984 123.325 24.6152 122.188 27.6032C122.047 27.9728 122.56 28.144 122.762 27.8736Z"
        fill="#272833" />
    <path
        d="M134.408 14.3368C136.393 15.5624 138.728 16.2608 140.653 17.544C140.51 17.6941 140.375 17.8516 140.248 18.016C138.771 19.72 136.63 21.8192 135.421 23.0464C135.346 23.1226 135.303 23.2256 135.303 23.3328C135.304 23.4401 135.346 23.5429 135.422 23.6188C135.498 23.6946 135.601 23.7374 135.708 23.7376C135.815 23.7378 135.918 23.6955 135.995 23.62C137.481 22.2008 138.904 20.756 140.282 19.2656C140.655 18.8656 141.83 17.9504 141.632 17.3072C141.425 16.6336 139.772 16.1664 139.202 15.8896C137.716 15.0988 136.182 14.3999 134.611 13.7968C134.341 13.6616 134.137 14.1696 134.408 14.3368Z"
        fill="#272833" />
    <path
        d="M68.9528 20.548H85.36C85.8368 20.538 86.2907 20.3415 86.6244 20.0008C86.9581 19.66 87.145 19.2021 87.145 18.7252C87.145 18.2482 86.9581 17.7903 86.6244 17.4495C86.2907 17.1088 85.8368 16.9123 85.36 16.9024H68.9528C68.7132 16.9014 68.4758 16.9479 68.2543 17.0391C68.0327 17.1304 67.8314 17.2646 67.662 17.434C67.4926 17.6034 67.3584 17.8047 67.2672 18.0262C67.1759 18.2478 67.1294 18.4852 67.1304 18.7248C67.1348 19.2068 67.3281 19.6679 67.6689 20.0088C68.0097 20.3498 68.4707 20.5434 68.9528 20.548Z"
        fill="#272833" />
    <path
        d="M92.8527 20.548H98.4903C98.7329 20.5531 98.974 20.5097 99.1996 20.4203C99.4252 20.331 99.6307 20.1976 99.8041 20.0278C99.9775 19.858 100.115 19.6554 100.209 19.4317C100.303 19.208 100.352 18.9678 100.352 18.7252C100.352 18.4825 100.303 18.2423 100.209 18.0187C100.115 17.795 99.9775 17.5923 99.8041 17.4225C99.6307 17.2528 99.4252 17.1193 99.1996 17.03C98.974 16.9407 98.7329 16.8973 98.4903 16.9024H92.8527C92.6131 16.9014 92.3757 16.9479 92.1542 17.0392C91.9326 17.1304 91.7314 17.2646 91.5619 17.434C91.3925 17.6034 91.2583 17.8047 91.1671 18.0262C91.0758 18.2478 91.0293 18.4852 91.0303 18.7248C91.0347 19.2068 91.2281 19.6679 91.5688 20.0089C91.9096 20.3498 92.3706 20.5434 92.8527 20.548Z"
        fill="#272833" />
    <path
        d="M85.3602 41.444H68.953C68.4762 41.454 68.0222 41.6504 67.6885 41.9911C67.3548 42.3319 67.168 42.7898 67.168 43.2668C67.168 43.7437 67.3548 44.2016 67.6885 44.5424C68.0222 44.8831 68.4762 45.0796 68.953 45.0896H85.3602C85.837 45.0796 86.2909 44.8831 86.6246 44.5424C86.9583 44.2016 87.1452 43.7437 87.1452 43.2668C87.1452 42.7898 86.9583 42.3319 86.6246 41.9911C86.2909 41.6504 85.837 41.454 85.3602 41.444Z"
        fill="#272833" />
    <path
        d="M98.5241 41.444H92.8873C92.6447 41.4389 92.4035 41.4823 92.1779 41.5716C91.9523 41.661 91.7468 41.7944 91.5735 41.9642C91.4001 42.1339 91.2624 42.3366 91.1683 42.5603C91.0743 42.784 91.0259 43.0242 91.0259 43.2668C91.0259 43.5094 91.0743 43.7496 91.1683 43.9733C91.2624 44.197 91.4001 44.3997 91.5735 44.5694C91.7468 44.7392 91.9523 44.8727 92.1779 44.962C92.4035 45.0513 92.6447 45.0947 92.8873 45.0896H98.5241C98.7667 45.0947 99.0078 45.0513 99.2334 44.962C99.459 44.8727 99.6645 44.7392 99.8379 44.5694C100.011 44.3997 100.149 44.197 100.243 43.9733C100.337 43.7496 100.385 43.5094 100.385 43.2668C100.385 43.0242 100.337 42.784 100.243 42.5603C100.149 42.3366 100.011 42.1339 99.8379 41.9642C99.6645 41.7944 99.459 41.661 99.2334 41.5716C99.0078 41.4823 98.7667 41.4389 98.5241 41.444Z"
        fill="#272833" />
    <path
        d="M68.7841 28.8184H77.7297C77.9722 28.8234 78.2134 28.7801 78.439 28.6907C78.6646 28.6014 78.8701 28.468 79.0435 28.2982C79.2168 28.1284 79.3546 27.9258 79.4486 27.7021C79.5426 27.4784 79.591 27.2382 79.591 26.9956C79.591 26.7529 79.5426 26.5127 79.4486 26.289C79.3546 26.0654 79.2168 25.8627 79.0435 25.6929C78.8701 25.5232 78.6646 25.3897 78.439 25.3004C78.2134 25.2111 77.9722 25.1677 77.7297 25.1728H68.7841C68.3006 25.1734 67.8372 25.3657 67.4953 25.7074C67.1534 26.0492 66.9609 26.5125 66.9601 26.996C66.9576 27.2361 67.0031 27.4743 67.0939 27.6966C67.1847 27.919 67.319 28.1209 67.4889 28.2907C67.6588 28.4604 67.8609 28.5945 68.0833 28.6851C68.3057 28.7757 68.5439 28.821 68.7841 28.8184Z"
        fill="#272833" />
    <path
        d="M85.0215 25.1728C84.779 25.1677 84.5378 25.2111 84.3122 25.3004C84.0866 25.3897 83.8811 25.5232 83.7077 25.6929C83.5344 25.8627 83.3966 26.0654 83.3026 26.289C83.2086 26.5127 83.1602 26.7529 83.1602 26.9956C83.1602 27.2382 83.2086 27.4784 83.3026 27.7021C83.3966 27.9258 83.5344 28.1284 83.7077 28.2982C83.8811 28.468 84.0866 28.6014 84.3122 28.6907C84.5378 28.7801 84.779 28.8234 85.0215 28.8184H86.8103C87.0529 28.8234 87.2941 28.7801 87.5197 28.6907C87.7453 28.6014 87.9508 28.468 88.1242 28.2982C88.2975 28.1284 88.4352 27.9258 88.5293 27.7021C88.6233 27.4784 88.6717 27.2382 88.6717 26.9956C88.6717 26.7529 88.6233 26.5127 88.5293 26.289C88.4352 26.0654 88.2975 25.8627 88.1242 25.6929C87.9508 25.5232 87.7453 25.3897 87.5197 25.3004C87.2941 25.2111 87.0529 25.1677 86.8103 25.1728H85.0215Z"
        fill="#272833" />
    <path
        d="M69.0882 37.46H74.7258C74.9684 37.465 75.2096 37.4217 75.4352 37.3323C75.6608 37.243 75.8663 37.1096 76.0396 36.9398C76.213 36.77 76.3507 36.5674 76.4448 36.3437C76.5388 36.12 76.5872 35.8798 76.5872 35.6372C76.5872 35.3945 76.5388 35.1543 76.4448 34.9306C76.3507 34.707 76.213 34.5043 76.0396 34.3345C75.8663 34.1648 75.6608 34.0313 75.4352 33.942C75.2096 33.8527 74.9684 33.8093 74.7258 33.8144H69.0882C68.6114 33.8244 68.1575 34.0208 67.8238 34.3615C67.4901 34.7023 67.3032 35.1602 67.3032 35.6372C67.3032 36.1141 67.4901 36.572 67.8238 36.9128C68.1575 37.2535 68.6114 37.45 69.0882 37.46Z"
        fill="#272833" />
    <path
        d="M82.5232 35.6376C82.5222 35.8773 82.5687 36.1148 82.66 36.3363C82.7513 36.5579 82.8856 36.7592 83.0551 36.9287C83.2246 37.0981 83.426 37.2323 83.6476 37.3235C83.8692 37.4147 84.1067 37.4611 84.3464 37.46H89.984C90.4608 37.45 90.9147 37.2536 91.2484 36.9129C91.5821 36.5721 91.769 36.1142 91.769 35.6372C91.769 35.1603 91.5821 34.7024 91.2484 34.3616C90.9147 34.0209 90.4608 33.8244 89.984 33.8144H84.3464C84.1059 33.8107 83.8671 33.8552 83.6442 33.9455C83.4213 34.0358 83.2188 34.17 83.0488 34.34C82.8787 34.5101 82.7445 34.7126 82.6543 34.9355C82.564 35.1584 82.5194 35.3972 82.5232 35.6376Z"
        fill="#272833" />
    <path
        d="M72.7339 77.3601C73.5171 77.1591 74.3302 77.102 75.1339 77.1913C75.4051 77.2193 75.4371 76.8225 75.2019 76.7529C74.3323 76.49 73.3971 76.5499 72.5683 76.9217C72.2619 77.0233 72.4643 77.4289 72.7339 77.3601Z"
        fill="#272833" />
    <path
        d="M77.7298 77.5295C78.6236 77.4276 79.5287 77.4963 80.397 77.7319C80.6674 77.8335 80.8018 77.4287 80.5994 77.2935C79.669 76.9062 78.6372 76.8351 77.6626 77.0911C77.4266 77.1247 77.4938 77.5295 77.7298 77.5295Z"
        fill="#272833" />
    <path
        d="M74.2864 78.3735C73.924 78.2505 73.5513 78.1602 73.1728 78.1039C72.9704 78.0687 72.732 78.3439 72.9368 78.5087C73.2963 78.7279 73.6992 78.866 74.1176 78.9135C74.1536 78.9267 74.1919 78.9324 74.2301 78.9303C74.2684 78.9282 74.3058 78.9184 74.3402 78.9014C74.3745 78.8844 74.4051 78.8607 74.43 78.8316C74.4549 78.8024 74.4736 78.7686 74.4851 78.732C74.4965 78.6954 74.5004 78.6569 74.4965 78.6188C74.4926 78.5807 74.481 78.5437 74.4625 78.5102C74.4439 78.4767 74.4187 78.4473 74.3884 78.4238C74.3582 78.4003 74.3235 78.3832 74.2864 78.3735Z"
        fill="#272833" />
    <path
        d="M79.7216 78.4072C79.2762 78.4226 78.8342 78.4908 78.4048 78.6104C78.1352 78.6776 78.1649 79.1448 78.4729 79.1168C78.9184 79.0808 79.3593 79.0004 79.7888 78.8768C79.8437 78.8601 79.8907 78.8244 79.9215 78.7761C79.9523 78.7277 79.9647 78.6699 79.9566 78.6132C79.9485 78.5565 79.9203 78.5045 79.8772 78.4667C79.8341 78.429 79.7789 78.4079 79.7216 78.4072Z"
        fill="#272833" />
    <path
        d="M75.3672 80.8385C75.5783 80.8683 75.7935 80.8401 75.9897 80.7568C76.1859 80.6735 76.3557 80.5383 76.4808 80.3657C76.5814 80.1318 76.6166 79.8749 76.5824 79.6225C76.5488 79.2177 76.5232 78.8457 76.4808 78.4417C76.4528 78.1705 76.0424 78.1377 76.0424 78.4417C76.0424 80.2881 76.1816 80.1649 75.3336 80.3617C75.2745 80.3714 75.2212 80.4027 75.1841 80.4497C75.147 80.4966 75.1287 80.5557 75.1329 80.6154C75.1371 80.6751 75.1635 80.7311 75.2068 80.7724C75.2502 80.8136 75.3074 80.8372 75.3672 80.8385Z"
        fill="#272833" />
    <path
        d="M120.771 97.7169C120.596 97.8299 120.451 97.983 120.347 98.1633C120.243 98.3437 120.184 98.5462 120.174 98.754C120.164 98.9619 120.204 99.1691 120.29 99.3585C120.376 99.548 120.506 99.7142 120.669 99.8433C121.749 101.531 124.682 99.3081 123.201 97.8177C122.857 97.5492 122.438 97.3951 122.002 97.377C121.566 97.359 121.136 97.4778 120.771 97.7169ZM121.074 99.4721C120.13 98.0977 122.255 97.6945 122.795 98.3241C123.367 98.9897 122.312 100.298 121.074 99.4721Z"
        fill="#272833" />
    <path
        d="M40.8675 40.0592C40.7719 40.0636 40.6817 40.1047 40.6156 40.1739C40.5496 40.2431 40.5127 40.3351 40.5127 40.4308C40.5127 40.5265 40.5496 40.6185 40.6156 40.6877C40.6817 40.7569 40.7719 40.798 40.8675 40.8024C40.963 40.798 41.0532 40.7569 41.1193 40.6877C41.1853 40.6185 41.2222 40.5265 41.2222 40.4308C41.2222 40.3351 41.1853 40.2431 41.1193 40.1739C41.0532 40.1047 40.963 40.0636 40.8675 40.0592Z"
        fill="#272833" />
    <path
        d="M44.7199 40.8696C44.6941 40.8662 44.6702 40.8544 44.6519 40.836C44.0783 40.6336 44.0447 41.7472 44.6519 41.5448C44.6855 41.5448 44.7199 41.5448 44.7199 41.5112C44.7922 41.4941 44.8566 41.4532 44.9027 41.395C44.9487 41.3367 44.9738 41.2646 44.9738 41.1904C44.9738 41.1161 44.9487 41.044 44.9027 40.9858C44.8566 40.9276 44.7922 40.8866 44.7199 40.8696Z"
        fill="#272833" />
    <path
        d="M108.246 91.44C114.053 91.0352 119.856 91.2712 125.698 91.3728C126.07 91.3792 126.07 90.7896 125.698 90.7648C119.799 90.3792 113.831 90.1096 107.976 90.9336C107.935 90.9388 107.896 90.9536 107.862 90.9769C107.828 91.0002 107.8 91.0312 107.78 91.0674C107.76 91.1037 107.749 91.1441 107.748 91.1853C107.747 91.2266 107.756 91.2675 107.774 91.3048V91.3392C107.832 91.9393 107.968 92.5293 108.178 93.0944C108.366 93.7984 108.449 94.512 108.584 95.2208C108.604 95.2767 108.643 95.324 108.694 95.3549C108.745 95.3857 108.805 95.3983 108.864 95.3904C108.923 95.3826 108.978 95.3549 109.019 95.3118C109.06 95.2687 109.085 95.2129 109.09 95.1536C108.881 93.9004 108.599 92.6605 108.246 91.44Z"
        fill="#272833" />
    <path
        d="M41.9817 70.7113C41.949 70.7066 41.9158 70.7096 41.8845 70.72C41.8533 70.7304 41.8249 70.748 41.8016 70.7713C41.7783 70.7946 41.7608 70.823 41.7503 70.8542C41.7399 70.8855 41.737 70.9187 41.7416 70.9513C41.7656 72.3113 41.2225 72.4089 40.4617 76.7913C40.3969 77.1633 40.9688 77.3313 41.0352 76.9601C41.2408 75.8129 41.4129 74.6665 41.7105 73.5505C41.9687 72.7847 42.1386 71.9918 42.2169 71.1873C47.1456 71.2553 52.0736 71.2721 56.9688 71.2889C57.0495 71.2889 57.1268 71.2569 57.1838 71.1999C57.2408 71.1429 57.2729 71.0656 57.2729 70.9849C57.2729 70.9043 57.2408 70.827 57.1838 70.77C57.1268 70.713 57.0495 70.6809 56.9688 70.6809C40.9392 70.6225 42.0865 70.6057 41.9817 70.7113Z"
        fill="#272833" />
    <path
        d="M32.4283 55.6552C32.5268 55.6552 32.6212 55.6161 32.6908 55.5465C32.7604 55.4769 32.7995 55.3825 32.7995 55.284C32.7995 55.1856 32.7604 55.0912 32.6908 55.0216C32.6212 54.952 32.5268 54.9128 32.4283 54.9128C32.3299 54.9128 32.2355 54.952 32.1659 55.0216C32.0962 55.0912 32.0571 55.1856 32.0571 55.284C32.0571 55.3825 32.0962 55.4769 32.1659 55.5465C32.2355 55.6161 32.3299 55.6552 32.4283 55.6552Z"
        fill="#272833" />
    <path
        d="M32.2591 57.8496C32.2406 57.764 32.2064 57.6827 32.1583 57.6096C32.1294 57.564 32.0895 57.5264 32.0422 57.5004C31.9949 57.4743 31.9419 57.4607 31.8879 57.4607C31.8339 57.4607 31.7808 57.4743 31.7336 57.5004C31.6863 57.5264 31.6463 57.564 31.6175 57.6096C31.5775 57.6867 31.5438 57.767 31.5167 57.8496C31.4151 58.4568 32.3943 58.4568 32.2591 57.8496Z"
        fill="#272833" />
    <path
        d="M100.08 113.04C105.176 107.216 99.7801 99.7224 93.2953 95.3848C88.7601 92.3598 83.5101 90.5788 78.0705 90.22C77.9296 88.773 77.8732 87.3191 77.9017 85.8656C82.0265 84.3656 82.3169 79.9328 81.9865 75.6368C82.4426 75.5621 82.8785 75.3948 83.2675 75.1452C83.6564 74.8956 83.9902 74.569 84.2481 74.1856C84.7677 73.4935 85.0971 72.6776 85.2038 71.8189C85.3104 70.9602 85.1906 70.0884 84.8561 69.2904C84.0113 67.3704 82.5265 66.66 80.5017 66.7248C79.427 66.7642 78.3661 66.9804 77.3617 67.3648C76.3121 67.7648 75.5057 68.616 74.5265 69.0192C73.0425 69.6296 71.5217 68.3264 70.0025 68.3792C67.3169 68.4704 66.1113 70.8408 67.3025 72.4976C66.8447 72.7517 66.4879 73.1551 66.2913 73.6404C66.0948 74.1257 66.0705 74.6637 66.2225 75.1648C66.3456 75.6293 66.6096 76.0442 66.9782 76.3525C67.3468 76.6608 67.8019 76.8473 68.2809 76.8864C68.1465 77.5952 67.7761 80.3264 68.9561 81.308C69.1593 81.4768 69.5961 81.916 69.8681 81.7808C69.9017 81.7808 69.9017 81.7472 69.9353 81.7472C70.0237 82.4542 70.2548 83.136 70.6146 83.7511C70.9743 84.3662 71.4552 84.9018 72.0281 85.3256C71.9609 87.0808 71.7585 88.836 71.6569 90.6248C63.8561 90.4248 55.1601 94.08 50.3201 100.248C46.6841 104.881 45.5241 111.795 49.8817 116.384C53.1201 119.795 58.1545 120.805 62.6417 121.144C63.0465 121.174 63.0465 120.539 62.6417 120.504C60.5188 120.31 58.424 119.881 56.3961 119.224C56.4444 119.168 56.4688 119.095 56.4641 119.021C56.3348 117.593 56.5963 116.157 57.2206 114.867C57.8449 113.577 58.8085 112.481 60.0081 111.696C60.3281 111.472 59.5577 111.13 61.4937 112.236C62.4729 115.713 63.4513 119.224 64.3633 122.701C63.3505 122.87 62.5401 123.005 61.8985 123.139C62.6081 123.443 63.2881 123.769 63.9921 124.085C66.2162 124.993 68.3907 126.019 70.5065 127.157C70.8473 127.354 70.5409 127.832 70.2033 127.697C64.7025 125.137 53.0833 119.434 47.1809 120.81C46.0955 121.075 45.1152 121.662 44.3685 122.493C43.6217 123.324 43.1431 124.361 42.9953 125.469C41.9605 125.6 40.9725 125.979 40.1147 126.572C39.2569 127.165 38.5544 127.956 38.0665 128.878C37.8665 129.251 38.4289 129.582 38.6401 129.216C39.0009 128.597 39.4696 128.048 40.0241 127.595C39.9163 127.939 39.8876 128.303 39.9403 128.66C39.9929 129.016 40.1255 129.356 40.3281 129.654C40.3638 129.717 40.423 129.763 40.4927 129.782C40.5623 129.801 40.6366 129.792 40.6993 129.756C40.762 129.72 40.8079 129.661 40.827 129.591C40.846 129.522 40.8367 129.447 40.8009 129.385C40.6005 128.99 40.5133 128.548 40.5491 128.107C40.5848 127.666 40.742 127.243 41.0033 126.886C41.5509 126.549 42.1581 126.32 42.7921 126.211C42.5008 126.377 42.251 126.607 42.0618 126.883C41.8726 127.16 41.7489 127.476 41.7001 127.808C41.6513 128.139 41.6787 128.478 41.7801 128.797C41.8816 129.116 42.0545 129.409 42.2857 129.651C42.5177 129.859 42.8913 129.586 42.7249 129.314C42.435 128.945 42.2919 128.483 42.3231 128.016C42.3542 127.548 42.5575 127.109 42.8937 126.782C42.9073 128.487 43.4896 130.138 44.5481 131.474C42.2381 131.792 39.8934 131.757 37.5937 131.373C36.7859 131.348 35.9823 131.246 35.1937 131.07C34.4817 130.809 34.5881 130.495 34.5185 129.719C34.4529 128.976 34.4849 128.199 34.4513 127.458C36.2613 126.992 38.0992 126.642 39.9537 126.41C40.6737 105.37 43.2065 96.2504 43.2953 91.7088C53.9761 91.1536 56.0801 90.8344 58.1145 90.088C59.1412 89.7595 60.0901 89.2248 60.9028 88.5166C61.7155 87.8084 62.3751 86.9417 62.8409 85.9696C63.2263 85.075 63.3421 84.0875 63.1741 83.128C63.0061 82.1686 62.5617 81.2791 61.8953 80.5688C63.2457 76.7544 64.7345 72.9976 65.9801 69.1592C65.9932 69.112 65.9953 69.0624 65.9862 69.0143C65.9772 68.9662 65.9572 68.9208 65.9278 68.8816C65.8985 68.8424 65.8605 68.8105 65.8169 68.7883C65.7732 68.7661 65.7251 68.7542 65.6761 68.7536C59.5665 68.7368 53.4561 68.6864 47.3465 68.6864C47.3465 62.456 44.9577 57.228 37.2865 52.7528C37.8273 51.3688 38.1985 49.884 38.6369 48.4656C39.8856 48.7163 41.1824 48.5379 42.3169 47.9592C42.6495 47.8331 42.9578 47.6504 43.2281 47.4192C43.4975 47.2327 43.7464 47.0181 43.9705 46.7792C46.3337 44.3792 46.7049 39.5552 45.6585 36.4152C47.1633 35.2872 46.6401 32.3248 43.0593 30.6096C39.9233 29.1072 36.1505 29.0992 34.2489 31.9592C33.3635 33.2924 32.8185 34.8224 32.6617 36.4152C32.3417 39.6392 32.1937 40.8824 32.9017 42.6944C32.9353 42.8296 33.8129 44.0784 33.9817 43.9096C33.1377 46.3096 32.4289 48.7704 31.3489 51.1C26.5889 50.8968 21.1937 52.86 18.0145 56.4336C15.2145 59.5768 13.1433 64.164 13.2553 68.4504C13.3785 73.1768 16.6953 76.384 20.6817 78.4432C19.4543 80.7489 18.6862 83.271 18.4201 85.8696C20.8201 85.9704 23.2121 85.9536 25.6441 85.9032C25.9473 85.8968 25.9481 86.344 25.6441 86.376C23.2221 86.6313 20.7873 86.744 18.3521 86.7136C18.3521 86.8112 18.3905 86.6712 17.6097 86.9832C15.0105 86.7808 12.4449 86.8144 10.4193 88.604C7.63641 91.0888 5.48416 94.1997 4.1401 97.68C3.2289 100.28 7.0113 100.725 8.7305 100.08C10.1173 99.4551 11.3417 98.5195 12.3089 97.3456C13.6961 95.8632 15.1089 94.3752 16.4609 92.8904C19.0601 92.6872 21.4569 92.5528 23.6513 92.4512C25.6563 92.6971 27.6816 92.7312 29.6937 92.5528C29.2857 102.339 31.2193 114.158 33.0017 123.136C33.2115 124.517 33.5163 125.882 33.9137 127.221C33.8457 128.267 33.5433 129.955 33.8457 130.934C33.9817 131.373 33.9177 131.366 34.2849 131.574C35.1393 132.064 36.9841 131.954 37.9649 132.081C40.1577 132.367 42.7921 132.655 45.0537 132.081C47.5857 134.881 51.7057 136.125 55.3161 136.908C60.2688 137.933 65.3144 138.442 70.3721 138.428C70.5782 137.804 70.8262 137.196 71.1145 136.606C71.6467 135.462 72.3781 134.421 73.2745 133.534C73.4785 133.333 73.8481 133.602 73.6793 133.838C72.8493 134.892 72.1573 136.048 71.6201 137.278C71.4785 137.646 70.6745 139.471 71.1809 139.742C70.3862 139.956 69.608 140.226 68.8521 140.552C66.8083 141.368 64.897 142.482 63.1809 143.86C61.0945 145.522 55.9233 149.97 59.7713 152.569C64.2905 155.622 71.6457 146.451 75.4009 142.037C75.5898 142.155 75.7942 142.246 76.0081 142.307C78.1287 144.334 80.7313 145.786 83.5697 146.526C86.5157 147.363 89.6214 147.467 92.6169 146.83C94.5409 146.322 95.5769 144.574 94.5073 142.746C93.1473 140.426 89.9065 139.274 87.4521 138.666C86.9433 138.538 86.7073 139.35 87.2121 139.475C89.2603 139.88 91.181 140.771 92.8121 142.074C92.3449 141.793 91.8466 141.567 91.3273 141.4C88.5119 140.464 85.5814 139.918 82.6177 139.779C88.5339 135.764 94.1112 131.27 99.2937 126.344C101.085 124.692 102.97 123.054 104.188 120.943C106.505 116.942 104.828 113.04 100.08 113.04ZM12.9505 95.4888C12.7173 94.968 12.3727 94.5046 11.9411 94.1314C11.5094 93.7582 11.0011 93.4842 10.4521 93.3288C10.392 93.3185 10.3302 93.3308 10.2787 93.3633C10.2271 93.3958 10.1894 93.4462 10.1727 93.5048C10.156 93.5635 10.1616 93.6262 10.1884 93.681C10.2151 93.7357 10.2612 93.7787 10.3177 93.8016C10.8297 93.9594 11.2963 94.238 11.6781 94.6139C12.0598 94.9898 12.3456 95.452 12.5113 95.9616C11.9377 96.5696 11.3297 97.1768 10.7225 97.7512C10.4865 96.6368 9.5369 96.0016 8.5961 95.4216C8.3249 95.2544 8.0881 95.6936 8.3257 95.8608C9.0985 96.4056 10.0473 97.0424 10.1145 98.0552C10.1145 98.1224 10.1489 98.156 10.1489 98.224C9.62694 98.7069 9.00678 99.0713 8.33088 99.2922C7.65498 99.5131 6.93931 99.5854 6.2329 99.504C3.7361 99.0576 5.7289 96.064 6.4017 94.9128C7.68868 92.5166 9.43178 90.3952 11.5329 88.668C12.8929 87.664 14.7729 87.4528 16.6297 87.4864C15.5697 88.1209 14.7144 89.0467 14.1657 90.1536C13.7969 91.0656 13.4905 91.6384 13.8617 92.3816C13.9759 92.579 14.1456 92.7386 14.3497 92.8406C14.5537 92.9425 14.7832 92.9824 15.0097 92.9552C15.1122 92.9606 15.2149 92.9492 15.3137 92.9216C14.5033 93.8008 13.7265 94.6448 12.9505 95.4888ZM65.1721 69.3288C63.9913 72.9408 62.6073 76.4848 61.3241 80.0632C59.9401 79.152 57.6441 77.9648 56.0241 78.1728C49.8169 78.9728 47.0641 80.4232 37.7617 82.224C38.8081 78.1056 40.9353 69.4632 41.0025 69.2272C41.8801 69.3512 38.7753 69.1104 65.1721 69.3272V69.3288ZM40.9321 43.5688C41.0681 43.7048 43.6985 44.6144 42.9913 46.2016C42.4497 47.416 40.5281 47.4992 39.3793 47.4168C38.7535 47.4099 38.1348 47.2839 37.5561 47.0456C37.3389 46.9637 37.1441 46.8319 36.9874 46.6607C36.8307 46.4895 36.7165 46.2838 36.6542 46.0602C36.5918 45.8367 36.5831 45.6016 36.6286 45.374C36.6741 45.1464 36.7726 44.9328 36.9161 44.7504C37.8825 43.6248 39.5201 43.4016 40.9353 43.5704L40.9321 43.5688ZM37.1849 38.336C38.1641 37.1768 38.0649 35.456 39.2105 34.4544C39.3902 34.28 39.61 34.1525 39.8505 34.0832C40.1388 34.082 40.4244 34.138 40.6909 34.2478C40.9575 34.3577 41.1996 34.5192 41.4033 34.7232C42.8017 35.7632 43.1313 34.8968 43.5633 34.8248C43.7315 34.7949 43.9046 34.8104 44.0648 34.8698C44.2249 34.9291 44.3664 35.0301 44.4745 35.1624C44.7785 35.4664 44.7785 36.108 45.1145 36.3776C45.9352 39.2344 45.6954 42.2916 44.4393 44.9856C44.2875 45.2442 44.1183 45.4922 43.9329 45.728C43.8892 45.2143 43.7099 44.7214 43.4134 44.2997C43.1168 43.8781 42.7136 43.5427 42.2449 43.328C43.7185 42.9072 43.3497 41.008 43.4601 40.1216C43.4897 39.8816 43.0601 39.8184 43.0217 40.0536C42.9273 40.6624 42.9929 41.2704 42.8529 41.8768C42.8452 42.0493 42.7887 42.2161 42.69 42.3578C42.5913 42.4995 42.4544 42.6103 42.2952 42.6773C42.1361 42.7443 41.9612 42.7648 41.7908 42.7364C41.6205 42.708 41.4617 42.6318 41.3329 42.5168C41.2857 42.491 41.2315 42.4812 41.1783 42.4889C41.125 42.4965 41.0758 42.5212 41.0377 42.5592C40.9997 42.5972 40.9751 42.6465 40.9674 42.6997C40.9598 42.7529 40.9695 42.8072 40.9953 42.8544C41.0289 42.9216 41.0969 42.9552 41.1305 43.0232C41.0969 43.0232 41.0969 43.0232 41.0625 43.0568C40.1269 42.7982 39.1347 42.831 38.2181 43.1505C37.3016 43.4701 36.5042 44.0614 35.9321 44.8456C35.2513 45.8856 35.7969 46.7704 36.6745 47.3776C37.0757 47.7801 37.5593 48.091 38.0921 48.2888C37.4393 49.8134 36.9005 51.3844 36.4801 52.9888C35.7033 53.596 34.8289 54.2976 33.8129 53.8328C32.8377 53.3864 32.3617 52.2456 31.9225 51.3344C33.2905 48.2364 34.3971 45.0295 35.2305 41.7472V41.68C35.2855 41.6358 35.3237 41.5741 35.3388 41.5052C35.3539 41.4363 35.3449 41.3644 35.3134 41.3013C35.2819 41.2382 35.2297 41.1878 35.1656 41.1584C35.1015 41.1291 35.0292 41.1226 34.9609 41.14C34.8195 41.1828 34.6681 41.1796 34.5285 41.1311C34.389 41.0825 34.2684 40.9909 34.1841 40.8696C34.0585 40.744 33.8129 40.5016 33.8129 40.3296C33.8129 40.2624 33.7793 40.1944 33.8129 40.1272C33.8645 39.9495 33.9672 39.791 34.1084 39.6714C34.2496 39.5519 34.4229 39.4766 34.6066 39.455C34.7903 39.4334 34.9763 39.4664 35.1414 39.55C35.3064 39.6335 35.4431 39.7639 35.5345 39.9248C35.6361 40.1648 36.0457 39.9904 35.9737 39.756C35.8837 39.4806 35.69 39.251 35.4337 39.116C35.7677 39.1416 36.1029 39.0839 36.4091 38.948C36.7153 38.8122 36.983 38.6024 37.1881 38.3376L37.1849 38.336ZM14.1289 70.336C13.1489 66.4544 14.8353 61.9632 16.9289 58.7576C20.0001 54.0664 25.7441 51.4696 31.3481 51.5704C31.7865 52.7184 32.5297 54.0352 33.7113 54.4736C33.7449 54.4736 33.7785 54.5072 33.8457 54.5072C33.8457 54.8936 33.8641 53.9944 32.6641 59.8752C32.5889 60.2448 33.1665 60.4144 33.2385 60.044C33.5657 58.36 34.3521 54.9424 34.3521 54.6424C34.8422 54.6378 35.3255 54.5267 35.7685 54.3169C36.2115 54.107 36.6036 53.8035 36.9177 53.4272C36.9693 53.4212 37.0174 53.3979 37.0541 53.3612C37.0909 53.3245 37.1141 53.2764 37.1201 53.2248C45.0513 58.3072 46.4969 62.72 46.6737 68.652H40.8337C41.0023 66.6887 40.8194 64.711 40.2937 62.812C40.2758 62.7537 40.2354 62.705 40.1816 62.6765C40.1277 62.648 40.0647 62.642 40.0065 62.66C39.9483 62.6779 39.8995 62.7182 39.871 62.7721C39.8425 62.8259 39.8366 62.8889 39.8545 62.9472C40.4547 65.1797 40.5927 67.5114 40.2601 69.7992C40.2601 69.7992 39.3145 73.7824 38.8081 75.7408C36.8582 74.1245 34.673 72.8153 32.3281 71.8584C29.826 70.6362 27.1686 69.7617 24.4297 69.2592C24.6107 67.0331 25.3164 64.8816 26.4889 62.9808C26.6249 62.7408 26.2553 62.5096 26.1169 62.7408C24.8864 64.6879 24.1336 66.8985 23.9201 69.192C23.6968 69.1544 23.4712 69.1317 23.2449 69.124C22.9409 69.0904 22.9417 69.5584 23.2449 69.5968C23.4849 69.6272 23.7169 69.6648 23.9537 69.6984C23.9987 69.7518 24.0629 69.7852 24.1324 69.7915C24.2019 69.7978 24.2711 69.7764 24.3249 69.732C27.1788 70.2531 29.9419 71.1855 32.5281 72.5C34.6529 73.5168 37.0177 74.6944 38.7057 76.3824C37.5249 81.1024 37.6873 80.872 37.5913 80.872C36.6121 80.9728 35.6337 81.0408 34.6209 81.0744C31.73 80.8583 28.8551 80.4637 26.0129 79.8928C21.0481 78.4736 15.3977 75.3536 14.1321 70.3392L14.1289 70.336ZM77.3921 90.3576C77.0401 90.8134 76.5831 91.1774 76.06 91.4184C75.5369 91.6594 74.9633 91.7703 74.3881 91.7416C73.5904 91.6361 72.8463 91.2817 72.2617 90.7288C72.5709 89.0482 72.6953 87.3388 72.6329 85.6312C74.1296 86.2976 75.81 86.429 77.3921 86.0032C77.1561 87.445 77.1561 88.9157 77.3921 90.3576ZM70.2721 79.2848C70.4033 76.9224 70.1417 75.6488 70.2721 74.3568C70.4057 73.04 71.7561 73.4472 72.5673 73.8168C73.5587 74.3766 74.5847 74.8725 75.6393 75.3016C77.4843 75.8101 79.4119 75.948 81.3105 75.7072C81.4121 78.576 81.7441 81.6768 79.6569 83.9096C78.9834 84.5622 78.1615 85.0415 77.2619 85.3062C76.3622 85.571 75.4117 85.6133 74.4921 85.4296C71.0457 84.9944 70.6073 82.188 70.2697 79.2848H70.2721ZM71.7577 91.0664C71.7621 91.0662 71.7666 91.067 71.7707 91.0687C71.7748 91.0703 71.7786 91.0728 71.7817 91.076C71.7848 91.0791 71.7873 91.0828 71.789 91.087C71.7906 91.0911 71.7914 91.0955 71.7913 91.1C73.4457 93.092 76.3145 92.7208 77.9009 90.7624C79.8629 90.9615 81.805 91.3227 83.7073 91.8424C82.9985 95.556 82.9649 99.5056 82.6945 103.286C78.3329 103.556 75.2953 103.98 69.4281 104.67C69.1451 102.703 68.7506 100.753 68.2465 98.8304C67.6865 96.4976 67.1665 93.8704 65.9849 91.7416C67.8711 91.2678 69.8107 91.0409 71.7553 91.0664H71.7577ZM55.8577 118.986C54.7581 118.627 53.7045 118.14 52.7185 117.535C52.7521 117.164 52.8201 116.792 52.8873 116.421H52.9545C53.5091 116.419 54.0591 116.522 54.5753 116.725C55.0145 116.822 55.4553 116.927 55.8913 117.029C55.8046 117.677 55.7925 118.332 55.8553 118.983L55.8577 118.986ZM56.0265 116.421C55.4193 116.252 54.7745 116.132 54.1697 115.982C53.8145 115.848 53.435 115.791 53.0561 115.814C53.2327 115.104 53.4815 114.414 53.7985 113.754C54.7441 114.092 55.6889 114.328 56.6681 114.634C56.4037 115.21 56.1883 115.806 56.0241 116.418L56.0265 116.421ZM56.9721 114.021C56.0193 113.7 55.0502 113.43 54.0689 113.211C54.4427 112.533 54.9211 111.917 55.4865 111.388C55.857 111.633 56.2532 111.837 56.6681 111.996C57.1107 112.221 57.5743 112.401 58.0521 112.536C57.6509 113 57.2889 113.497 56.9697 114.021H56.9721ZM59.7401 111.221C59.2734 111.478 58.8429 111.796 58.4601 112.166C58.2545 111.754 56.5345 111.199 55.9625 110.985C56.3541 110.669 56.7719 110.386 57.2113 110.141C58.0815 110.431 58.9264 110.791 59.7377 111.219L59.7401 111.221ZM57.7817 109.668C57.7481 109.533 57.6473 109.432 57.5121 109.466C57.4449 109.499 57.4105 109.499 57.3433 109.533C56.5306 109.303 55.6895 109.189 54.8449 109.195C54.7777 109.195 54.7133 109.222 54.6659 109.269C54.6184 109.317 54.5917 109.381 54.5917 109.448C54.5917 109.516 54.6184 109.58 54.6659 109.627C54.7133 109.675 54.7777 109.702 54.8449 109.702C55.3916 109.729 55.9344 109.81 56.4657 109.942C53.8329 111.326 52.6513 114.363 52.2457 117.233C50.9755 116.452 49.909 115.381 49.1343 114.107C48.3595 112.834 47.8987 111.394 47.7897 109.907C47.0545 100.835 56.6777 93.9192 65.5121 91.7472C67.1922 95.8903 68.3161 100.238 68.8545 104.676C59.7257 105.84 59.9065 105.536 59.9065 105.92C59.5865 106.135 59.9385 106.493 61.2905 111.322C60.1297 110.856 59.2001 110.054 57.7793 109.666L57.7817 109.668ZM74.8633 141.534C73.2089 143.29 71.6225 145.113 69.9345 146.834C69.5969 145.554 68.0417 144.817 66.8625 144.471C66.8286 144.46 66.7929 144.456 66.7575 144.46C66.7221 144.463 66.6877 144.474 66.6565 144.491C66.6253 144.508 66.5978 144.531 66.5759 144.559C66.5539 144.587 66.5378 144.619 66.5286 144.653C66.5195 144.688 66.5174 144.724 66.5225 144.759C66.5276 144.794 66.5398 144.828 66.5584 144.858C66.577 144.888 66.6015 144.915 66.6306 144.935C66.6596 144.956 66.6925 144.97 66.7273 144.978C68.0073 145.45 69.0569 146.092 69.3273 147.476C67.4873 149.316 65.3689 151.464 62.7785 152.134C61.2249 152.534 58.9577 151.863 59.2337 149.771C59.4649 148.015 61.4657 146.331 62.7105 145.211C64.1435 143.936 65.7314 142.848 67.4369 141.97C68.9068 141.157 70.5038 140.599 72.1601 140.32C72.4641 140.351 75.1649 141.263 74.8609 141.533L74.8633 141.534ZM89.5137 141.366C91.6089 141.965 93.2945 142.48 94.0369 144.606C94.0129 144.737 93.9672 144.862 93.9017 144.978C93.2769 146.384 89.1313 146.303 87.5897 146.193C86.9497 145.45 87.3081 143.721 87.7921 143.02C87.9569 142.78 87.5897 142.514 87.3873 142.716C86.913 143.27 86.6603 143.979 86.6777 144.708C86.6221 145.183 86.6565 145.664 86.7793 146.126C85.8599 146.034 84.9468 145.888 84.0449 145.687C83.1337 144.674 84.3753 142.943 85.1929 142.345C85.2421 142.313 85.2767 142.263 85.289 142.206C85.3013 142.148 85.2903 142.088 85.2585 142.039C85.2267 141.99 85.1766 141.955 85.1193 141.943C85.062 141.931 85.0021 141.942 84.9529 141.974C84.3425 142.304 83.8417 142.806 83.5121 143.417C83.1824 144.028 83.0381 144.722 83.0969 145.414C80.8678 144.726 78.777 143.652 76.9201 142.24C78.3545 142.121 80.7313 140.77 81.9497 140.013C81.9656 140.044 81.9898 140.07 82.0197 140.087C82.0495 140.105 82.0837 140.114 82.1185 140.114C84.6205 140.264 87.099 140.683 89.5113 141.364L89.5137 141.366ZM98.9321 113.111C95.3537 113.55 92.5553 115.446 89.6825 117.5C86.2064 119.915 82.973 122.662 80.0281 125.702C79.7881 125.973 79.3881 125.566 79.6225 125.298C81.2022 123.547 82.8938 121.901 84.6865 120.369C82.7625 120.609 80.8041 120.909 78.8801 121.213C75.7825 121.425 69.3457 121.948 65.0401 122.563C64.2641 119.462 61.8001 110.395 60.4801 106.258C71.4849 105.482 82.1857 103.254 93.2921 103.828C92.3129 107.542 91.0377 111.236 89.7137 114.833C89.4521 115.545 89.2073 116.285 88.9377 116.993C89.2753 116.753 89.6129 116.486 89.9497 116.25C90.3865 115.066 92.4993 108.861 92.8873 107.642C93.2585 107.541 93.5961 107.406 93.9673 107.304C94.2369 107.203 94.1361 106.764 93.8321 106.866C93.5625 106.933 93.3257 107.034 93.0561 107.106C93.2961 106.33 93.5249 105.552 93.7649 104.742C93.9481 104.35 94.0512 103.926 94.0681 103.494C93.8993 102.886 92.8865 103.098 92.3809 103.089C89.8113 103.045 86.8209 102.994 83.3673 103.224C83.6377 99.4768 84.1441 95.7296 84.2473 91.9824C90.6273 93.8056 96.7273 97.508 100.012 103.258C101.946 106.64 101.783 110.257 98.9297 113.11L98.9321 113.111Z"
        fill="#272833" />
    <path
        d="M40.0234 54.5417C45.2066 58.3425 47.3154 62.8297 47.3154 68.6521H53.1554C53.1554 66.8625 53.1642 57.9425 51.6026 56.1953C50.025 54.4313 42.0154 54.4737 40.0234 54.5417Z"
        fill="#0B7DFF" />
    <path
        d="M48.733 98.7631C49.1639 98.737 49.5712 98.5573 49.881 98.2567C50.4122 97.7415 53.189 95.5559 54.201 94.8807C54.5546 94.698 54.846 94.4144 55.0383 94.0659C55.2305 93.7174 55.315 93.3197 55.281 92.9231C55.1611 92.2033 54.9919 91.4926 54.7746 90.7959C52.2306 91.1351 45.129 91.5423 43.2634 91.6399C43.2114 94.3047 42.6442 96.5935 42.4194 98.7295C44.5212 98.8731 46.6299 98.8843 48.733 98.7631Z"
        fill="#0B7DFF" />
    <path
        d="M29.6939 92.4841C27.6831 92.6967 25.654 92.6629 23.6515 92.3833C22.2003 92.4505 20.6811 92.5521 19.0915 92.6529C18.3795 95.6409 19.2275 96.5921 20.9475 96.9401C25.6083 97.8825 26.0747 97.6153 29.6907 97.6153C29.6939 96.7593 29.6171 94.3393 29.6939 92.4841Z"
        fill="#0B7DFF" />
</svg>