<svg width="160" height="160" viewBox="0 0 160 160" fill="none" xmlns="http://www.w3.org/2000/svg">
    <path
        d="M37.5015 88.8C37.5015 89.0457 37.5743 89.2859 37.7108 89.4903C37.8474 89.6946 38.0414 89.8538 38.2684 89.9478C38.4954 90.0419 38.7452 90.0665 38.9862 90.0185C39.2272 89.9706 39.4486 89.8523 39.6224 89.6785C39.7961 89.5048 39.9145 89.2834 39.9624 89.0424C40.0103 88.8014 39.9857 88.5516 39.8917 88.3246C39.7977 88.0976 39.6384 87.9035 39.4341 87.767C39.2298 87.6305 38.9896 87.5576 38.7439 87.5576C38.4144 87.5578 38.0985 87.6888 37.8656 87.9217C37.6326 88.1547 37.5017 88.4706 37.5015 88.8Z"
        fill="#272833" />
    <path
        d="M42 88.8C42 89.0457 42.0729 89.2859 42.2094 89.4903C42.3459 89.6946 42.5399 89.8538 42.767 89.9478C42.994 90.0419 43.2438 90.0665 43.4848 90.0185C43.7258 89.9706 43.9472 89.8523 44.1209 89.6785C44.2947 89.5048 44.413 89.2834 44.4609 89.0424C44.5089 88.8014 44.4843 88.5516 44.3902 88.3246C44.2962 88.0976 44.137 87.9035 43.9326 87.767C43.7283 87.6305 43.4881 87.5576 43.2424 87.5576C42.913 87.5578 42.5971 87.6888 42.3641 87.9217C42.1312 88.1547 42.0002 88.4706 42 88.8Z"
        fill="#272833" />
    <path
        d="M46.541 88.8C46.541 89.0457 46.6139 89.2859 46.7504 89.4903C46.8869 89.6946 47.081 89.8538 47.308 89.9478C47.535 90.0419 47.7848 90.0665 48.0258 90.0185C48.2668 89.9706 48.4882 89.8523 48.6619 89.6785C48.8357 89.5048 48.954 89.2834 49.0019 89.0424C49.0499 88.8014 49.0253 88.5516 48.9312 88.3246C48.8372 88.0976 48.678 87.9035 48.4737 87.767C48.2693 87.6305 48.0291 87.5576 47.7834 87.5576C47.454 87.558 47.1383 87.6891 46.9054 87.922C46.6725 88.1549 46.5414 88.4706 46.541 88.8Z"
        fill="#272833" />
    <path
        d="M51.04 88.8C51.04 89.0457 51.1129 89.2859 51.2494 89.4903C51.3859 89.6946 51.58 89.8538 51.807 89.9478C52.034 90.0419 52.2838 90.0665 52.5248 90.0185C52.7658 89.9706 52.9872 89.8523 53.1609 89.6785C53.3347 89.5048 53.453 89.2834 53.501 89.0424C53.5489 88.8014 53.5243 88.5516 53.4303 88.3246C53.3362 88.0976 53.177 87.9035 52.9727 87.767C52.7684 87.6305 52.5282 87.5576 52.2824 87.5576C51.9531 87.558 51.6373 87.6891 51.4044 87.922C51.1715 88.1549 51.0405 88.4706 51.04 88.8Z"
        fill="#272833" />
    <path
        d="M55.5806 88.8C55.5806 89.0457 55.6534 89.2859 55.7899 89.4903C55.9265 89.6946 56.1205 89.8538 56.3475 89.9478C56.5745 90.0419 56.8243 90.0665 57.0653 90.0185C57.3064 89.9706 57.5277 89.8523 57.7015 89.6785C57.8752 89.5048 57.9936 89.2834 58.0415 89.0424C58.0894 88.8014 58.0648 88.5516 57.9708 88.3246C57.8768 88.0976 57.7175 87.9035 57.5132 87.767C57.3089 87.6305 57.0687 87.5576 56.823 87.5576C56.4935 87.5578 56.1776 87.6888 55.9447 87.9217C55.7117 88.1547 55.5808 88.4706 55.5806 88.8Z"
        fill="#272833" />
    <path
        d="M60.0801 88.8C60.0801 89.0457 60.1529 89.2859 60.2895 89.4903C60.426 89.6946 60.62 89.8538 60.847 89.9478C61.0741 90.0419 61.3239 90.0665 61.5649 90.0185C61.8059 89.9706 62.0272 89.8523 62.201 89.6785C62.3747 89.5048 62.4931 89.2834 62.541 89.0424C62.589 88.8014 62.5643 88.5516 62.4703 88.3246C62.3763 88.0976 62.217 87.9035 62.0127 87.767C61.8084 87.6305 61.5682 87.5576 61.3225 87.5576C60.993 87.5578 60.6772 87.6888 60.4442 87.9217C60.2113 88.1547 60.0803 88.4706 60.0801 88.8Z"
        fill="#272833" />
    <path
        d="M64.6201 88.8C64.6201 89.0457 64.693 89.2859 64.8295 89.4903C64.966 89.6946 65.1601 89.8538 65.3871 89.9478C65.6141 90.0419 65.8639 90.0665 66.1049 90.0185C66.3459 89.9706 66.5673 89.8523 66.741 89.6785C66.9148 89.5048 67.0331 89.2834 67.081 89.0424C67.129 88.8014 67.1044 88.5516 67.0103 88.3246C66.9163 88.0976 66.7571 87.9035 66.5528 87.767C66.3484 87.6305 66.1082 87.5576 65.8625 87.5576C65.5331 87.5578 65.2172 87.6888 64.9842 87.9217C64.7513 88.1547 64.6203 88.4706 64.6201 88.8Z"
        fill="#272833" />
    <path
        d="M69.1201 88.8C69.1201 89.0457 69.193 89.2859 69.3295 89.4903C69.466 89.6946 69.6601 89.8538 69.8871 89.9478C70.1141 90.0419 70.3639 90.0665 70.6049 90.0185C70.8459 89.9706 71.0673 89.8523 71.241 89.6785C71.4148 89.5048 71.5331 89.2834 71.581 89.0424C71.629 88.8014 71.6044 88.5516 71.5103 88.3246C71.4163 88.0976 71.2571 87.9035 71.0528 87.767C70.8484 87.6305 70.6082 87.5576 70.3625 87.5576C70.0331 87.5578 69.7172 87.6888 69.4842 87.9217C69.2513 88.1547 69.1203 88.4706 69.1201 88.8Z"
        fill="#272833" />
    <path
        d="M100.607 84.2121C92.4466 82.7345 82.5266 95.1569 79.957 98.3065C79.8994 98.3771 79.8635 98.4628 79.8535 98.5533C79.8434 98.6438 79.8598 98.7353 79.9005 98.8167C79.9412 98.8982 80.0046 98.9662 80.083 99.0124C80.1615 99.0587 80.2516 99.0814 80.3426 99.0777C81.0282 99.0777 81.6698 99.0937 82.3138 99.1209C85.0106 99.2321 87.7114 99.1209 90.4538 99.1209C91.2674 99.1209 92.7114 98.8353 93.3666 99.3777C94.1666 100.039 94.4994 101.255 94.8658 102.205C94.9002 102.303 94.9665 102.387 95.0541 102.443C95.1418 102.499 95.2457 102.524 95.3493 102.515C95.4529 102.505 95.5502 102.46 95.6257 102.389C95.7012 102.317 95.7505 102.222 95.7658 102.119C96.4858 98.1769 99.3042 92.9009 100.221 90.9377C101.146 88.9593 101.035 85.7545 100.95 84.6833C100.96 84.6296 100.959 84.5745 100.947 84.5212C100.935 84.4679 100.912 84.4176 100.88 84.3735C100.848 84.3294 100.807 84.2923 100.76 84.2645C100.713 84.2368 100.661 84.2189 100.607 84.2121Z"
        fill="#0B7DFF" />
    <path
        d="M130.895 93.4224C130.864 93.3664 130.82 93.3191 130.766 93.2848C130.712 93.2505 130.651 93.2303 130.587 93.2261C130.523 93.2219 130.459 93.2338 130.401 93.2607C130.343 93.2876 130.293 93.3286 130.255 93.38L126.785 97.7928C126.785 97.7928 121.858 83.612 115.474 88.3248C115.474 88.3248 110.419 90.1648 110.594 94.7936C110.77 99.4224 106.438 120.755 106.438 120.755H126.568C126.568 120.755 130.895 120.37 133.68 115.143C136.465 109.917 140.02 100.191 140.02 100.191C140.02 100.191 132.446 96.5456 130.895 93.4224ZM126.226 99.2064C126.066 99.6864 125.316 100.499 124.126 102.462C122.752 104.73 122.587 105.656 122.286 106.062C122.112 106.354 121.886 106.81 121.558 106.919C119.87 106.919 124.959 97.8664 126.099 98.4392C126.382 98.5304 126.314 98.9424 126.226 99.2064Z"
        fill="#0B7DFF" />
    <path
        d="M99.9202 92.5657C99.9202 92.7257 100.054 92.1353 99.2354 93.9369L109.945 95.3081C109.988 94.7937 110.074 94.3225 110.117 93.8937L99.9202 92.5657Z"
        fill="#0B7DFF" />
    <path
        d="M96.8369 100.62L108.917 102.163L109.088 100.749L97.1785 99.2489C96.9601 100.018 97.0737 99.6721 96.8369 100.62Z"
        fill="#0B7DFF" />
    <path
        d="M95.5943 106.661C95.4735 106.661 95.6487 106.861 95.8943 107.474L107.932 108.846C107.975 108.417 108.061 107.946 108.146 107.432L95.8511 106.018C95.8182 106.25 95.7301 106.47 95.5943 106.661Z"
        fill="#0B7DFF" />
    <path
        d="M99.493 115.529L106.862 116.386C106.855 116.298 106.87 116.209 106.904 116.128C106.947 115.829 106.99 115.4 107.075 114.972L98.8506 114.029C99.0642 114.501 99.2802 115.014 99.493 115.529Z"
        fill="#0B7DFF" />
    <path
        d="M123.013 34.3881C122.811 32.2871 122.057 30.277 120.827 28.5617C119.794 27.1256 118.47 25.9222 116.943 25.0293C115.415 24.1364 113.718 23.5737 111.959 23.3777C111.185 23.3225 118.688 23.3345 16.9376 23.3345C15.7234 23.3076 14.5115 23.452 13.3376 23.7633C10.9993 24.3741 8.88854 25.6505 7.26144 27.4375C5.63434 29.2245 4.56084 31.4453 4.1712 33.8305C4.07055 34.411 4.01333 34.9982 4 35.5873C4 35.8873 4.2928 104.733 4.3424 105.804C4.4184 107.432 4.5144 108.374 4.6424 107.389C5.1288 103.642 5.1136 56.0425 5.1136 39.0241C8.3464 39.4857 121.884 38.8041 122.242 38.7145C122.242 38.9289 122.33 49.5217 122.346 50.5937C122.382 52.8833 122.875 52.9137 122.986 50.5817C123.2 46.1105 123.175 35.6913 123.013 34.3881ZM5.0712 38.3721V36.0161C5.04867 33.7298 5.70948 31.4889 6.9689 29.5806C8.22833 27.6724 10.029 26.1838 12.14 25.3057C13.1435 24.9106 14.1951 24.6513 15.2672 24.5345C16.5752 24.5345 2.2 24.4913 111.317 24.4913C114.145 24.6142 116.828 25.7818 118.846 27.7681C120.863 29.7545 122.073 32.4184 122.24 35.2449V38.3001C116.728 37.2505 37.8272 38.3721 5.0712 38.3721Z"
        fill="#272833" />
    <path
        d="M13.897 32.1168C13.897 32.844 14.1858 33.5413 14.7 34.0554C15.2141 34.5696 15.9115 34.8584 16.6386 34.8584C17.3657 34.8584 18.063 34.5696 18.5772 34.0554C19.0913 33.5413 19.3802 32.844 19.3802 32.1168C19.3802 31.3897 19.0913 30.6924 18.5772 30.1782C18.063 29.6641 17.3657 29.3752 16.6386 29.3752C15.9115 29.3752 15.2141 29.6641 14.7 30.1782C14.1858 30.6924 13.897 31.3897 13.897 32.1168Z"
        fill="#0B7DFF" />
    <path
        d="M18.3945 29.2896C17.7229 28.8789 16.9268 28.7212 16.1494 28.8449C15.3719 28.9686 14.6641 29.3656 14.1531 29.9645C13.6421 30.5634 13.3616 31.3249 13.3618 32.1121C13.3621 32.8994 13.6431 33.6607 14.1545 34.2592C15.1825 35.4344 16.9209 35.2992 16.5961 34.8192C16.4921 34.612 15.8641 34.5584 15.2249 33.92C14.9371 33.635 14.7297 33.279 14.6238 32.8881C14.5178 32.4971 14.5169 32.0851 14.6214 31.6938C14.7258 31.3024 14.9317 30.9456 15.2184 30.6594C15.505 30.3732 15.8622 30.1678 16.2537 30.064C16.6782 29.9734 17.12 30.0101 17.5237 30.1695C17.9275 30.3288 18.2752 30.6039 18.5233 30.96C18.708 31.26 18.825 31.5967 18.866 31.9465C18.9071 32.2964 18.8713 32.651 18.7612 32.9856C18.651 33.3202 18.4691 33.6267 18.2283 33.8837C17.9874 34.1407 17.6933 34.3421 17.3665 34.4736L16.8521 34.7304C16.7241 34.816 16.6385 34.9016 16.7241 35.0304C16.7665 35.116 16.8953 35.1592 17.0241 35.2016C17.5843 35.2611 18.1488 35.1393 18.6345 34.854C19.1203 34.5687 19.5016 34.1351 19.7225 33.6168C19.8175 33.3815 19.8893 33.1374 19.9369 32.888C20.0409 32.2041 19.9516 31.5047 19.6791 30.8688C19.4065 30.2329 18.9616 29.686 18.3945 29.2896Z"
        fill="#272833" />
    <path
        d="M27.0487 29.2897C26.377 28.8803 25.5815 28.7237 24.8048 28.8479C24.0281 28.9721 23.321 29.369 22.8105 29.9673C22.3 30.5657 22.0194 31.3264 22.019 32.113C22.0187 32.8995 22.2987 33.6605 22.8087 34.2593C23.8375 35.4345 25.5759 35.2993 25.2511 34.8193C25.1471 34.6121 24.5191 34.5585 23.8799 33.9201C23.5921 33.6351 23.3847 33.2792 23.2786 32.8883C23.1726 32.4974 23.1717 32.0854 23.276 31.6941C23.3804 31.3028 23.5862 30.9459 23.8728 30.6597C24.1593 30.3735 24.5164 30.168 24.9079 30.0641C25.3324 29.9736 25.7741 30.0103 26.1779 30.1697C26.5816 30.3291 26.9293 30.604 27.1775 30.9601C27.362 31.2601 27.4789 31.5968 27.5199 31.9466C27.5609 32.2964 27.5251 32.651 27.4149 32.9855C27.3048 33.3201 27.123 33.6266 26.8821 33.8836C26.6413 34.1406 26.3473 34.342 26.0207 34.4737L25.5063 34.7305C25.3775 34.8161 25.2919 34.9017 25.3775 35.0305C25.4207 35.1161 25.5495 35.1593 25.6775 35.2017C26.2377 35.2611 26.8023 35.1392 27.2881 34.854C27.774 34.5687 28.1555 34.1351 28.3767 33.6169C28.4711 33.3813 28.5429 33.1373 28.5911 32.8881C28.6951 32.2042 28.6058 31.5047 28.3332 30.8689C28.0607 30.233 27.6157 29.686 27.0487 29.2897Z"
        fill="#272833" />
    <path
        d="M35.7026 29.2896C35.031 28.8789 34.2349 28.7212 33.4575 28.8449C32.68 28.9686 31.9722 29.3656 31.4612 29.9645C30.9502 30.5634 30.6697 31.3249 30.6699 32.1121C30.6702 32.8994 30.9512 33.6607 31.4626 34.2592C32.4914 35.4344 34.2298 35.2992 33.9042 34.8192C33.801 34.612 33.173 34.5584 32.5338 33.92C32.246 33.6351 32.0386 33.2791 31.9326 32.8882C31.8266 32.4973 31.8257 32.0854 31.93 31.694C32.0343 31.3027 32.2402 30.9458 32.5267 30.6596C32.8133 30.3734 33.1703 30.1679 33.5618 30.064C33.9863 29.9734 34.4281 30.0101 34.8319 30.1695C35.2356 30.3288 35.5833 30.6039 35.8314 30.96C36.0161 31.26 36.1331 31.5967 36.1741 31.9465C36.2152 32.2964 36.1795 32.651 36.0693 32.9856C35.9591 33.3202 35.7773 33.6267 35.5364 33.8837C35.2955 34.1407 35.0014 34.3421 34.6746 34.4736L34.161 34.7304C34.0322 34.816 33.9466 34.9016 34.0322 35.0304C34.0754 35.116 34.2034 35.1592 34.3322 35.2016C34.8925 35.2611 35.457 35.1392 35.9429 34.8539C36.4287 34.5686 36.8103 34.135 37.0314 33.6168C37.1258 33.3813 37.1973 33.1373 37.245 32.888C37.349 32.2041 37.2597 31.5047 36.9872 30.8688C36.7146 30.2329 36.2697 29.686 35.7026 29.2896Z"
        fill="#272833" />
    <path
        d="M90.9249 81.7273H36.2593C35.6361 81.7217 35.04 81.4715 34.5993 81.0307C34.1587 80.5899 33.9087 79.9937 33.9033 79.3705V76.6721C33.9087 76.0489 34.1587 75.4527 34.5993 75.0119C35.04 74.5711 35.6361 74.3209 36.2593 74.3153H90.9249C91.548 74.3212 92.1439 74.5714 92.5844 75.0122C93.0249 75.4529 93.2747 76.049 93.2801 76.6721V79.3705C93.2747 79.9936 93.0249 80.5897 92.5844 81.0305C92.1439 81.4712 91.548 81.7215 90.9249 81.7273Z"
        fill="#0B7DFF" />
    <path
        d="M92.3807 81.7697C92.65 81.7469 92.9033 81.6324 93.0983 81.4453C93.2933 81.2581 93.4181 81.0098 93.4519 80.7417C93.4519 80.6617 93.6919 75.3529 93.5807 75.0441C93.511 74.7897 93.3812 74.5557 93.2024 74.3618C93.0235 74.1679 92.8007 74.0197 92.5527 73.9297C92.1199 73.7857 35.1591 73.7313 34.7599 73.7585C34.5004 73.8114 34.2568 73.9242 34.0485 74.0878C33.8402 74.2514 33.6729 74.4613 33.5599 74.7009C33.5431 74.7521 33.3887 75.2041 33.3887 75.2609C33.3887 81.0505 33.3687 80.6609 33.4319 80.7873C33.4937 81.1844 33.6966 81.546 34.0034 81.8057C34.3103 82.0653 34.7004 82.2056 35.1023 82.2009C86.4975 82.0633 93.9351 81.9881 91.9095 81.5609C89.9095 81.1353 71.4479 81.0897 68.0903 81.0897C32.6839 81.0897 34.8975 81.1841 34.6311 80.9177C34.3911 80.6777 34.4599 80.9561 34.4599 75.3489C34.491 75.248 34.5462 75.1562 34.6208 75.0814C34.6954 75.0067 34.7871 74.9513 34.8879 74.9201C34.9551 74.8873 90.3655 74.8345 90.4959 74.8345C91.8751 74.8345 91.1039 74.7913 92.2559 74.7913C92.3814 74.8224 92.4984 74.8812 92.5983 74.9633C92.693 75.0445 92.7666 75.1474 92.8127 75.2633C92.8465 75.3136 92.8615 75.3742 92.8551 75.4345C92.8551 76.9177 92.9415 76.4921 92.9415 79.1145C92.9415 80.3889 93.2079 81.0785 92.5559 81.5145C92.4461 81.5802 92.3314 81.6375 92.2127 81.6857C92.1271 81.7289 92.084 81.7289 92.084 81.7713C92.1671 81.7273 92.2527 81.7697 92.3807 81.7697Z"
        fill="#272833" />
    <path
        d="M63.5918 42.1416C60.7279 42.1416 57.9284 42.9909 55.5472 44.5819C53.1659 46.173 51.31 48.4345 50.214 51.0804C49.1181 53.7262 48.8313 56.6377 49.3901 59.4465C49.9488 62.2554 51.3279 64.8355 53.3529 66.8605C55.378 68.8856 57.9581 70.2647 60.7669 70.8234C63.5758 71.3821 66.4872 71.0954 69.1331 69.9994C71.779 68.9034 74.0404 67.0475 75.6315 64.6663C77.2226 62.2851 78.0718 59.4855 78.0718 56.6216C78.0741 54.7194 77.7012 52.8355 76.9743 51.0776C76.2474 49.3198 75.1809 47.7226 73.8359 46.3775C72.4908 45.0325 70.8937 43.966 69.1358 43.2391C67.378 42.5123 65.494 42.1393 63.5918 42.1416ZM69.8462 57.9928V60.1776C69.7761 60.8528 69.5409 61.5004 69.1614 62.0632C68.6521 62.797 67.8888 63.3158 67.019 63.5192C66.9334 63.5192 66.8478 63.5624 66.7622 63.5624C66.8252 64.2031 66.8393 64.8476 66.8046 65.4904C66.8846 65.4904 66.7942 65.4784 67.319 65.6184C67.8872 65.8182 68.4447 66.047 68.9894 66.304C69.3974 66.508 69.9126 67.024 69.8038 67.4608C69.6694 67.7288 69.1014 67.616 68.9894 67.504C68.687 67.4032 68.3182 67.1512 67.8326 66.9896C67.067 67.756 64.4726 68.3608 63.2486 68.3608C61.9766 68.3608 60.0422 67.9608 59.3078 66.8608C59.095 66.8608 57.7382 67.7568 57.2942 67.4608C56.7934 67.2104 57.487 66.5136 57.9798 66.2184C58.6599 65.8543 59.3781 65.5664 60.1214 65.36C60.0554 64.731 60.0843 64.0957 60.207 63.4752C59.7405 63.3515 59.3033 63.1361 58.9209 62.8416C58.5385 62.5471 58.2186 62.1794 57.9798 61.76C57.7122 61.302 57.5511 60.7896 57.5086 60.2608C57.4694 59.952 57.5086 60.328 57.5086 58.0328C57.4222 58.0328 57.3366 57.9896 57.251 57.9896C57.054 57.92 56.8774 57.8023 56.7374 57.6472C56.4813 57.3965 56.2892 57.0878 56.1774 56.7472C56.0217 56.3565 55.949 55.9377 55.9639 55.5173C55.9788 55.097 56.0809 54.6844 56.2638 54.3056C56.355 54.1039 56.4983 53.93 56.679 53.8021C56.8597 53.6741 57.0712 53.5966 57.2918 53.5776C56.0062 52.3352 54.067 49.6232 57.4198 46.5512C59.7686 44.4 62.5614 44.7912 64.6998 45.6944C64.6998 45.6944 69.8006 47.4048 70.9118 48.2648C71.6846 48.8624 70.6118 51.692 69.8838 53.5344C70.591 53.5344 71.3406 54.2192 71.3406 55.4624C71.6454 56.3632 70.863 58.12 69.8462 57.9928Z"
        fill="#0B7DFF" />
    <path
        d="M65.6055 51.0096C65.2383 51.3776 65.8671 51.7792 66.1191 51.6952C66.3334 51.6724 66.5499 51.687 66.7591 51.7384C67.2199 51.8704 67.6023 52.252 67.7871 52.252C68.0959 52.252 68.3423 52.012 68.2151 51.5672C68.0879 51.1224 66.2871 50.328 65.6055 51.0096Z"
        fill="#272833" />
    <path
        d="M62.7351 58.8497C62.8695 58.8833 62.8359 58.9353 63.6343 58.9353C63.8229 58.92 64.0033 58.8518 64.1548 58.7386C64.3064 58.6254 64.4229 58.4718 64.4911 58.2953C64.4911 57.8033 63.9079 57.8241 63.4207 57.8241C63.6979 56.8086 64.0266 55.8078 64.4055 54.8257C64.4055 54.3409 64.4207 54.1305 64.0631 54.0113C63.7023 53.9209 63.3223 54.4985 63.1631 54.8681C62.7597 55.8516 62.4444 56.8689 62.2207 57.9081C62.2207 58.2401 62.3583 58.7569 62.7351 58.8497Z"
        fill="#272833" />
    <path
        d="M66.291 53.2377C65.991 53.2377 65.731 53.5809 65.691 54.0089C65.6588 54.1896 65.6931 54.3759 65.7875 54.5334C65.8819 54.6908 66.03 54.8089 66.2046 54.8657C66.5046 54.8657 66.7646 54.5233 66.8046 54.0945C66.8446 53.6657 66.5902 53.2377 66.291 53.2377Z"
        fill="#272833" />
    <path
        d="M61.3641 53.2376C60.7033 53.1432 60.4801 54.7576 61.2361 54.8656C61.8953 54.96 62.1169 53.3448 61.3641 53.2376Z"
        fill="#272833" />
    <path
        d="M65.3913 59.2353C65.0415 59.6262 64.6197 59.9462 64.1489 60.1777C62.7257 60.7121 63.0289 59.6929 62.2641 60.1353C61.9129 60.3385 62.2937 61.0321 62.7353 61.2489C64.0521 61.8961 65.6593 60.7953 66.5049 59.6209C66.5494 59.4369 66.5494 59.2449 66.5049 59.0609C66.4333 58.9716 66.3395 58.9029 66.2329 58.8615C66.1262 58.8202 66.0106 58.8078 65.8976 58.8254C65.7846 58.8431 65.6782 58.8904 65.5893 58.9623C65.5004 59.0343 65.4321 59.1284 65.3913 59.2353Z"
        fill="#272833" />
    <path
        d="M70.32 53.4944C70.2393 53.459 70.151 53.4444 70.0632 53.452C70.8344 51.612 71.8544 48.7512 71.0912 48.1824C69.9648 47.3424 64.8792 45.612 64.8792 45.612C62.6944 44.712 59.9192 44.3368 57.5992 46.4688C54.2704 49.5248 56.1848 52.252 57.4704 53.4944C57.3042 53.4912 57.1406 53.5359 56.9992 53.6232C56.7743 53.7838 56.5839 53.9878 56.4392 54.2232C56.1832 54.7655 56.0914 55.3707 56.1752 55.9645C56.2589 56.5582 56.5145 57.1145 56.9104 57.5648C57.0568 57.7123 57.2315 57.8288 57.424 57.9072C57.5051 57.9424 57.5935 57.9572 57.6816 57.9504V60.1776C57.7363 60.7042 57.8966 61.2143 58.1528 61.6776C58.3918 62.0969 58.7119 62.4644 59.0944 62.7586C59.4769 63.0528 59.9142 63.2679 60.3808 63.3912C60.2566 64.0115 60.2275 64.647 60.2944 65.276C59.3329 65.5026 58.4286 65.9256 57.6384 66.5184C57.496 66.6608 57.5136 66.6392 57.3384 66.9896C57.3384 67.0328 57.296 67.0752 57.296 67.1184C57.3059 67.1741 57.3278 67.227 57.3602 67.2734C57.3925 67.3198 57.4346 67.3586 57.4834 67.3871C57.5323 67.4157 57.5868 67.4332 57.6431 67.4386C57.6994 67.444 57.7562 67.4371 57.8096 67.4184C58.3798 67.241 58.938 67.0272 59.4808 66.7784C60.4536 68.2376 62.9256 68.2472 63.4224 68.2784C64.6344 68.3536 67.2336 67.68 68.0064 66.9072C68.5568 67.2063 69.1486 67.4219 69.7624 67.5472C70.0624 67.3976 70.0824 67.2088 69.9336 66.9872C69.5584 66.4084 68.9764 65.9946 68.3064 65.8304C67.8766 65.6499 67.432 65.5067 66.9776 65.4024C67.0041 64.7595 66.9899 64.1156 66.9352 63.4744C67.0208 63.4744 67.1064 63.4312 67.192 63.4312C67.8451 63.2849 68.4442 62.9586 68.9213 62.4891C69.3984 62.0197 69.7344 61.4259 69.8912 60.7752C70.0656 60.2232 70.02 60.1416 70.02 57.9048C71.0552 58.0344 71.6904 56.3688 71.6904 55.3344C71.7364 54.9114 71.6207 54.4866 71.3665 54.1453C71.1123 53.804 70.7385 53.5715 70.32 53.4944ZM57.6392 56.7504C57.4061 56.4579 57.2619 56.1045 57.2239 55.7323C57.1859 55.3601 57.2556 54.9849 57.4248 54.6512C57.5272 54.5496 57.5296 54.5656 57.6392 54.5656C57.7344 54.5656 57.7872 54.0424 57.6368 56.7504H57.6392ZM60.4672 66.5184C60.4672 66.5184 60.9008 66.4088 61.26 66.3128C61.3151 66.2983 61.3638 66.2659 61.3986 66.2208C61.4333 66.1756 61.4521 66.1202 61.452 66.0632C61.4909 65.244 61.4767 64.423 61.4096 63.6056H65.8648C65.7592 64.0288 65.7768 63.9552 65.7792 65.984C65.7792 66.4816 66.3392 66.4352 66.5928 66.5616C65.948 66.4 64.0192 68.296 60.4648 66.5184H60.4672ZM66.4672 62.4912C60.7272 62.4912 61.0272 62.5136 60.8976 62.4488C60.5735 62.4037 60.2621 62.293 59.9822 62.1236C59.7023 61.9541 59.4598 61.7294 59.2696 61.4632C58.6296 60.4984 58.756 60.4136 58.756 56.3648C58.756 55.6024 58.6816 54.8768 58.5416 53.1952C58.5056 52.9808 58.48 52.3192 58.3272 52.1664C58.6111 52.2106 58.9001 52.2106 59.184 52.1664C59.184 52.2528 59.1368 52.5056 59.2696 52.6376C59.3405 52.7041 59.4246 52.7549 59.5164 52.7869C59.6082 52.8188 59.7057 52.8312 59.8026 52.8231C59.8995 52.815 59.9936 52.7867 60.0788 52.74C60.1641 52.6934 60.2386 52.6293 60.2976 52.552C60.5302 52.3042 60.8062 52.1011 61.112 51.9528C67.364 50.7024 68.152 49.5632 68.6944 50.1128C68.7376 50.1552 68.7808 50.2416 68.8232 50.284C68.8232 50.3272 68.8664 50.3696 68.8664 50.4128V59.92C68.8616 60.2488 68.22 62.4912 66.4624 62.4912H66.4672ZM69.8896 56.88V54.3944C70.116 54.6208 70.5048 54.7144 70.404 55.4224C70.3931 55.9509 70.2128 56.4618 69.8896 56.88Z"
        fill="#272833" />
    <path
        d="M43.7602 102.634C43.209 101.434 41.3602 101.091 39.433 101.734C40.013 98.4489 37.2338 97.0185 34.8914 99.8489C33.801 97.3689 31.2018 97.4417 30.265 100.534C29.1514 98.7745 27.3578 97.9305 26.109 98.6497C25.1282 99.2097 24.8242 100.662 25.2954 102.205C23.4554 102.034 21.869 102.765 21.5682 104.004C21.2266 105.418 22.7202 107.024 24.8666 107.474C25.2635 107.552 25.664 107.609 26.0666 107.646V108.8H37.973V107.472C41.3354 107.794 44.6762 104.64 43.7602 102.634Z"
        fill="#0B7DFF" />
    <path
        d="M41.2279 116.451C41.8567 113.065 41.3191 108.295 41.1431 107.003C42.4701 106.424 43.5164 105.347 44.0567 104.004C44.2703 103.876 44.3135 103.49 44.2279 103.147C44.0535 102.626 43.7999 102.507 43.8847 102.762C44.2103 104.064 42.6047 106.31 39.7719 106.874H35.6167C37.3215 104.439 39.9831 104.811 39.7295 104.304C39.4095 103.824 36.9871 103.758 34.9743 106.275C35.5999 103.564 36.9015 101.93 36.9015 101.475C37.1287 100.793 35.7815 101.708 35.0167 103.574C34.5533 104.659 34.2227 105.796 34.0319 106.96H32.6175C32.6175 106.574 32.6119 106.188 32.6175 105.76C32.6551 102.826 32.8239 102.224 32.7031 101.862C32.7031 100.842 31.7183 100.074 31.7183 106.96H31.0783C31.0519 106.88 30.4903 103.286 28.6367 101.434C28.5511 101.39 28.2575 101.03 28.1655 101.305C28.1476 101.5 28.1928 101.697 28.2943 101.865C29.027 103.288 29.6166 104.78 30.0543 106.32C27.9079 103.37 24.8647 103.958 25.3415 104.435C25.6071 104.835 27.6463 104.625 29.4119 106.92C24.4079 106.92 24.7487 107.009 23.9719 106.62C22.9319 106.099 21.9327 105.104 22.2583 103.964C22.9943 102.492 24.5991 102.592 26.0711 102.678C25.7723 101.842 25.6841 100.944 25.8143 100.066C26.2287 98.6152 27.4767 98.5456 28.7271 99.38C29.4618 99.98 30.0847 100.705 30.5671 101.522C31.7583 97.3512 33.8567 97.8376 34.9367 100.537C36.4567 98.5112 38.6167 97.6688 39.1767 99.7656C39.3864 100.521 39.401 101.317 39.2191 102.079C39.8015 101.934 41.3647 101.248 42.7319 101.736C43.1552 101.889 43.5368 102.138 43.8463 102.465C44.1479 102.616 43.8463 101.37 42.1327 101.008C41.423 100.896 40.7001 100.896 39.9903 101.008C40.2831 100.423 39.7783 97.8704 38.1503 97.6664C37.5835 97.5927 37.0072 97.6641 36.4755 97.874C35.9437 98.0839 35.474 98.4254 35.1103 98.8664C35.1103 98.7864 35.1247 98.8432 34.9815 98.6528C34.8051 98.3671 34.5723 98.1204 34.2972 97.9277C34.0222 97.7351 33.7108 97.6005 33.382 97.5323C33.0532 97.4641 32.714 97.4637 32.385 97.531C32.0561 97.5984 31.7443 97.7321 31.4687 97.924C30.9717 98.3376 30.5635 98.8476 30.2687 99.4232C27.9039 96.5864 24.2071 97.5032 24.8711 101.48C20.6247 101.48 19.6039 105.497 24.2311 107.48C23.6466 110.452 23.5547 113.499 23.9591 116.501C20.3663 116.511 5.13914 116.313 6.66634 117.076C7.91674 117.702 22.7407 117.523 24.1199 117.517C24.2862 118.191 24.6513 118.799 25.1677 119.263C25.6841 119.727 26.3281 120.025 27.0159 120.118C30.6591 120.535 37.1687 121.017 39.4831 119.775C40.2821 119.225 40.8315 118.382 41.0119 117.429C51.4559 117.36 61.4399 117.28 61.9199 117.2C65.7599 116.24 45.1071 116.442 41.2279 116.451Z"
        fill="#272833" />
    <path
        d="M75.2871 112.444C75.2871 117.377 80.7623 117.291 81.5847 113.43C81.8319 112.27 81.6279 112.016 80.4711 112.144C79.9319 112.144 79.2791 112.304 78.8863 111.716C78.7279 111.466 78.6438 111.176 78.6438 110.88C78.6438 110.585 78.7279 110.295 78.8863 110.045C79.3503 109.056 79.1007 108.738 78.0295 108.76C76.8127 108.784 75.2871 110.095 75.2871 112.444Z"
        fill="#272833" />
    <path
        d="M78.972 108.374C80.5144 108.374 81.5848 107.646 81.8848 106.534C81.901 106.395 81.8864 106.254 81.8421 106.12C81.7977 105.987 81.7246 105.865 81.628 105.763C81.2667 105.59 80.8712 105.5 80.4705 105.499C80.0697 105.499 79.674 105.588 79.3124 105.761C78.9507 105.933 78.6323 106.185 78.3806 106.497C78.1288 106.808 77.9501 107.173 77.8576 107.562C77.7704 107.99 77.9008 108.248 78.3296 108.334C78.5864 108.331 78.8432 108.374 78.972 108.374Z"
        fill="#272833" />
    <path
        d="M113.12 84.9401C113.252 84.3153 113.634 82.9201 113.634 82.6265C113.634 82.2649 113.67 81.8129 113.291 81.8129C112.899 81.8129 112.571 82.6041 112.477 82.9689L111.77 85.8369C111.741 85.9547 111.757 86.0793 111.814 86.1861C111.872 86.293 111.968 86.3744 112.082 86.4145C114.153 87.1417 114.603 87.3049 114.877 87.1681C114.914 87.1672 114.951 87.1584 114.984 87.1424C115.018 87.1264 115.048 87.1036 115.072 87.0753C115.096 87.047 115.114 87.0139 115.125 86.9782C115.135 86.9425 115.138 86.905 115.133 86.8681C115.133 86.4857 114.394 86.0617 114.02 85.9689C113.969 85.9689 112.926 85.5833 112.863 85.5833C112.978 85.3817 113.064 85.1652 113.12 84.9401Z"
        fill="#272833" />
    <path
        d="M120.613 77.6144L121.856 77.4C123.184 76.9288 122.369 75.0864 121.813 74.1016C123.697 74.3104 125.701 72.8472 124.983 70.9312C124.897 70.76 124.812 70.6312 124.726 70.46C126.024 69.6513 127.193 68.6537 128.196 67.5C131.14 63.2424 120.649 49.744 111.573 50.7064C104.159 51.4928 103.562 57.4752 106.218 60.56C106.721 60.8736 106.721 60.4176 105.49 62.4C103.881 64.9944 100.36 71.076 100.864 74.096C101.355 77.0472 103.068 77.9424 105.79 79.408C105.301 80.06 105.333 80.1624 104.077 84.1632C103.706 84.1632 102.672 84.1568 102.277 84.2064C102.018 84.2064 101.237 84.4672 101.463 84.8056C101.593 85.3248 103.463 85.304 104.474 85.2856C104.608 85.283 104.737 85.2382 104.844 85.1575C104.95 85.0769 105.029 84.9647 105.068 84.8368C106.022 81.7128 106.561 80.0712 106.561 79.7968C111.109 81.8176 113.985 81.02 113.201 80.8248C112.342 80.5376 110.473 80.9328 105.961 78.4248C103.233 76.9104 101.241 75.4864 101.977 72.4248C102.946 68.3952 105.366 64.4496 107.675 61.0296L108.489 60.9008C108.254 61.1408 108.051 61.3184 108.317 61.5864C108.477 61.8208 108.986 61.8128 109.261 61.7576C111.171 61.7576 110.193 61.4504 112.259 62.4856C112.339 62.5656 113.471 62.6984 112.819 61.7144C111.669 59.988 105.628 61.3592 120.099 59.2728C123.375 61.1448 122.777 66.9528 121.513 70.112C122.467 70.272 123.393 70.5664 123.697 71.4824C124.002 72.3984 122.666 73.12 122.24 73.12C121.872 73.2072 121.487 73.1922 121.126 73.0768C120.791 72.9096 120.257 72.8048 120.141 73.0344C120.098 73.12 120.013 73.1632 119.969 73.2056C118.76 75.0732 117.414 76.8488 115.942 78.5176C115.302 79.2312 114.422 80.1216 114.957 79.932C115.566 79.609 116.128 79.2054 116.628 78.732C116.842 78.8176 117.188 78.9888 117.657 79.1608C120.185 79.8848 120.613 77.6144 120.613 77.6144Z"
        fill="#272833" />
    <path
        d="M106.56 69.7745C106.4 70.0144 106.325 70.3006 106.346 70.5881C106.346 71.2561 108.339 72.4401 109.645 71.7881C109.692 71.7556 109.726 71.708 109.741 71.6534C109.757 71.5987 109.753 71.5403 109.73 71.4881C109.562 71.1513 107.842 70.6705 107.502 70.3313C107.502 69.7849 112.942 65.4145 112.942 64.8481C112.942 64.0689 111.465 65.0553 110.886 65.5761C110.758 65.6617 109.558 66.6897 108.402 67.8033C107.702 68.3744 107.082 69.0375 106.56 69.7745Z"
        fill="#272833" />
    <path
        d="M115.944 67.4609C115.601 68.0209 115.644 68.6609 116.03 68.8745C116.962 69.3929 118.126 67.3169 117.23 66.8185C116.843 66.6041 116.24 66.9041 115.944 67.4609Z"
        fill="#272833" />
    <path
        d="M108.618 65.6185C109.551 66.1369 110.715 64.0609 109.818 63.5625C108.885 63.0449 107.72 65.1201 108.618 65.6185Z"
        fill="#272833" />
    <path
        d="M118.386 64.8904C119.223 65.5608 119.506 67.1584 120.271 66.7752C120.523 66.6072 120.528 66.3888 120.528 66.0896C120.528 64.5056 117.526 62.6656 117.058 63.1344C116.679 63.1344 116.607 63.6272 116.843 63.8624C117.031 64.3296 117.571 64.1504 118.386 64.8904Z"
        fill="#272833" />
    <path
        d="M106.604 75.0865C107.89 76.3617 110.178 76.2193 111.831 75.5577C112.279 75.4104 112.668 75.1257 112.945 74.7441C113.044 74.6449 113.067 74.3769 112.945 74.3161C112.535 74.0417 111.545 74.4833 110.589 74.7441C109.633 75.0049 108.029 75.0697 107.418 74.3585C106.922 73.9337 106.872 73.1161 106.347 73.1161C105.958 73.2457 105.84 74.3201 106.604 75.0865Z"
        fill="#272833" />
    <path
        d="M117.4 87.4248C116.76 87.212 114.12 88.2536 112.302 89.524C110.702 89.524 104.902 92.4088 101.634 87.5104C101.592 87.4248 101.506 87.3824 101.463 87.2968C101.463 86.808 101.402 84.9377 100.949 85.2401C100.577 85.5193 100.309 89.5208 100.007 90.124C100.007 90.5624 97.5608 93.7576 96.0656 98.992C95.564 100.752 94.844 104.238 95.2088 106.061C95.1792 106.032 93.0664 101.482 93.0664 101.391C92.8293 100.968 92.4714 100.625 92.0384 100.406C91.3704 100.071 91.7184 100.149 86.5544 100.149C86.8395 99.6347 87.0969 99.1057 87.3256 98.564C88.328 96.0576 91.4056 92.3136 91.7384 91.3232C91.8592 91.2024 91.776 90.5368 91.1384 90.9808C89.764 91.9408 85.8264 97.8384 85.8264 100.063H79.0576C82.352 96.7688 88.9072 86.8945 99.4072 84.0401C101.727 83.4217 97.7984 82.8152 93.4224 85.2816C93.2404 84.9688 92.9437 84.7393 92.5952 84.6416C92.2968 84.5424 34.8992 84.3736 34.8024 84.4704C34.4485 84.5513 34.1277 84.7383 33.8828 85.0063C33.6379 85.2743 33.4807 85.6107 33.432 85.9704C33.432 91.7592 33.4112 91.3705 33.4744 91.4969C33.5366 91.8939 33.7398 92.2553 34.0467 92.5149C34.3536 92.7745 34.7437 92.9149 35.1456 92.9104C61.3328 92.7704 76.1056 92.7176 84.0336 92.6432C80.4672 96.3232 78.2008 99.74 78.2008 100.107C60.5856 100.107 61.692 100.084 61.4928 100.15C61.1625 100.198 60.8455 100.313 60.561 100.487C60.2764 100.661 60.0304 100.892 59.838 101.165C59.6455 101.437 59.5106 101.746 59.4415 102.072C59.3724 102.399 59.3705 102.736 59.436 103.063C59.436 103.506 66.8048 121.757 66.8048 119.857C66.6312 117.955 60.4648 102.841 60.4648 102.764C60.4232 102.437 60.5056 102.106 60.6959 101.836C60.8861 101.566 61.1704 101.378 61.4928 101.307C61.8488 101.188 91.1016 101.307 91.1816 101.307C91.5197 101.418 91.8078 101.645 91.9952 101.947C92.0872 102.038 97.6912 114.562 100.221 119.341C100.264 119.469 100.35 119.554 100.392 119.683C77.4384 119.683 69.3952 119.603 67.1048 120.369C66.2968 120.638 66.396 121.281 68.476 121.483C70.9248 121.723 73.4024 121.954 75.8872 121.954C112.239 121.954 112.662 121.89 114.315 121.654C118.965 121.323 119.595 119.683 106.818 119.683C107.99 118.219 111.274 93.7 111.274 93.336C111.274 90.9072 113.624 89.9288 115.644 88.6664C116.134 88.3616 117.882 87.5456 117.4 87.4248ZM34.5032 91.2376C34.5032 85.4288 34.1032 85.6256 35.6168 85.6256C95.492 85.6256 92.2832 85.2945 92.6864 85.7185C89.7875 87.4574 87.1138 89.5467 84.7256 91.9393C37.4248 91.0249 34.5032 92.764 34.5032 91.2376ZM110.246 93.0368C110.246 94.872 106.64 116.353 106.64 119.277C106.64 119.566 106.103 119.618 101.12 119.645C99.3144 114.68 96.104 107.927 95.5936 106.792C96.2768 106.792 95.848 101.548 98.6776 95.1824C100.19 91.78 101.42 90.6224 101.42 88.7992C103.805 91.776 107.322 91.808 110.974 90.8128C110.476 91.4463 110.218 92.2351 110.246 93.0401V93.0368Z"
        fill="#272833" />
    <path
        d="M146.917 82.5409C147.465 82.0185 148.068 81.5586 148.717 81.1697C150.201 80.2633 151.168 80.0377 151.287 79.7993C152.055 79.4145 151.636 78.0225 148.074 80.2281C144.221 82.6137 144.857 84.6001 146.917 82.5409Z"
        fill="#272833" />
    <path
        d="M150.774 82.7553C148.711 83.7873 148.592 84.1657 148.16 84.5953C147.951 85.0137 147.92 85.1641 148.16 85.3233C148.475 85.4281 148.572 85.3089 149.317 84.9377C149.579 84.8065 149.43 84.8049 149.746 84.5953C152.49 82.7657 155.638 82.5425 155.186 81.6393C154.711 80.9281 151.539 82.3721 150.774 82.7553Z"
        fill="#272833" />
    <path
        d="M155.658 84.9401C154.988 84.7721 154.705 84.9305 153.044 85.4545C149.75 86.4945 149.944 87.5961 150.774 87.5961C151.057 87.5549 151.332 87.4682 151.587 87.3393C154.363 85.9513 155.644 86.1233 156 85.4113C155.89 85.3017 156.051 85.1369 155.658 84.9401Z"
        fill="#272833" />
    <path
        d="M132.266 94.7937C132.783 94.9233 133.496 93.9937 133.851 93.6369C135.168 92.3201 136.64 91.1249 136.765 90.9377C136.85 90.8521 136.936 90.5953 137.022 90.5097C137.022 90.4665 137.064 90.4241 137.064 90.3809C137.061 90.3262 137.046 90.2731 137.018 90.2258C136.991 90.1785 136.952 90.1385 136.906 90.1091C136.86 90.0797 136.807 90.0618 136.753 90.0569C136.699 90.052 136.644 90.0602 136.593 90.0809C136.264 90.1531 135.957 90.2998 135.694 90.5097C134.669 91.3338 133.696 92.2209 132.78 93.1657C132.599 93.4057 132.052 93.8857 132.052 94.4937C132.052 94.6257 132.019 94.6705 132.266 94.7937Z"
        fill="#272833" />
    <path
        d="M154.629 88.0681C148.506 88.0681 146.241 89.6953 147.003 89.6953C148.143 89.6953 147.963 89.0097 154.283 89.0097C154.326 89.0097 154.283 89.0529 154.283 89.0529C152.13 90.4929 151.915 90.1513 149.956 91.1521C148.302 91.9969 146.365 93.9241 144.773 94.8793C143.939 95.4756 142.964 95.8448 141.945 95.9505C138.573 95.9505 135.487 123.661 123.352 119.471C121.432 118.807 120.653 116.751 120.653 117.5C120.653 118.759 122.486 120.799 126.093 120.799C136.249 120.799 139.235 99.7737 142.03 96.9793C144.63 96.9793 147.846 93.5225 150.127 92.1793C151.442 91.5217 156.506 89.9233 155.225 88.3241C155.229 88.2609 154.694 88.0681 154.629 88.0681Z"
        fill="#272833" />
    <path
        d="M138.65 88.0681C138.65 86.4801 138.458 85.9993 138.778 85.1977C139.249 84.2553 140.08 83.4761 140.578 81.9841C140.818 81.0241 140.898 79.8241 140.192 79.1137C139.472 78.7521 139.872 80.3937 139.421 81.8129C138.921 83.3721 137.365 84.3001 137.581 86.2257C137.464 88.6057 138.65 88.9793 138.65 88.0681Z"
        fill="#272833" />
    <path
        d="M143.319 92.1801C143.742 92.3217 143.949 91.7489 144.561 91.3665C145.521 90.7681 145.542 91.0281 145.718 90.8521C145.764 90.8423 145.807 90.8232 145.845 90.7959C145.883 90.7687 145.915 90.734 145.94 90.6938C145.964 90.6537 145.979 90.609 145.985 90.5626C145.991 90.5162 145.988 90.4691 145.975 90.4241C145.684 89.5497 143.019 90.9609 143.019 92.0089C143.131 92.0089 143.179 92.1105 143.319 92.1801Z"
        fill="#272833" />
    <path
        d="M122.24 90.5097C122.917 91.3549 123.519 92.2578 124.039 93.2081C124.21 93.5491 124.425 93.8662 124.679 94.1513C124.968 94.4393 124.991 94.4937 125.108 94.4937C125.348 94.6137 125.601 94.3481 125.493 94.0225C125.333 92.2785 122.229 88.4281 120.652 87.6393C120.414 87.4869 120.154 87.3714 119.881 87.2969C119.77 87.2593 119.401 87.2169 119.321 87.2969C119.266 87.328 119.221 87.3739 119.192 87.4293C119.162 87.4848 119.149 87.5475 119.153 87.6101C119.158 87.6728 119.18 87.733 119.217 87.7836C119.254 87.8342 119.305 87.8732 119.364 87.8961C119.706 88.1961 120.004 88.4961 120.349 88.7529C120.392 88.7529 120.434 88.8385 120.563 88.9241C121.179 89.3889 121.741 89.9207 122.24 90.5097Z"
        fill="#272833" />
    <path
        d="M57.7658 129.84C57.7402 130.326 57.7544 130.813 57.8082 131.297C57.8082 131.655 58.3226 131.686 58.3226 131.039C58.3226 129.43 58.2634 129.985 58.4938 129.754L66.9338 124.999C67.0917 124.914 67.2182 124.78 67.2953 124.618C67.3723 124.456 67.3958 124.273 67.3625 124.097C67.3291 123.921 67.2405 123.759 67.1096 123.636C66.9786 123.514 66.812 123.436 66.6338 123.414C61.7922 122.902 56.9914 122.454 52.1538 121.914C46.9362 121.33 47.5594 121.622 43.0282 123.328C41.0994 124.054 39.173 124.785 37.2018 125.513C37.0343 125.592 36.897 125.724 36.8106 125.888C36.7241 126.052 36.693 126.24 36.722 126.423C36.751 126.606 36.8385 126.775 36.9714 126.905C37.1043 127.034 37.2755 127.117 37.4594 127.141L57.7658 129.84Z"
        fill="#0B7DFF" />
    <path
        d="M67.5335 125.51C67.4471 125.254 67.3615 125.082 67.2335 125.254C67.1381 125.426 67.0798 125.617 67.0623 125.814C67.0268 125.924 67.0121 126.04 67.0191 126.156C67.0255 126.217 67.0102 126.278 66.9759 126.328C66.9785 126.351 66.9761 126.375 66.9688 126.397C66.9615 126.419 66.9494 126.439 66.9335 126.456C66.8862 126.756 66.7684 127.041 66.5897 127.287C66.4109 127.532 66.1765 127.732 65.9055 127.87C64.5583 128.447 59.1375 131.374 59.0503 131.426C58.7912 131.589 58.4982 131.692 58.1935 131.726C58.0679 131.726 37.9247 129.198 37.8447 129.198C37.8447 128.944 37.8015 129.022 37.8015 128.47C37.7583 128.255 37.7583 128.084 37.7159 127.91C37.6303 127.653 37.5447 127.482 37.4159 127.653C37.2547 128.138 37.154 128.642 37.1159 129.152C37.1026 129.3 37.1323 129.449 37.2015 129.581C37.2754 129.721 37.3788 129.844 37.5046 129.941C37.6304 130.037 37.7756 130.106 37.9303 130.141C39.2583 130.398 40.5831 130.635 41.9567 130.781C42.4279 130.831 57.2943 132.751 57.6799 132.794C58.1297 132.835 58.5829 132.776 59.0079 132.623C59.0503 132.58 59.1367 132.58 59.1791 132.538C59.4739 132.414 59.7601 132.271 60.0359 132.109C60.9687 131.576 60.6823 131.82 62.6063 130.738C65.2807 129.234 64.7983 129.594 66.0335 128.853C66.1819 128.752 66.3397 128.666 66.5047 128.596C66.9536 128.312 67.2992 127.891 67.4903 127.396C67.5659 127.173 67.6231 126.944 67.6615 126.711V126.368C67.6183 126.24 67.5839 125.713 67.5335 125.51Z"
        fill="#0B7DFF" />
    <path
        d="M118.3 129.581C118.766 129.32 120.851 128.235 121.34 128.039C121.346 128.039 121.351 128.038 121.357 128.035C121.362 128.033 121.367 128.03 121.371 128.026C121.375 128.022 121.378 128.017 121.38 128.012C121.382 128.007 121.383 128.001 121.383 127.995H121.426C121.517 127.904 121.506 127.957 121.64 127.824C121.798 127.702 121.923 127.544 122.005 127.362C122.087 127.181 122.123 126.982 122.11 126.783C122.098 126.584 122.036 126.392 121.932 126.222C121.827 126.053 121.683 125.911 121.511 125.811C121.13 125.62 121.169 125.639 121.04 125.639C120.951 125.639 108 123.428 106.56 123.197C105.53 123.032 104.501 122.915 103.52 122.769C103.174 122.718 101.249 122.416 101.249 122.769C101.303 122.794 101.361 122.809 101.421 122.811C101.506 122.811 101.549 122.855 101.634 122.898C102.74 123.45 120.318 126.695 120.399 126.711C120.989 126.827 120.959 126.739 120.959 126.924V126.967H120.917C120.855 127.028 118.257 128.297 116.461 129.195C116.455 129.195 116.45 129.196 116.444 129.198C116.439 129.2 116.435 129.204 116.431 129.207C116.427 129.211 116.424 129.216 116.421 129.221C116.419 129.227 116.418 129.232 116.418 129.238C113.926 130.463 103.915 135.45 103.866 135.45C103.011 135.236 80.5288 130.866 80.3888 130.866C80.3192 130.866 80.3728 130.78 80.3032 130.78V130.651L80.3456 130.609C80.46 130.609 82.124 130.004 82.7024 129.795C87.648 128.006 103.479 122.56 101.124 122.769C98.74 122.979 80.084 129.596 80.004 129.623C79.7752 129.701 79.5784 129.851 79.444 130.052C79.3295 130.2 79.2499 130.372 79.2115 130.555C79.173 130.738 79.1766 130.927 79.222 131.109C79.2673 131.29 79.3533 131.459 79.4734 131.603C79.5935 131.746 79.7446 131.86 79.9152 131.937C79.9616 131.983 103.3 136.491 103.778 136.65C104.07 136.695 104.369 136.65 104.634 136.521C114.776 131.45 115.719 131.023 118.3 129.581Z"
        fill="#272833" />
    <path
        d="M100.564 132.194C86.4337 129.496 88.3521 129.709 86.5121 129.709C86.4102 129.702 86.308 129.717 86.2121 129.752C86.0833 129.794 85.9553 129.88 86.0409 130.009C86.2857 130.499 88.5721 131.017 89.1249 131.122C101.892 133.56 100.915 133.607 103.177 133.607C103.279 133.614 103.381 133.6 103.477 133.565C103.606 133.522 103.734 133.436 103.648 133.308C103.408 132.826 101.167 132.309 100.564 132.194Z"
        fill="#272833" />
    <path
        d="M109.346 131.337C109.448 131.344 109.55 131.329 109.646 131.294C109.774 131.251 109.903 131.166 109.818 131.037C109.572 130.547 107.287 130.029 106.733 129.923C93.5112 127.399 94.2528 127.438 93.3232 127.438C93.0088 127.403 92.6907 127.418 92.3808 127.482C91.932 127.631 92.328 127.944 92.7664 128.122C93.5827 128.448 94.4296 128.692 95.2944 128.85C108.114 131.299 107.11 131.337 109.346 131.337Z"
        fill="#272833" />
    <path
        d="M115.301 128.852C115.403 128.859 115.505 128.844 115.601 128.81C115.73 128.766 115.858 128.681 115.772 128.552C115.527 128.062 113.242 127.544 112.688 127.438C99.4663 124.914 100.208 124.954 99.2783 124.954C98.9639 124.918 98.6458 124.933 98.3359 124.997C97.8871 125.146 98.2831 125.459 98.7215 125.637C99.5375 125.963 100.384 126.207 101.249 126.365C114.069 128.814 113.064 128.852 115.301 128.852Z"
        fill="#272833" />
</svg>