<svg width="160" height="160" viewBox="0 0 160 160" fill="none" xmlns="http://www.w3.org/2000/svg">
    <path
        d="M94.7466 78.4577C94.8439 76.9476 95.0549 75.4471 95.3778 73.9689C95.4095 73.8519 95.4842 73.7513 95.587 73.6872C95.6899 73.623 95.8131 73.6002 95.9321 73.6232C96.0511 73.6461 96.1569 73.7133 96.2285 73.8111C96.3 73.9089 96.3319 74.0301 96.3178 74.1505C96.1668 75.7241 96.1027 77.3049 96.1258 78.8857C96.1189 78.9897 96.0895 79.091 96.0397 79.1826C95.9898 79.2742 95.9206 79.3538 95.837 79.4161C94.2863 80.6655 93.1071 82.3155 92.4274 84.1873C93.0263 84.2342 93.6221 84.3143 94.2122 84.4272C94.3985 84.4607 94.5668 84.5597 94.6864 84.7065C94.806 84.8532 94.8691 85.038 94.8642 85.2273C94.7658 88.1072 94.7402 92.3545 97.1698 93.8785C98.9114 94.976 101.552 94.6048 103.864 94.5016C105.994 94.4473 106.681 96.9688 107.715 98.0464C107.754 98.0817 107.785 98.1242 107.806 98.1715C107.828 98.2188 107.841 98.2699 107.843 98.322C107.845 98.374 107.836 98.4259 107.818 98.4747C107.8 98.5236 107.772 98.5683 107.737 98.6065C107.666 98.6833 107.567 98.729 107.462 98.7338C107.357 98.7385 107.255 98.702 107.177 98.632C106.062 97.7305 105.085 95.7353 103.967 95.8881C102.481 96.1146 100.977 96.1995 99.4746 96.1417C94.0626 95.7145 93.1354 91.2857 93.2714 85.8625C92.6601 85.7541 92.0385 85.716 91.4186 85.7488C91.293 85.7597 91.1666 85.7399 91.0503 85.6913C90.934 85.6426 90.8312 85.5666 90.7507 85.4695C90.6702 85.3725 90.6144 85.2575 90.5881 85.1342C90.5617 85.0109 90.5656 84.8831 90.5994 84.7617C91.2679 82.269 92.7223 80.0584 94.7466 78.4577Z"
        fill="#272833" />
    <path
        d="M102.862 86.3008C102.698 85.9296 102.215 85.036 101.798 85.2072C101.571 85.3056 101.558 85.2872 101.506 86.8496C101.524 87.3046 101.417 87.7558 101.195 88.1536C100.974 88.3803 100.685 88.5273 100.372 88.5717C100.058 88.6162 99.7392 88.5555 99.4641 88.3992C98.5337 88.1072 98.3081 87.6248 97.9105 87.9856C97.5665 88.2856 97.8401 88.7104 98.2417 89.2224C98.5135 89.5271 98.8496 89.7676 99.2256 89.9267C99.6017 90.0857 100.008 90.1594 100.416 90.1423C100.824 90.1253 101.223 90.0179 101.585 89.828C101.946 89.6381 102.261 89.3703 102.506 89.044C102.772 88.6444 102.942 88.1894 103.003 87.7138C103.065 87.2382 103.017 86.7549 102.862 86.3008Z"
        fill="#272833" />
    <path
        d="M115.12 89.5368C114.158 89.0095 113.223 88.4327 112.32 87.8088C112.298 87.7847 112.274 87.7627 112.247 87.7432C113.703 84.0896 114.78 80.5272 114.677 76.6096C114.566 73.44 113.107 70.34 110.316 68.7784C108.369 67.8033 106.201 67.3551 104.027 67.4784C101.562 64.9392 100.469 63.1472 99.0674 61.66C97.2146 59.7032 94.8586 58.4184 92.1658 58.7C91.3403 58.8491 90.568 59.2115 89.9258 59.7512C88.8029 60.663 88.0241 61.9301 87.7177 63.3437C87.4113 64.7573 87.5956 66.2332 88.2402 67.528C88.8805 68.7852 89.8133 69.8703 90.9602 70.692C91.9793 71.5457 93.1296 72.2292 94.3666 72.716C96.7314 73.544 99.1546 73.384 101.627 73.2176C101.996 76.2952 103.467 78.6352 106.383 79.6912C107.439 80.0832 108.633 79.5848 109.109 80.0336C110.629 81.4048 108.667 83.7824 106.961 83.7424C106.85 83.7385 106.741 83.7642 106.643 83.817C106.546 83.8698 106.464 83.9478 106.407 84.0427C106.35 84.1376 106.319 84.2461 106.318 84.3569C106.317 84.4677 106.346 84.5768 106.401 84.6728C107.001 85.6678 107.799 86.5288 108.745 87.2024C108.825 87.2616 113.671 90.5104 113.753 90.5624C112.855 92.1571 111.764 93.6349 110.504 94.9624C110.237 95.276 110.002 95.596 109.756 95.9168C109.208 96.6104 108.979 96.8504 109.221 97.1352C109.437 97.3752 109.664 97.3024 110.547 96.7256C110.918 96.4899 111.273 96.2282 111.608 95.9424C113.245 94.4197 114.565 92.589 115.492 90.5552C115.575 90.3704 115.582 90.1608 115.512 89.9707C115.443 89.7806 115.302 89.625 115.12 89.5368Z"
        fill="#272833" />
    <path
        d="M81.5686 41.6224C82.2849 42.3568 83.1686 42.9064 84.144 43.2241C85.1194 43.5418 86.1573 43.6181 87.1686 43.4464C89.4814 42.9136 91.4238 41.3328 93.6134 42.0504C95.6462 42.728 97.4622 44.6768 98.9574 46.2544C100.843 48.2488 102.588 50.3727 104.177 52.6104C104.512 53.0696 106.885 56.2584 107.729 57.4592C107.752 57.5111 107.786 57.5574 107.828 57.5952C107.871 57.633 107.921 57.6613 107.975 57.6784C108.029 57.6954 108.086 57.7008 108.142 57.6941C108.199 57.6874 108.253 57.6688 108.301 57.6395C108.35 57.6103 108.392 57.571 108.424 57.5244C108.456 57.4777 108.478 57.4247 108.488 57.369C108.499 57.3132 108.497 57.2559 108.483 57.2008C108.47 57.1457 108.444 57.0942 108.409 57.0496C107.722 55.7312 107.066 54.456 106.329 53.2304C104.543 50.3289 102.456 47.624 100.101 45.1608C98.387 43.3624 96.4742 41.3296 94.1014 40.5608C92.2998 39.9728 90.8054 40.4432 89.0614 41.1736C87.3638 41.8856 86.187 42.4424 84.4614 41.9928C83.6372 41.7773 82.8628 41.4034 82.1814 40.892C82.0831 40.8275 81.9645 40.8013 81.8482 40.8184C81.7319 40.8355 81.6259 40.8947 81.5503 40.9848C81.4747 41.0749 81.4348 41.1896 81.4382 41.3071C81.4416 41.4246 81.488 41.5369 81.5686 41.6224Z"
        fill="#272833" />
    <path
        d="M87.5338 29.3872C86.6122 27.1168 83.037 24.3472 80.4226 24.3176C79.757 24.3 79.1426 24.2856 79.0938 24.784C79.045 25.2824 79.5138 25.2968 80.1978 25.5472C80.4186 25.6272 80.6258 25.7216 80.8426 25.8072C81.1418 25.9208 81.441 26.024 81.7338 26.156C83.1145 26.7883 84.351 27.6966 85.3674 28.8248C85.5954 29.0648 85.8098 29.316 86.0378 29.5512C86.2474 29.7656 86.465 29.9512 86.6778 30.1496C87.1418 30.592 87.3514 30.8792 87.6682 30.688C87.9642 30.5048 87.8682 30.2192 87.5338 29.3872Z"
        fill="#272833" />
    <path
        d="M90.5342 27.3328C89.8142 25.1728 86.6662 22.5864 84.6694 22.0344C84.0174 21.8568 83.531 21.6824 83.3446 22.12C83.1614 22.5352 83.5174 22.7136 84.1174 23.16C84.2958 23.292 84.463 23.4272 84.6446 23.552C84.8974 23.72 85.151 23.872 85.4038 24.0368C86.8085 24.9694 88.0474 26.1302 89.0694 27.4712C89.2478 27.6712 89.4366 27.8384 89.6254 28.0312C90.0438 28.4712 90.2446 28.7392 90.5558 28.5728C90.867 28.4064 90.7782 28.1112 90.5342 27.3328Z"
        fill="#272833" />
    <path
        d="M93.3537 25.9832C96.0633 26.4224 98.7833 27.6544 101.291 28.7296C108.343 31.7136 114.64 36.2346 119.722 41.9624C121.371 43.8866 122.857 45.9446 124.165 48.1152C124.224 48.2016 124.247 48.3078 124.229 48.411C124.211 48.5142 124.153 48.6062 124.068 48.6672C124.025 48.6973 123.977 48.7186 123.926 48.7299C123.875 48.7411 123.823 48.7421 123.771 48.7328C123.72 48.7235 123.671 48.7041 123.627 48.6756C123.583 48.6472 123.545 48.6104 123.516 48.5672C121.916 46.5216 120.267 44.6656 118.636 42.9456C113.617 37.4675 107.495 33.1144 100.672 30.1728C98.2385 29.1184 95.3865 27.8056 92.7841 27.4184C92.6698 27.4035 92.5607 27.3619 92.4655 27.297C92.3703 27.2321 92.2917 27.1457 92.2361 27.0448C90.9889 24.7056 89.1665 22.3512 86.6281 21.5504C86.5154 21.5088 86.4224 21.4264 86.3675 21.3196C86.3126 21.2127 86.2998 21.0892 86.3315 20.9733C86.3633 20.8574 86.4373 20.7577 86.539 20.6938C86.6407 20.6299 86.7627 20.6064 86.8809 20.628C89.7817 21.2872 91.7849 23.444 93.3537 25.9832Z"
        fill="#272833" />
    <path
        d="M50.0862 112.016C58.1661 113.354 66.375 113.739 74.5446 113.163C76.475 113.042 78.8647 112.874 80.7974 112.661C80.9005 112.642 81.0066 112.666 81.0925 112.725C81.1784 112.785 81.237 112.877 81.2555 112.98C81.2739 113.083 81.2507 113.189 81.1909 113.275C81.1311 113.361 81.0397 113.419 80.9366 113.438C78.8778 113.966 76.7867 114.36 74.6766 114.617C66.7022 115.577 57.2758 114.697 49.3342 113.441C49.1786 113.417 49.0344 113.345 48.9214 113.235C48.8085 113.125 48.7325 112.983 48.7038 112.828C48.2518 110.26 46.9958 107.618 44.6102 106.515C44.5455 106.497 44.4854 106.465 44.4338 106.421C44.3823 106.378 44.3404 106.324 44.311 106.264C44.2815 106.203 44.2652 106.137 44.263 106.07C44.2607 106.002 44.2727 105.935 44.2981 105.873C44.3236 105.81 44.3618 105.754 44.4104 105.707C44.459 105.661 44.5169 105.625 44.5803 105.602C44.6437 105.579 44.7112 105.57 44.7784 105.575C44.8456 105.58 44.9109 105.599 44.9702 105.631C47.691 106.596 49.403 109.092 50.0862 112.016Z"
        fill="#272833" />
    <path
        d="M32.7574 121.935C37.0934 125.4 39.6982 126.785 44.579 129.215C54.2782 134.004 65.1222 137.623 75.9319 138.661C79.5583 138.934 82.2278 138.724 85.4374 138.7C85.4932 138.708 85.5501 138.705 85.6044 138.689C85.6586 138.674 85.709 138.647 85.7522 138.611C85.7954 138.575 85.8305 138.53 85.8552 138.479C85.8798 138.428 85.8935 138.373 85.8952 138.317C85.897 138.26 85.8868 138.204 85.8654 138.152C85.8439 138.1 85.8117 138.053 85.7708 138.014C85.73 137.975 85.6813 137.946 85.6281 137.927C85.575 137.908 85.5184 137.901 85.4622 137.906C82.3606 137.666 78.5222 137.498 76.0774 137.186C65.7278 136.122 54.5598 132.4 45.259 127.835C41.183 125.862 36.6382 123.584 33.3454 121.184C33.245 121.122 33.1252 121.1 33.0091 121.12C32.8929 121.141 32.7885 121.204 32.7158 121.297C32.6431 121.39 32.6071 121.506 32.6148 121.624C32.6225 121.742 32.6733 121.853 32.7574 121.935Z"
        fill="#272833" />
    <path
        d="M39.8106 119.75C38.7131 119.464 37.6517 119.054 36.6466 118.529C35.3218 117.774 35.0162 117.358 33.8394 116.59C33.2346 116.214 32.9426 115.944 32.621 116.248C32.2426 116.612 32.7194 117.203 33.237 117.858C34.2049 118.909 35.3789 119.748 36.6858 120.324C37.5287 120.772 38.4807 120.975 39.433 120.908C40.125 120.805 40.713 120.689 40.6938 120.274C40.6778 119.962 40.4914 119.962 39.8106 119.75Z"
        fill="#272833" />
    <path
        d="M39.2696 115.776C38.9024 115.616 38.5216 115.494 38.1496 115.338C37.0835 114.909 36.0756 114.348 35.1496 113.667C33.9688 112.879 33.7328 112.831 33.4824 113.069C33.0464 113.463 33.8744 114.459 34.148 114.754C35.5521 115.976 37.236 116.832 39.0504 117.248C39.3424 117.289 40.6224 117.398 40.7304 116.941C40.8416 116.502 39.456 115.858 39.2696 115.776Z"
        fill="#272833" />
    <path
        d="M41.1999 111.495C40.0428 111.202 38.9042 110.841 37.7903 110.412C37.1663 110.159 36.5719 109.846 35.9551 109.554C34.7463 108.971 34.2607 108.786 34.0063 109.141C33.6487 109.64 34.8983 110.602 35.1319 110.772C36.9653 111.922 39.0187 112.677 41.1607 112.988C41.4607 113.006 42.9319 113.053 43.0007 112.575C43.0695 112.098 41.3775 111.549 41.1999 111.495Z"
        fill="#272833" />
    <path
        d="M84.5502 31.76C83.5702 29.9672 80.2374 27.1392 77.8206 26.64C77.107 26.5088 76.6022 26.3856 76.4558 26.832C76.3094 27.2784 76.6902 27.4072 77.407 27.8336C78.8198 28.692 79.1718 28.8216 79.9254 29.3536C80.9765 30.1253 81.9644 30.9795 82.8798 31.908C83.0502 32.068 83.2286 32.204 83.4142 32.3464C84.4038 33.092 84.5918 33.2264 84.8462 33.0024C85.0822 32.8 85.0142 32.5968 84.5502 31.76Z"
        fill="#272833" />
    <path
        d="M155.498 83.2609C148.298 77.4889 145.258 75.2833 137.192 70.8233C136.312 62.9833 133.523 55.1857 130.238 48.0601C127.943 48.4993 125.708 49.2071 123.579 50.1689C119.824 51.7592 116.238 53.7226 112.875 56.0297C110.585 57.5873 108.048 59.4073 106.374 61.6489C107.703 63.6134 108.876 65.6789 109.883 67.8265C113.19 68.4249 114.786 70.9617 115.403 74.1577C116.255 78.638 115.519 83.275 113.323 87.2721C114.435 87.9673 115.568 88.6321 116.694 89.3105C116.407 90.3898 115.955 91.4185 115.355 92.3601C113.477 95.8305 110.455 98.1249 106.964 99.7705C106.423 99.0225 105.835 98.2889 105.229 97.5937C101.185 102.606 96.2793 106.842 89.9121 108.524C88.124 108.863 86.3096 109.044 84.4897 109.066C85.1169 115.055 86.4633 120.973 87.4497 126.906C88.1369 131.042 88.6897 135.21 89.5089 139.326C91.2716 139.428 93.0401 139.334 94.7817 139.044C100.978 138.324 107.12 136.119 111.862 131.962C112.083 131.769 113.53 133.351 116.828 135.592C126.47 135.158 156.002 135.621 156.002 135.621C155.723 125.355 155.73 83.4457 155.498 83.2609ZM105.493 103.206C104.046 105.245 102.168 106.941 99.9921 108.174C97.5257 109.721 94.9238 111.04 92.2185 112.117C91.4985 112.381 90.7681 112.606 90.0305 112.851C89.9169 112.891 89.7924 112.888 89.6816 112.84C89.5708 112.793 89.4818 112.705 89.4325 112.595C89.3831 112.486 89.3769 112.361 89.4151 112.247C89.4532 112.132 89.533 112.037 89.6385 111.978C90.3121 111.59 90.9601 111.198 91.6337 110.831C92.9217 110.123 96.2857 108.63 99.1481 106.837C100.534 105.971 104.498 102.997 104.919 102.665C104.955 102.627 104.998 102.597 105.045 102.576C105.092 102.555 105.143 102.543 105.195 102.541C105.247 102.54 105.298 102.549 105.347 102.567C105.395 102.586 105.439 102.613 105.477 102.649C105.515 102.684 105.545 102.727 105.566 102.774C105.587 102.822 105.599 102.873 105.6 102.924C105.602 102.976 105.593 103.028 105.575 103.076C105.556 103.125 105.529 103.169 105.493 103.206ZM116.725 128.603C115.965 129.651 115.05 130.576 114.01 131.346C113.84 131.45 112.835 131.966 112.531 131.574C112.244 131.182 112.851 130.468 113.176 130.106C113.256 130.026 115.348 127.914 115.428 127.841C115.74 127.539 116.684 127.007 116.939 127.214C117.244 127.462 116.8 128.468 116.725 128.603Z"
        fill="#0B7DFF" />
    <path
        d="M45.2529 80.2912C44.0295 79.0885 42.4927 78.2538 40.8177 77.8824C40.6947 77.8503 40.5657 77.8485 40.4417 77.877C40.3178 77.9055 40.2026 77.9636 40.1059 78.0462C40.0093 78.1289 39.934 78.2337 39.8866 78.3517C39.8392 78.4698 39.8211 78.5975 39.8337 78.724C39.8817 79.18 39.9351 79.636 39.9937 80.092C38.8779 79.3145 37.7236 78.5936 36.5353 77.932C36.3821 77.841 36.2028 77.8038 36.026 77.8263C35.8492 77.8487 35.6849 77.9296 35.5593 78.056C34.7377 78.9072 33.2241 80.3664 32.5817 81.1904C32.5641 80.9398 32.5505 80.6888 32.5409 80.4376C32.5349 80.2929 32.4893 80.1526 32.4089 80.0321C32.3285 79.9116 32.2165 79.8155 32.0852 79.7544C31.9538 79.6932 31.8082 79.6694 31.6642 79.6855C31.5203 79.7016 31.3835 79.757 31.2689 79.8456C24.8377 84.9056 26.6825 95.18 34.4897 97.4072C34.9449 101.047 35.5697 103.887 36.0097 107.23C36.0331 107.323 36.0897 107.406 36.169 107.461C36.2483 107.516 36.3449 107.541 36.4411 107.531C36.5372 107.52 36.6263 107.475 36.6919 107.404C36.7575 107.333 36.7951 107.241 36.7977 107.144C36.5313 103.704 36.0017 100.162 35.7577 96.816C35.7455 96.6794 35.6909 96.5499 35.6016 96.4458C35.5122 96.3416 35.3926 96.268 35.2593 96.2352C33.846 95.8426 32.5556 95.0974 31.5092 94.0695C30.4627 93.0416 29.6946 91.7647 29.2768 90.3586C28.8591 88.9525 28.8054 87.4634 29.1208 86.0308C29.4362 84.5983 30.1104 83.2694 31.0801 82.1688C31.2281 83.9472 31.5897 85.972 31.7497 88.0328C31.7609 88.1718 31.8082 88.3054 31.8869 88.4205C31.9656 88.5356 32.073 88.6281 32.1985 88.6888C33.8529 89.4672 35.6041 90.4016 37.2041 91.2488C37.3508 91.3261 37.5179 91.3556 37.6821 91.3332C37.8464 91.3108 37.9995 91.2377 38.1201 91.124C39.5913 89.8259 40.9955 88.4537 42.3273 87.0128C42.4017 86.9264 42.4567 86.8251 42.4887 86.7157C42.5207 86.6063 42.529 86.4913 42.5129 86.3784C42.2777 84.8112 41.6113 80.3896 41.5329 79.752C42.5055 80.0753 43.3881 80.6235 44.1089 81.352C47.8689 85.4008 46.3377 92.7624 41.4225 95.0792C41.2897 95.1398 41.1797 95.2413 41.1086 95.3688C41.0375 95.4963 41.009 95.6432 41.0273 95.788L42.4881 105.928C42.5039 106.054 42.569 106.169 42.6692 106.247C42.7694 106.325 42.8964 106.36 43.0225 106.345C43.148 106.327 43.2615 106.261 43.3387 106.16C43.4159 106.06 43.4506 105.933 43.4353 105.807L42.4385 96.1128C48.0553 93.2224 49.5537 84.9744 45.2529 80.2912ZM37.4401 89.5864C36.1873 88.92 34.6177 88.0944 33.2801 87.4528C33.1465 85.9824 32.9201 84.5176 32.7489 83.0528C34.2969 81.6128 32.7913 83.04 36.2449 79.6128C37.5192 80.4101 38.8423 81.1265 40.2065 81.7576C40.2137 81.8072 40.6689 84.8048 40.8865 86.2512C39.8401 87.416 38.7201 88.4 37.4401 89.5864Z"
        fill="#272833" />
    <path
        d="M37.0281 83.004C36.7785 82.9729 36.5251 82.9943 36.2842 83.0668C36.0432 83.1392 35.8201 83.2612 35.629 83.4248C35.4379 83.5884 35.283 83.7901 35.1743 84.017C35.0656 84.2439 35.0055 84.491 34.9977 84.7424C34.9942 85.0111 35.0442 85.2778 35.1447 85.5269C35.2452 85.7761 35.3943 86.0028 35.5832 86.1938C35.7722 86.3848 35.9972 86.5364 36.2453 86.6396C36.4933 86.7429 36.7594 86.7958 37.0281 86.7952C39.4401 86.7648 40.0089 83.1032 37.0281 83.004Z"
        fill="#272833" />
    <path
        d="M32.2401 76.0192C32.0801 75.1504 32.0721 74.9352 31.9481 74.0488C31.9258 73.8782 31.96 73.705 32.0456 73.5558C32.1311 73.4065 32.2632 73.2894 32.4217 73.2224C34.0897 72.6054 35.8655 72.3333 37.6417 72.4224C37.8305 72.4268 38.0117 72.498 38.1531 72.6231C38.2946 72.7483 38.3872 72.9195 38.4145 73.1064C38.5377 73.9608 38.6385 74.4592 38.6249 74.3784C40.3656 74.3776 42.0924 74.6889 43.7233 75.2976L44.4433 74.4856C44.5741 74.3383 44.7562 74.2466 44.9524 74.2294C45.1487 74.2121 45.344 74.2706 45.4985 74.3928C46.8129 75.2996 48.0086 76.3673 49.0577 77.5712C49.1499 77.6805 49.2053 77.8161 49.216 77.9587C49.2268 78.1013 49.1924 78.2437 49.1177 78.3656C48.8505 78.756 48.5865 79.188 48.2769 79.616C48.6593 80.3646 48.9651 81.1499 49.1897 81.96C49.2163 82.0105 49.2318 82.0662 49.2351 82.1232C49.2385 82.1802 49.2296 82.2372 49.209 82.2905C49.1884 82.3438 49.1567 82.392 49.1159 82.432C49.0752 82.472 49.0263 82.5028 48.9727 82.5223C48.919 82.5419 48.8618 82.5497 48.8049 82.5453C48.7479 82.5409 48.6926 82.5243 48.6426 82.4967C48.5926 82.4692 48.5491 82.4312 48.515 82.3854C48.4809 82.3396 48.457 82.287 48.4449 82.2312C48.0792 81.3988 47.6251 80.6082 47.0905 79.8728C47.0279 79.7735 46.9963 79.6578 46.9996 79.5404C47.0028 79.4231 47.0409 79.3093 47.1089 79.2136L47.6969 78.1232C46.8865 77.3793 46.0296 76.6878 45.1313 76.0528L44.5113 76.7624C44.3988 76.8896 44.2477 76.9766 44.0812 77.0099C43.9146 77.0433 43.7418 77.0213 43.5889 76.9472C41.8131 76.2184 39.9024 75.8764 37.9841 75.944C37.8148 75.9411 37.6509 75.8838 37.5168 75.7804C37.3826 75.6771 37.2853 75.5334 37.2393 75.3704C37.1162 74.9228 37.0177 74.4688 36.9441 74.0104C35.8081 73.9988 34.6765 74.1514 33.5841 74.4632C33.6513 75.0032 33.7545 75.7064 33.8801 76.2408C33.9229 76.4132 33.9057 76.5951 33.8312 76.7564C33.7568 76.9177 33.6295 77.0488 33.4705 77.128C32.0456 77.9095 30.7549 78.9139 29.6473 80.1032C29.5171 80.2312 29.3442 80.3063 29.1618 80.3142C28.9795 80.322 28.8007 80.2619 28.6601 80.1456C28.4713 79.9856 28.2825 79.8144 28.1001 79.6472C27.5411 80.561 27.114 81.5492 26.8313 82.5824C26.7986 82.6971 26.7245 82.7955 26.6232 82.8585C26.522 82.9215 26.4009 82.9446 26.2836 82.9232C26.1663 82.9018 26.0612 82.8376 25.9887 82.7429C25.9161 82.6483 25.8814 82.53 25.8913 82.4112C26.1382 80.938 26.6344 79.5177 27.3585 78.2112C27.4103 78.1196 27.4824 78.041 27.5692 77.9814C27.656 77.9218 27.7553 77.8828 27.8594 77.8674C27.9636 77.8519 28.0699 77.8605 28.1702 77.8923C28.2706 77.9242 28.3623 77.9785 28.4385 78.0512L29.0833 78.5784C30.0163 77.5879 31.078 76.7271 32.2401 76.0192Z"
        fill="#272833" />
    <path
        d="M73.5655 29.7936C73.9655 29.3544 74.5255 28.7712 74.9799 28.34C75.0365 28.2809 75.1045 28.2339 75.1798 28.2017C75.2551 28.1696 75.3361 28.153 75.4179 28.153C75.4998 28.153 75.5808 28.1696 75.656 28.2017C75.7313 28.2339 75.7993 28.2809 75.8559 28.34C76.6719 29.1545 77.5422 29.9128 78.4607 30.6096C78.53 30.6636 78.5832 30.7355 78.6145 30.8175C78.6457 30.8996 78.6539 30.9887 78.6381 31.075C78.6222 31.1614 78.583 31.2418 78.5246 31.3074C78.4663 31.3731 78.391 31.4214 78.3071 31.4472L77.4399 32.7648C78.1011 34.0226 78.4426 35.4238 78.4343 36.8448C78.8759 37.1576 79.4055 37.52 79.8951 37.8048C79.9825 37.8592 80.0577 37.931 80.116 38.0158C80.1743 38.1006 80.2144 38.1966 80.2338 38.2977C80.2532 38.3987 80.2515 38.5027 80.2287 38.6031C80.2059 38.7035 80.1626 38.798 80.1015 38.8808C79.2244 40.1288 78.2448 41.3014 77.1727 42.3864C77.0573 42.4996 76.9092 42.5735 76.7494 42.5979C76.5897 42.6223 76.4263 42.5959 76.2823 42.5224C75.5303 42.1424 75.1895 41.9232 75.0319 41.8272C73.669 42.6296 72.0657 42.9224 70.5071 42.6536L69.7119 43.6584C69.591 43.7982 69.4247 43.8908 69.2422 43.9201C69.0598 43.9493 68.8729 43.9134 68.7143 43.8184C67.7631 43.2664 66.8279 42.676 65.9359 42.0336C65.7711 41.9176 65.6573 41.7426 65.6182 41.545C65.579 41.3473 65.6174 41.1421 65.7255 40.972L66.3383 40.0168C65.2776 38.5286 64.8305 36.6891 65.0895 34.88L63.9999 34.08C63.8458 33.9543 63.7453 33.7745 63.7189 33.5774C63.6924 33.3802 63.742 33.1804 63.8575 33.0184C64.6575 31.8984 65.5207 30.9968 66.4119 29.9112C66.5331 29.7623 66.7056 29.6641 66.8955 29.6358C67.0854 29.6076 67.279 29.6513 67.4383 29.7584L68.2039 30.264C68.9775 29.7214 69.8803 29.3923 70.8216 29.3097C71.7629 29.2271 72.7093 29.394 73.5655 29.7936ZM75.4679 29.6336C75.1847 29.9584 74.6487 30.5936 74.2455 31.1048C74.1427 31.2262 74.0012 31.3084 73.8448 31.3376C73.6884 31.3667 73.5268 31.341 73.3871 31.2648C72.6445 30.8686 71.7991 30.7069 70.9627 30.8011C70.1263 30.8954 69.3381 31.2412 68.7023 31.7928C68.5758 31.8946 68.4201 31.9533 68.2579 31.9604C68.0958 31.9674 67.9355 31.9225 67.8007 31.832L67.1607 31.4216C66.8239 31.8216 65.9823 32.8056 65.5927 33.3064L66.4303 33.9192C66.555 34.012 66.6491 34.14 66.7004 34.2867C66.7518 34.4334 66.758 34.5922 66.7183 34.7424C66.5382 35.5703 66.5522 36.4286 66.7593 37.2501C66.9664 38.0717 67.3609 38.8341 67.9119 39.4776C68.025 39.6096 68.0916 39.7751 68.1013 39.9486C68.111 40.1221 68.0632 40.2939 67.9655 40.4376L67.4775 41.1896C67.9375 41.5032 68.4607 41.8352 68.9239 42.1152L69.5999 41.2656C69.6967 41.1535 69.8229 41.0707 69.9643 41.0266C70.1057 40.9825 70.2566 40.9789 70.3999 41.016C71.1228 41.1987 71.8764 41.2246 72.61 41.0918C73.3437 40.9591 74.0405 40.6708 74.6535 40.2464C74.7846 40.1684 74.9354 40.1299 75.0878 40.1355C75.2403 40.1412 75.3878 40.1908 75.5127 40.2784C75.8259 40.5009 76.153 40.7032 76.4919 40.884C77.1812 40.1637 77.8307 39.4063 78.4375 38.6152C78.1223 38.3872 77.9143 38.2352 77.3263 37.7528C76.8063 37.3416 77.2615 36.8904 77.0159 35.02C76.7447 33.0688 76.1063 32.932 76.4423 32.4544L77.5287 31.1184C76.7343 30.5712 76.1407 30.1904 75.4679 29.6296V29.6336Z"
        fill="#272833" />
    <path
        d="M17.8977 45.9752C18.1463 45.9752 18.3893 46.0489 18.596 46.1869C18.8027 46.3249 18.9639 46.5211 19.0592 46.7506C19.1545 46.9802 19.1797 47.2329 19.1315 47.4767C19.0833 47.7205 18.9639 47.9446 18.7884 48.1207C18.6129 48.2967 18.3892 48.4168 18.1455 48.4658C17.9018 48.5147 17.6491 48.4904 17.4192 48.3958C17.1894 48.3013 16.9927 48.1407 16.854 47.9344C16.7154 47.7281 16.6409 47.4854 16.6401 47.2368C16.6397 47.0714 16.6719 46.9074 16.7349 46.7545C16.7979 46.6015 16.8905 46.4624 17.0073 46.3452C17.1241 46.228 17.2629 46.135 17.4157 46.0715C17.5685 46.0081 17.7323 45.9753 17.8977 45.9752Z"
        fill="#0B7DFF" />
    <path
        d="M17.8976 45.4968C17.6477 45.4655 17.394 45.4867 17.1528 45.559C16.9115 45.6314 16.688 45.7532 16.4966 45.9168C16.3051 46.0804 16.1499 46.2822 16.0408 46.5092C15.9318 46.7362 15.8713 46.9835 15.8632 47.2352C15.8578 47.5053 15.9064 47.7737 16.006 48.0248C16.1057 48.2759 16.2544 48.5046 16.4435 48.6975C16.6326 48.8904 16.8583 49.0436 17.1074 49.1482C17.3564 49.2528 17.6239 49.3067 17.894 49.3067C18.1641 49.3067 18.4315 49.2528 18.6806 49.1482C18.9297 49.0436 19.1553 48.8904 19.3444 48.6975C19.5336 48.5046 19.6823 48.2759 19.7819 48.0248C19.8816 47.7737 19.9302 47.5053 19.9248 47.2352C19.84 45.9032 19.1064 45.5432 17.8976 45.4968ZM17.8976 46.452C18.088 46.4472 18.4064 46.8904 18.3856 47.2352C18.3856 47.3642 18.3343 47.4879 18.2431 47.5792C18.1519 47.6704 18.0282 47.7216 17.8992 47.7216C17.7702 47.7216 17.6465 47.6704 17.5553 47.5792C17.464 47.4879 17.4128 47.3642 17.4128 47.2352C17.3832 46.9 17.6608 46.4568 17.8976 46.452Z"
        fill="#272833" />
    <path
        d="M23.4401 45.4968C23.1902 45.4655 22.9365 45.4867 22.6953 45.559C22.454 45.6314 22.2305 45.7532 22.039 45.9168C21.8476 46.0804 21.6924 46.2822 21.5833 46.5092C21.4742 46.7362 21.4137 46.9835 21.4057 47.2352C21.4003 47.5053 21.4489 47.7737 21.5485 48.0248C21.6482 48.2759 21.7969 48.5046 21.986 48.6975C22.1751 48.8904 22.4008 49.0436 22.6499 49.1482C22.8989 49.2528 23.1663 49.3067 23.4365 49.3067C23.7066 49.3067 23.974 49.2528 24.2231 49.1482C24.4721 49.0436 24.6978 48.8904 24.8869 48.6975C25.076 48.5046 25.2248 48.2759 25.3244 48.0248C25.4241 47.7737 25.4726 47.5053 25.4673 47.2352C25.3809 45.9032 24.6481 45.5432 23.4401 45.4968ZM23.4401 46.452C23.6297 46.4472 23.9489 46.8904 23.9281 47.2352C23.9281 47.3642 23.8768 47.4879 23.7856 47.5792C23.6944 47.6704 23.5707 47.7216 23.4417 47.7216C23.3127 47.7216 23.189 47.6704 23.0977 47.5792C23.0065 47.4879 22.9553 47.3642 22.9553 47.2352C22.9249 46.9 23.2001 46.4568 23.4401 46.452Z"
        fill="#272833" />
    <path
        d="M29.2286 45.2272C28.9787 45.1959 28.7251 45.2171 28.4838 45.2894C28.2426 45.3618 28.0191 45.4836 27.8276 45.6472C27.6362 45.8109 27.4809 46.0126 27.3719 46.2396C27.2628 46.4666 27.2023 46.7139 27.1942 46.9656C27.1889 47.2357 27.2375 47.5041 27.3371 47.7552C27.4367 48.0063 27.5855 48.235 27.7746 48.4279C27.9637 48.6208 28.1894 48.774 28.4384 48.8786C28.6875 48.9832 28.9549 49.0371 29.225 49.0371C29.4952 49.0371 29.7626 48.9832 30.0117 48.8786C30.2607 48.774 30.4864 48.6208 30.6755 48.4279C30.8646 48.235 31.0133 48.0063 31.113 47.7552C31.2126 47.5041 31.2612 47.2357 31.2558 46.9656C31.1702 45.6336 30.4374 45.2728 29.2286 45.2272ZM29.2286 46.1816C29.4182 46.1816 29.7374 46.6208 29.7166 46.9656C29.7095 47.0898 29.6552 47.2066 29.5647 47.2919C29.4743 47.3773 29.3546 47.4249 29.2302 47.4249C29.1059 47.4249 28.9862 47.3773 28.8958 47.2919C28.8053 47.2066 28.751 47.0898 28.7438 46.9656C28.7142 46.6304 28.9918 46.1872 29.2286 46.1816Z"
        fill="#272833" />
    <path
        d="M71.7506 34.1512C71.5007 34.1199 71.2471 34.1411 71.0058 34.2135C70.7646 34.2858 70.5411 34.4076 70.3496 34.5713C70.1581 34.7349 70.0029 34.9366 69.8938 35.1636C69.7848 35.3906 69.7243 35.6379 69.7162 35.8896C69.7109 36.1597 69.7594 36.4282 69.8591 36.6792C69.9587 36.9303 70.1075 37.159 70.2966 37.3519C70.4857 37.5448 70.7114 37.698 70.9604 37.8026C71.2095 37.9073 71.4769 37.9611 71.747 37.9611C72.0172 37.9611 72.2846 37.9073 72.5336 37.8026C72.7827 37.698 73.0084 37.5448 73.1975 37.3519C73.3866 37.159 73.5353 36.9303 73.635 36.6792C73.7346 36.4282 73.7832 36.1597 73.7778 35.8896C73.6922 34.56 72.9602 34.1976 71.7506 34.1512Z"
        fill="#272833" />
    <path
        d="M11.1006 62.3384C11.3491 62.3391 11.5917 62.4133 11.798 62.5517C12.0043 62.6901 12.165 62.8865 12.2599 63.1161C12.3547 63.3457 12.3793 63.5983 12.3308 63.8419C12.2822 64.0855 12.1626 64.3093 11.987 64.485C11.8114 64.6607 11.5877 64.7805 11.3441 64.8292C11.1005 64.8779 10.8479 64.8534 10.6182 64.7588C10.3885 64.6641 10.192 64.5035 10.0535 64.2973C9.91499 64.0911 9.84064 63.8485 9.83985 63.6C9.83932 63.4343 9.87157 63.2701 9.93473 63.1168C9.9979 62.9636 10.0907 62.8243 10.2079 62.7071C10.3251 62.5898 10.4643 62.4969 10.6175 62.4336C10.7707 62.3704 10.9349 62.338 11.1006 62.3384Z"
        fill="#0B7DFF" />
    <path
        d="M11.1007 61.86C10.8507 61.8287 10.5969 61.85 10.3555 61.9224C10.1142 61.9948 9.89061 62.1168 9.69912 62.2806C9.50763 62.4444 9.35243 62.6463 9.24347 62.8735C9.1345 63.1007 9.07417 63.3482 9.06632 63.6C9.06096 63.8701 9.10952 64.1385 9.20917 64.3896C9.30882 64.6407 9.45755 64.8694 9.64666 65.0623C9.83577 65.2552 10.0615 65.4084 10.3105 65.513C10.5596 65.6177 10.827 65.6715 11.0971 65.6715C11.3673 65.6715 11.6347 65.6177 11.8837 65.513C12.1328 65.4084 12.3585 65.2552 12.5476 65.0623C12.7367 64.8694 12.8854 64.6407 12.9851 64.3896C13.0847 64.1385 13.1333 63.8701 13.1279 63.6C13.0399 62.2664 12.3095 61.9056 11.1007 61.86ZM11.1007 62.8144C11.2911 62.8144 11.6095 63.2536 11.5887 63.5984C11.5816 63.7226 11.5272 63.8394 11.4368 63.9248C11.3464 64.0102 11.2267 64.0577 11.1023 64.0577C10.9779 64.0577 10.8583 64.0102 10.7678 63.9248C10.6774 63.8394 10.623 63.7226 10.6159 63.5984C10.5863 63.2632 10.8639 62.82 11.1007 62.8144Z"
        fill="#272833" />
    <path
        d="M16.6398 61.86C16.39 61.8291 16.1364 61.8506 15.8954 61.9232C15.6543 61.9958 15.431 62.1178 15.2398 62.2816C15.0486 62.4453 14.8936 62.6472 14.7848 62.8742C14.676 63.1012 14.6157 63.3484 14.6078 63.6C14.6025 63.8701 14.651 64.1386 14.7507 64.3896C14.8503 64.6407 14.9991 64.8694 15.1882 65.0623C15.3773 65.2552 15.603 65.4084 15.852 65.5131C16.1011 65.6177 16.3685 65.6715 16.6386 65.6715C16.9088 65.6715 17.1762 65.6177 17.4252 65.5131C17.6743 65.4084 17.9 65.2552 18.0891 65.0623C18.2782 64.8694 18.4269 64.6407 18.5266 64.3896C18.6262 64.1386 18.6748 63.8701 18.6694 63.6C18.5838 62.2664 17.851 61.9056 16.6398 61.86ZM16.6398 62.8144C16.8294 62.8144 17.1486 63.2536 17.1278 63.5984C17.1207 63.7226 17.0663 63.8394 16.9759 63.9248C16.8855 64.0102 16.7658 64.0577 16.6414 64.0577C16.517 64.0577 16.3974 64.0102 16.3069 63.9248C16.2165 63.8394 16.1621 63.7226 16.155 63.5984C16.1278 63.2632 16.4054 62.82 16.6398 62.8144Z"
        fill="#272833" />
    <path
        d="M22.4318 61.5896C22.1821 61.5588 21.9286 61.5804 21.6877 61.653C21.4467 61.7255 21.2235 61.8475 21.0323 62.0112C20.8412 62.1748 20.6862 62.3765 20.5773 62.6034C20.4684 62.8302 20.4079 63.0773 20.3998 63.3288C20.3945 63.5989 20.443 63.8673 20.5427 64.1184C20.6423 64.3695 20.791 64.5982 20.9802 64.7911C21.1693 64.984 21.395 65.1372 21.644 65.2418C21.8931 65.3464 22.1605 65.4003 22.4306 65.4003C22.7007 65.4003 22.9682 65.3464 23.2172 65.2418C23.4663 65.1372 23.692 64.984 23.8811 64.7911C24.0702 64.5982 24.2189 64.3695 24.3186 64.1184C24.4182 63.8673 24.4668 63.5989 24.4614 63.3288C24.3734 62 23.6406 61.636 22.4318 61.5896ZM22.4318 62.5448C22.6214 62.54 22.9406 62.984 22.9198 63.3288C22.9127 63.453 22.8583 63.5697 22.7679 63.6551C22.6775 63.7405 22.5578 63.7881 22.4334 63.7881C22.309 63.7881 22.1894 63.7405 22.0989 63.6551C22.0085 63.5697 21.9541 63.453 21.947 63.3288C21.9198 62.9928 22.195 62.5504 22.4318 62.5448Z"
        fill="#272833" />
    <path
        d="M28.852 96.6552C23.4704 96.984 13.592 99.0928 11.0056 97.2496C9.63506 96.3656 8.55673 95.0957 7.90643 93.6C7.31877 92.0191 6.95289 90.3645 6.81923 88.6832C6.0455 82.138 5.63047 75.5554 5.57603 68.9648C5.64643 65.2048 6.36803 60.9856 10.0616 60.2928C12.604 59.8128 34.9136 58.8896 38.208 58.8104C42.1608 58.7152 47.5264 57.4304 49.548 60.9056C50.012 61.7491 50.2777 62.6873 50.3248 63.6488L52.16 85.3824C52.4632 88.8008 51.756 94.0008 48.444 95.0448C47.8929 95.2019 47.334 95.3304 46.7696 95.4296C46.718 95.4387 46.6686 95.4579 46.6245 95.4863C46.5803 95.5146 46.5423 95.5514 46.5125 95.5946C46.4827 95.6378 46.4619 95.6865 46.4511 95.7379C46.4404 95.7892 46.4399 95.8422 46.4499 95.8937C46.4598 95.9452 46.4799 95.9942 46.5089 96.0379C46.538 96.0815 46.5755 96.119 46.6192 96.148C46.6629 96.177 46.7119 96.1971 46.7634 96.207C46.8149 96.2169 46.8679 96.2164 46.9192 96.2056C47.5138 96.1225 48.1037 96.0085 48.6864 95.864C52.5616 94.8192 53.64 89.2824 53.4104 85.2928C53.2608 82.856 52.1456 66.688 51.864 63.5104C51.8 62.3218 51.4674 61.1632 50.8912 60.1216C48.3 55.6624 42.0168 57.1488 38.1712 57.232C34.4824 57.312 12.6184 58.2184 9.77123 58.7392C5.21123 59.6056 4.09123 64.2944 4.01123 68.9328C4.07251 75.594 4.50652 82.2465 5.31123 88.8592C5.86563 93.4192 6.70243 96.012 10.1912 98.4152C13.4824 100.673 23.224 98.0704 28.9208 97.6096C28.9873 97.6108 29.0533 97.5982 29.1146 97.5726C29.1759 97.5469 29.2312 97.5088 29.2771 97.4607C29.3229 97.4125 29.3582 97.3554 29.3808 97.2929C29.4034 97.2304 29.4128 97.1639 29.4084 97.0976C29.4039 97.0313 29.3857 96.9666 29.355 96.9077C29.3243 96.8487 29.2816 96.7968 29.2298 96.7553C29.1779 96.7137 29.118 96.6833 29.0538 96.6661C28.9896 96.6489 28.9225 96.6452 28.8568 96.6552H28.852Z"
        fill="#272833" />
    <path
        d="M7.48546 68.364C9.68146 68.26 12.7231 68.6336 16.5255 68.4568C20.0279 68.2792 48.2559 66.2336 49.1039 66.1088C49.2083 66.0995 49.3049 66.0494 49.3728 65.9695C49.4408 65.8896 49.4746 65.7862 49.4671 65.6816C49.4569 65.5777 49.4065 65.482 49.3267 65.4147C49.2469 65.3474 49.144 65.314 49.0399 65.3216C46.8111 65.3824 45.1999 65.188 42.6871 65.2504C40.9343 65.336 8.32386 67.2992 7.41506 67.4104C7.35212 67.4148 7.29065 67.4315 7.23417 67.4597C7.1777 67.4878 7.12733 67.5268 7.08594 67.5744C7.04455 67.6221 7.01296 67.6774 6.99298 67.7372C6.97299 67.7971 6.965 67.8603 6.96946 67.9232C6.98127 68.0494 7.04176 68.1659 7.13809 68.2482C7.23442 68.3305 7.35902 68.3721 7.48546 68.364Z"
        fill="#272833" />
    <path
        d="M33.4775 68.7064L32.3407 68.3744C32.21 68.3576 32.0777 68.3884 31.9678 68.4611C31.8579 68.5338 31.7779 68.6436 31.7423 68.7704C31.4221 69.5185 31.0093 70.2235 30.5135 70.8688C30.0367 71.4962 29.4425 72.025 28.7639 72.4256C28.6577 72.4861 28.5675 72.571 28.5006 72.6732C28.4337 72.7755 28.392 72.8921 28.3791 73.0136C28.3271 73.4632 28.6439 73.728 29.0279 74.0256C28.3882 74.5941 27.6678 75.0648 26.8903 75.4224L26.4767 74.9264C26.3545 74.7781 26.1822 74.6799 25.9923 74.6504C25.8025 74.6209 25.6084 74.6622 25.4471 74.7664C23.9434 75.7407 22.2228 76.3292 20.4375 76.48C20.3115 76.4709 20.1871 76.5119 20.0911 76.5939C19.9951 76.676 19.9353 76.7926 19.9247 76.9184C19.9175 77.0088 19.9703 78.1224 19.9703 78.1224C18.8732 78.2011 17.7705 78.1219 16.6959 77.8872L16.7887 76.9648C16.8121 76.7617 16.7568 76.5573 16.6342 76.3936C16.5116 76.23 16.331 76.1195 16.1295 76.0848C14.7989 75.8964 13.5258 75.4185 12.3999 74.6848C12.2362 74.5718 12.0353 74.5262 11.8388 74.5573C11.6424 74.5884 11.4654 74.694 11.3447 74.852C11.0711 75.2256 10.7711 75.5824 10.4967 75.9528C10.0407 75.7 9.57427 75.4824 9.12867 75.2048C9.08094 75.1574 9.02379 75.1206 8.96092 75.0968C8.89805 75.0729 8.83087 75.0625 8.76372 75.0663C8.69658 75.07 8.63098 75.0878 8.57116 75.1186C8.51135 75.1493 8.45866 75.1923 8.41652 75.2447C8.37437 75.2971 8.3437 75.3578 8.32651 75.4228C8.30931 75.4878 8.30597 75.5557 8.31669 75.6221C8.32742 75.6885 8.35197 75.7518 8.38876 75.8081C8.42556 75.8644 8.47377 75.9124 8.53027 75.9488C9.21667 76.6496 9.66707 76.928 10.2623 77.4952C10.3391 77.5548 10.4271 77.5984 10.5211 77.6234C10.6151 77.6484 10.7131 77.6542 10.8094 77.6407C10.9057 77.6271 10.9983 77.5943 11.0817 77.5443C11.1652 77.4944 11.2377 77.4281 11.2951 77.3496L12.1215 76.3408C13.0575 76.8911 14.0766 77.2858 15.1391 77.5096L15.0591 78.3224C15.0404 78.4912 15.0759 78.6616 15.1604 78.8089C15.245 78.9561 15.3743 79.0727 15.5295 79.1416C16.7535 79.6258 18.0866 79.7663 19.3847 79.548C19.7943 79.476 20.1847 79.3696 20.5783 79.2624C20.7261 79.2405 20.8597 79.1624 20.9512 79.0443C21.0427 78.9263 21.0851 78.7774 21.0695 78.6288L20.8063 77.5016C22.5086 77.686 24.2247 77.3111 25.6951 76.4336L26.0303 76.8336C26.1303 76.9649 26.2695 77.0609 26.4277 77.1076C26.586 77.1544 26.755 77.1495 26.9103 77.0936C28.4043 76.5542 29.7445 75.6591 30.8151 74.4856C30.8899 74.4037 30.9468 74.307 30.982 74.2018C31.0172 74.0966 31.0301 73.9852 31.0197 73.8748C31.0093 73.7643 30.9759 73.6572 30.9216 73.5605C30.8674 73.4637 30.7935 73.3793 30.7047 73.3128L30.4647 73.1352C31.6124 72.2073 32.4082 70.9147 32.7199 69.472L33.3039 69.4792C33.3547 69.4903 33.4072 69.4912 33.4583 69.4819C33.5095 69.4727 33.5583 69.4534 33.602 69.4252C33.6457 69.3971 33.6834 69.3605 33.713 69.3178C33.7425 69.275 33.7634 69.2268 33.7743 69.176C33.7861 69.1257 33.7877 69.0735 33.7791 69.0225C33.7705 68.9715 33.7519 68.9227 33.7243 68.879C33.6966 68.8353 33.6606 68.7975 33.6182 68.7679C33.5759 68.7383 33.528 68.7174 33.4775 68.7064Z"
        fill="#272833" />
    <path
        d="M27.9529 68.5656C27.9115 68.5344 27.8643 68.5117 27.8141 68.4989C27.7639 68.486 27.7116 68.4832 27.6603 68.4906C27.6089 68.4981 27.5596 68.5156 27.5151 68.5422C27.4706 68.5688 27.4318 68.6039 27.4009 68.6456C26.5779 69.3372 25.7025 69.9639 24.7825 70.52C21.7697 72.4712 19.5705 72.4624 16.0537 71.7704C14.4666 71.4748 12.9427 70.9064 11.5497 70.0904C11.4519 70.0229 11.3326 69.994 11.2147 70.0094C11.0969 70.0248 10.9889 70.0833 10.9118 70.1737C10.8346 70.2641 10.7937 70.3799 10.7971 70.4987C10.8004 70.6175 10.8476 70.7309 10.9297 70.8168C12.2286 72.138 13.9173 73.0073 15.7473 73.2968C19.6065 74.088 22.3689 74.0896 25.6121 71.7856C26.587 71.0701 27.4085 70.1664 28.0281 69.128C28.0603 69.0862 28.0838 69.0385 28.0975 68.9875C28.1111 68.9366 28.1145 68.8834 28.1075 68.8312C28.1005 68.7789 28.0833 68.7285 28.0567 68.683C28.0302 68.6374 27.9949 68.5975 27.9529 68.5656Z"
        fill="#272833" />
    <path
        d="M17.144 82.7905C17.1216 82.9287 17.138 83.0704 17.1915 83.1998C17.245 83.3293 17.3334 83.4413 17.4468 83.5234C17.5603 83.6054 17.6943 83.6544 17.834 83.6647C17.9736 83.6749 18.1134 83.6462 18.2376 83.5816C18.8256 83.2856 19.4104 82.976 19.9696 82.6376C19.8944 83.3712 19.852 84.1057 19.816 84.8393C19.8102 84.9807 19.8439 85.1209 19.9135 85.2442C19.983 85.3675 20.0856 85.4689 20.2097 85.537C20.3338 85.6051 20.4744 85.6372 20.6157 85.6297C20.7571 85.6221 20.8935 85.5753 21.0096 85.4944C21.5696 85.1064 22.1296 84.7249 22.6704 84.3081C22.7328 85.028 22.8641 85.7403 23.0624 86.4352C23.0909 86.5598 23.1505 86.6751 23.2357 86.7704C23.3209 86.8656 23.4289 86.9376 23.5496 86.9797C23.6703 87.0218 23.7996 87.0325 23.9256 87.0108C24.0515 86.9892 24.1699 86.936 24.2696 86.8561C24.804 86.4393 25.3528 86.0433 25.8768 85.6233C24.7184 83.6385 25.1144 81.1521 26.1328 79.1889C26.4528 78.5793 27.1728 77.3577 28.004 77.3785C28.3867 77.4564 28.7376 77.6463 29.012 77.9241C29.784 77.0672 30.6768 76.3277 31.6624 75.7289C31.4484 74.9617 31.5195 74.1429 31.8624 73.4241C32.1987 73.0465 32.6445 72.7836 33.1376 72.6721C34.2546 72.2955 35.4073 72.0352 36.5776 71.8953C37.8984 71.7353 38.1408 72.0465 38.3952 72.7009C38.5602 73.1526 38.6923 73.6157 38.7904 74.0865C39.904 74.115 41.014 74.2257 42.1112 74.4177C42.2568 74.0689 42.4208 73.7233 42.5912 73.3777C42.6461 73.2676 42.6737 73.146 42.6717 73.0231C42.6698 72.9002 42.6383 72.7795 42.5799 72.6713C42.5216 72.5631 42.4381 72.4705 42.3365 72.4013C42.2349 72.3321 42.1181 72.2883 41.996 72.2737C41.7856 72.2489 41.5792 72.2169 41.3688 72.1777C41.6328 71.8673 41.8816 71.5433 42.1208 71.2121C42.1898 71.1176 42.2326 71.0067 42.2449 70.8904C42.2571 70.7741 42.2384 70.6567 42.1907 70.55C42.1429 70.4432 42.0678 70.351 41.9729 70.2827C41.878 70.2144 41.7668 70.1723 41.6504 70.1609C41.2336 70.1145 40.8168 70.0289 40.396 69.9865C40.5064 69.5865 40.6104 69.1809 40.716 68.7753C40.7487 68.6537 40.7509 68.5259 40.7225 68.4033C40.6941 68.2806 40.6359 68.1668 40.5532 68.072C40.4704 67.9771 40.3656 67.9041 40.2479 67.8593C40.1302 67.8145 40.0033 67.7994 39.8784 67.8153C36.8872 68.2017 36.3088 68.0017 34.9336 68.1465C34.905 68.6773 34.7755 69.1977 34.552 69.6801C34.1 69.6617 33.6368 69.6553 33.1808 69.6585C33.1768 70.9841 32.1832 72.0209 31.2528 72.8585C31.6768 73.3649 31.356 74.1385 30.968 74.5793C29.9004 75.5572 28.6527 76.318 27.2944 76.8193C27.0715 76.9277 26.8237 76.975 26.5765 76.9563C26.3292 76.9376 26.0914 76.8536 25.8872 76.7129C24.4472 77.2729 23.1264 78.0097 21.5304 77.8705C21.5368 78.4977 21.5872 79.1209 21.5904 79.7481C20.2406 80.2298 18.8599 80.6203 17.4576 80.9169C17.4024 81.0025 17.44 80.8457 17.144 82.7905Z"
        fill="#0B7DFF" />
    <path
        d="M82.5536 70.8616C82.68 66.9128 82.2872 62.4848 82.5928 58.6696C82.8328 55.592 82.6952 52.5624 82.6728 49.4136C82.6718 49.2048 82.5886 49.0048 82.4413 48.8567C82.294 48.7087 82.0944 48.6245 81.8856 48.6224C74.5456 48.5584 66.932 48.844 59.4648 48.448L56.7872 44.6536C56.8328 44.636 56.812 44.6376 57.0328 44.5328C57.318 45.1289 57.6491 45.7018 58.0232 46.2464C58.1257 46.3788 58.2719 46.4704 58.4357 46.505C58.5995 46.5396 58.7703 46.5148 58.9176 46.4352C59.6771 46.0208 60.4709 45.6728 61.2904 45.3952C61.4836 45.3357 61.6456 45.2025 61.7415 45.0246C61.8375 44.8467 61.8596 44.6381 61.8032 44.444L61.4152 42.8544C62.2232 42.7464 63.1688 42.6416 63.9872 42.6016C64.0136 43.1264 64.0752 44.0104 64.1336 44.5544C64.1457 44.694 64.1951 44.8278 64.2766 44.9418C64.358 45.0558 64.4686 45.1458 64.5968 45.2024L67.4296 46.4888C67.5444 46.5449 67.6715 46.571 67.799 46.5647C67.9266 46.5584 68.0505 46.5199 68.1592 46.4528C68.7136 46.1032 69.576 45.6488 69.98 45.3808C70.4754 46.0959 71.0095 46.7833 71.58 47.44C71.6063 47.4903 71.643 47.5343 71.6877 47.5693C71.7323 47.6043 71.7839 47.6294 71.839 47.6429C71.8941 47.6564 71.9514 47.6581 72.0072 47.6477C72.063 47.6374 72.1159 47.6153 72.1625 47.583C72.2091 47.5506 72.2483 47.5087 72.2774 47.4601C72.3066 47.4114 72.3251 47.3571 72.3316 47.3008C72.3382 47.2444 72.3327 47.1873 72.3155 47.1333C72.2984 47.0792 72.2699 47.0294 72.232 46.9872L70.7672 44.0696C70.7197 43.9879 70.6562 43.9167 70.5805 43.8601C70.5048 43.8036 70.4184 43.7629 70.3266 43.7405C70.2348 43.7181 70.1395 43.7144 70.0462 43.7297C69.953 43.7451 69.8638 43.779 69.784 43.8296L67.736 44.9304L65.676 43.9648L65.5376 41.7488C65.5261 41.5435 65.436 41.3506 65.286 41.2099C65.136 41.0693 64.9376 40.9919 64.732 40.9936C63.2592 41.0351 61.7912 41.1816 60.3392 41.432C60.233 41.4476 60.1311 41.4848 60.0399 41.5413C59.9487 41.5979 59.87 41.6726 59.8089 41.7608C59.7478 41.8491 59.7054 41.9489 59.6845 42.0542C59.6635 42.1595 59.6645 42.2679 59.6872 42.3728C59.976 43.6256 59.964 43.5488 60.1328 44.1864C59.6514 44.393 59.1847 44.6322 58.736 44.9024C58.5928 44.7112 58.5624 44.6952 57.7424 43.5424C57.6707 43.4234 57.5558 43.3366 57.4217 43.3001C57.2876 43.2635 57.1446 43.2802 57.0224 43.3464C56.75 43.5094 56.4915 43.6945 56.2496 43.9L55.1576 42.352C55.0841 42.2513 54.9878 42.1694 54.8766 42.1131C54.7653 42.0567 54.6423 42.0276 54.5176 42.028C52.1624 42.0384 36.4824 42.3344 30.9888 42.4096C26.3992 42.4896 21.1784 41.824 16.6128 43.232C15.6925 43.4799 14.8514 43.9601 14.17 44.6265C13.4886 45.2928 12.9899 46.1231 12.7216 47.0376C11.9848 49.3496 12.3552 52.3032 12.5616 54.8328C12.5604 54.8993 12.573 54.9653 12.5987 55.0266C12.6243 55.0879 12.6624 55.1432 12.7105 55.1891C12.7587 55.2349 12.8158 55.2702 12.8783 55.2928C12.9408 55.3154 13.0073 55.3248 13.0736 55.3204C13.1399 55.3159 13.2046 55.2977 13.2635 55.267C13.3225 55.2362 13.3744 55.1936 13.416 55.1418C13.4575 55.0899 13.4879 55.03 13.5051 54.9658C13.5223 54.9016 13.526 54.8345 13.516 54.7688C13.2848 50.3328 12.716 45.6984 16.9864 44.472C21.1608 43.2768 26.5376 43.9496 31.0128 43.92C36.5032 43.8592 51.9016 43.6 54.1176 43.596L58.4 49.6696C58.4679 49.7656 58.5567 49.8449 58.6596 49.9017C58.7626 49.9585 58.877 49.9913 58.9944 49.9976C66.3064 50.4176 73.8176 50.1656 81.0952 50.2008C81.108 51.328 80.9944 70.7192 80.9912 70.8152C80.852 75.7256 82.284 87.4368 76.8512 89.5272C70.596 91.9632 63.2432 91.2 56.32 91.6648C56.2226 91.6802 56.1343 91.7311 56.0721 91.8077C56.0099 91.8843 55.9782 91.9811 55.983 92.0796C55.9879 92.1781 56.029 92.2714 56.0984 92.3415C56.1678 92.4115 56.2607 92.4535 56.3592 92.4592C63.304 92.2192 70.5888 93.3056 77.3544 90.8592C79.528 90.0592 80.864 88.1392 81.6304 85.6752C83.0912 80.9904 82.4464 74.2856 82.5536 70.8616Z"
        fill="#272833" />
    <path
        d="M56.9792 50.2456C52.7216 50.1128 52.3568 49.8912 46.7216 49.9496C40.5184 50.0992 17.928 50.9016 15.8104 50.8656C15.6908 50.8716 15.5778 50.9221 15.4935 51.0072C15.4092 51.0922 15.3598 51.2057 15.3549 51.3253C15.35 51.4449 15.39 51.5621 15.467 51.6538C15.544 51.7454 15.6525 51.805 15.7712 51.8208C20.6288 52.1232 20.9648 52.504 35.9408 51.9008C51.8664 51.2704 48.252 51.6328 57.004 51.0384C57.1091 51.0344 57.2084 50.9892 57.2804 50.9126C57.3525 50.8359 57.3914 50.734 57.3888 50.6288C57.3844 50.524 57.339 50.4251 57.2624 50.3534C57.1858 50.2817 57.0841 50.243 56.9792 50.2456Z"
        fill="#272833" />
    <path
        d="M108.451 78.8936C107.032 78.1904 104.707 78.2808 102.531 78.2632C102.025 78.235 101.517 78.2385 101.011 78.2736C100.987 77.9681 100.936 77.6653 100.859 77.3688C100.757 76.9634 100.583 76.5797 100.345 76.236C98.6655 73.916 96.5239 75.7512 96.3455 78.748C96.1567 82.0192 98.4415 83.2656 99.7855 82.268C100.15 81.9331 100.444 81.5293 100.652 81.0801C100.86 80.6309 100.977 80.145 100.996 79.6504C101.496 79.7534 102.005 79.807 102.516 79.8104C107.604 79.8904 106.485 80.0728 108.159 79.9888C108.874 79.9656 109.186 80.0256 109.279 79.6688C109.372 79.312 108.998 79.1648 108.451 78.8936ZM99.3599 80C99.2799 80.3336 98.9727 81.0688 98.7655 81.016C98.0511 80.8344 97.8743 79.5464 97.8959 78.8104C97.9159 78.1072 98.3551 76.0176 98.8831 76.1808C99.3895 76.3408 99.4887 77.7472 99.5023 78.276L99.5135 78.892C99.4881 79.2645 99.4368 79.6347 99.3599 80Z"
        fill="#0B7DFF" />
</svg>