<svg width="160" height="160" viewBox="0 0 160 160" fill="none" xmlns="http://www.w3.org/2000/svg">
    <path
        d="M44.1506 103.378C45.1489 102.193 45.8633 100.795 46.2394 99.2912C46.4894 98.3472 46.6593 97.3838 46.7474 96.4112C47.0586 92.2896 47.165 91.1656 46.049 86.3104C44.8363 81.8781 42.5411 77.8167 39.3698 74.4912C39.3139 74.4199 39.2639 74.3442 39.2202 74.2648C39.601 74.0608 39.9546 73.8352 40.3346 73.6664C43.2498 72.3712 47.5402 71.1368 50.7218 71.5144C51.011 71.5545 51.2874 71.6592 51.5306 71.8206C51.7738 71.9821 51.9775 72.1963 52.1266 72.4472C53.6946 74.5672 55.5666 76.328 58.2762 76.8752C58.9415 77.0248 59.632 77.0222 60.2962 76.8678C60.9604 76.7133 61.5811 76.4109 62.1122 75.983C62.6432 75.5552 63.0708 75.0131 63.3631 74.397C63.6553 73.7808 63.8048 73.1067 63.8002 72.4248C63.821 71.4392 63.489 70.8056 64.2346 70.7032C66.5973 70.3062 69.0245 70.6021 71.2226 71.5552C71.7855 71.8777 72.2785 72.309 72.673 72.824C78.1378 78.9424 80.9986 81.784 83.5898 88.5536C84.3023 90.2159 84.8695 91.9367 85.285 93.6968C86.9898 102.417 85.0346 104.348 83.6122 110.07C83.2922 111.35 83.3138 111.851 82.7194 115.974C79.1106 114.237 75.2686 113.033 71.3138 112.4C64.0422 111.235 56.6519 111.001 49.321 111.702C47.5402 111.862 45.7642 112.074 43.9378 112.268C43.9514 112.101 43.9642 111.942 43.9738 111.788C44.5554 102.56 44.5682 104.632 44.1506 103.378Z"
        fill="#0B7DFF" />
    <path
        d="M61.9601 66.4224V70.3472C62.2846 70.3866 62.6037 70.4626 62.9113 70.5736C63.0231 70.6271 63.122 70.7043 63.2011 70.7997C63.2803 70.8951 63.3378 71.0066 63.3697 71.1264C63.4033 71.4464 63.1065 71.5784 62.7985 71.5344C62.3137 71.4648 61.8289 71.3968 61.3585 71.2808C60.9649 71.184 60.8665 70.8808 60.8737 70.4808C60.8985 69.1616 60.8833 67.8408 60.8833 66.5248C60.4533 66.4458 60.0396 66.2955 59.6593 66.08C59.1121 65.6648 59.1289 65.3056 59.9449 65.4552C61.3995 65.4588 62.8282 65.0697 64.0801 64.3288C65.3455 63.6159 66.4386 62.6335 67.282 61.451C68.1253 60.2685 68.6982 58.915 68.9601 57.4864C70.1601 51.992 69.2281 48.7368 68.1985 42.908C68.1739 42.7153 68.0886 42.5355 67.955 42.3945C67.8214 42.2535 67.6464 42.1588 67.4553 42.124C66.8481 41.9288 66.3353 41.4264 65.7241 41.272C64.4345 40.9456 63.5689 42.092 61.5641 39.64C60.6841 41.64 58.9857 42.0968 57.0641 42.1008C56.9247 43.1795 56.416 44.1766 55.6245 44.9226C54.833 45.6686 53.8075 46.1175 52.7225 46.1928C52.9425 46.71 53.0272 47.2748 52.9686 47.8338C52.9099 48.3928 52.7099 48.9277 52.3873 49.388C51.7032 50.3069 50.6867 50.9216 49.5553 51.1008C49.5694 51.2238 49.5602 51.3484 49.5281 51.468C48.8153 52.9152 48.1761 49.6568 46.0881 50.7568C45.7553 50.9301 45.4824 51.1994 45.3046 51.5298C45.1269 51.8602 45.0525 52.2364 45.0913 52.6096C45.0709 53.1306 45.2061 53.646 45.4797 54.0899C45.7532 54.5338 46.1527 54.8863 46.6273 55.1024C47.1479 55.3845 47.7447 55.4935 48.3314 55.4137C48.9181 55.3339 49.4642 55.0693 49.8905 54.6584C49.9177 54.7992 49.9961 54.944 49.9537 55.0296C49.6801 55.5896 49.9865 56.0448 50.1761 56.516C50.4721 57.2544 50.7617 57.9976 51.0961 58.7232C52.2457 61.2216 53.8617 62.0832 55.3057 63.5448C56.0313 64.46 55.1153 64.288 54.9249 64.2704C54.6117 64.2157 54.3038 64.1338 54.0049 64.0256C54.2217 67.4096 54.2449 66.5248 54.2729 70.936C54.2777 71.72 52.9929 72.3912 52.2881 72.0376C52.1936 71.9688 52.1184 71.8767 52.07 71.7703C52.0215 71.664 52.0013 71.5469 52.0113 71.4304C52.1713 71.0504 52.7137 71.1488 53.0721 70.8136C52.9809 69.5496 52.8697 68.308 52.8089 67.0664C52.6697 64.2312 52.8321 63.3336 52.5689 63.1328C51.3423 62.1465 50.3777 60.8733 49.7601 59.4256C49.6201 59.1176 49.4793 59.1208 49.1849 59.1536C45.5553 59.5536 45.3393 57.9288 44.3721 56.2128C44.3049 56.0685 44.2039 55.9425 44.0777 55.8456C43.3703 55.4932 42.7828 54.9394 42.3892 54.2541C41.9957 53.5687 41.8135 52.7822 41.8657 51.9936C41.9121 51.2008 41.8561 51.1288 41.2177 50.652C40.4947 50.1621 39.955 49.4458 39.6835 48.6157C39.412 47.7856 39.424 46.8889 39.7177 46.0664C40.0137 45.092 40.2777 44.8072 40.0897 44.1992C39.8378 43.4605 39.8286 42.6607 40.0633 41.9163C40.298 41.172 40.7644 40.5222 41.3945 40.0616C41.8065 39.8024 41.8025 39.5016 41.8209 39.1328C41.9009 37.436 41.5545 35.416 44.4713 33.9032C44.6841 33.7928 44.9025 33.6944 45.1113 33.5904C45.1065 33.536 45.1065 33.4864 45.1017 33.4304C44.8707 33.3786 44.6357 33.3467 44.3993 33.3352C43.7771 33.4155 43.1448 33.3512 42.5515 33.1474C41.9582 32.9436 41.4199 32.6057 40.9785 32.16C40.3818 31.5411 40.0375 30.7218 40.0129 29.8624C39.9188 29.0568 40.027 28.2404 40.3278 27.4871C40.6285 26.7338 41.1122 26.0673 41.7353 25.548C42.4656 24.9127 43.0459 24.1234 43.4345 23.2368C45.2281 19.9216 49.8593 20.0744 51.3153 22.0496C51.405 22.1307 51.5119 22.1904 51.6281 22.2242C51.7442 22.258 51.8664 22.265 51.9857 22.2448C54.8113 21.6688 56.6257 24.1736 57.3057 26.9648C57.3969 27.3056 57.419 27.6612 57.3708 28.0107C57.3225 28.3602 57.2049 28.6966 57.0249 29C58.2641 29.2272 58.5593 29.1072 59.6305 29.276C59.8705 29.3136 60.0561 29.596 60.2881 29.7296C60.4475 29.8252 60.632 29.8709 60.8177 29.8608C61.5485 29.7492 62.295 29.801 63.0034 30.0125C63.7118 30.224 64.3645 30.59 64.9145 31.084C65.3994 31.4196 65.9463 31.6554 66.5233 31.7776C67.1382 31.9565 67.6921 32.3009 68.1245 32.7733C68.5569 33.2456 68.8512 33.8277 68.9753 34.456C69.0313 34.7379 69.1489 35.0039 69.3197 35.235C69.4905 35.4661 69.7102 35.6566 69.9633 35.7928C71.1521 36.64 71.4169 37.8832 71.5713 39.2C71.4786 40.021 71.6418 40.8505 72.0385 41.5752C72.4164 42.1547 72.6041 42.8376 72.5754 43.5288C72.5467 44.22 72.3031 44.885 71.8785 45.4312C71.6001 45.8312 73.0217 47.316 71.1849 49.0976C71.0777 49.2508 71.0282 49.437 71.0449 49.6232C71.0393 53.9656 71.5329 56.6816 69.3721 60.8392C68.5757 62.3676 67.4414 63.6942 66.0553 64.7184C64.849 65.6108 63.4434 66.1957 61.9601 66.4224ZM55.9737 31.4104C55.4106 32.049 54.6802 32.5175 53.865 32.7631C53.0498 33.0086 52.1822 33.0214 51.3601 32.8C51.284 32.7941 51.2075 32.8043 51.1356 32.8301C51.0638 32.8559 50.9982 32.8966 50.9433 32.9496C50.2916 33.5852 49.4955 34.0532 48.6233 34.3136C48.7825 34.4101 48.968 34.4543 49.1537 34.44C49.7141 34.3261 50.262 34.1579 50.7897 33.9376C51.2513 33.6446 51.8104 33.5468 52.3441 33.6656C52.9111 33.8195 53.5158 33.7463 54.0297 33.4616C54.4798 33.2758 54.8856 32.997 55.2206 32.6435C55.5556 32.2901 55.8122 31.8698 55.9737 31.4104Z"
        fill="#272833" />
    <path
        d="M128.969 78.0648C128.013 80.4648 127.565 82.2072 125.816 84.4544C125.638 84.7153 125.404 84.9335 125.131 85.0931C124.859 85.2528 124.554 85.3499 124.239 85.3776C123.924 85.4053 123.607 85.3629 123.311 85.2533C123.015 85.1437 122.746 84.9698 122.525 84.744C121.231 83.5974 120.265 82.1275 119.725 80.4848C118.956 78.4472 119.203 78.1424 118.552 78.1416C113.277 78.1344 108.006 78.0616 102.736 78.0784C90.3854 78.1208 92.7798 78.5064 87.319 78.0056C86.0038 77.8848 85.9839 77.3896 86.0503 60.4728C86.1967 23.1256 86.2702 40.916 85.9598 24.808C85.9433 24.1108 85.97 23.4132 86.0399 22.7192C86.0987 22.3022 86.2847 21.9134 86.5726 21.606C86.8606 21.2986 87.2363 21.0876 87.6486 21.0016C88.5361 20.7076 89.4574 20.5277 90.3902 20.4664C103.115 19.8264 115.651 20.1928 154.808 20.992C155.091 20.9671 155.376 21.0009 155.645 21.0913C155.914 21.1818 156.161 21.3269 156.372 21.5176C156.582 21.7082 156.751 21.9403 156.867 22.1993C156.983 22.4583 157.045 22.7385 157.048 23.0224C157.263 25.22 157.486 27.4224 157.537 29.6256C157.549 30.1112 157.911 70.336 158 75.7168C158.025 77.2152 157.449 77.6728 156.155 77.8016C153.855 78.0312 151.515 77.9312 140.009 78.0648C130.537 78.1736 135.417 78.3448 128.969 78.0648ZM90.6399 21.7312C89.9909 21.7726 89.3507 21.9021 88.7366 22.116C88.4427 22.1844 88.1768 22.3415 87.975 22.566C87.7733 22.7905 87.6454 23.0716 87.6086 23.3712C87.167 26.5992 87.9582 25.516 87.6886 54.0736C87.4734 76.5536 86.871 76.4984 88.2094 76.5824C100.36 77.3488 102.413 76.0352 118.636 76.7368C118.926 76.7297 119.212 76.8114 119.455 76.9709C119.698 77.1304 119.887 77.3602 119.996 77.6296C120.861 79.5992 121.525 82.0608 123.372 83.6112C123.932 84.0832 124.378 84.06 124.799 83.4712C125.28 82.8163 125.711 82.127 126.091 81.4088C127.973 77.7288 127.771 76.7552 129.421 76.764C131.922 76.7776 142.763 76.608 152.035 76.5104C155.795 76.4704 156.601 77.0064 156.539 75.5584C156.072 64.6696 156.477 66.2784 156.426 59.9648C156.376 53.7248 155.918 30.7352 155.805 24.1512C155.785 23.8274 155.718 23.5083 155.605 23.204C155.553 23.0023 155.43 22.826 155.259 22.7064C155.088 22.5869 154.88 22.5319 154.673 22.5512C117.101 21.9088 127.806 21.528 90.6399 21.7312Z"
        fill="#272833" />
    <path
        d="M84.8089 132.146C84.9036 132.02 85.0361 131.928 85.1871 131.883C85.338 131.838 85.4993 131.843 85.6473 131.897C86.0762 131.975 86.4954 132.1 86.8977 132.268L85.4793 132.717C85.4889 132.776 85.4929 132.83 85.5025 132.889C86.9297 132.87 88.3433 132.191 89.7753 132.809C89.7937 132.764 89.8121 132.718 89.8297 132.678C89.7497 132.56 89.6761 132.446 89.5897 132.319L92.1593 131.545L92.1049 131.327C91.5521 131.418 90.9945 131.487 90.4465 131.608C88.3865 132.048 89.8593 132.323 85.7425 131.332C85.6473 131.309 85.5657 131.232 85.4569 131.033C87.0229 130.635 88.6099 130.325 90.2105 130.103C90.809 130.123 91.4027 130.218 91.9777 130.385C92.1723 130.4 92.3679 130.4 92.5625 130.385C92.5673 130.34 92.5761 130.294 92.5809 130.249C92.3857 130.082 92.1953 129.914 92.0009 129.746C92.4809 129.578 92.9521 129.415 93.4233 129.252C93.4233 129.198 93.4097 129.139 93.4057 129.085C93.211 129.071 93.0156 129.071 92.8209 129.085C91.1729 129.325 90.6329 129.676 89.0729 128.918C94.5929 127.656 92.3081 128.038 94.5793 128.605C94.6545 128.397 94.7345 128.573 94.1393 127.93C94.4793 127.811 94.7873 127.702 95.0993 127.598L95.0721 127.404C94.649 127.372 94.2235 127.409 93.8121 127.513C93.2009 127.776 92.7969 127.433 92.3305 127.209C92.1041 127.101 91.8641 127.01 91.6281 126.914C91.5961 126.969 91.5649 127.027 91.5329 127.082C91.7593 127.258 91.9865 127.431 92.2625 127.642C91.0161 127.914 89.8065 128.172 88.5649 128.442C88.6057 128 88.813 127.591 89.1445 127.296C89.4761 127.002 89.9072 126.844 90.3505 126.856C91.8663 126.725 93.3743 126.515 94.8681 126.226C95.0041 126.2 95.1937 126.166 95.2489 126.072C95.7145 125.272 96.1689 124.463 96.6217 123.652C96.5905 123.589 96.5585 123.53 96.5265 123.466C94.7139 123.875 92.8783 124.173 91.0297 124.359C90.0801 124.491 89.1097 124.833 89.2081 124.199C89.2523 124.087 89.3228 123.987 89.4135 123.907C89.5042 123.828 89.6126 123.771 89.7297 123.742C90.5233 123.596 91.3337 123.524 92.1297 123.398C93.5385 123.174 94.9393 122.918 96.3529 122.709C96.7115 122.634 97.0454 122.47 97.3235 122.231C97.6017 121.993 97.8151 121.688 97.9441 121.345C100.37 116.888 104.362 109.727 106.776 105.345C115.115 90.2153 115.91 87.2401 120.456 87.4353C125.102 87.6345 120.879 87.6193 151.489 90.3401C152.318 90.3899 153.144 90.4968 153.958 90.6601C155.638 91.0465 156.155 92.4081 155.21 93.8601C154.559 94.8569 156.177 92.3889 141.21 115.109C135.516 123.749 134.591 125.474 131.774 128.328C130.301 129.82 129.767 129.535 111.11 133.304C94.8505 136.584 93.9593 136.904 91.7913 137.078C90.7761 137.158 90.3121 136.598 90.4913 135.588C90.6248 135.026 90.7912 134.472 90.9897 133.929C90.3593 134.038 89.7569 134.106 89.1681 134.249C87.6113 134.507 86.0161 134.405 84.5049 133.95C69.2425 130.777 71.8281 131.451 70.0305 131.07C68.9017 130.894 68.4945 130.259 69.9505 130.169C78.5177 128.556 76.8545 128.994 77.0513 128.904C78.5513 128.344 79.2633 129.045 80.6633 129.938C80.6545 129.992 80.6409 130.042 80.6313 130.098L77.8761 129.404C77.8489 129.468 77.8177 129.536 77.7905 129.599C78.1529 129.821 78.5153 130.038 78.8961 130.274C77.8625 130.383 76.8433 130.487 75.8281 130.594L75.8417 130.73C76.7617 130.73 77.6865 130.796 78.6017 130.712C79.6082 130.581 80.6315 130.675 81.5969 130.989C81.7855 131.077 81.9685 131.177 82.1449 131.288C81.4833 131.487 80.9537 131.646 80.4185 131.809C80.4185 131.846 80.4137 131.882 80.4137 131.918C80.6356 131.935 80.8585 131.933 81.0801 131.913C81.7377 131.802 82.3945 131.574 82.9881 132.099C82.8505 131.911 83.9873 133.049 84.8089 132.146ZM94.0489 135.463C100.078 134.678 122.92 129.805 128.83 128.57C131.985 127.911 133.078 125.486 143.462 109.474C151.156 97.6113 152.136 96.2433 153.627 93.4545C154.027 92.7105 153.547 92.0441 152.716 91.9585C142.987 90.9579 133.257 90.0139 123.527 89.1265C118.814 88.6897 118.735 88.5769 118.216 88.8321C117.262 89.2724 116.498 90.041 116.064 90.9977C114.077 95.2665 121.126 81.0705 95.4585 129.128C94.4435 130.735 93.6652 132.479 93.1473 134.307C92.9513 135.241 93.1337 135.481 94.0489 135.463Z"
        fill="#272833" />
    <path
        d="M31.3122 139.537C19.8634 138.328 14.6522 130.097 13.9602 118.858C12.389 93.3384 35.8802 73.2736 37.5386 75.0416C38.1226 75.6656 30.3002 80.7216 25.8786 86.7792C6.53055 113.287 11.4945 150.478 53.2386 135.064C65.8633 130.402 72.8698 124.36 78.7586 126.703C80.9185 127.561 83.1314 129.423 83.8482 131.77C84.3418 133.389 80.925 129.266 78.8994 128.389C70.073 124.566 54.8986 142.028 31.3122 139.537Z"
        fill="#272833" />
    <path
        d="M44.1506 103.378C44.4186 104.139 44.685 102.934 43.9282 112.265C52.5162 111.349 61.1186 110.609 71.3042 112.397C81.9842 114.271 85.5098 117.762 87.8946 119.557C88.8154 120.25 88.3666 121.402 87.6642 121.011C86.2858 120.246 86.573 118.546 75.841 115.265C54.4082 108.713 34.4434 116.128 32.0234 115.89C33.4682 114.398 35.9898 114.14 41.957 112.61C42.0894 112.561 42.2087 112.481 42.3057 112.378C42.4028 112.276 42.475 112.152 42.517 112.017C42.7314 110.938 42.917 109.857 43.0426 108.763C43.7426 102.545 43.2002 103.582 44.1506 103.378Z"
        fill="#272833" />
    <path
        d="M101.848 106.691C101.784 106.791 101.703 107.091 101.535 107.154C101.187 107.276 101.141 106.936 101.046 106.686C99.2801 102.051 98.7401 100.196 95.9793 95.0064C94.2087 91.8384 92.1969 88.8113 89.9617 85.952C88.517 83.9539 86.8285 82.1439 84.9353 80.564C82.3737 78.3452 79.6157 76.3637 76.6953 74.644C75.7105 74.1088 74.6297 73.8112 74.4113 73.484C74.2937 73.3072 74.1217 72.9904 74.1897 72.904C74.2657 72.8023 74.3631 72.7187 74.4751 72.6591C74.5872 72.5995 74.711 72.5654 74.8377 72.5592C76.1393 72.812 78.1545 73.264 81.5625 75.936C82.6345 76.776 83.8025 77.504 84.8385 78.3784C87.3829 80.5002 89.6637 82.9193 91.6321 85.584C96.1817 91.788 100.984 98.9904 101.848 106.691Z"
        fill="#272833" />
    <path
        d="M89.635 135.934C89.9926 136.003 90.3014 136.161 90.2374 136.559C90.1654 137.008 89.775 136.887 89.4894 136.827C87.9046 136.491 68.3894 132.336 66.7086 132.091C66.1742 131.924 65.8758 130.966 68.2086 131.547C69.9998 131.993 82.9966 134.658 89.635 135.934Z"
        fill="#272833" />
    <path
        d="M88.4001 118.533C89.4065 118.398 98.1385 117.253 99.1401 117.218C99.2119 117.223 99.2818 117.244 99.344 117.28C99.4063 117.316 99.4592 117.366 99.4985 117.426C99.5293 117.566 99.5064 117.711 99.4345 117.834C99.2937 118.117 99.0752 118.353 98.8046 118.515C98.534 118.678 98.2227 118.759 97.9073 118.75C95.1873 118.99 90.7353 119.79 89.8681 119.86C88.1441 120.214 87.5273 118.649 88.4001 118.533Z"
        fill="#272833" />
    <path
        d="M2.17364 132.341C1.82004 132.021 2.01364 131.453 2.71684 131.266C5.36564 130.568 4.94724 130.696 15.152 129.494C15.6184 129.44 15.9128 129.635 15.9632 130.061C16.0216 130.555 15.7368 130.65 15.3104 130.701C14.364 130.81 13.4256 131.021 12.4736 131.118C9.02059 131.337 5.58213 131.746 2.17364 132.341Z"
        fill="#272833" />
    <path
        d="M65.9383 54.1912C65.8583 55.5208 65.6239 56.928 64.5975 57.8392C64.4701 57.9859 64.2896 58.076 64.0958 58.0896C63.9019 58.1033 63.7106 58.0394 63.5639 57.912C63.2087 57.6016 63.3823 57.2456 63.6543 56.9648C63.9652 56.646 64.2073 56.2666 64.3656 55.8503C64.5238 55.4341 64.5949 54.9897 64.5743 54.5448C64.4799 50.6688 64.1391 50.5064 63.4007 48.264C63.3783 48.196 63.3159 48.128 63.3207 48.0648C63.3327 47.8696 62.9903 46.8408 63.9239 47.72C65.1317 49.672 65.8248 51.8985 65.9383 54.1912Z"
        fill="#272833" />
    <path
        d="M85.1899 121.487C86.0428 122.006 86.8361 122.617 87.5555 123.309C88.0642 123.851 88.4804 124.472 88.7875 125.149C89.1075 126.341 88.6347 127.096 88.0851 126.463C87.6851 126.005 85.7019 123.49 83.9571 122.647C83.5268 122.392 83.1229 122.094 82.7515 121.759C82.6027 121.622 81.2803 119.865 85.1899 121.487Z"
        fill="#272833" />
    <path
        d="M85.4345 128.874C84.8393 129.096 83.8097 126.427 81.0161 124.446C80.6047 124.103 80.2565 123.691 79.9873 123.227C79.9223 123.138 79.89 123.029 79.8957 122.919C79.9014 122.809 79.9448 122.704 80.0187 122.623C80.0926 122.541 80.1924 122.487 80.3013 122.47C80.4102 122.453 80.5217 122.474 80.6169 122.53C81.8232 123.218 82.95 124.037 83.9769 124.972C85.6545 126.647 85.6249 128.8 85.4345 128.874Z"
        fill="#272833" />
    <path
        d="M61.6066 61.9633C61.2153 62.1408 60.7798 62.1976 60.356 62.1264C59.9322 62.0551 59.5392 61.8591 59.2274 61.5633C58.8797 61.2291 58.6265 60.8088 58.4936 60.3452C58.3607 59.8815 58.3527 59.391 58.4706 58.9233C58.5066 58.7633 58.8882 57.9177 59.0866 58.9417C59.2022 59.4562 59.413 59.9446 59.7082 60.3817C59.7786 60.52 59.8768 60.6423 59.9967 60.741C60.1165 60.8396 60.2554 60.9125 60.4047 60.955C60.554 60.9975 60.7104 61.0087 60.8642 60.988C61.0181 60.9672 61.1659 60.915 61.2986 60.8345C61.5834 60.718 61.8553 60.5721 62.1098 60.3993C62.7258 59.9737 63.8682 60.9033 61.6066 61.9633Z"
        fill="#272833" />
    <path
        d="M149.698 113.126C149.893 113.126 149.92 113.755 149.725 113.766C147.63 113.926 145.534 114.091 143.435 114.202C143.168 114.215 142.887 113.998 142.61 113.882C142.663 113.718 142.769 113.576 142.911 113.479C143.052 113.381 143.222 113.333 143.394 113.342C144.464 113.36 148.665 113.145 149.698 113.126Z"
        fill="#272833" />
    <path
        d="M60.3464 46.6008C60.492 46.6544 60.608 46.968 60.6096 47.0496C60.6096 47.3488 60.3552 47.436 59.816 47.34C58.7144 47.1424 58.3664 47.5704 57.7904 48.232C57.1112 48.9208 56.9904 48.3864 57.1152 47.8112C57.4171 47.2536 57.9105 46.8239 58.5043 46.6015C59.0981 46.379 59.7524 46.3788 60.3464 46.6008Z"
        fill="#272833" />
    <path
        d="M60.1152 52.88C59.8273 52.8474 59.561 52.7113 59.366 52.497C59.171 52.2827 59.0605 52.0049 59.0552 51.7152C59.0555 51.4611 59.1527 51.2168 59.3269 51.0319C59.5011 50.847 59.7392 50.7354 59.9928 50.72C61.0936 50.7256 61.1936 52.8464 60.1152 52.88Z"
        fill="#272833" />
    <path
        d="M67.2802 47.6704C67.1108 47.4208 66.8602 47.2376 66.571 47.1518C66.2818 47.0661 65.9718 47.0831 65.6938 47.2C65.6126 47.213 65.5294 47.2062 65.4514 47.1802C65.3734 47.1541 65.3029 47.1096 65.2458 47.0504C65.1826 46.9776 65.2338 46.7392 65.309 46.6248C65.4266 46.4888 65.5708 46.3781 65.7327 46.2996C65.8945 46.2212 66.0707 46.1765 66.2504 46.1685C66.4301 46.1604 66.6095 46.189 66.7778 46.2526C66.9461 46.3162 67.0996 46.4135 67.229 46.5384C68.7338 48.4496 67.6338 48.2048 67.2802 47.6704Z"
        fill="#272833" />
    <path
        d="M89.5264 129.73C88.1664 129.957 86.952 130.166 85.7104 130.37C85.6424 129.863 85.8288 129.655 86.2704 129.474C86.7955 129.259 87.3635 129.171 87.9289 129.215C88.4943 129.26 89.0414 129.436 89.5264 129.73Z"
        fill="#272833" />
    <path
        d="M66.0747 51.3321C66.0971 50.8113 66.3947 50.4217 66.7771 50.4753C67.2571 50.5441 67.4067 50.9065 67.4251 51.3369C67.4883 52.7905 66.0123 52.7929 66.0747 51.3321Z"
        fill="#272833" />
    <path
        d="M89.8071 28.0849C89.9295 27.9489 90.0383 27.7121 90.1743 27.6945C96.0191 26.9521 108.919 27.4001 114.84 27.4369C130.622 27.5329 125.504 27.0289 150.174 27.6905C151.184 27.7177 152.186 27.9113 153.197 27.9849C154.237 28.0609 153.837 28.6465 153.174 28.6601C148.834 29.0561 150.298 28.7313 138.51 28.6513C85.9095 28.2921 90.5711 28.4905 89.8071 28.0849Z"
        fill="#272833" />
    <path
        d="M97.4929 41.7433C96.3623 41.1155 95.4983 40.0985 95.0615 38.8813C94.6248 37.6642 94.645 36.3298 95.1185 35.1265C95.5948 33.8877 96.5105 32.8675 97.6909 32.2608C98.8714 31.6541 100.234 31.5032 101.518 31.8369C105.99 32.8001 107.2 39.3761 102.906 41.6681C102.69 39.8903 102.209 38.1549 101.478 36.5201C101.238 35.9985 102.313 35.1465 101.438 33.9465C101.125 33.5801 100.691 33.3374 100.215 33.2617C99.7394 33.1861 99.2521 33.2825 98.8409 33.5337C98.4553 33.8265 98.1929 34.2528 98.105 34.7289C98.0171 35.2051 98.11 35.6969 98.3657 36.1081C98.4843 36.2691 98.5362 36.4697 98.5105 36.6681C97.8906 38.2912 97.5467 40.0066 97.4929 41.7433Z"
        fill="#0B7DFF" />
    <path
        d="M127.656 40.936C109.176 40.936 106.728 41.0728 106.733 40.3288C106.738 39.6472 108.395 39.8376 121.243 39.7584C143.951 39.6176 144.443 39.5024 146.109 39.8808C146.863 40.0512 146.716 40.7952 146.014 40.8136C139.43 40.988 127.575 40.936 127.656 40.936Z"
        fill="#272833" />
    <path
        d="M97.4927 41.7432C97.5479 40.006 97.8918 38.29 98.5103 36.6656C98.5356 36.4673 98.4837 36.2669 98.3655 36.1056C98.1108 35.6942 98.0183 35.2026 98.1062 34.7267C98.194 34.2508 98.4558 33.8247 98.8407 33.5312C99.2521 33.2805 99.7392 33.1844 100.215 33.26C100.691 33.3357 101.124 33.5781 101.437 33.944C102.303 35.1328 101.242 36.0008 101.478 36.5176C102.203 38.1546 102.684 39.8891 102.905 41.6656C101.809 42.6672 100.479 42.6552 99.1559 42.4248C98.5779 42.2601 98.0201 42.0315 97.4927 41.7432Z"
        fill="#272833" />
    <path
        d="M128.313 63.8032C125.33 63.9592 115.033 64.2408 113.648 64.0976C113.517 64.084 113.298 63.9752 113.286 63.8896C113.282 63.8127 113.298 63.7361 113.332 63.6671C113.366 63.5981 113.418 63.539 113.481 63.4952C113.74 63.3688 114.019 63.2877 114.306 63.2552C117.385 62.9912 116.21 62.9352 127.932 62.8208C130.257 62.9288 129.17 63.8256 128.313 63.8032Z"
        fill="#272833" />
    <path
        d="M106.891 65.208C106.291 64.707 105.902 63.9987 105.8 63.2238C105.699 62.4489 105.893 61.6642 106.343 61.0256C106.576 60.7195 106.867 60.4623 107.2 60.2688C107.532 60.0754 107.9 59.9493 108.281 59.898C108.663 59.8467 109.05 59.871 109.422 59.9696C109.794 60.0682 110.143 60.2392 110.449 60.4728C111.895 61.5184 112.093 64.288 110.204 65.3528C110.009 64.5144 109.804 63.6768 109.624 62.8384C109.553 62.5104 110.084 61.7368 109.42 61.2336C109.24 61.0914 109.021 61.0076 108.792 60.9933C108.564 60.979 108.336 61.0349 108.14 61.1536C107.949 61.2612 107.798 61.427 107.708 61.6268C107.618 61.8266 107.595 62.0499 107.641 62.264C107.668 62.668 107.568 62.8888 106.891 65.208Z"
        fill="#0B7DFF" />
    <path
        d="M107.1 50.9601C106.662 50.6327 106.324 50.1898 106.123 49.6809C105.923 49.1721 105.868 48.6174 105.965 48.0791C106.062 47.5408 106.306 47.0402 106.672 46.6332C107.037 46.2263 107.509 45.9292 108.034 45.7753C110.818 44.9681 112.985 48.3929 111.034 50.4657C110.772 50.7045 110.491 50.9227 110.195 51.1185C109.888 49.1425 109.752 48.6073 109.887 48.1865C109.997 47.9416 110.022 47.6667 109.956 47.4064C109.891 47.146 109.74 46.9153 109.527 46.7514C109.314 46.5875 109.053 46.5 108.784 46.503C108.516 46.5061 108.256 46.5994 108.047 46.7681C107.853 46.9583 107.726 47.2069 107.686 47.4759C107.646 47.7449 107.695 48.0197 107.825 48.2585C108.049 48.7801 107.702 49.3737 107.1 50.9601Z"
        fill="#0B7DFF" />
    <path
        d="M113.84 49.4561C113.5 49.4561 113.152 49.3929 113.17 49.0161C113.179 48.8169 113.469 48.5497 113.69 48.4561C114.01 48.3303 114.353 48.2718 114.697 48.2841C117.353 48.3262 120.008 48.3942 122.663 48.4881C123.036 48.535 123.397 48.6502 123.729 48.8281C124.092 48.9881 124.013 49.2337 123.71 49.3577C123.385 49.508 123.035 49.5985 122.677 49.6249C121.18 49.6593 115.289 49.4513 113.84 49.4561Z"
        fill="#272833" />
    <path
        d="M138.01 63.6537C136.874 63.6537 136.045 62.8969 137.335 62.7737C139.483 62.5713 142.813 62.492 145.86 62.4704C146.499 62.4223 147.141 62.4223 147.78 62.4704C148.958 62.2936 148.677 63.5944 147.852 63.4808C147.395 63.5544 139.366 63.6585 138.01 63.6537Z"
        fill="#272833" />
    <path
        d="M106.891 65.208C107.542 62.9792 107.663 62.6952 107.644 62.2624C107.6 62.0484 107.624 61.826 107.714 61.6267C107.803 61.4273 107.953 61.2613 108.142 61.152C108.338 61.0315 108.566 60.9745 108.795 60.9889C109.024 61.0032 109.243 61.0881 109.422 61.232C110.088 61.7392 109.56 62.5256 109.626 62.8368C109.807 63.6792 110.012 64.5128 110.206 65.3512C109.701 65.6555 109.117 65.8042 108.527 65.7787C107.938 65.7532 107.369 65.5547 106.891 65.208Z"
        fill="#272833" />
    <path
        d="M107.1 50.96C107.694 49.36 108.038 48.7768 107.82 48.2584C107.242 46.912 108.54 46.0728 109.442 46.6904C109.667 46.8595 109.83 47.0963 109.91 47.3657C109.989 47.6352 109.979 47.9229 109.882 48.1864C109.743 48.6224 109.894 49.2096 110.191 51.1184C109.728 51.4309 109.176 51.5845 108.619 51.5559C108.061 51.5274 107.528 51.3182 107.1 50.96Z"
        fill="#272833" />
    <path
        d="M129.029 48.5857C132.54 48.5857 132.778 48.5385 133.456 48.7457C133.534 48.7794 133.603 48.831 133.657 48.8964C133.712 48.9617 133.75 49.0389 133.769 49.1217C133.784 49.2209 133.614 49.4105 133.488 49.4569C132.917 49.6673 133.374 49.7073 125.658 49.5977C125.351 49.592 125.047 49.5399 124.755 49.4433C124.678 49.4114 124.61 49.3614 124.556 49.2975C124.503 49.2335 124.465 49.1576 124.447 49.0761C124.468 48.9928 124.507 48.9154 124.563 48.8501C124.618 48.7848 124.688 48.7335 124.767 48.7001C125.18 48.5497 125.614 48.5913 129.04 48.5913C129.029 48.5905 129.029 48.5857 129.029 48.5857Z"
        fill="#272833" />
    <path
        d="M127.47 56.0544C127.452 56.48 127.135 56.6432 126.862 56.3352C126.616 56.0982 126.316 55.9238 125.988 55.8264C125.66 55.7289 125.314 55.7114 124.978 55.7752C124.216 55.7896 124.098 55.6624 124.103 54.8872C124.103 54.2168 124.13 53.5456 124.153 52.88C124.146 52.8023 124.157 52.7242 124.184 52.6512C124.212 52.5782 124.255 52.5123 124.311 52.458C124.367 52.4038 124.434 52.3627 124.508 52.3378C124.582 52.3128 124.66 52.3045 124.738 52.3136C125.444 52.3064 126.151 52.308 126.858 52.3C127.27 52.2944 127.498 52.4448 127.474 52.9072C127.44 53.544 127.506 55.184 127.47 56.0544ZM126.858 55.764V53.0768H124.8V55.0976C125.535 55.1704 126.314 54.8848 126.858 55.764Z"
        fill="#272833" />
    <path
        d="M127.461 70.3152C127.438 70.7232 127.141 70.8752 126.89 70.5824C126.654 70.3467 126.365 70.1716 126.047 70.0723C125.729 69.9729 125.392 69.9522 125.064 70.012C124.198 70.0264 124.091 69.912 124.098 69.0464C124.104 68.3984 124.125 67.7456 124.148 67.0976C124.141 67.0202 124.152 66.9422 124.179 66.8694C124.206 66.7965 124.249 66.7304 124.304 66.676C124.359 66.6215 124.426 66.5799 124.499 66.5542C124.573 66.5285 124.651 66.5192 124.728 66.5272C125.448 66.52 126.174 66.52 126.894 66.5176C127.294 66.5176 127.48 66.6944 127.466 67.116C127.44 67.908 127.507 69.5056 127.461 70.3152ZM124.787 67.2976V69.3184C125.503 69.4272 126.323 69.0736 126.881 69.8352V67.2976H124.787Z"
        fill="#272833" />
    <path
        d="M117.36 60.6472C119.733 60.6472 120.38 60.5944 120.978 60.812C122.007 60.9888 121.618 61.56 120.91 61.628C120.594 61.7098 120.267 61.7464 119.941 61.7368C114.514 61.6712 114.292 61.6672 113.99 61.5144C113.915 61.4757 113.849 61.42 113.799 61.3517C113.749 61.2834 113.715 61.2044 113.701 61.1208C113.718 61.0374 113.755 60.9593 113.808 60.8931C113.862 60.8268 113.931 60.7744 114.009 60.74C114.29 60.6304 114.4 60.6472 117.36 60.6472Z"
        fill="#272833" />
    <path
        d="M113.644 69.296C113.214 69.456 112.984 69.8024 112.823 68.96C112.78 68.7527 112.782 68.5387 112.827 68.332C112.872 68.1252 112.961 67.9303 113.086 67.76C113.254 67.8552 113.422 67.9552 113.698 68.1136C114.002 67.656 114.356 67.1304 114.7 66.6C114.728 66.5368 114.774 66.4834 114.833 66.4469C114.892 66.4104 114.96 66.3924 115.029 66.3953C115.098 66.3983 115.165 66.422 115.22 66.4633C115.276 66.5047 115.318 66.5618 115.34 66.6272C115.43 66.9434 115.483 67.2687 115.5 67.5968C116.448 67.7024 116.588 67.5664 116.3 68.3968C116.21 68.6592 116.27 68.92 116.014 69.1896C115.697 69.4876 115.284 69.6622 114.849 69.6817C114.414 69.7012 113.987 69.5644 113.644 69.296Z"
        fill="#272833" />
    <path
        d="M113.653 55.0705C113.173 55.2425 112.954 55.5417 112.819 54.7809C112.777 54.5669 112.78 54.3463 112.829 54.1337C112.878 53.9212 112.972 53.7215 113.105 53.5481C113.272 53.6521 113.44 53.7569 113.698 53.9201C114.018 53.4401 114.362 52.9105 114.704 52.3833C114.739 52.3184 114.793 52.2658 114.859 52.2326C114.925 52.1994 115 52.1872 115.073 52.1976C115.146 52.2079 115.214 52.2404 115.268 52.2906C115.322 52.3408 115.359 52.4064 115.375 52.4785C115.446 52.7818 115.484 53.0918 115.488 53.4033C116.493 53.4945 116.539 53.3409 116.299 54.1913C116.223 54.4633 116.264 54.7185 116.023 54.9801C115.701 55.2694 115.287 55.4369 114.854 55.4534C114.421 55.4699 113.996 55.3344 113.653 55.0705Z"
        fill="#272833" />
    <path
        d="M120.124 46.4C118.012 46.5 115.905 46.584 113.793 46.6448C113.462 46.6544 112.943 46.6992 112.95 46.2048C112.957 45.752 113.458 45.8048 113.775 45.7928C115.775 45.7344 117.785 45.6792 119.789 45.6752C122.394 45.6704 121.098 46.48 120.124 46.4Z"
        fill="#272833" />
    <path
        d="M111.006 36.7312C108.41 36.5632 107.826 36.6688 107.843 35.9784C107.856 35.4664 108.355 35.4008 108.75 35.4184C110.121 35.3458 111.497 35.4263 112.85 35.6584C113.916 35.948 113.734 36.7552 112.806 36.7096C112.207 36.7616 111.606 36.7688 111.006 36.7312Z"
        fill="#272833" />
    <path
        d="M119.6 69.6352C119.371 69.6432 119.141 69.6281 118.915 69.5904C118.088 69.3896 118.33 69.124 118.399 68.652C118.408 68.6072 118.467 68.572 118.498 68.5256C118.677 68.1127 119.011 67.786 119.427 67.6149C119.843 67.4439 120.31 67.442 120.728 67.6096C120.808 67.6481 120.878 67.704 120.933 67.7732C120.989 67.8424 121.028 67.9232 121.048 68.0096C121.166 68.8701 121.023 69.7463 120.636 70.524C120.476 70.8824 120.175 70.8264 119.996 70.5784C119.828 70.2804 119.695 69.9638 119.6 69.6352Z"
        fill="#272833" />
    <path
        d="M115.171 34.0617C115.203 33.1817 115.811 32.4081 115.959 33.3145C116.127 34.7659 116.207 36.2262 116.199 37.6873C116.211 37.9945 116.157 38.3008 116.039 38.5849C115.959 38.7657 115.7 39.0017 115.559 38.9785C115.165 38.9153 115.065 38.3033 115.079 37.9681C115.066 37.3521 115.145 34.7465 115.171 34.0617Z"
        fill="#272833" />
    <path
        d="M119.612 55.3657C119.367 55.3657 119.077 55.3841 118.792 55.3609C118.696 55.3604 118.602 55.3347 118.52 55.2864C118.437 55.2381 118.369 55.1689 118.321 55.0858C118.274 55.0027 118.249 54.9086 118.25 54.8129C118.251 54.7173 118.276 54.6234 118.325 54.5409C118.43 54.3325 118.548 54.131 118.678 53.9377C119.136 53.2593 120.957 53.0249 121.053 53.7161C121.172 54.611 121.022 55.5211 120.622 56.3305C120.455 56.6841 120.13 56.5657 119.97 56.3305C119.814 56.024 119.693 55.7002 119.612 55.3657Z"
        fill="#272833" />
    <path
        d="M134.906 62.8384C136.326 63.1288 135.197 63.7552 134.986 63.7672C133.732 63.84 132.471 63.8392 131.211 63.8168C130.509 63.6808 130.178 62.9288 131.23 62.8832C132.452 62.7795 133.681 62.7646 134.906 62.8384Z"
        fill="#272833" />
    <path
        d="M136.629 49.6552C136.179 49.6814 135.728 49.6739 135.279 49.6328C134.427 49.628 134.206 48.7808 135.26 48.7128C136.268 48.648 137.277 48.612 138.283 48.568C138.372 48.5716 138.46 48.5867 138.546 48.6128C140.053 48.96 138.754 49.46 138.559 49.5104C137.923 49.6271 137.276 49.6757 136.629 49.6552Z"
        fill="#272833" />
    <path
        d="M94.1119 24.9033C94.1085 25.1222 94.021 25.3314 93.8677 25.4877C93.7144 25.6439 93.5068 25.7353 93.288 25.7429C93.0692 25.7505 92.8559 25.6738 92.6921 25.5285C92.5283 25.3833 92.4265 25.1806 92.4079 24.9625C92.3985 24.7163 92.4866 24.4764 92.653 24.2947C92.8194 24.1131 93.0507 24.0043 93.2967 23.9921C93.5232 24.0112 93.7338 24.1162 93.8854 24.2856C94.037 24.455 94.118 24.676 94.1119 24.9033Z"
        fill="#272833" />
    <path
        d="M100.24 25.8456C100.03 25.8558 99.8251 25.7838 99.6677 25.645C99.5104 25.5063 99.4135 25.3116 99.3975 25.1024C99.4124 24.8584 99.5128 24.6275 99.6811 24.4502C99.8493 24.2729 100.075 24.1605 100.317 24.1328C100.421 24.1287 100.525 24.146 100.622 24.1836C100.719 24.2212 100.807 24.2783 100.881 24.3513C100.954 24.4244 101.013 24.5119 101.051 24.6083C101.09 24.7048 101.108 24.8081 101.105 24.912C101.107 25.1485 101.018 25.3766 100.857 25.55C100.697 25.7234 100.476 25.8291 100.24 25.8456Z"
        fill="#272833" />
    <path d="M96.7584 25.964C96.02 25.9248 95.9888 24.5104 96.9856 24.532C97.9448 24.552 97.8528 25.964 96.7584 25.964Z"
        fill="#272833" />
    <path
        d="M121.987 54.3728C121.981 54.6163 121.954 54.8588 121.907 55.0976C121.882 55.1584 121.842 55.2121 121.791 55.254C121.741 55.2958 121.681 55.3245 121.616 55.3376C121.552 55.3236 121.493 55.2932 121.445 55.2494C121.397 55.2057 121.361 55.15 121.34 55.088C121.276 54.6974 121.255 54.3009 121.277 53.9056C121.29 53.7456 121.503 53.6016 121.626 53.452C121.758 53.5932 121.872 53.7501 121.966 53.9192C122.003 54.0675 122.01 54.2218 121.987 54.3728Z"
        fill="#272833" />
    <path
        d="M121.298 67.9864C121.324 67.9168 121.367 67.8547 121.422 67.8055C121.478 67.7564 121.545 67.7218 121.618 67.7048C121.727 67.7048 121.938 67.8728 121.938 67.9768C121.955 68.4456 121.94 68.915 121.892 69.3816C121.884 69.4616 121.702 69.608 121.629 69.5904C121.564 69.5716 121.505 69.5386 121.455 69.4939C121.405 69.4492 121.365 69.3939 121.339 69.332C121.272 68.8868 121.258 68.435 121.298 67.9864Z"
        fill="#272833" />
    <path
        d="M125.082 54.2552C125.467 54.2552 125.857 54.2424 126.242 54.2688C126.301 54.2688 126.378 54.4288 126.387 54.5176C126.392 54.568 126.269 54.6776 126.206 54.6776C125.83 54.668 125.454 54.6184 125.082 54.5864V54.2552Z"
        fill="#272833" />
    <path
        d="M125.173 53.4984C125.526 53.516 125.875 53.5344 126.31 53.5528C125.984 53.924 125.626 53.92 125.173 53.4984Z"
        fill="#272833" />
    <path
        d="M125.091 68.4849C125.476 68.4849 125.861 68.4849 126.242 68.4937C126.292 68.4937 126.378 68.6209 126.378 68.6889C126.378 68.7569 126.298 68.8793 126.247 68.8833C125.84 68.9177 125.403 69.0281 125.091 68.4849Z"
        fill="#272833" />
    <path
        d="M126.219 68.0801L125.149 67.9849C125.154 67.8985 125.159 67.8081 125.168 67.7217C125.525 67.7449 125.884 67.7625 126.241 67.7857C126.24 67.8817 126.228 67.9817 126.219 68.0801Z"
        fill="#272833" />
</svg>