<svg width="160" height="160" viewBox="0 0 160 160" fill="none" xmlns="http://www.w3.org/2000/svg">
<path d="M89.0299 77.472C93.2211 74.5464 91.5099 69.632 89.0299 68.7328C91.4091 65.6216 87.6699 63.0528 85.1531 64.6752C85.1531 59.2232 79.3819 59.9176 77.8075 63.4568C77.3588 62.9229 76.7632 62.5325 76.0946 62.3341C75.426 62.1357 74.7139 62.1379 74.0466 62.3406C73.3793 62.5433 72.7862 62.9375 72.3409 63.4743C71.8956 64.011 71.6178 64.6667 71.5419 65.36C67.8019 64.956 67.1227 69.6848 68.8067 71.3112C65.6235 73.248 67.3794 77.2152 69.5146 77.5296C67.9354 80.0096 69.2867 82.444 70.7755 82.8896C72.4315 87.4944 74.5155 90.9768 79.5203 91.0496C84.5251 91.1224 86.1803 86.6352 87.1323 82.8896C90.0195 81.3976 89.7483 78.828 89.0299 77.472Z" fill="#272833"/>
<path d="M85.1809 90.764C85.1105 90.0784 84.3105 90.4072 84.3585 90.8784C84.4816 93.1191 85.1212 95.3011 86.2273 97.2536C86.3873 97.5152 86.8457 97.3336 86.7321 97.0352C85.9089 95.0327 85.3862 92.9194 85.1809 90.764Z" fill="#272833"/>
<path d="M67.9352 78.5472C68.5072 78.8224 68.5968 77.496 67.2216 77.4816C64.9384 77.4816 64.8808 81.1544 66.9176 83.5616C68.7344 85.7072 69.9952 84.9888 69.5056 84.3704C69.1672 83.9472 67.6496 83.852 66.7056 81.3872C66.1184 79.8792 66.1152 77.6728 67.9352 78.5472Z" fill="#272833"/>
<path d="M73.6113 90.912C73.2983 92.8737 72.85 94.8114 72.2697 96.7112C72.0745 97.3728 72.4977 97.6624 72.9209 96.9256C73.4633 96.012 74.5625 91.8304 74.3201 90.9552C74.2201 90.584 73.6681 90.5552 73.6113 90.912Z" fill="#272833"/>
<path d="M89.8482 77.9528C89.6818 78.2576 90.0762 78.476 90.3242 78.2728C90.957 77.7352 91.689 78.2728 91.8442 78.9536C92.1778 80.4616 90.1218 84.1248 88.1482 84.3432C87.197 84.448 86.769 85.4992 88.3722 85.2472C91.3114 84.772 93.8714 79.6904 92.3722 77.8736C91.7794 77.1816 90.349 77.0352 89.8482 77.9528Z" fill="#272833"/>
<path d="M39.2915 106.949C29.6435 106.987 15.5755 107.082 6.97146 107.273C6.49546 107.273 6.63306 108.024 7.04266 108.043C16.3003 108.419 29.9227 107.971 39.2547 107.906C39.8667 107.901 39.9051 106.946 39.2915 106.949Z" fill="#272833"/>
<path d="M153.573 106.769C145.829 106.734 132.389 106.906 123.906 106.892C123.553 106.892 123.553 107.539 123.906 107.596C125.381 107.836 150.752 107.725 153.563 107.725C153.682 107.715 153.794 107.661 153.876 107.574C153.957 107.486 154.003 107.371 154.005 107.252C154.006 107.132 153.962 107.016 153.883 106.927C153.803 106.837 153.693 106.781 153.573 106.769Z" fill="#272833"/>
<path d="M101.366 79.604C101.162 76.6304 100.686 75.1792 97.5257 75.1368C95.8609 75.1368 92.9961 75.236 92.5833 75.2888C92.5149 75.3051 92.4543 75.3449 92.4123 75.4013C92.3702 75.4577 92.3493 75.5271 92.3532 75.5973C92.3571 75.6676 92.3856 75.7342 92.4337 75.7856C92.4817 75.837 92.5463 75.8698 92.6161 75.8784C94.3425 75.9544 95.8561 76.0312 97.4737 76.0024C99.5481 75.964 100.304 76.6352 100.619 80.9072C100.785 83.1952 100.971 85.484 101.094 87.7768C101.217 90.0696 100.761 90.5264 98.5913 90.6312C94.6289 90.7912 90.6369 90.7024 86.6977 91.0168C86.3697 91.0408 86.3937 91.5824 86.7217 91.5968C90.5281 91.7256 94.3809 91.5112 98.2105 91.4584C100.765 91.4208 101.983 90.9504 101.865 88.4C101.723 85.4456 101.567 82.5248 101.366 79.604Z" fill="#272833"/>
<path d="M91.2082 85.92L95.857 85.796C95.8954 86.1768 95.9282 86.5576 95.9658 86.9424C95.9994 87.2472 96.5178 87.2136 96.5042 86.9048C96.5042 86.524 96.4706 86.148 96.4466 85.7672L98.3018 85.6768C98.4033 85.6625 98.4959 85.611 98.5616 85.5323C98.6273 85.4535 98.6614 85.3532 98.6573 85.2508C98.6533 85.1483 98.6113 85.051 98.5395 84.9778C98.4677 84.9046 98.3713 84.8606 98.269 84.8544L96.4042 84.9536C96.3178 83.5328 96.2239 82.1056 96.1226 80.672C96.9506 80.672 98.093 80.8624 98.1402 80.292C98.1484 80.1831 98.1137 80.0753 98.0434 79.9917C97.9731 79.9081 97.8729 79.8554 97.7642 79.8448H96.0994C96.0886 79.5307 96.0326 79.2197 95.933 78.9216C95.9058 78.8703 95.8643 78.828 95.8135 78.7998C95.7627 78.7716 95.7048 78.7587 95.6469 78.7628C95.589 78.7669 95.5334 78.7877 95.4871 78.8227C95.4407 78.8577 95.4056 78.9054 95.3858 78.96C95.1386 80.3136 95.9458 79.6528 94.0202 79.9536C93.9505 79.9719 93.8892 80.0135 93.8465 80.0715C93.8039 80.1296 93.7824 80.2005 93.7858 80.2725C93.7892 80.3444 93.8172 80.413 93.8651 80.4668C93.913 80.5206 93.9779 80.5564 94.049 80.568C94.5103 80.6366 94.9762 80.6698 95.4426 80.6672L95.785 84.9496L91.1802 85.2872C91.1046 85.3016 91.0367 85.3427 90.989 85.403C90.9412 85.4634 90.9168 85.5389 90.9202 85.6157C90.9236 85.6926 90.9546 85.7657 91.0075 85.8215C91.0604 85.8774 91.1316 85.9124 91.2082 85.92Z" fill="#272833"/>
<path d="M71.3944 91.212C69.4912 91.212 62.1312 91.0688 60.3664 91.3016C60.0192 91.3448 60.076 91.8488 60.4 91.892C62.108 92.132 69.4912 92.052 71.3416 92.0584C71.8744 92.0584 71.9408 91.212 71.3944 91.212Z" fill="#272833"/>
<path d="M40.4667 92.0344C40.8946 92.04 42.3691 92.0864 43.3587 92.0344C44.5003 91.9448 44.7187 91.3144 43.6491 91.2208C40.0899 90.9184 37.6074 92.3088 38.2354 88.4528C38.8154 85.1504 39.6627 82.0392 40.4427 78.9376C40.9227 77.0344 42.4834 76.3968 44.329 76.3968C51.1851 76.3968 58.0384 76.3635 64.8891 76.2968C64.9979 76.2825 65.0974 76.2282 65.1685 76.1445C65.2395 76.0609 65.2769 75.9538 65.2734 75.8441C65.2699 75.7344 65.2258 75.63 65.1496 75.551C65.0734 75.472 64.9705 75.4242 64.861 75.4168C58.005 75.4736 51.1258 75.6312 44.2802 75.6408C39.1602 75.6408 39.537 78.5296 37.4802 88.2384C36.8602 91.1544 37.6211 92 40.4667 92.0344Z" fill="#272833"/>
<path d="M60.6567 86.3064C60.7087 85.9864 60.7647 85.6568 60.7991 85.3072C61.7503 85.3072 64.2199 85.46 64.9663 85.336C65.0457 85.3132 65.1156 85.2651 65.1653 85.1991C65.2151 85.1331 65.242 85.0527 65.242 84.97C65.242 84.8873 65.2151 84.8069 65.1653 84.7409C65.1156 84.6749 65.0457 84.6268 64.9663 84.604C63.6007 84.4935 62.2303 84.4554 60.8607 84.4896C60.9279 83.1387 60.9978 81.7891 61.0703 80.4408C61.9311 80.4408 62.8111 80.4736 63.6679 80.3984C63.7651 80.3868 63.8547 80.34 63.9197 80.2668C63.9847 80.1936 64.0206 80.0991 64.0206 80.0012C64.0206 79.9033 63.9847 79.8088 63.9197 79.7356C63.8547 79.6624 63.7651 79.6156 63.6679 79.604C62.8255 79.5416 61.9647 79.604 61.1175 79.604V79.2224C61.1463 78.68 60.3047 78.5824 60.2807 79.128V79.604L56.3271 79.6416C56.3791 79.304 56.5463 78.6896 56.0319 78.624C55.5175 78.5584 55.5567 79.2992 55.5135 79.6512L50.6655 79.7368C50.7455 79.432 51.0415 78.7048 50.5567 78.5856C49.9759 78.4472 49.9383 79.38 49.8663 79.7464L45.8703 79.7944C45.9801 79.5728 46.0021 79.3179 45.9319 79.0808C45.9146 79.0419 45.8898 79.0069 45.8588 78.9777C45.8278 78.9485 45.7913 78.9258 45.7515 78.9109C45.7116 78.896 45.6692 78.8892 45.6267 78.8909C45.5842 78.8926 45.5424 78.9028 45.5039 78.9208C45.2039 79.0616 45.1503 79.5328 45.0759 79.8008C44.3977 79.7771 43.7189 79.8213 43.0495 79.9328C42.9872 79.951 42.9324 79.9889 42.8935 80.0408C42.8546 80.0927 42.8335 80.1559 42.8335 80.2208C42.8335 80.2857 42.8546 80.3489 42.8935 80.4008C42.9324 80.4527 42.9872 80.4906 43.0495 80.5088C43.6455 80.602 44.2493 80.6355 44.8519 80.6088L44.3767 82.4024C44.3637 82.4742 44.3781 82.5482 44.417 82.6098C44.4559 82.6715 44.5166 82.7163 44.5869 82.7354C44.6573 82.7545 44.7323 82.7465 44.797 82.713C44.8618 82.6795 44.9116 82.6229 44.9367 82.5544L45.5975 80.5992L49.6983 80.5616C49.6463 80.8464 49.3463 81.66 49.7511 81.7744C50.1559 81.8888 50.2935 81.008 50.4263 80.556L55.4359 80.5088C55.4359 80.8288 55.4071 81.1608 55.3975 81.4896C55.4016 81.5612 55.4313 81.6289 55.481 81.6805C55.5307 81.7321 55.5973 81.7642 55.6687 81.7709C55.74 81.7777 55.8114 81.7587 55.87 81.7174C55.9286 81.676 55.9704 81.6151 55.9879 81.5456C56.0543 81.1992 56.1207 80.8464 56.1831 80.4992L60.2263 80.4568C60.1602 81.7981 60.097 83.1397 60.0367 84.4816C58.8043 84.3921 57.567 84.3951 56.3351 84.4904C56.0215 84.5296 55.8551 85.0504 56.2447 85.1096C57.4978 85.2618 58.7606 85.319 60.0223 85.2808C60.0142 85.6207 60.03 85.9607 60.0695 86.2984C60.0841 86.3648 60.1208 86.4244 60.1735 86.4673C60.2262 86.5103 60.2919 86.5342 60.3599 86.5351C60.4279 86.536 60.4943 86.5139 60.5481 86.4724C60.602 86.4309 60.6403 86.3724 60.6567 86.3064Z" fill="#272833"/>
<path d="M110.091 61.3496C111.391 50.048 112.079 39.3224 113.074 28.3096C113.507 23.4712 112.579 23.2096 108.121 23.1952C86.4562 23.1472 64.0634 23.0048 42.4978 23.328C38.3922 23.3904 37.7026 24.9648 38.2778 28.804C39.9002 39.6224 41.7698 50.4456 43.4258 61.2688C43.9858 64.908 44.9714 65.6408 49.2346 65.7408C51.0514 65.7832 63.7586 65.9592 66.0418 65.7784C66.4842 65.7456 66.3618 64.9128 65.9898 64.908C61.2322 64.86 50.5282 64.832 49.1098 64.748C45.7178 64.5432 44.9754 64.6768 44.4698 61.1128C54.013 61.2032 63.4514 61.1464 73.0138 61.232C73.0844 61.2513 73.1586 61.254 73.2304 61.24C73.3022 61.2259 73.3699 61.1955 73.4281 61.1511C73.4862 61.1067 73.5334 61.0494 73.5658 60.9838C73.5983 60.9182 73.6152 60.846 73.6152 60.7728C73.6152 60.6996 73.5983 60.6274 73.5658 60.5618C73.5334 60.4962 73.4862 60.4389 73.4281 60.3945C73.3699 60.3501 73.3022 60.3197 73.2304 60.3056C73.1586 60.2916 73.0844 60.2943 73.0138 60.3136C64.341 60.2472 53.5562 60.2376 44.3458 60.1616C42.733 49.6624 40.6922 39.196 39.4658 28.6416C39.1234 25.7064 39.2658 24.5312 42.4626 24.488C64.3466 24.168 86.321 24.1128 108.223 24.3216C111.834 24.36 112.315 24.1264 111.983 28.228C111.127 38.9648 110.137 49.7216 109.091 60.4208C108.371 60.2024 91.3402 60.4208 86.2546 60.4208C85.8074 60.4208 85.8458 61.092 86.2546 61.1776C87.501 61.4344 108.615 61.472 108.952 61.3816C108.576 63.908 108.586 64.712 104.98 64.8736C100.675 65.0928 92.8674 64.6168 92.0442 65.064C91.979 65.0951 91.9239 65.144 91.8854 65.2051C91.8468 65.2662 91.8263 65.337 91.8263 65.4092C91.8263 65.4814 91.8468 65.5522 91.8854 65.6133C91.9239 65.6744 91.979 65.7233 92.0442 65.7544C92.6202 66.0584 100.604 65.9584 104.756 65.8728C108.355 65.7784 109.607 65.5584 110.091 61.3496Z" fill="#272833"/>
<path d="M88.1734 54.1368C89.0062 54.2376 95.747 54.356 96.6366 53.9328C96.8846 53.8136 96.903 53.3192 96.6078 53.3144C93.7822 53.276 90.9606 53.3904 88.1398 53.4568C87.7302 53.4664 87.803 54.0928 88.1734 54.1368Z" fill="#272833"/>
<path d="M94.677 37.924C95.3522 37.72 95.105 36.8584 94.5674 36.692C93.9394 36.492 83.4114 36.5248 82.5074 36.6536C82.3708 36.668 82.2438 36.7307 82.1494 36.8305C82.0549 36.9303 81.9993 37.0605 81.9924 37.1977C81.9856 37.3349 82.028 37.47 82.112 37.5787C82.196 37.6874 82.3161 37.7625 82.4506 37.7904C83.0114 37.8712 93.621 38.24 94.677 37.924Z" fill="#272833"/>
<path d="M95.1713 48.8376C96.5561 48.7008 96.0897 48.1176 95.8913 48.0144C95.6929 47.9112 89.3393 48.3616 88.8641 48.4376C88.7877 48.4575 88.7206 48.5031 88.6739 48.5667C88.6272 48.6303 88.6039 48.7081 88.6079 48.7869C88.6118 48.8657 88.6428 48.9407 88.6956 48.9993C88.7483 49.058 88.8197 49.0966 88.8977 49.1088C90.9927 49.1685 93.0892 49.0778 95.1713 48.8376Z" fill="#272833"/>
<path d="M64.072 36.444C60.232 36.692 55.6848 36.364 52.072 36.792C51.9534 36.8226 51.8481 36.8912 51.7723 36.9873C51.6964 37.0835 51.6541 37.2018 51.6519 37.3243C51.6498 37.4467 51.6878 37.5665 51.7602 37.6653C51.8326 37.7641 51.9354 37.8364 52.0528 37.8712C54.636 38.3096 61.368 37.9904 64.2368 37.8336C65.124 37.7952 64.9816 36.3856 64.072 36.444Z" fill="#272833"/>
<path d="M58.7106 53.6328C61.6524 53.7488 64.5981 53.7138 67.5362 53.528C67.869 53.4856 67.8122 52.9 67.5362 52.8808C65.5994 52.748 60.2051 52.6576 58.7059 53.048C58.4067 53.124 58.345 53.616 58.7106 53.6328Z" fill="#272833"/>
<path d="M58.9009 48.48C58.8265 48.4996 58.7619 48.5457 58.7193 48.6097C58.6767 48.6736 58.6589 48.751 58.6695 48.8272C58.68 48.9033 58.7181 48.973 58.7765 49.0229C58.8349 49.0729 58.9096 49.0998 58.9865 49.0984C59.4625 49.136 65.4089 49.1648 65.6473 49.0224C65.6868 48.9988 65.7211 48.9676 65.7485 48.9307C65.7758 48.8937 65.7955 48.8516 65.8064 48.807C65.8174 48.7623 65.8193 48.7159 65.8122 48.6705C65.8051 48.6251 65.789 48.5816 65.7649 48.5424C65.3921 47.94 59.6481 48.2816 58.9009 48.48Z" fill="#272833"/>
<path d="M96.6744 43.1472C92.6984 43.64 89.772 43.1808 88.5144 43.3072C88.2048 43.3352 88.1096 43.8448 88.4288 43.94C90.1368 44.4488 95.132 44.18 96.792 43.9824C96.9024 43.9672 97.0023 43.9088 97.0696 43.82C97.137 43.7312 97.1663 43.6192 97.1512 43.5088C97.136 43.3984 97.0776 43.2985 96.9887 43.2311C96.8999 43.1638 96.788 43.1344 96.6776 43.1496L96.6744 43.1472Z" fill="#272833"/>
<path d="M71.0803 32.272C69.0803 32.2008 52.3883 32.3152 51.3203 32.5432C51.1928 32.5681 51.0779 32.6366 50.9954 32.7368C50.9128 32.8371 50.8677 32.9629 50.8677 33.0928C50.8677 33.2227 50.9128 33.3485 50.9954 33.4488C51.0779 33.549 51.1928 33.6175 51.3203 33.6424C52.3859 33.8512 69.1131 33.752 71.0803 33.6424C71.2444 33.6179 71.3944 33.5352 71.5027 33.4095C71.6111 33.2837 71.6707 33.1232 71.6707 32.9572C71.6707 32.7912 71.6111 32.6307 71.5027 32.5049C71.3944 32.3792 71.2444 32.2965 71.0803 32.272Z" fill="#272833"/>
<path d="M66.6034 43.3232C64.7714 43.3232 60.3634 43.2904 58.8106 43.428C58.7237 43.4381 58.6436 43.4798 58.5854 43.5452C58.5272 43.6105 58.4951 43.6949 58.4951 43.7824C58.4951 43.8699 58.5272 43.9543 58.5854 44.0197C58.6436 44.085 58.7237 44.1267 58.8106 44.1368C60.3426 44.2512 64.6858 44.1368 66.4906 44.1368C67.0314 44.1416 67.1362 43.3232 66.6034 43.3232Z" fill="#272833"/>
<path d="M103.207 32.548C102.174 32.296 83.7582 32.5192 81.9742 32.8048C81.8534 32.8315 81.7459 32.9002 81.6711 32.9988C81.5963 33.0974 81.5589 33.2194 81.5657 33.3429C81.5726 33.4665 81.6231 33.5836 81.7084 33.6734C81.7936 33.7631 81.908 33.8196 82.031 33.8328C84.031 34.1224 100.947 34.3752 103.101 33.8328C103.668 33.6664 103.906 32.72 103.207 32.548Z" fill="#272833"/>
<path d="M47.9257 82.5912C46.7953 84.1032 46.3081 88.3 47.2649 89.5752C47.4313 89.7888 47.8353 89.6848 47.8073 89.432C47.6593 88.1672 47.2473 85.208 48.4017 82.772C48.5209 82.5344 48.0873 82.3752 47.9257 82.5912Z" fill="#272833"/>
<path d="M45.2665 85.92C44.5913 87.9512 44.9385 92.9752 46.6937 95.5728C46.8273 95.7672 47.3217 95.6912 47.2361 95.4064C46.4081 92.5896 45.3713 90.4056 45.8089 86.0464C45.8023 85.9856 45.7769 85.9284 45.7363 85.8827C45.6958 85.837 45.642 85.805 45.5825 85.7911C45.523 85.7772 45.4606 85.7822 45.404 85.8053C45.3474 85.8284 45.2994 85.8684 45.2665 85.92Z" fill="#272833"/>
<path d="M49.0398 126.136C45.0806 127.754 40.4798 126.278 39.5246 121.797C37.8742 114.313 42.9782 103.895 46.927 97.4624C47.2174 96.9864 46.5374 96.4536 46.2422 96.9296C42.3318 103.143 36.727 114.646 38.6878 122.249C39.9198 127.073 44.7862 129.138 49.3918 126.582C49.6718 126.406 49.3598 126 49.0398 126.136Z" fill="#272833"/>
<path d="M52.0887 81.8352C50.5831 82.5968 49.0815 86.8752 49.8095 88.6288C49.9287 88.9184 50.4039 88.8904 50.4135 88.576C50.4991 86.036 51.0183 84.7272 52.4503 82.2248C52.5543 82.0392 52.3407 81.7072 52.0887 81.8352Z" fill="#272833"/>
<path d="M57.717 89.4984C57.397 90.384 57.6786 91.5968 56.989 93.224C56.2994 94.8512 54.429 95.8312 54.3722 96.3264C54.0346 99.2864 53.5258 99.9552 52.993 102.326C52.9074 102.688 53.421 102.75 53.573 102.478C54.4166 100.553 54.9713 98.5143 55.2194 96.4272C57.2506 95.0952 58.6066 93.42 58.3306 89.5336C58.3114 89.2184 57.8266 89.1944 57.717 89.4984Z" fill="#272833"/>
<path d="M53.7862 90.936C52.5494 88.452 53.5462 85.888 54.5062 84.1848C54.6734 83.8896 54.3254 83.4856 53.7862 84.0376C52.3262 85.5408 51.6454 89.8272 53.339 91.3176C53.3922 91.3668 53.4616 91.3948 53.5341 91.3962C53.6065 91.3977 53.677 91.3725 53.7321 91.3255C53.7873 91.2784 53.8232 91.2128 53.8332 91.141C53.8432 91.0692 53.8264 90.9963 53.7862 90.936Z" fill="#272833"/>
<path d="M117.969 86.1544C118.312 84.6416 118.335 81.2832 117.493 80.0176C117.161 79.5088 116.785 79.8272 116.861 80.0464C117.425 82.0126 117.587 84.0723 117.337 86.1024C117.323 86.444 117.888 86.5112 117.969 86.1544Z" fill="#272833"/>
<path d="M114.4 89.2944C115.431 87.472 115.827 83.1096 115.351 80.8496C115.281 80.4928 114.757 80.6456 114.767 80.964C114.92 83.7111 114.578 86.4634 113.757 89.0896C113.668 89.456 114.21 89.6224 114.4 89.2944Z" fill="#272833"/>
<path d="M119.102 80.4744C119.866 82.6856 119.742 84.5368 119.822 86.5632C119.83 86.6241 119.858 86.6806 119.902 86.7242C119.945 86.7678 120.002 86.7962 120.063 86.8052C120.123 86.8142 120.186 86.8032 120.24 86.7741C120.294 86.7449 120.337 86.699 120.363 86.6432C120.792 85.3736 120.492 81.6672 119.798 80.5112C119.401 79.8464 119.024 80.2512 119.102 80.4744Z" fill="#272833"/>
<path d="M110.976 106.945C111.019 107.249 111.565 107.315 111.59 106.997C112.622 92.1968 114.137 94.1312 112.136 91.136C111.28 89.8504 110.456 89.1752 110.51 87.2632C110.533 86.5544 110.738 85.8688 110.75 85.1648C110.75 84.7464 109.799 84.4448 109.684 87.2576C109.604 89.9128 110.884 90.6456 112.439 93.1856C112.075 93.8712 110.706 105.027 110.976 106.945Z" fill="#272833"/>
<path d="M121.37 82.4248C121.432 83.852 122.66 86.2824 121.727 91.34C121.258 93.2385 121.029 95.1885 121.047 97.144C120.999 103.876 121.09 121.968 116.209 126.64C114.858 127.852 113.139 128.576 111.328 128.696C109.517 128.816 107.717 128.325 106.218 127.302C105.933 127.115 105.578 127.549 105.842 127.777C109.202 130.779 115.486 129.974 118.15 125.57C121.77 119.58 121.798 104.85 121.91 97.1536C121.877 95.2318 122.088 93.3135 122.538 91.4448C122.933 89.2176 123.066 84.1752 121.843 82.1768C121.69 81.9728 121.36 82.2008 121.37 82.4248Z" fill="#272833"/>
<path d="M113.2 58.804C118.285 59.9128 122.462 65.524 118.657 70.164C116.858 72.3664 114.827 73.428 115.954 77.8232C114.945 78.0218 114.022 78.5285 113.312 79.2735C112.602 80.0185 112.141 80.9652 111.991 81.9832C111.79 83.6258 111.841 85.2897 112.143 86.9168C112.17 86.9803 112.216 87.0335 112.275 87.0687C112.334 87.1039 112.403 87.1191 112.471 87.1121C112.54 87.1051 112.604 87.0762 112.655 87.0298C112.705 86.9834 112.74 86.9219 112.753 86.8544C113.033 84.476 112.02 81.4408 114.303 79.5472C115.177 78.8223 116.303 78.4741 117.433 78.5792C118.563 78.6842 119.605 79.2338 120.33 80.1072C120.373 80.1671 120.437 80.2078 120.51 80.2201C120.582 80.2325 120.657 80.2156 120.716 80.1732C120.776 80.1308 120.817 80.0663 120.829 79.9939C120.842 79.9215 120.825 79.8471 120.782 79.7872C120.325 79.1274 119.707 78.5943 118.988 78.2374C118.268 77.8806 117.47 77.7117 116.668 77.7464C115.536 72.7992 118.642 71.8264 119.868 69.692C122.803 64.5872 118.917 59.2784 113.312 58.1648C113.237 58.1694 113.166 58.199 113.11 58.249C113.054 58.299 113.017 58.3663 113.004 58.4402C112.991 58.5141 113.003 58.5901 113.039 58.6562C113.074 58.7222 113.131 58.7742 113.2 58.804Z" fill="#272833"/>
<path d="M11.52 37.3248C12.6184 38.78 14.3744 41.3728 15.592 43.1C15.6309 43.1546 15.6808 43.2004 15.7385 43.2345C15.7961 43.2686 15.8603 43.2903 15.9268 43.2981C15.9933 43.3059 16.0608 43.2997 16.1248 43.2799C16.1888 43.2601 16.2479 43.2271 16.2984 43.1831C16.3489 43.1391 16.3896 43.085 16.4179 43.0242C16.4462 42.9635 16.4615 42.8976 16.4628 42.8306C16.4641 42.7636 16.4513 42.6971 16.4254 42.6353C16.3994 42.5736 16.3608 42.5179 16.312 42.472C15.1804 40.6276 13.952 38.8443 12.632 37.1296C11.9616 36.3064 11.904 36.1208 11.2048 36.34C8.53696 37.2464 6.33579 39.1711 5.08152 41.6941C3.82725 44.2172 3.62167 47.1339 4.50964 49.808C4.53254 49.8694 4.57727 49.9202 4.63527 49.9507C4.69327 49.9812 4.76048 49.9892 4.82404 49.9733C4.88761 49.9574 4.94306 49.9186 4.97981 49.8643C5.01656 49.81 5.03202 49.7441 5.02324 49.6792C4.38011 47.1809 4.68891 44.5327 5.88963 42.2494C7.09035 39.9661 9.09719 38.2108 11.52 37.3248Z" fill="#272833"/>
<path d="M152.779 57.748C152.832 57.7429 152.882 57.7235 152.925 57.6919C152.967 57.6603 153 57.6177 153.02 57.5687C153.04 57.5197 153.046 57.4662 153.038 57.4139C153.03 57.3616 153.008 57.3125 152.974 57.272C152.022 56.4304 151.99 54.9648 152.322 53.8136C152.465 53.3096 151.675 53.1144 151.538 53.6184C151.12 55.0792 151.44 57.648 152.779 57.748Z" fill="#272833"/>
<path d="M155.586 65.412C155.176 64.4592 153.574 61.8296 152.931 60.7592C149.911 62.1864 146.547 63.676 144.735 64.5368C141.88 65.8928 140.363 65.2176 139.178 64.5368C138.159 63.9616 130.871 57.1296 127.641 53.8568C126.989 54.0088 125.063 54.0968 125.357 55.0272C126.432 58.4 130.762 68.2272 131.97 69.932C132.403 70.5408 132.21 70.4072 133.193 70.2176C140.295 68.6712 147.033 66.8208 153.868 65.5928C155.486 66.0688 155.295 70.7408 152.731 71.4328C146.918 73.0168 139.606 74.8768 133.169 76.052C130.705 70.7616 128.117 65.8568 125.928 60.052C125.804 59.7192 125.258 59.972 125.362 60.3C127.257 65.8623 129.584 71.2683 132.32 76.4688C132.624 77.0728 133.3 76.944 134.085 76.8016C140.383 75.4696 146.663 74.0944 152.829 72.3816C155.819 71.54 156.596 67.76 155.586 65.412Z" fill="#272833"/>
<path d="M134.691 74.856C135.07 74.4377 135.341 73.9339 135.482 73.3879C135.622 72.8419 135.629 72.2698 135.5 71.7208C135.11 69.6848 133.926 70.536 134.411 71.1448C135.051 71.9448 134.591 73.8648 134.091 74.4752C133.59 75.0856 134.211 75.3176 134.691 74.856Z" fill="#272833"/>
<path d="M21.1272 73.28C24.7 73.2856 29.6872 71.1632 30.0952 65.3256C26.2656 69.0464 17.4304 69.636 12.6968 66.8384C13.3112 70.4456 16.66 73.2736 21.1272 73.28Z" fill="#272833"/>
<path d="M55.4041 53.4C55.3322 53.2495 55.2181 53.1231 55.0757 53.0363C54.9332 52.9494 54.7687 52.9058 54.6019 52.9107C54.4352 52.9157 54.2735 52.9689 54.1365 53.0641C53.9994 53.1592 53.893 53.2921 53.8301 53.4466C53.7672 53.6011 53.7506 53.7705 53.7822 53.9343C53.8138 54.0981 53.8924 54.2492 54.0083 54.3692C54.1241 54.4891 54.2724 54.5729 54.435 54.6102C54.5976 54.6474 54.7675 54.6367 54.9241 54.5792C55.0361 54.5373 55.1383 54.4726 55.2241 54.3892C55.3099 54.3059 55.3774 54.2056 55.4225 54.0948C55.4676 53.984 55.4893 53.8651 55.4861 53.7455C55.4829 53.6259 55.455 53.5082 55.4041 53.4Z" fill="#0B7DFF"/>
<path d="M82.72 54.6744C83.1144 55.0744 84.0424 54.5464 83.8896 53.8184C83.6344 52.5768 81.46 53.396 82.72 54.6744Z" fill="#0B7DFF"/>
<path d="M84.2863 49.4272C84.7559 48.8672 85.1999 48.3192 85.6519 47.7576C85.8231 47.548 86.0415 47.2776 85.7895 46.9912C85.3143 46.4728 84.7623 47.4712 84.2535 48.0904C82.9111 49.7512 83.5207 49.2368 82.5023 48.324C81.9263 47.8 81.3463 48.224 81.7559 48.6136C82.1655 49.0032 82.9551 51.0208 84.2863 49.4272Z" fill="#0B7DFF"/>
<path d="M82.7071 44.3896C82.8782 44.5205 83.0897 44.5876 83.305 44.5791C83.5203 44.5706 83.7258 44.4872 83.8861 44.3432C84.0464 44.1993 84.1513 44.0038 84.1828 43.7907C84.2142 43.5776 84.1702 43.3601 84.0583 43.176C83.3015 42 81.6191 43.5416 82.7071 44.3896Z" fill="#0B7DFF"/>
<path d="M54.0153 45.236C54.0618 45.2654 54.1138 45.285 54.1681 45.2938C54.2224 45.3025 54.278 45.3002 54.3314 45.2869C54.3847 45.2736 54.4349 45.2496 54.4787 45.2164C54.5226 45.1831 54.5593 45.1414 54.5865 45.0936C55.0617 44.3128 55.5849 43.5376 56.0801 42.7528C56.4225 42.2152 56.0801 41.8488 55.7281 41.996C55.3761 42.1432 54.4001 43.84 54.1201 44.28C53.6441 43.9424 53.1681 43.5712 52.6929 43.2616C52.3553 43.0568 51.9121 43.5664 52.2505 43.8216C52.8353 44.2608 53.4441 44.7128 54.0153 45.236Z" fill="#0B7DFF"/>
<path d="M54.8624 48.8848C54.6088 47.6336 53.164 48.1856 53.0784 49.1088C52.96 50.3736 55.1368 50.24 54.8624 48.8848Z" fill="#0B7DFF"/>
<path d="M153.668 58.0432L143.869 62.7768C143.026 63.1856 141.818 63.8848 140.923 63.2144C139.872 62.4296 139.586 59.6704 141.309 58.4568C142.022 57.948 145.661 56.3064 146.829 55.712C147.78 55.236 153.375 52.3056 153.489 51.5256C153.569 50.8856 153.109 50.6552 152.657 50.16C150.23 47.5008 146.729 43.8896 144.097 41.4968C143.77 41.2016 142.613 39.9936 142.142 40.16C138.084 41.5872 131.918 43.8992 128.346 46.2968C126.686 47.4104 128.051 51.892 128.821 53.1336C129.84 54.7416 138.061 61.6936 140.177 63.7232C141.79 65.2552 144.316 63.5632 145.93 62.772C148.659 61.4648 151.386 60.1517 154.111 58.8328C154.644 58.5856 154.197 57.7864 153.668 58.0432ZM137.348 48.9184C138.189 48.2144 140.916 47.1056 141.806 46.54C142.233 46.2736 142.804 47.1104 142.281 47.3768C140.768 48.1856 139.208 48.904 137.633 49.5752C137.298 49.732 137.071 49.148 137.346 48.9184H137.348ZM139.002 57.1488C138.299 57.0536 130.501 49.3704 129.617 48.4C129.577 48.349 129.557 48.2852 129.561 48.2206C129.565 48.156 129.592 48.095 129.637 48.049C129.683 48.0029 129.743 47.975 129.808 47.9704C129.872 47.9658 129.936 47.9849 129.988 48.024C131.053 48.8568 139.255 56.024 139.407 56.744C139.421 56.8001 139.421 56.8589 139.405 56.9147C139.39 56.9704 139.36 57.0212 139.319 57.062C139.278 57.1029 139.227 57.1323 139.171 57.1475C139.116 57.1628 139.057 57.1632 139.001 57.1488H139.002ZM139.365 50.6736C139.637 50.2016 142.695 48.5936 143.17 48.3536C143.645 48.1136 144.041 48.8672 143.646 49.12C143.137 49.4336 140.197 51.1752 139.593 51.1608C139.32 51.1592 139.261 50.8512 139.36 50.6736H139.365Z" fill="#0B7DFF"/>
<path d="M9.7952 53.1952C7.6912 55.5392 8.844 56.6208 10.4848 56.7728C12.1256 56.9248 12.1976 56.92 12.1976 58.3048C12.1976 59.6896 12.1688 61.0072 13.3976 61.5776C14.6264 62.148 17.2032 61.692 17.6312 60.2264C18.5352 57.2104 21.028 57.1344 23.5208 55.2664C26.0136 53.3984 23.9448 51.36 22.1984 51.5128C20.452 51.6656 17.8408 51.9312 16.3656 49.5576C15.8376 48.7152 13.1312 46.132 13.0736 48.9576C13.04 51.264 11.8968 50.8536 9.7952 53.1952Z" fill="#0B7DFF"/>
<path d="M26.1417 38.6752C23.0113 37.5992 19.3529 37.7952 15.6753 38.552C15.1041 38.6712 15.3425 39.5416 15.9089 39.4272C19.0913 38.7752 22.4833 38.452 25.6233 39.4704C24.3577 41.7296 24.0529 44.1656 24.6713 45.112C25.2897 46.0584 30.5281 45.236 31.1273 48.0288C31.7265 50.8216 29.7001 52.144 28.7489 52.9888C27.7977 53.8336 27.3889 55.4816 28.9577 55.6344C30.5265 55.7872 31.8649 58.7744 30.4329 62.18C24.7241 67.6368 14.8425 68.18 9.7289 61.852C4.8049 55.7072 5.6465 45.512 12.3073 41.2C12.6401 40.9864 12.4073 40.3392 12.0313 40.5344C4.1385 44.6944 3.9345 56.3 9.1721 62.6088C15.0857 69.7448 27.1217 68.3176 32.6545 61.0576C38.0873 53.92 35.6953 41.96 26.1417 38.6752Z" fill="#0B7DFF"/>
<path d="M88.6824 97.3392C85.9752 102.515 73.7776 103.876 69.6096 96.7352C58.3448 99.2752 49.3288 106.65 46.7744 109.58C42.84 114.085 44.9192 123.4 50.2856 125.322C52.188 126.012 55.4056 126.274 57.7784 124.537C57.8829 122.253 58.1067 119.976 58.4488 117.715C58.5064 117.349 59.0088 117.449 59.0088 117.801C58.9136 122.441 58.3288 128.405 58.4384 132.996C66.8968 137.549 92.7344 138.705 100.879 133.138C100.346 127.962 99.6944 121.797 98.8856 117.858C98.8192 117.53 99.3616 117.502 99.4376 117.787C100.337 121.08 100.953 124.443 101.28 127.84C109.539 125.675 112.303 120.228 112.602 111.85C105.334 101.145 95.28 97.8768 88.6824 97.3392Z" fill="#0B7DFF"/>
</svg>
