<svg width="160" height="160" viewBox="0 0 160 160" fill="none" xmlns="http://www.w3.org/2000/svg">
<path d="M113.345 44.576C112.785 44.736 94.7213 57.6392 93.2269 58.7728C91.7325 59.9064 88.7917 63.9104 89.1741 64.276C89.7661 64.8424 94.8285 63.0096 95.5061 62.6168C96.1837 62.224 115.061 48.8944 115.986 48.2552C116.911 47.616 113.909 44.4168 113.345 44.576Z" fill="#0B7DFF"/>
<path d="M80.0294 85.9144C72.0246 86.3736 64.6926 79.9944 53.2558 76.4152C48.4558 77.2512 39.3622 76.7888 38.0558 73.8256C20.9582 76.3584 6.53583 87.1856 4.29583 94.4656C2.14943 101.431 12.0718 115.198 16.8342 119.694C18.9366 107.738 21.8598 95.0072 26.5038 83.7744C26.739 83.2048 27.2646 83.5536 27.0862 84.104C21.9983 99.7736 18.3939 115.886 16.3206 132.23C25.3606 137.575 54.1606 138.823 63.4918 136.537C63.5678 132.592 64.1246 119.35 64.6382 109.105C60.6294 108.785 56.6302 108.318 52.663 107.665C52.0294 107.561 52.3086 106.891 52.9294 106.974C60.3902 107.976 75.4894 109.73 84.2094 107.342C89.5694 105.873 100.573 100.222 109.329 73.5816C106.797 71.6816 102.49 70.0416 98.2478 69.5816C97.0894 72.92 83.9678 85.688 80.0294 85.9144Z" fill="#0B7DFF"/>
<path d="M75.7236 29.5616C80.0826 32.6136 83.9919 36.2619 87.3372 40.4C87.8676 41.0296 88.4572 40.5344 88.8572 40.02C94.174 33.1496 97.0173 29.1176 104.124 23.22C104.684 22.7576 104.051 22.0808 103.453 22.5C98.5821 25.9032 91.0925 33.0752 87.8949 38.1408C84.4787 34.4397 80.5765 31.2189 76.2949 28.5664C75.4749 28.0656 74.9276 29.032 75.7236 29.5616Z" fill="#0B7DFF"/>
<path d="M80.5111 28.808C81.8911 28.968 91.9087 28.5448 93.4711 28.5168C94.2503 28.5024 94.3079 27.2576 93.5159 27.288C91.9391 27.348 81.8359 27.5816 80.4199 27.8328C79.8399 27.9352 79.9919 28.7464 80.5111 28.808Z" fill="#0B7DFF"/>
<path d="M77.2053 59.2736C76.5101 58.96 75.9389 59.9064 76.5725 60.2992C80.1171 62.5084 83.5027 64.9629 86.7045 67.6448C87.6709 68.452 88.8597 66.9144 87.9045 66.1C84.6758 63.3342 81.0741 61.0363 77.2053 59.2736Z" fill="#0B7DFF"/>
<path d="M97.8056 43.1384C97.84 40.1552 97.5488 36.9576 97.5328 33.956C97.5328 33.196 96.4752 33.3232 96.4816 34.0824C96.5077 37.2616 96.5344 40.4384 96.5616 43.6128C94.1744 43.6128 83.4032 43.9048 80.9456 44.3664C80.6864 41.6376 80.5624 38.8872 80.1608 36.1728C80.1403 36.0653 80.081 35.9692 79.994 35.9028C79.907 35.8364 79.7986 35.8044 79.6896 35.8131C79.5805 35.8217 79.4785 35.8703 79.403 35.9495C79.3276 36.0287 79.284 36.133 79.2808 36.2424C79.408 38.908 79.5208 41.6312 79.7248 44.2968C79.8336 45.7152 79.8384 45.6208 81.2376 45.5192C86.0824 45.1664 91.0152 44.8792 95.872 44.8352C97.2736 44.8216 97.7848 44.9176 97.8056 43.1384Z" fill="#0B7DFF"/>
<path d="M91.783 54.0368C89.1038 54.0712 86.183 54.1128 83.519 54.416C80.739 54.736 80.935 54.9696 81.1318 57.4752C81.1772 58.1341 81.2616 58.7896 81.3846 59.4384C81.3993 59.56 81.458 59.672 81.5496 59.7532C81.6412 59.8344 81.7594 59.8793 81.8818 59.8793C82.0043 59.8793 82.1225 59.8344 82.2141 59.7532C82.3057 59.672 82.3644 59.56 82.379 59.4384C82.379 58.9824 82.1574 55.8856 82.219 55.8096C82.2806 55.7336 90.6926 55.1432 91.591 55.0816C92.3654 55.028 92.555 54.0264 91.783 54.0368Z" fill="#0B7DFF"/>
<path d="M82.816 66.2896C82.789 66.1683 82.7188 66.0609 82.6184 65.9875C82.5181 65.914 82.3946 65.8795 82.2707 65.8904C82.1469 65.9012 82.0312 65.9567 81.9452 66.0465C81.8592 66.1363 81.8088 66.2542 81.8032 66.3784C81.8386 68.0368 81.959 69.6923 82.164 71.3384C82.1523 71.4941 82.2029 71.6481 82.3046 71.7666C82.4062 71.885 82.5508 71.9584 82.7064 71.9704C82.7864 71.9768 88.9152 71.8192 93.3976 71.3952C94.544 71.2872 93.8472 70.2608 93.176 70.3128C90.0096 70.5528 86.464 70.68 83.2848 70.7744C83.1584 69.2344 83.0504 67.7656 82.816 66.2896Z" fill="#0B7DFF"/>
<path d="M55.6119 51.7312C54.0671 51.6368 53.1487 53.5424 53.9783 53.7136C54.4087 53.8024 54.5479 52.7256 55.5423 52.732C55.675 52.7413 55.806 52.6974 55.9064 52.6101C56.0067 52.5228 56.0683 52.3991 56.0775 52.2664C56.0868 52.1337 56.0429 52.0028 55.9556 51.9024C55.8683 51.802 55.7446 51.7405 55.6119 51.7312Z" fill="#272833"/>
<path d="M57.771 50.0216C57.5406 49.5576 57.131 49.9352 57.239 50.376C57.9182 53.0888 58.6886 54.6 59.2654 57.6144C59.5758 59.2352 58.095 58.2472 58.0494 59.5144C58.0202 60.4533 57.9251 61.3889 57.7646 62.3144C57.1224 62.2017 56.535 61.8813 56.0926 61.4024C55.8078 61.0288 55.3142 61.3648 55.5486 61.8648C55.7589 62.2537 56.0597 62.5862 56.4256 62.8342C56.7916 63.0822 57.2119 63.2384 57.651 63.2896C57.1382 67.3696 54.9822 67.6032 51.5334 66.8896C50.8998 66.7592 50.2654 66.5336 49.5702 66.44C49.2342 66.3952 48.3702 67.0736 50.6278 67.7064C50.6278 68.8024 50.8678 74.3944 51.179 75.42C51.311 75.8504 51.9902 75.7992 51.9518 75.312C51.7518 72.7784 51.6726 70.4104 51.6318 67.9344C58.5118 69.3408 58.4014 65.1296 58.9518 59.7344C60.3702 59.5312 60.4342 58.3576 60.2182 57.2328C59.7342 54.729 58.9109 52.3029 57.771 50.0216Z" fill="#272833"/>
<path d="M38.2992 38.4144C36.4592 31.7584 29.332 24.8688 19.7392 29.872C10.1464 34.8752 11.4192 48.3384 16.5792 54.0368C19.8208 57.6152 22.912 61.8384 22.4368 65.1184C21.9616 68.3984 27.0104 65.5488 24.3808 54.8024C22.2792 46.2152 29.1424 39.0728 34.512 42.4352C35.4965 40.8581 36.7837 39.4915 38.2992 38.4144Z" fill="#272833"/>
<path d="M47.8736 54.2584C49.3064 55.1088 58.212 47.924 57.664 46.2728C53.264 33.0272 36.9008 36.4624 34.2776 45.9368C31.3344 56.568 40.0968 64.9064 40.6544 64.8336C41.4648 64.7272 44.0144 63.092 44.9608 59.9064C45.3776 60.1504 45.8518 60.279 46.3348 60.279C46.8177 60.279 47.292 60.1504 47.7088 59.9064C48.2528 59.5968 47.86 58.9792 47.2848 59.1864C45.8832 59.6864 44.372 58.5528 44.524 56.1344C44.5274 55.7447 44.6338 55.3628 44.8323 55.0275C45.0309 54.6921 45.3145 54.4152 45.6546 54.2248C45.9946 54.0343 46.3789 53.9371 46.7686 53.9431C47.1583 53.949 47.5395 54.0578 47.8736 54.2584Z" fill="#272833"/>
<path d="M40.2046 66.068C39.6851 68.4648 39.4072 70.9077 39.375 73.36C39.385 73.4616 39.4307 73.5564 39.504 73.6274C39.5773 73.6985 39.6735 73.7412 39.7753 73.748C39.8772 73.7548 39.9782 73.7253 40.0603 73.6646C40.1424 73.604 40.2003 73.5162 40.2238 73.4168C40.7086 71.0832 40.7838 68.5664 41.2118 66.1408C41.3134 65.5616 40.3134 65.5048 40.2046 66.068Z" fill="#272833"/>
<path d="M56.5596 54.96C56.1948 53.6912 54.9932 53.636 55.4644 55.4224C55.8932 57.04 56.9444 56.2944 56.5596 54.96Z" fill="#272833"/>
<path d="M95.6711 54.7896C96.0527 54.4056 98.8711 54.1864 99.0847 54.1184C99.5703 53.9584 99.4583 53.244 99.0527 53.0864C98.2359 52.7664 95.9247 53.2256 95.1519 53.6464C94.3791 54.0672 94.2495 55.4776 93.5623 56.9584C93.2095 57.7184 92.7367 58.4176 92.4287 59.1936C92.2791 59.572 92.7359 59.8336 93.0623 59.5736C94.6199 58.3464 95.6519 54.8088 95.6711 54.7896Z" fill="#272833"/>
<path d="M93.7773 61.42C93.6709 61.4148 93.566 61.4474 93.4814 61.5122C93.3967 61.577 93.3378 61.6697 93.3151 61.7738C93.2923 61.8779 93.3072 61.9867 93.3572 62.0809C93.4071 62.175 93.4888 62.2484 93.5877 62.288C99.0989 64.3072 98.7605 67.9816 99.5277 68.8544C99.6933 69.0432 100.777 69.4464 100.509 67.8944C99.9685 64.7632 96.9749 61.672 93.7773 61.42Z" fill="#272833"/>
<path d="M105.062 57.7216C107.205 62.944 107.31 64.2328 107.171 69.8816C107.155 70.5152 108.105 70.7696 108.273 70.1216C109.246 66.3712 108.106 60.3616 105.86 57.1968C105.529 56.7296 104.865 57.2408 105.062 57.7216Z" fill="#272833"/>
<path d="M101.554 59.3872C101.429 60.8064 100.533 60.7952 99.6543 61.0592C98.5567 61.3888 99.1791 61.692 99.6543 61.8064C100.02 61.9095 100.405 61.919 100.775 61.8339C101.146 61.7489 101.488 61.5721 101.772 61.3198C102.056 61.0675 102.272 60.7479 102.4 60.3903C102.528 60.0327 102.563 59.6487 102.504 59.2736C102.371 58.648 101.608 58.78 101.554 59.3872Z" fill="#272833"/>
<path d="M140.86 39.6424C142.076 39.5752 141.721 37.7128 140.517 37.7808C131.824 38.2736 122.981 37.7488 114.554 38.2752C113.594 38.3344 113.763 39.788 114.634 39.8896C119.659 40.4752 135.953 39.92 140.86 39.6424Z" fill="#272833"/>
<path d="M154.993 28.0288C144.635 27.6864 122.793 27.7888 113.168 28.8016C112.382 28.8816 112.167 30.3272 113.111 30.3216C124.129 30.2528 142.294 29.5144 155.171 29.9216C156.4 29.9616 156.197 28.0688 154.993 28.0288Z" fill="#272833"/>
<path d="M153.709 54.524C141.163 55.564 126.127 54.2688 114.694 55.6512C113.789 55.7608 114.016 57.3024 114.947 57.2512C125.154 56.6408 140.277 57.0792 153.759 56.4408C154.975 56.3792 154.943 54.4216 153.709 54.524Z" fill="#272833"/>
<path d="M139.264 63.4152C133.399 63.0648 120.419 63.1032 115.504 63.3448C114.586 63.3904 114.453 64.9392 115.409 64.9976C122.73 65.4472 130.721 65.424 139.155 65.2512C140.15 65.2312 140.359 63.48 139.264 63.4152Z" fill="#272833"/>
</svg>
