<svg width="160" height="160" viewBox="0 0 160 160" fill="none" xmlns="http://www.w3.org/2000/svg">
<path d="M106.184 74.6464C106.986 75.6656 107.62 76.807 108.06 78.0272C107.554 78.1235 107.06 78.2754 106.588 78.48C106.327 78.604 106.459 79.0136 106.734 79.0136C107.391 78.9848 108.042 78.8774 108.674 78.6936C108.733 78.6772 108.787 78.6477 108.832 78.6074C108.877 78.5671 108.913 78.517 108.936 78.4608C108.959 78.4047 108.969 78.3441 108.966 78.2835C108.962 78.2229 108.944 78.164 108.914 78.1112C108.326 76.7188 107.518 75.43 106.52 74.2944C106.32 74.0624 106 74.4072 106.184 74.6464Z" fill="#272833"/>
<path d="M104.792 81.5048C105.864 82.5344 108.351 82.8472 109.127 81.2944C109.162 81.2335 109.175 81.1629 109.166 81.0934C109.157 81.0239 109.125 80.9594 109.075 80.9098C109.026 80.8602 108.961 80.8282 108.892 80.8188C108.822 80.8093 108.752 80.823 108.691 80.8576C107.926 81.24 106.984 82.364 105.1 81.116C105.048 81.086 104.986 81.0757 104.927 81.087C104.868 81.0983 104.815 81.1305 104.778 81.1777C104.741 81.2248 104.722 81.2839 104.724 81.3439C104.727 81.404 104.751 81.4611 104.792 81.5048Z" fill="#272833"/>
<path d="M110.16 73.0128C110.191 72.956 110.206 72.8913 110.201 72.8264C110.196 72.7616 110.173 72.6996 110.133 72.6481C110.093 72.5965 110.04 72.5577 109.978 72.5363C109.917 72.515 109.851 72.5121 109.788 72.528C109.458 72.6196 109.146 72.7674 108.866 72.9648C108.545 73.1097 108.232 73.2716 107.928 73.4496C107.654 73.6296 107.734 74.144 108.106 74.1128C108.504 74.0641 108.889 73.9377 109.238 73.7408C109.613 73.5982 109.934 73.344 110.16 73.0128Z" fill="#272833"/>
<path d="M102.285 76.7328C103.059 76.6147 103.792 76.3093 104.42 75.8432C104.712 75.6168 104.566 75.0504 104.145 75.18C103.41 75.424 102.709 75.7611 102.059 76.1832C101.997 76.2204 101.951 76.2783 101.929 76.3465C101.907 76.4146 101.909 76.4886 101.937 76.5549C101.964 76.6212 102.014 76.6756 102.078 76.7082C102.142 76.7408 102.215 76.7496 102.285 76.7328Z" fill="#272833"/>
<path d="M107.186 72.6248C107.848 72.0888 108.426 71.2648 109.37 71.5416C109.422 71.5536 109.475 71.5523 109.526 71.5379C109.576 71.5234 109.623 71.4963 109.66 71.459C109.697 71.4218 109.724 71.3757 109.739 71.325C109.753 71.2744 109.754 71.2209 109.742 71.1696C109.662 70.6512 108.869 70.6368 108.497 70.7328C108.101 70.8557 107.739 71.0665 107.436 71.3494C107.133 71.6323 106.899 71.98 106.75 72.3664C106.669 72.64 107.008 72.7696 107.186 72.6248Z" fill="#272833"/>
<path d="M103.369 74.1288C103.725 74.1288 103.709 73.612 103.369 73.5792C102.383 73.484 101.043 73.9144 100.717 74.9536C100.7 75.0194 100.704 75.0889 100.73 75.1517C100.756 75.2145 100.801 75.2672 100.86 75.3019C100.918 75.3367 100.986 75.3515 101.054 75.3442C101.121 75.337 101.185 75.308 101.234 75.2616C101.481 74.9238 101.802 74.6464 102.172 74.4502C102.542 74.254 102.951 74.1441 103.369 74.1288Z" fill="#272833"/>
<path d="M108.109 97.6C108.3 97.6689 108.509 97.6695 108.701 97.6017C108.893 97.5339 109.055 97.4019 109.16 97.228C109.584 96.5024 110.066 95.756 110.05 95.708C110.034 95.6432 107.865 93.068 107.623 93.2168C107.226 94.4691 106.902 95.7436 106.653 97.0336C106.686 97.064 107.494 97.3696 108.109 97.6Z" fill="#0B7DFF"/>
<path d="M85.6102 129.007C81.7966 129.881 75.6902 129.362 73.4502 126.031C71.827 123.623 72.0326 119.271 72.7542 116.538C73.2404 115.07 73.8406 113.642 74.5494 112.267C74.6774 111.975 74.3414 111.654 74.0966 111.911C71.3454 114.804 70.6046 121.982 72.2566 125.591C74.3198 130.113 81.1246 130.647 85.7614 129.554C86.111 129.474 85.9662 128.926 85.6102 129.007Z" fill="#272833"/>
<path d="M87.28 126.371C85.0104 127.126 82.5972 127.348 80.228 127.018C80.1584 127.003 80.0853 127.014 80.0241 127.051C79.9629 127.088 79.9182 127.147 79.8994 127.215C79.8806 127.284 79.8892 127.358 79.9233 127.42C79.9574 127.483 80.0144 127.53 80.0824 127.552C81.3306 127.892 82.6357 127.969 83.9152 127.778C85.165 127.764 86.3942 127.459 87.5064 126.889C87.5632 126.852 87.6049 126.796 87.6243 126.731C87.6437 126.666 87.6395 126.596 87.6123 126.534C87.5851 126.472 87.5368 126.422 87.476 126.392C87.4152 126.362 87.3457 126.355 87.28 126.371Z" fill="#272833"/>
<path d="M88.36 123.767C84.8808 124.95 83.6736 125.18 80.176 124.818C79.8688 124.786 79.8208 125.254 80.1112 125.336C82.9654 126.051 85.9832 125.688 88.5864 124.317C88.8752 124.151 88.6848 123.657 88.36 123.767Z" fill="#272833"/>
<path d="M79.9824 122.392C82.397 123.176 84.9944 123.199 87.4224 122.457C87.4904 122.435 87.5474 122.388 87.5815 122.325C87.6156 122.263 87.6241 122.189 87.6053 122.12C87.5866 122.051 87.5419 121.992 87.4807 121.956C87.4194 121.919 87.3464 121.907 87.2768 121.923C82.6744 122.767 82.304 122.051 80.0632 121.843C79.7392 121.812 79.6912 122.311 79.9824 122.392Z" fill="#272833"/>
<path d="M78.8981 119.562C78.934 119.566 78.9705 119.563 79.0054 119.554C79.0403 119.544 79.073 119.528 79.1015 119.505C79.1301 119.483 79.1539 119.455 79.1717 119.424C79.1895 119.392 79.2009 119.358 79.2053 119.322C79.5943 118.89 80.1001 118.581 80.6613 118.432C80.7102 118.418 80.7558 118.395 80.7957 118.363C80.8355 118.332 80.8688 118.293 80.8935 118.249C80.9183 118.204 80.9341 118.156 80.94 118.105C80.946 118.055 80.9419 118.004 80.9281 117.955C80.9143 117.906 80.891 117.86 80.8595 117.82C80.8281 117.781 80.7891 117.747 80.7448 117.723C80.7004 117.698 80.6517 117.682 80.6013 117.676C80.5508 117.67 80.4998 117.674 80.4509 117.688C79.7701 117.884 79.1696 118.292 78.7365 118.853C77.6862 118.632 76.6838 118.226 75.7765 117.653C75.7231 117.625 75.6616 117.617 75.6027 117.63C75.5439 117.643 75.4915 117.676 75.4548 117.724C75.4181 117.772 75.3995 117.831 75.4021 117.891C75.4048 117.951 75.4285 118.008 75.4693 118.053C76.4285 118.899 77.6265 119.426 78.8981 119.562Z" fill="#272833"/>
<path d="M155.84 109.065C155.84 107.625 155.925 106.215 155.112 104.957C154.739 104.38 154.245 103.891 153.664 103.525C153.083 103.159 152.429 102.924 151.748 102.838C150.799 102.72 151.096 102.85 146.216 102.998C146.11 103.002 146.009 103.048 145.936 103.125C145.862 103.201 145.821 103.304 145.821 103.41C145.821 103.516 145.862 103.619 145.936 103.695C146.009 103.772 146.11 103.818 146.216 103.822C149.755 103.967 150.611 103.522 151.941 103.806C152.712 103.978 153.41 104.384 153.94 104.969C154.47 105.554 154.806 106.289 154.901 107.073C154.986 108.5 154.992 109.931 154.917 111.359C154.917 113.009 155.069 122.924 155.096 126.255C155.144 127.534 154.718 128.786 153.9 129.771C153.082 130.756 151.93 131.405 150.664 131.593C149.88 131.723 87.1822 141.092 86.7926 141.135C86.0836 141.223 85.3641 141.115 84.7115 140.825C84.059 140.534 83.4979 140.071 83.0886 139.486C82.1878 138.172 82.3918 136.494 82.3446 134.974C82.311 133.89 82.2606 132.822 82.2158 131.754C82.1974 131.334 81.555 131.334 81.5686 131.754C81.739 136.937 81.375 138.094 82.2318 139.615C82.7107 140.446 83.4318 141.112 84.2988 141.522C85.1658 141.932 86.1374 142.068 87.0838 141.912C88.4582 141.718 146.465 133.23 150.858 132.482C151.883 132.319 152.849 131.897 153.667 131.258C154.484 130.619 155.126 129.782 155.532 128.827C156.351 126.848 155.84 126.01 155.84 109.065Z" fill="#0B7DFF"/>
<path d="M90.5112 119.303C90.172 119.322 90.1712 119.85 90.5112 119.837C101.115 119.446 115.231 118.212 133.777 116.717C134.346 116.648 134.918 116.616 135.491 116.62C135.476 116.7 135.491 116.133 135.491 119.386C134.462 119.436 92.5312 122.561 90.6408 122.718C90.6248 121.876 90.6408 121.019 90.592 120.178C90.5882 120.11 90.5585 120.046 90.5089 119.999C90.4592 119.952 90.3935 119.926 90.3252 119.926C90.2568 119.926 90.1911 119.952 90.1415 119.999C90.0918 120.046 90.0621 120.11 90.0584 120.178C89.9784 121.131 90.0176 122.102 90.0096 123.058C90.0124 123.143 90.0474 123.224 90.1076 123.284C90.1677 123.345 90.2485 123.38 90.3336 123.382C104.146 122.476 134.391 120.066 135.702 120.002C135.76 120.039 135.827 120.06 135.896 120.063C135.965 120.066 136.034 120.05 136.095 120.018C136.156 119.985 136.207 119.937 136.243 119.878C136.279 119.818 136.299 119.751 136.3 119.682C136.3 116.574 136.39 116.229 136.106 115.962C135.866 115.734 135.298 115.882 135.006 115.913C133.159 116.08 106.992 118.356 90.5112 119.303Z" fill="#0B7DFF"/>
<path d="M90.1392 130.948C90.1392 130.107 90.1352 129.25 90.0904 128.409C90.0866 128.341 90.0569 128.276 90.0073 128.229C89.9577 128.182 89.8919 128.156 89.8236 128.156C89.7553 128.156 89.6895 128.182 89.6399 128.229C89.5903 128.276 89.5605 128.341 89.5568 128.409C89.5104 129.363 89.5088 130.334 89.5088 131.289C89.509 131.37 89.5414 131.448 89.599 131.506C89.6566 131.563 89.7346 131.596 89.816 131.596C114.287 129.509 145.41 125.212 149.514 124.884C149.573 124.919 149.64 124.939 149.708 124.941C149.777 124.943 149.844 124.927 149.905 124.894C149.965 124.862 150.016 124.815 150.053 124.757C150.089 124.699 150.11 124.632 150.113 124.564C150.138 121.34 150.206 120.797 149.562 120.746C149.482 120.74 96.7736 126.914 90.0096 127.588C89.6704 127.622 89.6696 128.148 90.0096 128.122C107.798 126.643 148.197 121.539 149.271 121.539C149.271 121.939 149.336 122.72 149.336 122.849C149.336 123.334 149.32 123.82 149.32 124.321C148.527 124.344 96.5152 130.411 90.1392 130.948Z" fill="#0B7DFF"/>
<path d="M117.36 107.399C117.312 107.319 103.046 108.175 97.2397 108.175L97.1597 111.669C102.594 111.589 117.037 110.925 117.393 110.893C117.392 110.262 117.408 107.48 117.36 107.399Z" fill="#0B7DFF"/>
<path d="M89.7182 109.486C89.2193 108.634 88.5379 107.904 87.7231 107.348C86.9082 106.792 85.9802 106.423 85.0058 106.268C84.0313 106.113 83.0347 106.177 82.0876 106.453C81.1405 106.73 80.2666 107.213 79.5286 107.868C79.1335 108.183 78.8362 108.603 78.6718 109.081C78.3686 110.201 79.6398 110.914 80.451 111.394C81.7441 112.154 83.2189 112.552 84.7192 112.543C86.2195 112.535 87.6897 112.121 88.9742 111.346C90.027 110.713 90.0646 110.103 89.7182 109.486Z" fill="#272833"/>
<path d="M86.3871 103.711C87.4063 102.418 87.6823 99.9392 85.8855 99.1984C83.9135 98.3864 81.5607 99.5712 81.5991 101.851C81.6415 104.342 84.7543 105.782 86.3871 103.711Z" fill="#272833"/>
<path d="M36.312 128.393C36.5616 129.543 36.8328 130.673 37.072 131.806C37.152 132.194 37.82 132.113 37.768 131.709C37.6194 130.518 37.326 129.351 36.8944 128.231C36.8707 128.157 36.819 128.094 36.7502 128.057C36.6814 128.019 36.6007 128.01 36.5253 128.031C36.4498 128.052 36.3854 128.101 36.3456 128.169C36.3059 128.236 36.2938 128.317 36.312 128.393Z" fill="#272833"/>
<path d="M52.5342 128.781C52.4022 129.686 52.3974 130.61 52.3406 131.53C52.3126 131.984 53.0358 131.983 53.0518 131.53C53.0838 130.641 53.1486 129.751 53.1006 128.862C53.0838 128.554 52.5822 128.458 52.5342 128.781Z" fill="#272833"/>
<path d="M100.571 48.1856C100.571 27.2944 100.737 28.0984 100.135 26.7552C99.739 25.8992 99.1073 25.1737 98.3139 24.6636C97.5205 24.1536 96.5982 23.8801 95.655 23.8752C95.3294 23.8688 26.811 23.892 22.1606 23.9072C20.0006 17.8904 11.5414 16.2272 6.98942 20.1552C1.70942 24.7152 3.51742 35.6864 11.6798 36.7328C11.6798 38.7872 11.6958 45.6288 11.6958 46.9872C11.6085 48.1217 11.6622 49.2627 11.8558 50.384C12.1623 51.4685 12.8329 52.4144 13.7549 53.0625C14.6769 53.7105 15.794 54.0213 16.9182 53.9424C19.1502 53.8944 21.367 53.9424 23.5822 53.7648C23.9702 53.7328 23.9702 53.1248 23.5822 53.1496C21.3646 53.2688 19.1342 53.2224 16.9182 53.2296C16.2702 53.2709 15.6212 53.1662 15.0192 52.923C14.4171 52.6799 13.8774 52.3045 13.4398 51.8248C12.5222 50.7696 12.4526 49.5448 12.4526 48.2184C12.4526 44.4176 12.4694 40.6 12.4694 36.7992C15.1188 36.8505 17.6976 35.9431 19.731 34.244C19.7995 34.1845 19.8427 34.1011 19.8517 34.0109C19.8608 33.9206 19.8351 33.8303 19.7798 33.7584C19.7209 33.689 19.6373 33.6452 19.5467 33.6363C19.4561 33.6273 19.3656 33.6539 19.2942 33.7104C13.3014 38.532 5.24382 35.9136 4.67342 27.9504C3.88782 16.9536 18.2678 16.0264 21.4158 23.9088C21.8832 25.2308 22.053 26.6396 21.9132 28.0348C21.7734 29.4299 21.3274 30.7771 20.607 31.98C20.5837 32.0182 20.5681 32.0607 20.5612 32.105C20.5543 32.1492 20.5562 32.1944 20.5667 32.2379C20.5773 32.2815 20.5963 32.3225 20.6227 32.3587C20.6491 32.3949 20.6824 32.4255 20.7206 32.4488C20.7589 32.4721 20.8013 32.4877 20.8456 32.4946C20.8898 32.5015 20.935 32.4996 20.9785 32.4891C21.0221 32.4785 21.0631 32.4595 21.0993 32.4331C21.1355 32.4067 21.1661 32.3734 21.1894 32.3352C22.5569 30.0638 22.9873 27.3494 22.3894 24.7664C26.271 24.7664 95.3022 24.7792 95.5766 24.7824C96.4081 24.7722 97.2223 25.0209 97.9063 25.4938C98.5902 25.9668 99.1102 26.6408 99.3942 27.4224C99.6075 28.2124 99.6841 29.033 99.6206 29.8488C99.6206 29.8488 99.6526 48.0448 99.6206 50.1952C99.63 51.2609 99.2164 52.2868 98.4704 53.0479C97.7244 53.809 96.7071 54.2432 95.6414 54.2552C95.4014 54.2552 75.3142 53.4456 74.3238 53.3984C73.839 53.3744 73.839 54.1392 74.3238 54.1584C94.851 54.964 95.6166 55.5264 97.3238 54.8864C98.2616 54.528 99.069 53.8943 99.6402 53.0687C100.211 52.243 100.519 51.2639 100.524 50.26C100.588 49.5768 100.571 48.88 100.571 48.1856Z" fill="#0B7DFF"/>
<path d="M69.226 53.4912C58.5188 53.4664 32.8668 53.24 30.746 53.2512C30.6666 53.2512 30.5905 53.2827 30.5344 53.3388C30.4783 53.3949 30.4468 53.471 30.4468 53.5504C30.4468 53.6297 30.4783 53.7059 30.5344 53.762C30.5905 53.8181 30.6666 53.8496 30.746 53.8496C35.1116 54.1008 65.038 54.824 69.3212 54.2216C69.7596 54.1864 69.6468 53.492 69.226 53.4912Z" fill="#0B7DFF"/>
<path d="M62.0448 39.0152C59.0688 38.9648 28.5808 39.1288 25.2656 39.1752C25.2656 38.3184 25.2656 37.4448 25.2168 36.588C25.2131 36.5198 25.1833 36.4556 25.1337 36.4086C25.0841 36.3616 25.0183 36.3354 24.95 36.3354C24.8817 36.3354 24.8159 36.3616 24.7663 36.4086C24.7167 36.4556 24.6869 36.5198 24.6832 36.588C24.6032 37.5568 24.6344 38.5288 24.6344 39.4992C24.6357 39.5844 24.6703 39.6657 24.7309 39.7255C24.7915 39.7854 24.8732 39.819 24.9584 39.8192C36.9272 39.8352 48.912 39.4696 60.8784 39.6592C64.064 39.7088 67.2672 39.9176 70.4528 39.7392C70.512 39.7771 70.5802 39.7987 70.6505 39.8019C70.7207 39.805 70.7906 39.7896 70.853 39.7571C70.9153 39.7247 70.9681 39.6764 71.0058 39.617C71.0436 39.5577 71.065 39.4895 71.068 39.4192C71.0856 38.6424 71.0928 37.8824 71.068 37.1056C71.056 36.7336 71.1808 35.8608 70.7928 35.6176C70.5336 35.4576 69.984 35.5544 69.7088 35.5536C67.4448 35.5448 29.6288 35.6992 25.1824 35.7472C25.1142 35.751 25.05 35.7807 25.003 35.8303C24.956 35.8799 24.9298 35.9457 24.9298 36.014C24.9298 36.0824 24.956 36.1481 25.003 36.1977C25.05 36.2473 25.1142 36.2771 25.1824 36.2808C35.3664 36.3944 39.4648 36.2448 68.496 36.2808C69.0872 36.3383 69.6817 36.3546 70.2752 36.3296C70.2592 36.4896 70.2912 36.7016 70.2912 36.8472C70.2912 37.6072 70.2752 38.3672 70.2752 39.128C67.528 39.1936 64.7944 39.0616 62.0448 39.0152ZM70.5848 36.2952C70.5688 36.3112 70.5528 36.3112 70.52 36.2952H70.5848Z" fill="#0B7DFF"/>
<path d="M43.5255 28.3568C43.4775 28.2768 32.3815 28.4368 26.5751 28.4368L26.4951 31.9304C31.9295 31.8504 43.2031 31.8816 43.5591 31.8504C43.5415 31.2192 43.5743 28.4376 43.5255 28.3568Z" fill="#0B7DFF"/>
<path d="M74.1919 46.8432C78.3159 46.8784 82.4727 47.1672 86.5967 46.9408C86.6562 46.9789 86.7247 47.0005 86.7953 47.0034C86.8659 47.0064 86.936 46.9906 86.9985 46.9577C87.061 46.9248 87.1136 46.8759 87.1511 46.816C87.1886 46.7562 87.2095 46.6874 87.2118 46.6168C87.3113 45.5021 87.295 44.3801 87.1631 43.2688C87.1623 43.1969 87.1467 43.1258 87.1174 43.0601C87.088 42.9945 87.0454 42.9355 86.9923 42.887C86.9392 42.8384 86.8767 42.8013 86.8086 42.778C86.7405 42.7546 86.6684 42.7455 86.5967 42.7512C85.5111 42.6552 26.6951 42.9264 24.3111 42.9456C24.2428 42.9494 24.1786 42.9791 24.1316 43.0287C24.0847 43.0783 24.0585 43.1441 24.0585 43.2124C24.0585 43.2808 24.0847 43.3465 24.1316 43.3961C24.1786 43.4457 24.2428 43.4755 24.3111 43.4792C27.7855 43.508 17.0871 43.512 86.4191 43.512C86.4775 43.86 86.4351 46.072 86.4351 46.3256C82.8607 46.4392 79.2703 46.2496 75.6959 46.2128C71.4559 46.1696 28.3543 46.3584 24.4239 46.4072C24.4239 45.5496 24.4239 44.6768 24.3759 43.8192C24.3721 43.751 24.3424 43.6868 24.2928 43.6398C24.2431 43.5928 24.1774 43.5666 24.1091 43.5666C24.0407 43.5666 23.975 43.5928 23.9254 43.6398C23.8757 43.6868 23.846 43.751 23.8423 43.8192C23.7943 44.7896 23.7935 45.76 23.7935 46.7304C23.7966 46.8109 23.83 46.8872 23.8869 46.9441C23.9439 47.0011 24.0202 47.0345 24.1007 47.0376C31.9455 47.0456 65.3279 46.768 74.1919 46.8432ZM86.7263 43.512C86.72 43.5181 86.7124 43.5227 86.7041 43.5255C86.6958 43.5283 86.6869 43.5291 86.6783 43.528C86.693 43.5194 86.7093 43.514 86.7263 43.512Z" fill="#0B7DFF"/>
<path d="M18.8925 31.1872C17.1325 28.056 12.8517 27.0648 9.73809 28.7448C8.66769 29.3224 6.93809 30.7832 8.05809 32.0608C8.4267 32.4264 8.84624 32.7368 9.30369 32.9824C11.1515 34.1442 13.3717 34.5605 15.5149 34.1472C16.9549 33.8216 19.5469 32.984 19.0725 31.5912C19.0307 31.4491 18.9702 31.3133 18.8925 31.1872Z" fill="#272833"/>
<path d="M15.5126 25.3968C16.5526 24.0896 16.8214 21.5984 15.011 20.868C14.389 20.5782 13.6895 20.4988 13.0184 20.6418C12.3472 20.7849 11.7409 21.1426 11.291 21.6608C10.9362 22.1662 10.7352 22.7634 10.7122 23.3804C10.6892 23.9975 10.8452 24.608 11.1614 25.1384C11.3789 25.5108 11.685 25.8237 12.0524 26.0494C12.4199 26.275 12.8374 26.4065 13.2679 26.4321C13.6984 26.4576 14.1285 26.3765 14.5201 26.1959C14.9117 26.0153 15.2526 25.7408 15.5126 25.3968Z" fill="#272833"/>
<path d="M55.4943 106.299C54.9493 105.58 54.4927 104.798 54.1343 103.97C53.9462 102.974 53.8657 101.96 53.8943 100.946C54.0169 100.067 54.0815 99.1803 54.0879 98.2928C54.0862 98.22 54.0585 98.1503 54.0099 98.0961C53.9613 98.0419 53.895 98.0068 53.8229 97.9971C53.7507 97.9875 53.6775 98.0039 53.6164 98.0434C53.5553 98.083 53.5103 98.143 53.4895 98.2128C53.1275 99.2673 52.9576 100.378 52.9879 101.493C51.1755 104.499 48.7443 107.084 45.8559 109.078C43.5538 107.457 41.5782 105.415 40.0327 103.062C39.8551 101.105 39.8623 99.1472 39.7743 97.1584C39.7591 96.8184 39.2143 96.7064 39.1431 97.0784C38.8084 99.1723 38.7976 101.305 39.1111 103.402C38.8412 104.937 38.1644 106.371 37.1512 107.554C36.138 108.738 34.8256 109.628 33.3511 110.131C33.4311 110.39 35.6199 126.64 35.8911 126.903C36.1623 127.166 54.8711 127.97 54.9759 126.903C55.0807 125.837 61.1199 109.194 61.1199 109.194C60.036 109.113 58.9795 108.815 58.0132 108.318C57.0468 107.821 56.1902 107.134 55.4943 106.299ZM49.8015 119.788C48.4956 119.357 47.2944 118.657 46.2751 117.734C46.0503 117.538 46.3551 117.134 46.5991 117.314C47.6654 118.087 48.8088 118.749 50.0111 119.287C50.2871 119.415 50.0911 119.874 49.8015 119.788Z" fill="#0B7DFF"/>
<path d="M45.2239 88.8472C45.2076 88.8827 45.1992 88.9213 45.1992 88.9604C45.1992 88.9995 45.2076 89.0381 45.2239 89.0736C45.5839 89.936 46.0655 91.8416 47.3911 91.5C48.6375 91.18 48.9439 89.204 48.9599 88.152C48.9586 88.1033 48.9464 88.0556 48.9241 88.0122C48.9019 87.9689 48.8703 87.9311 48.8315 87.9016C48.7927 87.8721 48.7478 87.8517 48.7001 87.8419C48.6524 87.8321 48.6032 87.8331 48.5559 87.8448C47.4803 88.0198 46.4203 88.2793 45.3855 88.6208C45.3391 88.6383 45.299 88.6691 45.2702 88.7094C45.2415 88.7497 45.2253 88.7977 45.2239 88.8472ZM48.2967 88.508C48.1999 89.3168 47.9087 90.7208 47.1167 90.74C46.5175 90.7536 46.0647 89.64 45.7903 89.0416C46.6311 88.864 47.4559 88.6208 48.2967 88.508Z" fill="#272833"/>
<path d="M46.0324 81.86C46.0652 81.6016 45.6268 81.54 45.5796 81.7952C45.4308 82.604 45.2868 83.3952 45.1588 84.2056C45.0327 84.7293 44.973 85.2669 44.9812 85.8056C45.0852 86.8584 45.9028 87.1808 46.8732 87.116C47.3588 87.084 47.3588 86.3256 46.8732 86.356C46.3236 86.3904 45.6876 86.2096 45.6444 85.5792C45.622 85.2584 46.022 81.9408 46.0324 81.86Z" fill="#272833"/>
<path d="M47.6797 80.1944C47.3901 80.3264 47.6157 80.6992 47.8741 80.6632C49.8069 80.396 50.0509 80.9032 50.8821 80.8088C50.9415 80.8076 50.9994 80.7891 51.0484 80.7554C51.0974 80.7217 51.1354 80.6744 51.1578 80.6193C51.1802 80.5642 51.186 80.5038 51.1744 80.4454C51.1627 80.3871 51.1343 80.3335 51.0925 80.2912C50.2949 79.44 48.6237 79.7656 47.6797 80.1944Z" fill="#272833"/>
<path d="M45.6116 79.76C45.1354 79.4989 44.608 79.3448 44.0661 79.3084C43.5242 79.2721 42.9809 79.3544 42.474 79.5496C42.1684 79.7144 42.3444 80.1216 42.634 80.148C43.5535 80.071 44.4793 80.1249 45.3836 80.308C45.6932 80.3856 45.9348 79.904 45.6116 79.76Z" fill="#272833"/>
<path d="M47.4561 78.868C47.4721 78.9008 47.4721 78.9168 47.4561 78.868V78.868Z" fill="#272833"/>
<path d="M47.4558 78.868C47.4558 78.3248 46.5342 78.2912 46.5342 78.9976C46.5353 79.0624 46.55 79.1262 46.5773 79.1849C46.6046 79.2437 46.6438 79.2961 46.6926 79.3387C46.7414 79.3814 46.7985 79.4134 46.8604 79.4326C46.9222 79.4518 46.9874 79.4579 47.0518 79.4504C47.1179 79.4415 47.1814 79.4189 47.2383 79.3841C47.2952 79.3493 47.3442 79.3031 47.3822 79.2483C47.4202 79.1935 47.4464 79.1314 47.459 79.0659C47.4717 79.0004 47.4706 78.933 47.4558 78.868Z" fill="#272833"/>
<path d="M25.9445 55.1408C26.6068 55.1516 27.2584 54.9732 27.8228 54.6266C28.3872 54.28 28.841 53.7795 29.1309 53.184C29.3903 52.5187 29.507 51.8063 29.4735 51.0929C29.44 50.3796 29.2571 49.6813 28.9365 49.0432C28.7765 48.7176 28.3037 48.9632 28.3701 49.2832C28.7204 50.3263 28.7758 51.4458 28.5301 52.5184C28.3398 53.0594 27.9802 53.5246 27.5047 53.8451C27.0291 54.1656 26.463 54.3242 25.8901 54.2976C25.8703 54.238 25.8301 54.1874 25.7765 54.1547C25.7229 54.122 25.6595 54.1093 25.5975 54.1189C25.5355 54.1285 25.4789 54.1597 25.4377 54.2071C25.3965 54.2544 25.3734 54.3148 25.3725 54.3776C25.1805 67.5688 27.1749 89.1256 37.5837 97.2872C37.8565 97.5008 38.2333 97.1392 37.9725 96.8992C27.4973 87.2728 26.5669 69.4 25.9445 55.1408Z" fill="#272833"/>
<path d="M20.5262 54.8C20.5433 54.7378 20.535 54.6714 20.5031 54.6154C20.4712 54.5593 20.4184 54.5183 20.3562 54.5012C20.294 54.4841 20.2276 54.4924 20.1716 54.5243C20.1156 54.5562 20.0745 54.609 20.0574 54.6712C17.6883 63.886 17.4909 73.5251 19.4808 82.8292C21.4707 92.1333 25.5935 100.848 31.5246 108.288C31.7046 108.513 32.1054 108.208 31.9286 107.981C20.6606 93.508 15.5822 73.6536 20.5262 54.8Z" fill="#272833"/>
<path d="M74.9189 55.1408C74.8853 54.9144 74.5469 54.9144 74.4501 55.076C73.8725 55.076 72.5869 55.392 71.6501 54.7368C71.417 54.5644 71.2423 54.3246 71.1497 54.0498C71.0572 53.7749 71.0512 53.4783 71.1325 53.2C71.2277 52.7632 71.6165 51.6608 72.1349 51.5016C72.2015 51.4823 72.2576 51.4373 72.291 51.3766C72.3243 51.316 72.3323 51.2445 72.3129 51.178C72.2936 51.1115 72.2487 51.0553 72.188 51.022C72.1273 50.9886 72.0559 50.9807 71.9893 51C71.3413 51.16 71.0053 51.8592 70.7277 52.4072C69.7237 54.392 70.9037 56.3912 74.4477 55.8848C74.9005 61.1248 74.0893 66.5248 72.8949 71.6224C70.9237 80.0344 67.0709 89.8016 59.8101 94.6216C59.524 92.1585 59.4003 89.6793 59.4397 87.2C59.5128 82.8637 58.6753 78.5604 56.9813 74.568C55.3165 71.088 51.5637 72.64 51.5637 72.64C48.7981 70.5696 42.4093 69.8904 39.5637 71.5568C36.7181 73.2232 39.1917 76.0048 39.1917 76.0048C38.8639 76.4033 38.7053 76.9145 38.7502 77.4286C38.7951 77.9427 39.0398 78.4187 39.4317 78.7544C39.843 79.0687 40.3265 79.2749 40.838 79.354C41.3496 79.4331 41.8728 79.3826 42.3597 79.2072C43.3461 78.9 47.5189 77.46 49.5245 75.8424C49.5591 75.8115 49.6014 75.7906 49.647 75.7822C49.6926 75.7737 49.7396 75.7779 49.7829 75.7944C49.8965 75.8264 49.9429 75.9544 49.9773 76.0528C50.2635 76.8435 50.7709 77.5353 51.4391 78.0459C52.1072 78.5565 52.908 78.8643 53.7461 78.9328C53.4389 79.8872 52.7581 81.116 52.4037 82.2648C52.0789 83.3152 53.0829 83.8968 54.1637 83.9304C54.3064 83.9375 54.4458 83.9761 54.5717 84.0435C54.6977 84.1108 54.8072 84.2053 54.8922 84.3201C54.9773 84.4348 55.0359 84.567 55.0637 84.7071C55.0916 84.8473 55.0881 84.9918 55.0533 85.1304C54.3285 87.756 53.0317 87.7504 52.4333 87.2168C51.2517 96 50.9845 97.28 51.3213 97.7104C51.5749 98.0384 52.1461 97.8848 52.4701 97.84C54.049 97.5992 55.599 97.1971 57.0957 96.64C57.1341 96.6426 57.1725 96.6371 57.2085 96.624C70.9309 91.8192 76.5133 65.6376 74.9189 55.1408ZM46.9869 73.692C45.8911 73.1885 44.7404 72.814 43.5581 72.576C42.2149 72.4344 40.2781 72.7856 40.4037 74.5496C40.4229 74.808 39.9693 74.8696 39.9349 74.6144C39.4349 70.8896 45.5797 71.6224 47.2781 73.2072C47.5045 73.3848 47.2797 73.7912 46.9869 73.692Z" fill="#272833"/>
<path d="M80.4798 55.9816C80.4761 55.9155 80.4472 55.8532 80.3991 55.8077C80.351 55.7622 80.2872 55.7368 80.221 55.7368C80.1547 55.7368 80.091 55.7622 80.0428 55.8077C79.9947 55.8532 79.9658 55.9155 79.9622 55.9816C79.935 59.208 80.7622 64.0616 80.5934 70.5224C80.171 86.9536 74.623 97.62 65.3734 106.736C65.0966 107.009 65.5046 107.402 65.7942 107.156C72.8798 101.162 77.5198 92.7128 79.6582 83.72C82.659 71.0864 80.4966 59.8144 80.4798 55.9816Z" fill="#272833"/>
<path d="M45.6001 93.44C45.5505 93.068 45.0401 93.2136 45.0017 93.52C44.9416 94.4531 44.9579 95.3895 45.0505 96.32C45.09 96.5169 45.1061 96.7177 45.0985 96.9184C45.0337 97.064 44.1609 97.0464 43.9505 97.064C43.1897 97.1256 42.4465 97.184 41.6857 97.224C41.6153 97.2278 41.5492 97.2584 41.5007 97.3095C41.4523 97.3606 41.4253 97.4284 41.4253 97.4988C41.4253 97.5692 41.4523 97.6369 41.5007 97.6881C41.5492 97.7392 41.6153 97.7698 41.6857 97.7736C42.6952 97.8355 43.7084 97.7978 44.7105 97.6608C45.2289 97.5992 45.7201 97.6456 45.8265 97.0624C45.8843 96.476 45.8679 95.8847 45.7777 95.3024C45.7233 94.6688 45.6753 94.0392 45.6001 93.44Z" fill="#272833"/>
<path d="M49.688 91.6944C47.4752 92.6664 44.464 92.7776 43.008 90.5456C41.3424 87.9904 42.0624 84.772 42.0376 81.9248C42.0376 81.8605 42.0121 81.7988 41.9666 81.7534C41.9211 81.7079 41.8595 81.6824 41.7952 81.6824C41.7309 81.6824 41.6693 81.7079 41.6238 81.7534C41.5783 81.7988 41.5528 81.8605 41.5528 81.9248C41.4288 85.0936 40.764 88.8768 42.9432 91.5488C44.4992 93.4552 48.0296 93.5728 50.028 92.3248C50.1077 92.2776 50.1661 92.2015 50.1909 92.1122C50.2157 92.023 50.205 91.9277 50.161 91.8462C50.1171 91.7646 50.0432 91.7033 49.9551 91.675C49.8669 91.6467 49.7712 91.6537 49.688 91.6944Z" fill="#272833"/>
<path d="M48.9279 82.9928C49.1447 81.9672 48.1767 81.7624 47.9415 82.7824C47.8439 83.2024 47.9895 83.608 48.2615 83.6552C48.5599 83.7056 48.8391 83.4112 48.9279 82.9928Z" fill="#272833"/>
<path d="M43.1999 82.5392C43.1031 82.96 43.2487 83.3648 43.5199 83.4128C43.7951 83.4776 44.0863 83.1728 44.1831 82.7496C44.2799 82.3264 44.1351 81.9248 43.8631 81.8768C43.5903 81.812 43.2991 82.1192 43.1999 82.5392Z" fill="#272833"/>
<path d="M142.947 92.5192C140.798 91.1072 136.68 89.4888 134.052 89.4624C133.992 89.4618 133.934 89.4832 133.888 89.5225C133.843 89.5619 133.813 89.6165 133.805 89.6762C133.797 89.7358 133.811 89.7962 133.845 89.8462C133.878 89.8961 133.929 89.932 133.987 89.9472C135.87 90.5152 140.21 91.372 143.012 93.392C145.579 95.2432 146.943 98.196 145.858 101.286C144.905 104.006 142.658 106.207 140.441 107.949C137.6 110.178 134.121 110.579 133.922 110.779C132.071 111.081 130.19 111.146 128.322 110.974C127.982 110.958 127.982 111.476 128.322 111.507C130.473 111.706 132.786 111.928 134.889 111.232C136.655 110.855 138.344 110.182 139.886 109.243C146.862 104.67 150.027 97.168 142.947 92.5192Z" fill="#272833"/>
<path d="M135.41 108.32C135.685 108.08 135.33 107.68 135.038 107.835C132.26 109.334 130.417 109.413 127.565 109.242C127.502 109.243 127.441 109.267 127.393 109.31C127.346 109.352 127.315 109.41 127.308 109.473C127.3 109.536 127.315 109.6 127.351 109.653C127.386 109.706 127.44 109.744 127.501 109.76C129.86 110.347 133.699 109.84 135.41 108.32Z" fill="#272833"/>
<path d="M131.286 107.722C132.526 107.486 133.627 106.779 134.359 105.75C134.537 105.458 134.105 105.11 133.874 105.378C132.239 107.298 129.215 107.631 126.838 107.399C126.514 107.367 126.483 107.849 126.774 107.933C128.269 108.276 129.829 108.203 131.286 107.722Z" fill="#272833"/>
<path d="M133.308 102.854C133.323 102.789 133.316 102.721 133.289 102.66C133.262 102.599 133.216 102.548 133.158 102.515C133.1 102.483 133.032 102.47 132.966 102.478C132.9 102.487 132.838 102.517 132.79 102.563C132.004 103.492 131.029 104.242 129.93 104.763C128.831 105.285 127.634 105.565 126.417 105.587C126.342 105.587 126.27 105.617 126.217 105.67C126.164 105.723 126.134 105.795 126.134 105.87C126.134 105.946 126.164 106.018 126.217 106.071C126.27 106.124 126.342 106.154 126.417 106.154C127.929 106.197 129.427 105.852 130.768 105.151C131.737 104.661 132.915 103.926 133.308 102.854Z" fill="#272833"/>
<path d="M127.275 99.9592C127.127 100.217 127.435 100.553 127.695 100.379C128.434 99.7254 129.377 99.3482 130.364 99.312C131.124 99.3392 131.98 100.069 132.725 99.7808C133.428 99.3666 134.004 98.7682 134.391 98.0504C134.945 97.2814 135.245 96.3583 135.248 95.4104C135.245 95.3422 135.215 95.278 135.165 95.231C135.116 95.184 135.05 95.1578 134.982 95.1578C134.913 95.1578 134.848 95.184 134.798 95.231C134.748 95.278 134.719 95.3422 134.715 95.4104C134.575 96.4873 134.093 97.4907 133.34 98.2728C133.169 98.4841 132.98 98.6791 132.773 98.8552C132.453 99.0872 132.336 99.0152 132.029 98.952C131.657 98.872 131.335 98.6568 130.946 98.596C129.703 98.408 127.944 98.7888 127.275 99.9592Z" fill="#272833"/>
<path d="M130.234 95.3336C130.303 95.7336 130.93 95.624 130.93 95.236C130.878 93.9909 130.889 92.744 130.962 91.5C131.146 90.1975 131.406 88.9068 131.739 87.6344C131.754 87.5685 131.743 87.4996 131.711 87.4406C131.678 87.3817 131.624 87.3368 131.561 87.3144C131.539 87.2761 131.508 87.2433 131.472 87.2181C131.436 87.1929 131.394 87.1761 131.35 87.1688C129.11 86.6656 126.833 86.3355 124.542 86.1816C120.514 86.0864 118.788 87.136 117.198 87.136C117.222 87.0288 117.26 86.9254 117.312 86.8288C117.341 86.7767 117.356 86.7181 117.355 86.6587C117.355 86.5992 117.339 86.5408 117.31 86.489C117.281 86.4372 117.239 86.3937 117.189 86.3626C117.138 86.3315 117.08 86.3138 117.021 86.3112C115.23 85.9938 113.399 85.9773 111.602 86.2624C111.56 86.2343 111.513 86.2149 111.463 86.2053C111.413 86.1958 111.361 86.1964 111.312 86.207C111.262 86.2175 111.215 86.2379 111.173 86.267C111.132 86.296 111.096 86.3331 111.069 86.376C110.748 86.8719 110.397 87.3472 110.017 87.7992C109.581 86.764 109.192 85.7128 108.817 84.6456C110.83 84.3096 112.934 83.1296 113.314 81.0872C113.808 78.4248 112.919 73.1672 110.467 69.3936C110.424 69.328 110.357 69.2815 110.281 69.2633C110.204 69.2452 110.124 69.257 110.056 69.2961C109.988 69.3353 109.937 69.3989 109.914 69.4741C109.891 69.5493 109.898 69.6304 109.933 69.7008C110.925 71.4651 111.681 73.3518 112.182 75.3128C112.618 76.8735 112.804 78.4938 112.731 80.1128C112.552 82.0856 111.001 83.2672 109.206 83.8C107.175 84.3388 105.033 84.2942 103.026 83.6712C102.966 83.6541 102.902 83.6616 102.847 83.692C102.793 83.7223 102.753 83.7731 102.736 83.8332C102.719 83.8932 102.726 83.9576 102.756 84.0121C102.787 84.0667 102.838 84.1069 102.898 84.124C104.604 84.7921 106.454 85.0039 108.267 84.7384C108.542 85.9636 108.917 87.1644 109.387 88.3288C109.404 88.3773 109.431 88.4216 109.467 88.4584C108.739 89.332 108.097 90.2736 107.365 91.1272C107.156 91.3712 107.348 91.3064 107.09 91.2568C106.729 91.1125 106.391 90.9163 106.087 90.6744C105.582 90.3712 104.424 89.9128 104.194 89.364C102.162 84.5088 101.918 82.3728 100.766 80.76C100.502 80.3912 99.7928 80.924 99.148 80.6304C98.6937 80.3947 98.3383 80.0046 98.1456 79.5304C97.8824 78.7552 99.3744 78.4952 99.86 78.6728C100.167 78.7864 100.311 78.336 100.07 78.172C99.902 78.0585 99.7067 77.9914 99.504 77.9776C101.332 77.0072 99.5528 74.2088 99.472 73.4816C102.125 72.5964 104.652 71.3733 106.992 69.8424C109.274 68.2912 111.146 66.5432 110.842 63.5832C110.783 62.622 110.426 61.7032 109.82 60.955C109.214 60.2067 108.389 59.6664 107.461 59.4096C105.964 58.9527 104.364 58.9527 102.867 59.4096C98.6328 60.8592 98.2744 65.7824 98.2576 69.616C96.8176 68.6672 94.368 70.948 94.716 73.4488C94.7948 74.0317 95.0326 74.5817 95.4035 75.0383C95.7744 75.4948 96.264 75.8403 96.8184 76.0368C96.3952 76.3867 96.1153 76.8799 96.0318 77.4226C95.9483 77.9654 96.0671 78.5199 96.3656 78.9808C96.6865 79.4953 97.1174 79.9325 97.6272 80.2608C98.1768 81.1664 99.4224 81.8944 100.361 81.4416C100.797 82.7512 101.362 84.0456 101.816 85.3392C102.216 86.488 102.625 87.652 103.078 88.784C102.851 88.624 102.625 88.464 102.414 88.2832C102.412 88.2832 102.41 88.2827 102.408 88.2819C102.406 88.281 102.404 88.2798 102.403 88.2782C102.401 88.2766 102.4 88.2748 102.399 88.2727C102.399 88.2707 102.398 88.2685 102.398 88.2664C102.367 88.2357 102.328 88.2137 102.285 88.2024C100.579 87.803 98.8019 87.8304 97.1096 88.2824C97.0494 88.3015 96.9941 88.3339 96.948 88.3771C96.9018 88.4203 96.8659 88.4734 96.8429 88.5323C96.8199 88.5912 96.8103 88.6545 96.815 88.7176C96.8196 88.7806 96.8383 88.8419 96.8696 88.8968C97.0295 89.2106 97.2189 89.5085 97.4352 89.7864C93.1952 91.3192 92.004 91.5408 86.6632 95.5608C86.2104 95.9016 86.4544 96.2808 86.9224 95.9808C89.0926 94.4749 91.379 93.1437 93.76 92C95.2144 91.3672 96.772 90.96 98.24 90.3664C98.3088 90.345 98.371 90.3064 98.4206 90.2541C98.4702 90.2019 98.5056 90.1378 98.5234 90.068C98.5412 89.9982 98.5408 89.925 98.5223 89.8554C98.5038 89.7858 98.4678 89.7221 98.4176 89.6704C98.2071 89.4632 98.0177 89.2357 97.852 88.9912C99.2432 88.8136 100.682 89.04 102.057 88.7976C102.689 89.4584 103.414 90.0243 104.208 90.4776C104.921 91.0258 105.678 91.5128 106.473 91.9336C106.085 93.4376 105.777 94.9584 105.373 96.4624C103.608 95.075 102.003 93.4963 100.586 91.7552C100.388 91.5152 99.9712 91.8352 100.149 92.0792C101.637 94.0688 103.37 95.8623 105.308 97.4168C105.358 97.4649 105.419 97.4994 105.486 97.5167C105.553 97.5341 105.623 97.5337 105.69 97.5157C105.757 97.4978 105.818 97.4628 105.867 97.4142C105.917 97.3655 105.952 97.305 105.971 97.2384C106.328 95.5368 106.796 93.8584 107.087 92.144C107.185 92.1517 107.283 92.1383 107.375 92.1048C107.467 92.0712 107.551 92.0183 107.621 91.9496C109.648 93.8528 110.363 95.7472 112.037 96.5096C113.103 96.9968 113.232 95.7976 113.46 95.0216C114.026 93.4341 114.496 91.8138 114.867 90.1696C114.92 89.8496 114.459 89.5856 114.301 89.9296C114.07 90.4288 112.279 95.736 112.328 95.7696C112.23 95.7216 112.134 95.6568 112.037 95.6096C111.797 95.4906 111.582 95.3259 111.406 95.1248C110.19 94.0272 109.433 92.3424 107.993 91.4696C109.442 89.4696 110.537 88.404 111.551 86.86C113.151 86.9888 114.77 86.876 116.371 86.9888L116.08 87.5712C116.048 87.6302 116.033 87.6975 116.038 87.7646C116.043 87.8318 116.068 87.896 116.109 87.9493C116.151 88.0026 116.207 88.0427 116.27 88.0646C116.334 88.0866 116.403 88.0894 116.468 88.0728C122.746 86.408 125.358 86.8544 130.948 87.8624C130.102 90.2567 129.857 92.8223 130.234 95.3336ZM107.267 60.9152C109.476 61.8232 109.058 64.6336 108.367 66.3976C108.254 66.6888 107.786 66.5576 107.898 66.2688C108.554 64.5576 108.858 62.536 107.041 61.4488C106.767 61.2848 106.96 60.788 107.267 60.9152Z" fill="#272833"/>
<path d="M107.412 99.652C108.248 99.2678 109.12 98.9697 110.016 98.7624C110.239 98.768 110.46 98.7237 110.664 98.6328C110.704 98.6086 110.738 98.5743 110.761 98.5332C110.785 98.4921 110.797 98.4457 110.797 98.3984C110.797 98.3512 110.785 98.3047 110.761 98.2636C110.738 98.2225 110.704 98.1882 110.664 98.164C110.223 97.9128 109.389 98.3008 108.965 98.4544C108.349 98.6769 107.744 98.9308 107.154 99.2152C106.848 99.364 107.105 99.7968 107.412 99.652Z" fill="#272833"/>
<path d="M128.779 101.981C127.429 101.955 126.079 102.004 124.735 102.126C123.135 102.198 114.4 102.563 111.615 102.676C111.162 101.576 110.742 99.8296 110.289 98.7296C109.293 98.9101 108.324 99.2202 107.409 99.652C107.308 100.716 107.265 101.784 107.28 102.852C102.622 103.03 97.9637 103.218 93.3055 103.418C91.8047 96.344 82.6063 94.4296 77.9239 98.5008C73.0199 102.765 74.2583 112.563 81.1423 114.661C81.1423 116.479 81.1583 116.416 81.1583 119.772C81.1583 119.843 81.1865 119.911 81.2366 119.961C81.2867 120.011 81.3547 120.039 81.4255 120.039C81.4964 120.039 81.5644 120.011 81.6145 119.961C81.6646 119.911 81.6927 119.843 81.6927 119.772C81.8223 118.113 81.8407 115.016 81.8703 114.839C83.4106 115.114 84.9926 115.045 86.5031 114.637C88.0135 114.229 89.4153 113.493 90.6079 112.48C90.6767 112.421 90.7201 112.338 90.7292 112.247C90.7382 112.157 90.7123 112.067 90.6567 111.995C90.5982 111.926 90.5148 111.882 90.4242 111.872C90.3337 111.863 90.2432 111.89 90.1719 111.946C86.9071 114.576 82.5335 115.123 79.4319 113.127C74.8935 110.206 74.2895 102.538 78.3647 99.0072C81.9919 95.864 88.7335 96.6072 91.5143 100.818C92.3747 102.24 92.8241 103.873 92.8127 105.534C92.8012 107.196 92.3294 108.822 91.4495 110.232C91.4207 110.28 91.4047 110.336 91.403 110.392C91.4013 110.448 91.414 110.504 91.4398 110.554C91.4656 110.605 91.5038 110.647 91.5507 110.679C91.5976 110.71 91.6517 110.729 91.7079 110.734C92.1447 110.764 92.4535 109.779 92.5815 109.472C93.255 107.823 93.5426 106.041 93.4223 104.264C102.206 103.882 127.379 103.042 128.876 102.808C129.378 102.727 129.216 102.01 128.779 101.981Z" fill="#0B7DFF"/>
</svg>
