<svg width="160" height="160" viewBox="0 0 160 160" fill="none" xmlns="http://www.w3.org/2000/svg">
    <path
        d="M124.608 56.124C121.848 55.5355 119.03 55.2594 116.208 55.3008C116.054 55.4351 115.924 55.5934 115.821 55.7696C115.998 55.904 116.174 56.1528 116.362 56.1624C118.107 56.1326 119.85 56.3025 121.557 56.6688C124.133 57.3984 124.437 57.0688 124.183 57.612C122.968 60.2576 120.103 61.8616 117.433 63.052C115.791 63.7298 114.061 64.1726 112.295 64.3672C111.926 64.42 111.759 64.3336 111.874 63.908C113.458 58.0192 113.362 56.0416 113.362 50.7C113.458 50.8384 114.582 52.7184 115.113 53.5752C115.213 53.7352 115.428 53.9752 115.562 53.9528C120.097 53.3832 120.085 53.0728 123.858 52.2064C124.532 52.0464 124.633 52.0152 124.374 51.3504C123.721 50.0978 122.912 48.9324 121.968 47.8816C121.093 47.1312 119.963 46.6336 119.375 45.6096C118.655 44.356 117.558 43.2272 118.686 41.4808C119.087 40.838 119.296 40.0943 119.289 39.3369C119.282 38.5794 119.06 37.8396 118.648 37.204C118.562 37.0512 118.897 33.86 118.754 32.444C118.633 30.7988 118.141 29.2024 117.314 27.7752C115.733 25.1223 113.178 23.193 110.194 22.4C108.703 21.9562 107.111 21.9963 105.645 22.5144C105.28 22.5811 104.906 22.5875 104.539 22.5336C103.38 22.5155 102.232 22.7574 101.179 23.2416C100.84 23.4136 100.442 22.7616 100.156 22.5C96.5296 19.0429 92.1287 16.5036 87.3207 15.0944C68.4911 9.79924 53.6879 25.7104 54.5367 46.1808C54.5935 47.568 54.5983 47.5488 55.9423 47.4816C56.2919 47.4624 56.3255 47.348 56.3207 47.0416C56.2775 44.6352 56.2407 42.224 56.2407 39.8176C56.2388 39.3385 56.32 38.8626 56.4807 38.4112C56.5815 38.1432 57.2223 38.0048 57.2415 38.5168C57.2991 38.7128 57.3327 44.004 57.4279 46.4296C57.4711 47.4864 57.5335 47.4576 58.6191 47.4696C59.0831 47.4792 59.1359 47.3264 59.1071 46.9096C58.6127 40.0864 60.1031 32.404 64.3503 26.8696C68.8807 20.9712 74.8223 18.2872 82.2663 19.4784C87.1999 20.2728 91.2799 22.8 94.8799 26.1864C95.1951 26.4824 94.9471 26.5688 94.7647 26.736C93.2673 28.0273 92.113 29.6692 91.4047 31.5152C90.2812 34.7089 89.597 38.0405 89.3711 41.4184C89.1847 44.0304 88.5711 46.5272 86.6439 48.4888C88.3663 48.4936 90.0839 48.4888 91.8039 48.5008C94.3943 48.5168 93.6439 49.928 93.7671 54.0544C93.7735 54.2608 93.7959 54.4664 93.8007 54.6768C93.8199 55.8011 93.8375 56.9246 93.8535 58.0472C97.3735 57.6704 95.6935 58.0296 105.038 56.3296C105.874 56.1792 105.477 56.86 105.45 57.76C105.435 58.16 105.297 58.2768 104.871 58.3008C103.738 58.3576 102.603 58.5064 101.47 58.6208C101.363 58.9668 101.325 59.3305 101.36 59.6909C101.394 60.0514 101.5 60.4014 101.67 60.7208C102.028 61.7977 102.685 62.7503 103.565 63.4672C103.785 63.6536 103.934 63.8112 103.805 64.1368C102.252 68.4848 99.3843 72.2418 95.5999 74.8864C95.4895 74.9584 95.3655 75.0104 95.2503 75.0728C95.2167 75.4416 95.1791 75.8096 95.1503 76.1824C95.1215 76.5552 95.1743 76.6944 95.5999 76.46C97.5886 75.3067 99.3585 73.8122 100.829 72.0448C103.514 68.9654 105.428 65.2907 106.411 61.3248C106.836 59.7174 107.157 58.0841 107.371 56.4352C107.939 51.6157 107.517 46.731 106.132 42.08C103.874 34.32 99.7839 27.752 93.2975 22.8152C89.6303 19.918 85.2322 18.0932 80.5911 17.5432C75.4575 16.9832 66.1055 21.2552 65.9287 21.3368C67.4221 19.3638 69.5128 17.9258 71.8895 17.2368C85.8567 12.5752 104.545 24.5784 108.199 46.0936C109.428 52.6622 108.712 59.4467 106.138 65.6136C104.183 70.5438 100.659 74.693 96.1103 77.42C95.8031 77.5444 95.5464 77.7682 95.3814 78.0557C95.2163 78.3431 95.1524 78.6776 95.1999 79.0056C95.2951 80.1632 95.2383 81.3304 95.2471 82.4928C96.0943 82.148 96.9551 81.8328 97.7831 81.4528C98.1559 81.2808 98.3231 81.3728 98.5031 81.6872C99.4975 83.4 100.512 85.1032 101.512 86.8112C101.737 87.1984 101.957 87.572 102.472 87.1792C102.414 86.9063 102.328 86.6403 102.214 86.3856C101.372 84.888 100.52 83.4 99.6399 81.9216C99.3959 81.5104 99.5151 81.3816 99.9031 81.1896C101.458 80.4152 102.994 79.6064 104.524 78.7896C104.835 78.6296 104.998 78.636 105.222 78.928C106.127 80.1144 107.07 81.2672 107.978 82.448C108.256 82.8072 108.534 83.008 108.969 82.74C109.327 82.3856 109.107 82.0944 108.863 81.8024C107.534 80.2024 106.213 78.5872 104.874 76.9944C104.663 76.7408 104.625 76.5944 104.878 76.3392C107.692 73.3832 109.85 69.8666 111.212 66.0192C111.242 65.8851 111.322 65.7676 111.436 65.6904C111.55 65.6131 111.689 65.582 111.825 65.6032C115.593 65.4748 119.228 64.1757 122.225 61.8864C123.65 60.9714 124.755 59.6355 125.387 58.064C125.504 57.6105 125.583 57.1477 125.622 56.6808C125.305 56.4596 124.965 56.2729 124.608 56.124ZM57.0399 36.9784C56.8672 36.8942 56.7298 36.7517 56.6519 36.5761C56.5741 36.4005 56.5607 36.203 56.6143 36.0184C56.7047 35.6 57.1199 35.2 57.3703 35.2C57.8623 35.3144 57.8431 35.7736 57.8623 36.176C57.8627 36.2832 57.8415 36.3894 57.8 36.4882C57.7586 36.587 57.6977 36.6765 57.621 36.7514C57.5443 36.8262 57.4533 36.8849 57.3535 36.9239C57.2537 36.9629 57.147 36.9814 57.0399 36.9784ZM104.382 62.4048L104.19 62.4768C103.812 61.8312 103.401 61.2088 103.066 60.5488C102.607 59.6208 102.63 59.6064 103.678 59.4968C105.432 59.308 105.251 59.2184 104.382 62.4048ZM96.3199 35.304C97.543 34.7378 98.6943 34.028 99.7495 33.1896C100.104 32.9552 100.262 32.9264 100.496 33.3336C104.193 39.617 106.021 46.8239 105.768 54.1096C105.763 54.3104 105.744 54.5096 105.73 54.708C105.687 54.7176 105.639 54.7224 105.596 54.732C105.242 53.952 104.876 53.1816 104.529 52.3872C104.5 52.316 104.63 52.1056 104.73 52.0672C105.002 51.9616 105.223 51.8904 105.113 51.5072C104.998 51.1072 104.758 51.0768 104.414 51.1632C103.54 51.4496 102.609 51.5185 101.702 51.364C99.8437 50.8473 98.2298 49.6877 97.1471 48.092C94.9135 45.1832 94.3631 41.8344 94.5927 38.2848C94.6959 36.78 94.9103 35.8176 96.3199 35.304ZM112.48 25.54C113.917 26.3635 115.127 27.5311 116.002 28.9379C116.876 30.3448 117.387 31.9468 117.49 33.6C117.5 33.7722 117.498 33.9449 117.485 34.1168C117.466 34.4664 117.365 34.8056 116.949 34.7864C116.374 34.7608 116.497 34.1952 116.523 33.6192C116.338 31.3849 115.345 29.2945 113.73 27.74C113.203 27.1848 112.562 26.7456 112.031 26.2C111.738 25.8952 112 25.244 112.48 25.54ZM110.738 24.368C110.885 24.3724 111.024 24.428 111.134 24.5251C111.243 24.6222 111.315 24.7546 111.337 24.8992C111.274 25.5016 111.045 25.612 110.648 25.5976C110.571 25.6012 110.493 25.5874 110.422 25.5575C110.351 25.5276 110.287 25.4821 110.235 25.4245C110.183 25.3669 110.145 25.2985 110.123 25.2242C110.101 25.15 110.095 25.0718 110.107 24.9952C110.101 24.9108 110.112 24.8259 110.142 24.7465C110.171 24.6671 110.218 24.5951 110.278 24.5354C110.338 24.4757 110.41 24.4299 110.49 24.401C110.57 24.3721 110.655 24.3608 110.739 24.368H110.738ZM110.098 36.668C110.893 37.0456 111.754 37.468 112.619 37.8496C112.859 37.9584 113.899 37.3024 115.059 36.8784C115.373 36.7654 115.709 36.7227 116.041 36.7535C116.374 36.7842 116.695 36.8877 116.984 37.0565C117.272 37.2253 117.519 37.4553 117.709 37.7304C117.898 38.0054 118.025 38.3187 118.08 38.648C118.75 41.2216 116.134 43.26 113.899 43.0112C113.143 42.9312 113.129 42.8512 112.899 43.5088C112.757 43.668 112.602 43.8152 112.435 43.9488C111.653 41.504 110.869 39.0552 110.103 36.668H110.098Z"
        fill="#272833" />
    <path
        d="M108.965 82.72C109.328 82.3616 109.102 82.0744 108.859 81.7824C107.526 80.1824 106.211 78.5656 104.87 76.9744C104.659 76.7256 104.621 76.5816 104.874 76.3192C107.692 73.3663 109.851 69.8487 111.208 65.9992C111.238 65.8651 111.319 65.7476 111.432 65.6703C111.546 65.5931 111.685 65.562 111.821 65.5832C115.588 65.4499 119.222 64.1514 122.221 61.8664C123.646 60.9518 124.752 59.6158 125.383 58.044C125.502 57.5911 125.581 57.1285 125.618 56.6616C136.911 60.5752 143.312 66.1536 149.451 73.8024C149.666 74.0704 149.781 74.3184 149.25 74.3376C147.62 74.4923 146.024 74.899 144.518 75.5432C142.538 76.3416 140.795 77.6345 139.457 79.2984C137.913 81.0408 136.489 82.8984 135.109 84.7712C134.586 85.5895 134.146 86.4585 133.798 87.3648C133.622 87.748 133.463 87.7648 133.138 87.5416C130.549 85.7888 130.262 85.6376 129.31 85.2544C129.191 85.2064 129.023 85.2784 128.88 85.2928C128.943 85.712 128.746 85.6568 129.52 86.24C130.64 87.0904 131.792 87.9008 132.88 88.8C133.291 89.14 133.576 88.88 133.92 88.8264C133.806 89.0482 133.773 89.3029 133.826 89.5465C133.879 89.7902 134.016 90.0077 134.212 90.1616C136.372 92.4016 137.325 94.7048 136.68 99.1168C136.28 101.872 134.973 104.322 133.618 106.728C132.719 108.519 131.197 109.92 129.337 110.666C129.237 110.683 129.135 110.675 129.039 110.643C128.943 110.611 128.856 110.556 128.786 110.483C125.942 106.318 113.847 88.6192 110.649 83.928C110.309 83.4304 109.929 83.0816 109.28 83.2968C109.166 83.1072 109.065 82.9136 108.965 82.72ZM124.938 94.6608C125.424 94.7043 125.913 94.6947 126.397 94.632C126.753 94.5688 126.833 94.292 126.402 94.232C126.125 94.1696 125.838 94.152 125.555 94.0928C124.49 94.0035 123.437 93.8065 122.412 93.5048C121.46 93.2 119.852 92.3184 118.934 91.9048C118.546 91.704 118.403 92.2016 118.585 92.5704C119.039 92.8865 119.515 93.1694 120.01 93.4168C121.534 94.2097 123.221 94.6365 124.938 94.6632V94.6608Z"
        fill="#0B7DFF" />
    <path
        d="M51.3375 110.469C51.8687 110.469 51.9983 110.618 51.9975 111.139C51.9879 116.344 51.9663 121.544 51.9975 126.749C51.9975 127.318 51.8255 127.434 51.2895 127.433C42.9754 127.426 34.6594 127.429 26.3415 127.442C26.0749 127.424 25.8117 127.512 25.6095 127.686C25.2687 128.159 25.5903 128.642 26.2119 128.646C28.9055 128.651 45.6519 128.656 51.3319 128.646C51.8727 128.646 52.0215 128.799 51.9823 129.316C51.9351 129.943 51.9607 130.579 51.9487 131.21C51.9378 131.357 51.9584 131.505 52.0091 131.643C52.0598 131.782 52.1394 131.908 52.2428 132.013C52.3461 132.118 52.4707 132.2 52.6081 132.253C52.7456 132.306 52.8928 132.329 53.0399 132.32C57.2255 132.373 61.4122 132.418 65.5999 132.454C66.1359 132.454 66.3367 132.578 66.3199 133.152C66.1815 137.221 66.8135 138.18 64.9943 138.18C49.4327 138.18 26.5639 138.17 11.7831 138.161C11.3374 138.145 10.8962 138.066 10.4727 137.926C10.1636 137.819 9.90203 137.606 9.73338 137.325C9.56473 137.045 9.49969 136.714 9.54954 136.39C9.53994 131.19 9.56634 114.318 9.53994 111.089C9.53514 110.553 9.64954 110.382 10.2239 110.386C17.0847 110.419 44.4967 110.48 51.3375 110.469ZM50.1943 116.654C50.5527 116.698 50.7151 115.894 49.8543 115.784C41.3871 115.784 32.9143 115.807 24.4471 115.789C23.4567 115.789 22.8255 116.662 24.9591 116.674C25.0399 116.674 49.5911 116.738 50.1943 116.654ZM30.9439 124.27V124.29H39.4879C39.9231 124.166 40.0375 124.074 40.0183 123.591C39.9877 123.421 39.8926 123.269 39.7527 123.168C39.6129 123.066 39.4392 123.023 39.2679 123.046C37.6791 123.065 26.4039 123.118 22.3519 123.126C21.9255 123.126 21.5383 123.222 21.5479 123.72C21.5591 124.262 22.0895 124.275 22.6295 124.274C25.3991 124.273 28.1706 124.272 30.9439 124.27ZM42.7039 120.582C42.8215 120.555 42.9302 120.498 43.0197 120.416C43.1092 120.335 43.1767 120.233 43.2159 120.118C43.2295 120.053 43.2302 119.986 43.2178 119.921C43.2055 119.856 43.1804 119.794 43.144 119.738C43.1076 119.682 43.0606 119.635 43.0056 119.597C42.9507 119.56 42.889 119.534 42.8239 119.52C42.4983 119.426 42.9543 119.47 30.7063 119.478C30.5374 119.479 30.369 119.498 30.2039 119.534C30.0802 119.556 29.9685 119.622 29.8894 119.72C29.8102 119.817 29.7689 119.94 29.773 120.066C29.7771 120.191 29.8263 120.311 29.9116 120.404C29.9969 120.496 30.1127 120.554 30.2375 120.568C30.6007 120.624 42.2167 120.631 42.7071 120.582H42.7039ZM48.1143 124.28C48.5551 124.28 48.9615 124.2 48.9711 123.668C48.9807 123.136 48.5311 123.074 48.1527 123.07C46.0911 123.047 44.0247 123.053 41.9623 123.055C41.5751 123.055 41.2775 123.215 41.3167 123.663C41.3149 123.754 41.333 123.845 41.3699 123.928C41.4068 124.011 41.4615 124.085 41.5302 124.145C41.5989 124.205 41.6799 124.249 41.7674 124.274C41.8549 124.299 41.9469 124.304 42.0367 124.29C42.2807 124.286 48.0375 124.28 48.1175 124.28H48.1143ZM17.7143 127.629C16.9391 127.658 17.3143 128.552 17.7047 128.495C18.1687 128.575 22.4887 128.606 24.1679 128.629C24.5271 128.634 24.7951 128.462 24.7135 128.165C24.5943 127.734 24.4071 127.572 23.8999 127.595C23.1407 127.567 18.9167 127.471 17.7159 127.629H17.7143Z"
        fill="#0B7DFF" />
    <path
        d="M156 91.2184C155.947 95.4767 154.993 99.6756 153.2 103.538C152.218 105.802 150.968 107.939 149.478 109.906C148.274 111.538 146.891 113.03 145.355 114.354C145.063 114.594 144.981 114.785 145.22 115.149C146.492 117.139 147.299 119.391 147.579 121.736C147.884 123.896 146.82 131.518 146.498 133.203C146.457 133.395 146.344 133.563 146.182 133.672C146.102 133.715 145.848 133.547 145.752 133.414C144.728 132 139.505 124.736 137.925 122.511C137.711 122.209 137.464 122.226 137.265 122.431C137.217 122.513 137.19 122.605 137.187 122.699C137.184 122.794 137.204 122.887 137.246 122.972C138.131 124.26 146.475 136.582 148.153 139.06C148.603 139.725 148.584 139.951 148 140.529C146.28 142.23 140.739 145.505 140.006 145.873C139.566 146.093 139.311 145.816 139.092 145.49C138.132 144.05 129.872 131.705 126.812 126.904C126.577 126.43 126.229 126.022 125.798 125.715C125.367 125.408 124.868 125.212 124.344 125.144C123.633 124.946 122.96 124.631 122.353 124.211C122.229 124.144 122.181 123.938 122.095 123.794C122.275 123.713 122.467 123.663 122.664 123.646C123.319 123.712 123.969 123.814 124.612 123.953C126.389 124.313 128.223 124.295 129.993 123.9C131.112 123.713 132.218 123.454 133.304 123.125C135.142 122.595 136.754 121.473 137.892 119.934C138.731 118.717 139.676 117.576 140.714 116.523C143.057 114.885 145.182 112.956 147.039 110.782C149.727 107.477 150.879 106.166 152.703 101.325C154.64 96.1792 154.853 92.7176 154.501 89.8576C153.921 85.1336 153.788 84.5888 151.172 78.864C150.772 77.9936 150.212 77.1992 149.876 76.304C149.728 75.9112 150.163 75.452 150.636 75.5432C150.885 75.5912 151.339 76.2632 151.396 76.3712C153.236 79.7216 154.985 83.1192 155.631 86.9384C155.865 88.348 155.881 89.7928 156 91.2184Z"
        fill="#272833" />
    <path
        d="M109.271 83.2944C109.922 83.0832 110.3 83.432 110.639 83.9256C113.85 88.6064 125.898 106.34 128.777 110.481C128.847 110.554 128.934 110.609 129.03 110.64C129.126 110.672 129.228 110.68 129.328 110.663C131.19 109.921 132.714 108.52 133.609 106.726C134.969 104.319 136.268 101.87 136.671 99.1144C137.327 94.6216 136.331 92.3944 134.203 90.1592C134.008 90.0045 133.872 89.787 133.819 89.5437C133.765 89.3004 133.798 89.0461 133.911 88.824C134.258 88.7675 134.614 88.8075 134.94 88.9395C135.266 89.0716 135.55 89.2906 135.76 89.5728C137.084 91.1148 137.878 93.042 138.023 95.0696C138.37 98.2019 137.786 101.367 136.343 104.169C135.336 106.282 134.376 108.416 132.563 110.005C131.629 110.898 130.493 111.553 129.252 111.914C128.99 112.01 128.763 112.183 128.602 112.411C127.76 113.497 126.569 114.258 125.229 114.564C124.107 114.89 122.948 115.07 121.78 115.1C120.797 115.092 118.874 115.626 118.284 114.14C118.196 113.979 118.088 113.83 117.963 113.695C117.868 113.472 117.759 113.255 117.638 113.045C114.812 108.794 104.657 93.644 102.454 90.2872C101.647 89.0576 101.714 88.8056 102.621 87.9C103.144 87.376 101.457 88.6232 109.271 83.2944Z"
        fill="#272833" />
    <path
        d="M110.08 111.895C110.25 112.138 110.448 112.361 110.669 112.56C112.575 114.068 114.913 114.929 117.342 115.019C117.546 115.001 117.749 115.062 117.91 115.189C118.071 115.316 118.178 115.5 118.208 115.703C118.345 116.169 118.625 116.581 119.008 116.879C119.246 117.001 119.433 117.204 119.536 117.451C119.638 117.698 119.65 117.974 119.568 118.229C119.293 119.406 119.98 120.319 120.654 121.209C120.813 121.421 120.896 121.681 120.889 121.946C120.473 126.019 124.735 125.329 125.476 126.572C126.811 128.812 128.11 131.067 129.423 133.317C129.576 133.58 129.571 133.671 129.236 133.671C118.162 133.663 118.847 133.713 118.616 133.537C116.684 132.068 115.571 131.07 114.784 130.566C114.786 130.705 114.809 130.841 114.851 130.973C115.396 132.068 116.232 132.991 117.267 133.642C116.527 133.686 118.011 133.652 105.834 133.676C105.422 133.676 105.241 133.628 105.346 133.154C106.431 128.23 108.706 116.564 109.924 111.875C109.974 111.892 110.027 111.898 110.08 111.895Z"
        fill="#272833" />
    <path
        d="M99.8176 94.62C101.511 94.6344 102.577 95.0936 102.574 97.4136C102.558 107.723 102.559 118.034 102.578 128.346C102.635 128.896 102.532 129.45 102.281 129.942C102.031 130.434 101.644 130.844 101.166 131.122C100.933 131.242 100.674 131.305 100.411 131.303C86.456 131.303 56.1072 131.274 54.8912 131.289C53.4128 131.307 52.5384 130.418 52.5232 128.791C52.496 125.85 52.5496 104.93 52.5664 97.4136C52.5381 97.0141 52.5572 96.6127 52.6232 96.2176C52.7256 95.7742 52.9754 95.3786 53.3316 95.0954C53.6879 94.8122 54.1297 94.6581 54.5848 94.6584C55.4088 94.6128 99.76 94.6192 99.8176 94.62ZM54.0216 100.045C53.5952 100.045 53.4712 100.141 53.4808 100.576C53.5144 102.107 53.4944 103.638 53.5 105.169C53.5264 113.182 53.58 121.199 53.6096 129.213C53.629 129.376 53.6846 129.532 53.7724 129.67C53.8602 129.809 53.9778 129.926 54.1168 130.013C55.0208 130.493 56.1496 130.248 58.4704 130.247C72.3371 130.247 86.1992 130.249 100.057 130.252C100.334 130.28 100.612 130.209 100.842 130.052C101.071 129.894 101.237 129.66 101.31 129.391C101.635 128.407 101.516 130.742 101.54 100.783C101.54 100.252 101.401 100.13 100.885 100.133C93.1008 100.174 61.8576 100.052 54.0216 100.045ZM100.902 98.8824C101.016 98.8824 101.753 98.7464 101.462 96.8496C101.318 95.8984 100.888 95.8592 99.9264 95.7728C99.6968 95.7968 69.644 95.7392 54.8424 95.7296C54.6891 95.7094 54.5333 95.7218 54.3852 95.7662C54.2371 95.8105 54.1001 95.8857 53.9832 95.9868C53.8663 96.088 53.7721 96.2127 53.7069 96.3529C53.6416 96.493 53.6068 96.6454 53.6048 96.8C53.5288 97.3456 53.576 98.9528 53.9832 98.9528C61.824 98.9424 93.1008 98.88 100.904 98.88L100.902 98.8824Z"
        fill="#272833" />
    <path
        d="M109.92 111.885C109.44 111.13 105.434 104.9 103.92 102.547C103.303 101.587 103.607 101.422 103.145 94.9312C103.074 93.9312 102.696 93.644 101.71 93.62C99.7251 93.572 97.7443 93.4944 95.7587 93.448C95.3427 93.4384 95.2267 93.276 95.2275 92.8592C95.2371 89.4011 95.2435 85.9408 95.2467 82.4784C96.0939 82.1336 96.9547 81.8176 97.7827 81.4384C98.1555 81.2664 98.3219 81.3585 98.5027 81.6729C99.4971 83.3889 100.515 85.0872 101.512 86.7968C101.737 87.1841 101.956 87.5528 102.472 87.1648C102.596 87.3248 102.712 87.4848 102.837 87.6448C102.769 87.7351 102.695 87.8214 102.617 87.9032C101.696 88.7952 101.645 89.0616 102.45 90.2904C104.648 93.6504 114.806 108.794 117.634 113.048C117.756 113.258 117.865 113.475 117.96 113.698C115.325 113.856 112.702 113.253 110.4 111.962C110.245 111.913 110.083 111.887 109.92 111.885Z"
        fill="#0B7DFF" />
    <path
        d="M6.10093 104.145C5.56539 104.12 5.05772 103.899 4.6743 103.524C4.29087 103.149 4.05837 102.647 4.02093 102.112C3.98893 101.485 4.00653 100.849 4.00653 100.222C4.00653 64.7816 3.95613 66.5416 4.13533 65.8832C4.27926 65.3438 4.61012 64.8731 5.06889 64.555C5.52766 64.2369 6.08452 64.0921 6.64013 64.1464C7.10653 64.1344 36.0081 64.0728 36.3433 64.18C36.5833 64.256 36.5913 65.14 36.3673 65.22C36.1153 65.312 38.1113 65.2656 6.61133 65.2576C6.24383 65.2635 5.8903 65.3994 5.61349 65.6412C5.33669 65.883 5.15452 66.215 5.09933 66.5784C4.94573 68.54 5.94173 68.2432 6.37933 68.2432C37.2313 68.2576 36.6321 68.2064 36.6569 68.3576C36.698 68.6764 36.6964 68.9992 36.6521 69.3176C36.6393 69.4264 37.6481 69.4288 5.67133 69.3976C5.15453 69.3976 5.05133 69.5312 5.05373 70.024C5.10893 79.932 5.06093 89.844 5.05853 99.7512C5.05853 100.398 4.97853 101.048 4.98253 101.694C4.983 101.889 5.0226 102.083 5.099 102.263C5.1754 102.443 5.28706 102.606 5.42742 102.743C5.56777 102.879 5.73399 102.986 5.91628 103.057C6.09858 103.129 6.29328 103.163 6.48893 103.158C15.8369 103.129 44.9329 103.153 50.1329 103.153C50.6545 103.153 50.9545 102.827 50.9601 102.206C51.0249 95.668 50.8873 95.3048 51.0465 95.044C51.1425 94.884 51.8649 94.7856 51.9553 95.068C52.0068 95.1918 52.0234 95.3274 52.0033 95.46C52.0033 97.7568 52.0233 100.053 52.0129 102.345C52.0075 102.834 51.8097 103.301 51.4623 103.645C51.115 103.99 50.646 104.184 50.1569 104.185C42.9129 104.195 7.32093 104.202 6.10093 104.145Z"
        fill="#272833" />
    <path
        d="M12.3199 109.263C11.5495 109.263 9.66955 109.475 9.66955 108.783C9.61281 108.018 9.6064 107.249 9.65035 106.483C9.70235 106.105 9.98555 105.203 12.0503 105.211C23.3071 105.235 49.188 105.201 50.8671 105.211C52.1367 105.218 51.8271 105.341 51.9815 108.77C51.9975 109.109 51.9015 109.261 51.5367 109.234C51.3383 109.215 26.4895 109.253 12.3199 109.263ZM14.6735 107.704C15.1535 107.671 15.1055 107.35 15.0895 107.192C15.0858 107.085 15.041 106.984 14.9644 106.909C14.8877 106.835 14.7852 106.793 14.6783 106.792C14.5183 106.831 14.2935 106.872 14.2623 107.208C14.2399 107.484 14.3335 107.647 14.6735 107.704ZM13.0903 107.245C13.0844 107.142 13.0416 107.044 12.9698 106.969C12.8979 106.895 12.8018 106.849 12.6987 106.839C12.5957 106.829 12.4926 106.857 12.4081 106.917C12.3236 106.976 12.2634 107.064 12.2383 107.165C12.2383 107.572 12.4631 107.59 12.5879 107.6C12.7407 107.617 12.9847 107.637 13.0903 107.245ZM17.3143 107.197C17.1487 106.577 16.4911 106.693 16.4959 107.264C16.5125 107.357 16.5581 107.442 16.6261 107.507C16.694 107.573 16.781 107.615 16.8743 107.627C17.0895 107.627 17.2855 107.566 17.3143 107.2V107.197Z"
        fill="#0B7DFF" />
    <path
        d="M101.459 58.6112C101.352 58.9573 101.315 59.3211 101.349 59.6816C101.384 60.0422 101.489 60.3923 101.659 60.712C102.02 61.787 102.677 62.7385 103.554 63.4576C103.775 63.644 103.919 63.8024 103.794 64.1272C102.103 68.5016 99.5537 72.2456 95.5945 74.8768C95.4849 74.9496 95.3601 75.0008 95.2449 75.0632C95.2145 62.644 95.2505 63.264 95.1113 61.5584C95.0761 61.3794 95.1049 61.1937 95.1926 61.0337C95.2803 60.8738 95.4215 60.7497 95.5913 60.6832C96.7737 60.1632 97.9401 59.6024 99.1505 59.152C99.9075 58.9225 100.678 58.7418 101.459 58.6112Z"
        fill="#0B7DFF" />
    <path
        d="M9.99072 79.0249C9.99072 77.9529 10.3779 77.5585 11.4259 77.5561C13.7171 77.5505 16.0131 77.5561 18.3059 77.5561C19.3387 77.5561 19.7411 77.9561 19.7411 78.9673V90.8457C19.7411 91.8361 19.3291 92.2521 18.3627 92.2521H11.3683C10.4019 92.2521 9.99072 91.8361 9.99072 90.8457V79.0249ZM18.9507 79.0385C18.9555 78.5649 18.8355 78.3497 18.3107 78.3545C16.0174 78.3769 13.7241 78.3769 11.4307 78.3545C10.9619 78.3545 10.7907 78.4985 10.7907 78.9817C10.7977 82.923 10.7977 86.8633 10.7907 90.8025C10.7907 91.3097 10.9683 91.4625 11.4603 91.4577C13.7334 91.4374 16.0075 91.4374 18.2827 91.4577C18.7755 91.4625 18.9579 91.3097 18.9523 90.8025C18.9339 89.2209 18.9355 80.6097 18.9507 79.0401V79.0385Z"
        fill="#272833" />
    <path
        d="M25.5667 79.9241C25.4961 79.9385 25.4233 79.9377 25.353 79.9217C25.2828 79.9058 25.2168 79.8751 25.1593 79.8317C25.1019 79.7882 25.0544 79.733 25.0199 79.6698C24.9854 79.6066 24.9648 79.5367 24.9595 79.4649C24.9695 79.3482 25.0245 79.2399 25.1129 79.163C25.2013 79.0861 25.3161 79.0466 25.4331 79.0529C28.9635 79.0977 32.4939 79.0081 36.0243 79.0009C36.3259 79.0009 36.7035 78.9913 36.7035 79.4361C36.7035 79.9161 36.4739 79.9585 36.1011 79.9577C34.3067 79.9529 27.2803 79.9289 25.5667 79.9241Z"
        fill="#272833" />
    <path
        d="M22.5527 87.7312C22.2127 87.7072 22.0815 86.968 22.5623 86.8608C22.8895 86.7872 30.0967 86.8088 30.2263 86.8416C30.3287 86.8654 30.4199 86.9236 30.4846 87.0064C30.5494 87.0893 30.5838 87.1919 30.5821 87.297C30.5804 87.4021 30.5427 87.5035 30.4754 87.5843C30.408 87.665 30.315 87.7203 30.2119 87.7408C30.1319 87.7448 22.6527 87.7832 22.5527 87.7312Z"
        fill="#272833" />
    <path
        d="M129.009 116.698C128.894 116.866 128.768 117.026 128.631 117.178C127.492 118.235 125.985 118.804 124.431 118.762C121.546 118.857 121.575 118.798 120.312 118.122C120.193 118.058 120.147 117.729 120.178 117.538C120.246 117.117 120.57 117.356 120.738 117.418C122.42 117.986 124.23 118.053 125.948 117.61C126.758 117.37 127.549 117.072 128.316 116.72C128.513 116.657 128.712 116.603 128.914 116.56C128.943 116.608 128.975 116.654 129.009 116.698Z"
        fill="#272833" />
    <path
        d="M124.4 122.48C123.795 122.312 123.147 122.134 122.505 121.936C122.146 121.826 121.71 121.654 121.911 121.185C121.974 121.042 122.505 120.983 122.773 121.061C123.758 121.42 124.815 121.537 125.854 121.4C126.787 121.214 127.675 120.808 128.59 120.534C128.894 120.472 129.203 120.437 129.513 120.43C129.366 120.692 129.196 120.942 129.006 121.175C128.271 121.791 127.377 122.186 126.427 122.314C125.782 122.565 125.078 122.623 124.4 122.48Z"
        fill="#272833" />
    <path
        d="M32.1874 87.6689C31.8578 87.6689 31.5418 87.5929 31.5474 87.1889C31.553 86.7849 31.873 86.7169 32.1978 86.7153C33.5714 86.7105 34.9442 86.7153 36.317 86.6817C36.757 86.6721 36.6946 86.9305 36.6946 87.1985C36.6946 87.4665 36.7426 87.7257 36.3074 87.7057C35.6226 87.6705 32.8714 87.6801 32.1874 87.6689Z"
        fill="#272833" />
    <path
        d="M22.5193 79.876C22.3425 79.8648 22.0985 79.956 22.0601 79.4761C22.1081 79.1217 22.1889 79.0881 22.4601 79.0761C22.8311 79.0316 23.2065 79.0397 23.5753 79.1001C23.9433 79.1193 24.0009 79.8496 23.5513 79.8752C23.3945 79.88 22.7105 79.888 22.5193 79.876Z"
        fill="#272833" />
    <path
        d="M93.7655 54.0545C93.5175 54.0545 42.1903 54.0289 38.0239 53.9905C37.4783 53.9809 37.3591 54.1505 37.3639 54.6601C37.3823 55.8657 37.3447 91.0897 37.4207 93.0369C37.4543 93.8737 37.7463 94.0769 38.6023 94.0769C43.5159 94.0913 92.7903 94.1153 93.0199 94.1009C93.121 94.1088 93.2225 94.0941 93.3172 94.0579C93.4119 94.0217 93.4974 93.9649 93.5674 93.8917C93.6375 93.8184 93.6904 93.7305 93.7223 93.6342C93.7542 93.538 93.7643 93.4359 93.7519 93.3353C93.7599 92.8417 93.8503 55.2553 93.7655 54.0545ZM69.3151 60.3745C71.1855 60.3457 73.0567 60.3553 74.9271 60.3601C75.2615 60.3601 75.6063 60.4657 75.5487 60.8401C75.5247 61.0073 75.1487 61.2225 74.9223 61.2321C74.1343 61.2689 70.5223 61.2457 69.3631 61.2513C68.9951 61.2561 68.6599 61.1609 68.6839 60.7713C68.6935 60.6257 69.0903 60.3817 69.3151 60.3769V60.3745ZM63.1343 60.4465C64.4263 60.4033 65.8231 60.4985 67.1151 60.5081C68.1191 60.7233 67.6311 61.2449 66.9423 61.2281C66.3351 61.2137 63.1775 61.1809 63.0295 61.1617C62.6511 61.1137 62.2591 60.5441 63.1343 60.4489V60.4465ZM59.6039 60.3665C60.0159 60.3569 61.1351 60.4337 61.4263 60.3665C61.9527 60.3761 61.8719 61.2609 61.5175 61.2321C60.8545 61.2688 60.1899 61.2672 59.5271 61.2273C59.1639 61.2233 58.9823 60.3865 59.6039 60.3721V60.3665ZM42.1759 60.3673C43.3007 60.3241 44.4959 60.3529 45.5535 60.3529C45.6175 60.3425 45.6831 60.346 45.7456 60.3632C45.8082 60.3803 45.8663 60.4108 45.9161 60.4524C45.9658 60.494 46.006 60.5459 46.034 60.6045C46.0619 60.663 46.0769 60.7269 46.0779 60.7918C46.079 60.8566 46.0661 60.921 46.04 60.9804C46.014 61.0398 45.9755 61.0929 45.9271 61.1362C45.8787 61.1794 45.8216 61.2117 45.7596 61.2308C45.6976 61.25 45.6322 61.2556 45.5679 61.2473C44.9991 61.2185 42.7359 61.2905 42.1951 61.2233C42.1353 61.2309 42.0746 61.2258 42.0169 61.2084C41.9592 61.191 41.9058 61.1617 41.8602 61.1223C41.8145 61.083 41.7776 61.0345 41.7519 60.98C41.7262 60.9255 41.7122 60.8662 41.7109 60.8059C41.7095 60.7457 41.7208 60.6858 41.7441 60.6302C41.7673 60.5746 41.802 60.5245 41.8458 60.4832C41.8897 60.4418 41.9417 60.4102 41.9986 60.3902C42.0554 60.3702 42.1158 60.3624 42.1759 60.3673ZM45.5103 64.0321C45.1103 64.0505 43.0615 64.0417 42.3767 63.9937C41.8799 64.0505 41.8319 63.2137 42.3103 63.1937C43.4055 63.1457 44.5679 63.1553 45.6303 63.1841C46.1711 63.3145 45.9407 64.0457 45.5103 64.0321ZM41.6455 75.4321C41.5927 75.0105 41.9991 74.9585 42.3295 74.9521C42.7959 74.9417 46.1335 74.9465 46.2135 74.9473C46.5439 74.9521 46.8647 75.0329 46.8743 75.4209C46.8839 75.8089 46.5727 75.9137 46.2343 75.9137C44.9191 75.9137 43.6039 75.9329 42.2927 75.8849C42.0615 75.8769 41.6695 75.6137 41.6455 75.4321ZM42.6639 77.7041C43.7887 77.6657 44.913 77.6625 46.0367 77.6945C46.1334 77.6983 46.2249 77.7392 46.2921 77.8087C46.3594 77.8783 46.3973 77.9711 46.3979 78.0678C46.3985 78.1646 46.3618 78.2578 46.2955 78.3282C46.2291 78.3986 46.1381 78.4407 46.0415 78.4457C45.4767 78.4937 44.9031 78.4649 44.3287 78.4649V78.4505C43.7743 78.4505 43.2191 78.4841 42.6735 78.4361C42.2671 78.4745 42.1479 77.7233 42.6639 77.7041ZM46.6207 85.2481C46.1711 85.2481 43.5207 85.3105 42.8791 85.2385C42.2239 85.3185 42.3535 84.5113 42.8703 84.5257C44.0471 84.4785 45.2287 84.4641 46.4055 84.4881C47.0271 84.5353 46.9647 85.2481 46.6207 85.2481ZM48.1895 60.8169C48.1655 60.3289 48.7735 60.3625 49.1175 60.3529C50.6535 60.3433 56.1023 60.3289 57.4175 60.3529C57.8103 60.3601 58.0015 60.4681 58.1071 60.6881C58.1071 60.9889 57.9967 61.2905 57.7623 61.2481C55.7919 61.2937 50.7223 61.2545 49.2327 61.2337C48.8407 61.2281 48.2183 61.3337 48.1895 60.8169ZM48.6399 78.1297C48.6508 78.0491 48.682 77.9727 48.7306 77.9075C48.7791 77.8423 48.8434 77.7904 48.9175 77.7569C49.6569 77.6979 50.4002 77.7092 51.1375 77.7905C51.2231 77.8097 51.4671 77.9193 51.4719 78.1393C51.4767 78.3305 51.3335 78.5601 51.1279 78.5465C50.3893 78.5749 49.6497 78.5605 48.9127 78.5033C48.8376 78.4716 48.7726 78.4201 48.7246 78.3543C48.6765 78.2885 48.6473 78.2108 48.6399 78.1297ZM66.2295 75.8961C63.8583 75.9553 70.3727 75.9529 57.4703 75.9529V75.9393C54.7914 75.9393 52.114 75.9393 49.4383 75.9393C48.8591 76.0993 48.0271 74.9969 49.8207 75.0113C53.2799 75.0401 56.6751 74.9129 60.0247 74.9593C64.6527 75.0225 65.7847 74.9593 66.2063 75.0497C66.7367 75.1641 66.6743 75.8769 66.2295 75.8961ZM73.0655 77.6801C73.4295 77.6801 73.9559 77.5609 73.9703 78.1057C73.9895 78.7089 73.4391 78.5857 73.0615 78.5857C71.1639 78.5857 52.7223 78.5929 52.6007 78.5529C52.2895 78.4473 52.2175 77.7201 52.6055 77.7057C53.1999 77.6801 48.5479 77.6801 73.0655 77.6801ZM58.5327 85.2481C57.1255 85.2481 50.9495 85.2433 49.2943 85.2153C48.8407 85.1529 48.6391 84.5513 49.2991 84.5545C52.3711 84.5705 55.4807 84.6169 58.5519 84.5785C58.9247 84.5737 59.3263 84.5209 59.3215 84.8945C59.3215 85.3057 58.7999 85.2433 58.5327 85.2481ZM69.7367 85.2433C68.2439 85.2385 62.3591 85.2529 60.9007 85.2481C60.6039 85.2481 60.2351 85.3105 60.2495 84.8321C60.2639 84.4065 60.5607 84.3297 60.9295 84.3297C63.8756 84.3393 66.8191 84.3409 69.7599 84.3345C70.1479 84.3345 70.3439 84.4641 70.3439 84.8465C70.3439 85.2801 70.0279 85.2433 69.7367 85.2433ZM80.4239 85.2153C80.3439 85.2609 80.8759 85.2385 71.9991 85.2385C71.8856 85.2414 71.772 85.2366 71.6591 85.2241C70.9895 85.1145 71.3151 84.3289 71.4991 84.3297C72.6807 84.3361 78.6607 84.3441 79.9999 84.3441C80.9831 84.3297 80.6007 85.1097 80.4239 85.2153ZM85.2319 64.0001C85.0719 64.0713 49.1655 64.0521 48.7159 63.9953C48.5391 63.9713 48.4759 63.8705 48.4143 63.6121C48.4179 63.5206 48.4519 63.4329 48.5108 63.3628C48.5698 63.2927 48.6504 63.2442 48.7399 63.2249C48.9455 63.1529 85.1599 63.1961 85.2551 63.2201C86.0111 63.4145 85.6239 64.0457 85.2319 64.0001Z"
        fill="#0B7DFF" />
    <path
        d="M98.8001 40.9777C99.1417 39.8113 99.9729 37.3425 100.025 37.2977C100.185 37.1641 100.768 37.3457 100.733 37.5177C100.438 38.9689 99.5817 41.9233 99.3841 43.5833C99.2633 44.5977 100.792 44.9617 100.791 45.0233C100.759 46.2881 99.1993 45.8481 98.6761 45.0377C97.9713 44.3201 98.5369 41.8729 98.8001 40.9777Z"
        fill="#272833" />
    <path
        d="M99.76 47.8808C99.6168 47.8008 99.4664 47.1 99.9944 47.1608C100.433 47.2667 100.88 47.3389 101.33 47.3768C102.296 47.3384 103.003 45.6296 103.066 45.5632C103.256 45.3616 103.466 45.0768 103.698 45.0464C104.09 44.996 104.232 45.3432 104.248 45.6976C104.298 46.8552 103.54 47.6024 102.664 48.2328C101.902 48.784 100.274 48.1752 99.76 47.8808Z"
        fill="#272833" />
    <path
        d="M98.4306 35.2609C98.5679 35.2644 98.7002 35.3135 98.8066 35.4004C98.913 35.4872 98.9876 35.607 99.0186 35.7409C99.1346 36.0905 98.8586 36.3345 98.5266 36.3585C98.0847 36.4258 97.6615 36.5838 97.2836 36.8226C96.9057 37.0613 96.5812 37.3756 96.3306 37.7457C96.0482 38.1097 95.7562 37.5977 95.7898 37.4057C95.9407 36.8117 96.2791 36.2822 96.7548 35.8958C97.2306 35.5094 97.8182 35.2867 98.4306 35.2609Z"
        fill="#272833" />
    <path
        d="M98.4401 40.1745C98.4513 41.8161 96.5689 41.6569 96.5553 40.2465C96.5473 39.4185 96.8993 38.8657 97.4401 38.8585C97.9809 38.8513 98.4353 39.4569 98.4401 40.1745Z"
        fill="#272833" />
    <path
        d="M79.0551 114.827C79.0053 117.03 78.3062 119.169 77.0455 120.976C75.7848 122.783 74.0186 124.177 71.9684 124.984C69.9183 125.791 67.6755 125.975 65.5213 125.512C63.3672 125.049 61.3977 123.961 59.8598 122.383C58.3219 120.805 57.2841 118.809 56.8766 116.643C56.4691 114.478 56.71 112.241 57.5692 110.212C58.4284 108.183 59.8675 106.453 61.706 105.239C63.5446 104.025 65.7007 103.381 67.9039 103.387C70.8987 103.429 73.7547 104.657 75.8452 106.801C77.9358 108.946 79.0902 111.832 79.0551 114.827ZM78.2551 114.347C78.1801 112.032 77.3356 109.808 75.8551 108.027C75.6207 107.734 75.4951 107.707 75.2231 107.998C70.677 112.905 66.1421 117.823 61.6183 122.752C61.4071 122.981 61.3631 123.102 61.6471 123.312C68.5167 128.498 78.3303 123.642 78.2519 114.344L78.2551 114.347ZM57.4927 115.307C57.5858 117.926 58.6578 120.415 60.4967 122.282C60.7471 122.549 60.8967 122.637 61.1903 122.302C63.1015 120.142 65.0399 118.003 66.9455 115.838C67.04 115.729 67.1119 115.602 67.1571 115.465C67.2023 115.327 67.2198 115.183 67.2087 115.038C66.5687 111.726 65.9229 108.414 65.2711 105.102C65.1863 104.667 65.0559 104.576 64.6015 104.73C60.3775 106.154 57.4399 110.25 57.4895 115.306L57.4927 115.307ZM67.9119 114.57C68.0463 114.546 68.0719 114.546 68.0799 114.537C70.2511 112.057 72.4295 109.572 74.5855 107.07C74.6094 107.005 74.6162 106.935 74.6053 106.867C74.5943 106.799 74.5661 106.736 74.5231 106.682C73.3888 105.698 72.0504 104.977 70.6043 104.573C69.1581 104.168 67.6403 104.089 66.1599 104.341C66.0924 104.375 66.0349 104.426 65.9928 104.489C65.9508 104.552 65.9257 104.625 65.9199 104.7C66.6151 107.972 67.2391 111.263 67.9087 114.569L67.9119 114.57Z"
        fill="#272833" />
    <path
        d="M96.0336 107.111C96.3784 107.129 96.7328 107.178 96.7128 107.622C96.6944 108.022 96.3496 108.067 96.0288 108.067C95.708 108.067 83.0584 108.094 82.7296 108.044C82.3664 107.988 82.3672 107.225 82.7296 107.139C83.08 107.057 95.9376 107.106 96.0336 107.111Z"
        fill="#272833" />
    <path
        d="M86.4656 121.223C86.3749 121.194 86.2956 121.136 86.2387 121.06C86.1818 120.983 86.1502 120.89 86.1481 120.795C86.146 120.699 86.1735 120.606 86.227 120.526C86.2804 120.447 86.3571 120.387 86.4464 120.353C86.7752 120.222 97.44 120.273 97.5504 120.348C97.6359 120.382 97.7095 120.44 97.762 120.516C97.8145 120.591 97.8436 120.68 97.8457 120.772C97.8477 120.864 97.8226 120.954 97.7735 121.032C97.7244 121.11 97.6535 121.171 97.5696 121.209C97.3736 121.244 86.5856 121.266 86.4656 121.223Z"
        fill="#272833" />
    <path
        d="M89.3458 110.154C89.705 110.154 90.0858 110.187 90.073 110.666C90.0618 111.106 89.6906 111.138 89.3602 111.139C87.2653 111.139 85.1685 111.139 83.0698 111.139C82.7346 111.139 82.3682 111.096 82.3706 110.651C82.3706 110.171 82.7586 110.154 83.117 110.154H89.3458Z"
        fill="#272833" />
    <path
        d="M82.88 121.175C82.3872 121.138 82.2488 120.535 82.6888 120.386C83.1432 120.358 84.2888 120.295 85.0088 120.329C85.4448 120.43 85.4344 121.137 85.2432 121.18C84.4574 121.26 83.6655 121.258 82.88 121.175Z"
        fill="#272833" />
    <path
        d="M91.8025 48.5009C90.0849 48.4865 54.0641 48.5129 39.1193 48.5009C38.9048 48.4855 38.6894 48.514 38.4862 48.5845C38.283 48.655 38.0963 48.7662 37.9374 48.9111C37.7786 49.0561 37.6509 49.2318 37.562 49.4277C37.4732 49.6236 37.4252 49.8355 37.4209 50.0505C37.3689 50.8881 37.3785 51.7305 37.3977 52.5721C37.4207 52.6546 37.4643 52.73 37.5245 52.791C37.5847 52.852 37.6594 52.8967 37.7417 52.9209C40.1913 52.9209 77.5321 52.8609 93.7593 52.8561C93.7777 49.6153 94.0913 48.5153 91.8025 48.5009ZM40.3921 51.1153C40.3041 51.1153 40.2181 51.0892 40.145 51.0403C40.0718 50.9914 40.0148 50.922 39.9811 50.8407C39.9475 50.7594 39.9387 50.67 39.9558 50.5837C39.973 50.4974 40.0153 50.4182 40.0776 50.356C40.1398 50.2938 40.219 50.2514 40.3053 50.2342C40.3916 50.2171 40.481 50.2259 40.5623 50.2595C40.6436 50.2932 40.713 50.3502 40.7619 50.4234C40.8108 50.4965 40.8369 50.5825 40.8369 50.6705C40.8369 50.7885 40.79 50.9016 40.7066 50.985C40.6232 51.0684 40.51 51.1153 40.3921 51.1153ZM42.5881 51.2153C42.5001 51.2153 42.4141 51.1892 42.341 51.1403C42.2678 51.0914 42.2108 51.022 42.1771 50.9407C42.1435 50.8594 42.1347 50.77 42.1518 50.6837C42.169 50.5974 42.2113 50.5182 42.2736 50.456C42.3358 50.3938 42.415 50.3514 42.5013 50.3342C42.5876 50.3171 42.677 50.3259 42.7583 50.3595C42.8396 50.3932 42.909 50.4502 42.9579 50.5234C43.0068 50.5965 43.0329 50.6825 43.0329 50.7705C43.0329 50.8885 42.986 51.0016 42.9026 51.085C42.8192 51.1684 42.706 51.2153 42.5881 51.2153ZM44.4393 51.2153C44.3513 51.2153 44.2653 51.1892 44.1922 51.1403C44.119 51.0914 44.062 51.022 44.0283 50.9407C43.9947 50.8594 43.9859 50.77 44.003 50.6837C44.0202 50.5974 44.0625 50.5182 44.1248 50.456C44.187 50.3938 44.2662 50.3514 44.3525 50.3342C44.4388 50.3171 44.5282 50.3259 44.6095 50.3595C44.6908 50.3932 44.7602 50.4502 44.8091 50.5234C44.858 50.5965 44.8841 50.6825 44.8841 50.7705C44.8841 50.8885 44.8372 51.0016 44.7538 51.085C44.6704 51.1684 44.5572 51.2153 44.4393 51.2153Z"
        fill="#0B7DFF" />
    <path
        d="M55.8247 97.3472C55.8247 97.5362 55.8998 97.7176 56.0335 97.8512C56.1672 97.9849 56.3485 98.06 56.5375 98.06C56.7266 98.06 56.9079 97.9849 57.0415 97.8512C57.1752 97.7176 57.2503 97.5362 57.2503 97.3472C57.2503 97.1582 57.1752 96.9769 57.0415 96.8432C56.9079 96.7095 56.7266 96.6344 56.5375 96.6344C56.3485 96.6344 56.1672 96.7095 56.0335 96.8432C55.8998 96.9769 55.8247 97.1582 55.8247 97.3472Z"
        fill="#272833" />
    <path
        d="M58.5039 97.3424C58.5039 97.5315 58.579 97.7128 58.7127 97.8465C58.8464 97.9801 59.0277 98.0552 59.2167 98.0552C59.4058 98.0552 59.5871 97.9801 59.7207 97.8465C59.8544 97.7128 59.9295 97.5315 59.9295 97.3424C59.9295 97.1534 59.8544 96.9721 59.7207 96.8384C59.5871 96.7047 59.4058 96.6296 59.2167 96.6296C59.0277 96.6296 58.8464 96.7047 58.7127 96.8384C58.579 96.9721 58.5039 97.1534 58.5039 97.3424Z"
        fill="#272833" />
    <path
        d="M61.1592 97.3472C61.1592 97.5362 61.2343 97.7176 61.368 97.8512C61.5016 97.9849 61.6829 98.06 61.872 98.06C62.061 98.06 62.2423 97.9849 62.376 97.8512C62.5097 97.7176 62.5848 97.5362 62.5848 97.3472C62.5848 97.1582 62.5097 96.9769 62.376 96.8432C62.2423 96.7095 62.061 96.6344 61.872 96.6344C61.6829 96.6344 61.5016 96.7095 61.368 96.8432C61.2343 96.9769 61.1592 97.1582 61.1592 97.3472Z"
        fill="#272833" />
    <path
        d="M7.29199 66.792C7.29199 66.9811 7.36709 67.1624 7.50077 67.2961C7.63444 67.4297 7.81575 67.5048 8.00479 67.5048C8.19384 67.5048 8.37514 67.4297 8.50882 67.2961C8.64249 67.1624 8.71759 66.9811 8.71759 66.792C8.71759 66.603 8.64249 66.4217 8.50882 66.288C8.37514 66.1543 8.19384 66.0792 8.00479 66.0792C7.81575 66.0792 7.63444 66.1543 7.50077 66.288C7.36709 66.4217 7.29199 66.603 7.29199 66.792Z"
        fill="#272833" />
    <path
        d="M10 66.792C10 66.9811 10.0751 67.1624 10.2088 67.2961C10.3425 67.4297 10.5238 67.5048 10.7128 67.5048C10.9018 67.5048 11.0832 67.4297 11.2168 67.2961C11.3505 67.1624 11.4256 66.9811 11.4256 66.792C11.4256 66.603 11.3505 66.4217 11.2168 66.288C11.0832 66.1543 10.9018 66.0792 10.7128 66.0792C10.5238 66.0792 10.3425 66.1543 10.2088 66.288C10.0751 66.4217 10 66.603 10 66.792Z"
        fill="#272833" />
    <path
        d="M12.7075 66.792C12.7075 66.9811 12.7826 67.1624 12.9163 67.2961C13.05 67.4297 13.2313 67.5048 13.4203 67.5048C13.6094 67.5048 13.7907 67.4297 13.9243 67.2961C14.058 67.1624 14.1331 66.9811 14.1331 66.792C14.1331 66.603 14.058 66.4217 13.9243 66.288C13.7907 66.1543 13.6094 66.0792 13.4203 66.0792C13.2313 66.0792 13.05 66.1543 12.9163 66.288C12.7826 66.4217 12.7075 66.603 12.7075 66.792Z"
        fill="#272833" />
</svg>